<svg xmlns="http://www.w3.org/2000/svg" xmlns:xlink="http://www.w3.org/1999/xlink" width="40" height="27.988" viewBox="0 0 40 27.988">
  <defs>
    <clipPath id="clip-path">
      <rect id="Retângulo_33" data-name="Retângulo 33" width="40" height="27.988" transform="translate(0 0)" fill="var(--color-tomato-50)"/>
    </clipPath>
  </defs>
  <g id="Grupo_173175" data-name="Grupo 173175" transform="translate(0 0)">
    <g id="Grupo_173175-2" data-name="Grupo 173175" clip-path="url(#clip-path)">
      <path id="Caminho_208" data-name="Caminho 208" d="M8.769,27.988a8.436,8.436,0,0,1-6.208-2.572A8.512,8.512,0,0,1,0,19.18a8.509,8.509,0,0,1,2.494-6.105A8.238,8.238,0,0,1,8.35,10.384a11.439,11.439,0,0,1,3.873-7.425A11.429,11.429,0,0,1,20.061,0a11.042,11.042,0,0,1,8.288,3.492,11.728,11.728,0,0,1,3.358,8.434v2.585h1.231a6.544,6.544,0,0,1,5,1.806A6.47,6.47,0,0,1,40,21.23a6.575,6.575,0,0,1-1.943,4.777,6.38,6.38,0,0,1-4.738,1.981H22a2.76,2.76,0,0,1-2.77-2.769V12.4l-4.65,4.688-1.111-1.073L20,9.48l6.531,6.531-1.112,1.073L20.769,12.4V25.219A1.325,1.325,0,0,0,22,26.45H33.242a5.212,5.212,0,0,0,5.219-5.207,5.2,5.2,0,0,0-5.233-5.193H30.169V11.926A10.16,10.16,0,0,0,27.2,4.6a9.7,9.7,0,0,0-7.245-3.065A9.78,9.78,0,0,0,12.688,4.6,10.114,10.114,0,0,0,9.7,11.926H8.63a6.8,6.8,0,0,0-4.98,2.118,7.056,7.056,0,0,0-2.112,5.182A6.969,6.969,0,0,0,3.656,24.32a6.945,6.945,0,0,0,5.113,2.13h5.923v1.538Z" fill="var(--color-tomato-50)"/>
    </g>
  </g>
</svg>
