<svg xmlns="http://www.w3.org/2000/svg" xmlns:xlink="http://www.w3.org/1999/xlink" width="48.83" height="48.83" viewBox="0 0 48.83 48.83">
  <defs>
    <clipPath id="clip-path">
      <rect id="Ret창ngulo_161568" data-name="Ret창ngulo 161568" width="24.61" height="20" transform="translate(0 0)" fill="#fff"/>
    </clipPath>
  </defs>
  <g id="Grupo_176602" data-name="Grupo 176602" transform="translate(-5615.376 -1198.585)">
    <rect id="Ret창ngulo_161571" data-name="Ret창ngulo 161571" width="48" height="48" transform="matrix(1, 0.017, -0.017, 1, 5616.214, 1198.585)" fill="#ef622f"/>
    <g id="Grupo_176592" data-name="Grupo 176592" transform="translate(5626.707 1211)">
      <g id="Grupo_176587" data-name="Grupo 176587" transform="translate(0 1)" clip-path="url(#clip-path)">
        <path id="Caminho_117171" data-name="Caminho 117171" d="M24.61,2.368a10.12,10.12,0,0,1-2.9.794A5.064,5.064,0,0,0,23.93.369a10.076,10.076,0,0,1-3.206,1.225A5.051,5.051,0,0,0,11.99,5.049,5.142,5.142,0,0,0,12.12,6.2,14.336,14.336,0,0,1,1.713.924,5.056,5.056,0,0,0,3.276,7.665,5.039,5.039,0,0,1,.989,7.034c0,.02,0,.042,0,.062a5.053,5.053,0,0,0,4.051,4.952,5.1,5.1,0,0,1-1.33.176,5.033,5.033,0,0,1-.951-.089A5.053,5.053,0,0,0,7.475,15.64,10.135,10.135,0,0,1,1.2,17.8,10.192,10.192,0,0,1,0,17.731,14.283,14.283,0,0,0,7.739,20,14.267,14.267,0,0,0,22.105,5.635c0-.219-.005-.437-.015-.654a10.268,10.268,0,0,0,2.52-2.613" transform="translate(0 0)" fill="#fff"/>
      </g>
    </g>
  </g>
</svg>
