<svg xmlns="http://www.w3.org/2000/svg" xmlns:xlink="http://www.w3.org/1999/xlink" width="48.83" height="48.83" viewBox="0 0 48.83 48.83">
  <defs>
    <clipPath id="clip-path">
      <rect id="Ret창ngulo_161652" data-name="Ret창ngulo 161652" width="25.29" height="29" fill="none"/>
    </clipPath>
  </defs>
  <g id="Grupo_176601" data-name="Grupo 176601" transform="translate(-5675.584 -1198.683)">
    <rect id="Ret창ngulo_161572" data-name="Ret창ngulo 161572" width="48" height="48" transform="matrix(1, 0.017, -0.017, 1, 5676.422, 1198.683)" fill="#78c926"/>
    <g id="Grupo_176818" data-name="Grupo 176818" transform="translate(5687.584 1208.683)">
      <g id="Grupo_176818-2" data-name="Grupo 176818" clip-path="url(#clip-path)">
        <path id="Caminho_117553" data-name="Caminho 117553" d="M21.513,5.813a6.95,6.95,0,0,1-3.041-4.548A6.97,6.97,0,0,1,18.354,0H13.368L13.36,19.981a4.189,4.189,0,1,1-4.183-4.349,4.138,4.138,0,0,1,1.237.193v-5.09a9.174,9.174,0,1,0,7.941,9.088V9.691a11.86,11.86,0,0,0,6.937,2.23V6.936a6.9,6.9,0,0,1-3.777-1.123" fill="#fff"/>
      </g>
    </g>
  </g>
</svg>
