<svg xmlns="http://www.w3.org/2000/svg" xmlns:xlink="http://www.w3.org/1999/xlink" width="48.83" height="48.83" viewBox="0 0 48.83 48.83">
  <defs>
    <clipPath id="clip-path">
      <rect id="Ret창ngulo_161574" data-name="Ret창ngulo 161574" width="26.21" height="26.21" fill="#fefefe"/>
    </clipPath>
  </defs>
  <g id="Grupo_176603" data-name="Grupo 176603" transform="translate(-5555.376 -1198.585)">
    <rect id="Ret창ngulo_161570" data-name="Ret창ngulo 161570" width="48" height="48" transform="matrix(1, 0.017, -0.017, 1, 5556.214, 1198.585)" fill="#ef622f"/>
    <g id="Grupo_176594" data-name="Grupo 176594" transform="translate(5566.688 1209)">
      <g id="Grupo_176593" data-name="Grupo 176593" clip-path="url(#clip-path)">
        <path id="Caminho_117173" data-name="Caminho 117173" d="M13.1,2.361c3.5,0,3.914.013,5.3.076a7.251,7.251,0,0,1,2.434.451,4.061,4.061,0,0,1,1.507.98,4.061,4.061,0,0,1,.98,1.507,7.251,7.251,0,0,1,.451,2.433c.063,1.382.076,1.8.076,5.3s-.013,3.914-.076,5.3a7.251,7.251,0,0,1-.451,2.433,4.34,4.34,0,0,1-2.487,2.487,7.251,7.251,0,0,1-2.434.451c-1.382.063-1.8.076-5.3.076s-3.914-.013-5.3-.076a7.251,7.251,0,0,1-2.434-.451,4.061,4.061,0,0,1-1.507-.98,4.061,4.061,0,0,1-.98-1.507A7.253,7.253,0,0,1,2.437,18.4c-.063-1.382-.076-1.8-.076-5.3s.013-3.914.076-5.3a7.253,7.253,0,0,1,.451-2.433,4.061,4.061,0,0,1,.98-1.507,4.061,4.061,0,0,1,1.507-.98,7.251,7.251,0,0,1,2.433-.451c1.382-.063,1.8-.076,5.3-.076M13.1,0C9.545,0,9.1.015,7.7.079A9.62,9.62,0,0,0,4.52.688,6.424,6.424,0,0,0,2.2,2.2,6.424,6.424,0,0,0,.687,4.521,9.619,9.619,0,0,0,.078,7.7C.014,9.1,0,9.546,0,13.105s.015,4.005.079,5.4a9.619,9.619,0,0,0,.609,3.181A6.424,6.424,0,0,0,2.2,24.011,6.424,6.424,0,0,0,4.52,25.522a9.62,9.62,0,0,0,3.181.609c1.4.064,1.844.079,5.4.079s4.005-.015,5.4-.079a9.619,9.619,0,0,0,3.181-.609,6.7,6.7,0,0,0,3.833-3.833,9.619,9.619,0,0,0,.609-3.181c.064-1.4.079-1.844.079-5.4S26.194,9.1,26.13,7.7a9.619,9.619,0,0,0-.609-3.181A6.425,6.425,0,0,0,24.01,2.2,6.424,6.424,0,0,0,21.688.688,9.619,9.619,0,0,0,18.507.079C17.11.015,16.663,0,13.1,0" transform="translate(0.001 0)" fill="#fefefe"/>
        <path id="Caminho_117174" data-name="Caminho 117174" d="M129.285,122.556a6.73,6.73,0,1,0,6.73,6.73,6.73,6.73,0,0,0-6.73-6.73m0,11.1a4.368,4.368,0,1,1,4.368-4.368,4.368,4.368,0,0,1-4.368,4.368" transform="translate(-116.18 -116.181)" fill="#fefefe"/>
        <path id="Caminho_117175" data-name="Caminho 117175" d="M359.311,88.788a1.573,1.573,0,1,1-1.573-1.573,1.573,1.573,0,0,1,1.573,1.573" transform="translate(-337.638 -82.678)" fill="#fefefe"/>
      </g>
    </g>
  </g>
</svg>
