<svg id="Grupo_176728" data-name="Grupo 176728" xmlns="http://www.w3.org/2000/svg" xmlns:xlink="http://www.w3.org/1999/xlink" width="1440" height="900" viewBox="0 0 1440 900">
  <defs>
    <clipPath id="clip-path">
      <rect id="Retângulo_161621" data-name="Retângulo 161621" width="1440" height="900" fill="#fff"/>
    </clipPath>
    <clipPath id="clip-path-2">
      <rect id="Retângulo_161620" data-name="Retângulo 161620" width="1554.904" height="933" fill="#ef622f"/>
    </clipPath>
    <clipPath id="clip-path-3">
      <rect id="Retângulo_161555" data-name="Retângulo 161555" width="1440" height="900" transform="translate(1640 2685)" fill="#fff" stroke="#707070" stroke-width="1"/>
    </clipPath>
  </defs>
  <rect id="Retângulo_161622" data-name="Retângulo 161622" width="1440" height="900" fill="#01062e"/>
  <g id="Grupo_de_máscara_20" data-name="Grupo de máscara 20" clip-path="url(#clip-path)">
    <g id="Grupo_176722" data-name="Grupo 176722" transform="translate(-15.428 -16.361)">
      <g id="Grupo_176721" data-name="Grupo 176721" clip-path="url(#clip-path-2)">
        <path id="Caminho_117181" data-name="Caminho 117181" d="M33.289,16.644A16.644,16.644,0,1,1,16.644,0,16.644,16.644,0,0,1,33.289,16.644" fill="#ef622f"/>
        <path id="Caminho_117182" data-name="Caminho 117182" d="M106.679,16.772A16.012,16.012,0,1,1,90.667.76a16.012,16.012,0,0,1,16.012,16.012" transform="translate(-12.526 -0.128)" fill="#ef622f"/>
        <path id="Caminho_117183" data-name="Caminho 117183" d="M180.07,16.9A15.379,15.379,0,1,1,164.69,1.52,15.38,15.38,0,0,1,180.07,16.9" transform="translate(-25.052 -0.255)" fill="#ef622f"/>
        <path id="Caminho_117184" data-name="Caminho 117184" d="M253.46,17.027A14.747,14.747,0,1,1,238.713,2.28,14.747,14.747,0,0,1,253.46,17.027" transform="translate(-37.577 -0.383)" fill="#ef622f"/>
        <path id="Caminho_117185" data-name="Caminho 117185" d="M326.851,17.154A14.114,14.114,0,1,1,312.736,3.04a14.114,14.114,0,0,1,14.114,14.114" transform="translate(-50.103 -0.51)" fill="#ef622f"/>
        <path id="Caminho_117186" data-name="Caminho 117186" d="M400.241,17.282A13.482,13.482,0,1,1,386.759,3.8a13.482,13.482,0,0,1,13.482,13.482" transform="translate(-62.629 -0.638)" fill="#ef622f"/>
        <path id="Caminho_117187" data-name="Caminho 117187" d="M473.631,17.409A12.849,12.849,0,1,1,460.781,4.56a12.85,12.85,0,0,1,12.849,12.849" transform="translate(-75.155 -0.765)" fill="#ef622f"/>
        <path id="Caminho_117188" data-name="Caminho 117188" d="M547.022,17.537A12.217,12.217,0,1,1,534.8,5.32a12.216,12.216,0,0,1,12.217,12.217" transform="translate(-87.681 -0.893)" fill="#ef622f"/>
        <path id="Caminho_117189" data-name="Caminho 117189" d="M620.412,17.664A11.585,11.585,0,1,1,608.828,6.08a11.584,11.584,0,0,1,11.584,11.584" transform="translate(-100.206 -1.02)" fill="#ef622f"/>
        <path id="Caminho_117190" data-name="Caminho 117190" d="M693.8,17.792A10.952,10.952,0,1,1,682.85,6.84,10.952,10.952,0,0,1,693.8,17.792" transform="translate(-112.732 -1.148)" fill="#ef622f"/>
        <path id="Caminho_117191" data-name="Caminho 117191" d="M767.193,17.92A10.32,10.32,0,1,1,756.873,7.6a10.32,10.32,0,0,1,10.319,10.32" transform="translate(-125.258 -1.275)" fill="#ef622f"/>
        <path id="Caminho_117192" data-name="Caminho 117192" d="M840.583,18.047A9.687,9.687,0,1,1,830.9,8.36a9.687,9.687,0,0,1,9.687,9.687" transform="translate(-137.784 -1.403)" fill="#ef622f"/>
        <path id="Caminho_117193" data-name="Caminho 117193" d="M913.974,18.175a9.055,9.055,0,1,1-9.054-9.055,9.054,9.054,0,0,1,9.054,9.055" transform="translate(-150.31 -1.53)" fill="#ef622f"/>
        <path id="Caminho_117194" data-name="Caminho 117194" d="M987.364,18.3a8.422,8.422,0,1,1-8.422-8.422,8.422,8.422,0,0,1,8.422,8.422" transform="translate(-162.835 -1.658)" fill="#ef622f"/>
        <path id="Caminho_117195" data-name="Caminho 117195" d="M1060.754,18.43a7.789,7.789,0,1,1-7.789-7.79,7.79,7.79,0,0,1,7.789,7.79" transform="translate(-175.361 -1.785)" fill="#ef622f"/>
        <path id="Caminho_117196" data-name="Caminho 117196" d="M1134.145,18.557a7.157,7.157,0,1,1-7.157-7.157,7.157,7.157,0,0,1,7.157,7.157" transform="translate(-187.887 -1.913)" fill="#ef622f"/>
        <path id="Caminho_117197" data-name="Caminho 117197" d="M1207.536,18.685a6.525,6.525,0,1,1-6.525-6.525,6.524,6.524,0,0,1,6.525,6.525" transform="translate(-200.413 -2.04)" fill="#ef622f"/>
        <path id="Caminho_117198" data-name="Caminho 117198" d="M1280.926,18.812a5.892,5.892,0,1,1-5.892-5.892,5.893,5.893,0,0,1,5.892,5.892" transform="translate(-212.939 -2.168)" fill="#ef622f"/>
        <path id="Caminho_117199" data-name="Caminho 117199" d="M1354.316,18.94a5.26,5.26,0,1,1-5.26-5.26,5.26,5.26,0,0,1,5.26,5.26" transform="translate(-225.464 -2.295)" fill="#ef622f"/>
        <path id="Caminho_117200" data-name="Caminho 117200" d="M1427.706,19.067a4.627,4.627,0,1,1-4.628-4.627,4.627,4.627,0,0,1,4.628,4.627" transform="translate(-237.99 -2.423)" fill="#ef622f"/>
        <path id="Caminho_117201" data-name="Caminho 117201" d="M1501.1,19.195A3.995,3.995,0,1,1,1497.1,15.2a3.995,3.995,0,0,1,3.995,3.995" transform="translate(-250.516 -2.55)" fill="#ef622f"/>
        <path id="Caminho_117202" data-name="Caminho 117202" d="M1574.487,19.322a3.362,3.362,0,1,1-3.362-3.362,3.362,3.362,0,0,1,3.362,3.362" transform="translate(-263.042 -2.678)" fill="#ef622f"/>
        <path id="Caminho_117203" data-name="Caminho 117203" d="M1647.877,19.45a2.73,2.73,0,1,1-2.729-2.73,2.73,2.73,0,0,1,2.729,2.73" transform="translate(-275.568 -2.805)" fill="#ef622f"/>
        <path id="Caminho_117204" data-name="Caminho 117204" d="M1721.268,19.577a2.1,2.1,0,1,1-2.1-2.1,2.1,2.1,0,0,1,2.1,2.1" transform="translate(-288.093 -2.933)" fill="#ef622f"/>
        <path id="Caminho_117205" data-name="Caminho 117205" d="M1794.658,19.7a1.465,1.465,0,1,1-1.465-1.465,1.465,1.465,0,0,1,1.465,1.465" transform="translate(-300.619 -3.06)" fill="#ef622f"/>
        <path id="Caminho_117206" data-name="Caminho 117206" d="M1868.049,19.832a.832.832,0,1,1-.832-.832.833.833,0,0,1,.832.832" transform="translate(-313.145 -3.188)" fill="#ef622f"/>
        <path id="Caminho_117207" data-name="Caminho 117207" d="M33.289,99.805A16.644,16.644,0,1,1,16.644,83.161,16.644,16.644,0,0,1,33.289,99.805" transform="translate(0 -13.953)" fill="#ef622f"/>
        <path id="Caminho_117208" data-name="Caminho 117208" d="M106.679,99.933A16.012,16.012,0,1,1,90.667,83.922a16.012,16.012,0,0,1,16.012,16.011" transform="translate(-12.526 -14.081)" fill="#ef622f"/>
        <path id="Caminho_117209" data-name="Caminho 117209" d="M180.07,100.061A15.379,15.379,0,1,1,164.69,84.682a15.38,15.38,0,0,1,15.379,15.379" transform="translate(-25.052 -14.208)" fill="#ef622f"/>
        <path id="Caminho_117210" data-name="Caminho 117210" d="M253.46,100.188a14.747,14.747,0,1,1-14.747-14.746,14.747,14.747,0,0,1,14.747,14.746" transform="translate(-37.577 -14.336)" fill="#ef622f"/>
        <path id="Caminho_117211" data-name="Caminho 117211" d="M326.851,100.316A14.114,14.114,0,1,1,312.736,86.2a14.114,14.114,0,0,1,14.114,14.114" transform="translate(-50.103 -14.463)" fill="#ef622f"/>
        <path id="Caminho_117212" data-name="Caminho 117212" d="M400.241,100.443a13.482,13.482,0,1,1-13.482-13.481,13.482,13.482,0,0,1,13.482,13.481" transform="translate(-62.629 -14.591)" fill="#ef622f"/>
        <path id="Caminho_117213" data-name="Caminho 117213" d="M473.631,100.571a12.849,12.849,0,1,1-12.849-12.849,12.85,12.85,0,0,1,12.849,12.849" transform="translate(-75.155 -14.718)" fill="#ef622f"/>
        <path id="Caminho_117214" data-name="Caminho 117214" d="M547.022,100.7A12.217,12.217,0,1,1,534.8,88.481,12.217,12.217,0,0,1,547.022,100.7" transform="translate(-87.681 -14.845)" fill="#ef622f"/>
        <path id="Caminho_117215" data-name="Caminho 117215" d="M620.412,100.825a11.585,11.585,0,1,1-11.584-11.584,11.584,11.584,0,0,1,11.584,11.584" transform="translate(-100.206 -14.973)" fill="#ef622f"/>
        <path id="Caminho_117216" data-name="Caminho 117216" d="M693.8,100.953A10.952,10.952,0,1,1,682.85,90,10.952,10.952,0,0,1,693.8,100.953" transform="translate(-112.732 -15.1)" fill="#ef622f"/>
        <path id="Caminho_117217" data-name="Caminho 117217" d="M767.193,101.08a10.32,10.32,0,1,1-10.319-10.319,10.32,10.32,0,0,1,10.319,10.319" transform="translate(-125.258 -15.228)" fill="#ef622f"/>
        <path id="Caminho_117218" data-name="Caminho 117218" d="M840.583,101.208a9.687,9.687,0,1,1-9.687-9.687,9.687,9.687,0,0,1,9.687,9.687" transform="translate(-137.784 -15.356)" fill="#ef622f"/>
        <path id="Caminho_117219" data-name="Caminho 117219" d="M913.974,101.336a9.055,9.055,0,1,1-9.054-9.055,9.055,9.055,0,0,1,9.054,9.055" transform="translate(-150.31 -15.483)" fill="#ef622f"/>
        <path id="Caminho_117220" data-name="Caminho 117220" d="M987.364,101.463a8.422,8.422,0,1,1-8.422-8.421,8.422,8.422,0,0,1,8.422,8.421" transform="translate(-162.835 -15.611)" fill="#ef622f"/>
        <path id="Caminho_117221" data-name="Caminho 117221" d="M1060.754,101.591a7.789,7.789,0,1,1-7.789-7.789,7.79,7.79,0,0,1,7.789,7.789" transform="translate(-175.361 -15.738)" fill="#ef622f"/>
        <path id="Caminho_117222" data-name="Caminho 117222" d="M1134.145,101.718a7.157,7.157,0,1,1-7.157-7.156,7.157,7.157,0,0,1,7.157,7.156" transform="translate(-187.887 -15.866)" fill="#ef622f"/>
        <path id="Caminho_117223" data-name="Caminho 117223" d="M1207.536,101.846a6.525,6.525,0,1,1-6.525-6.524,6.525,6.525,0,0,1,6.525,6.524" transform="translate(-200.413 -15.993)" fill="#ef622f"/>
        <path id="Caminho_117224" data-name="Caminho 117224" d="M1280.926,101.973a5.892,5.892,0,1,1-5.892-5.891,5.894,5.894,0,0,1,5.892,5.891" transform="translate(-212.939 -16.121)" fill="#ef622f"/>
        <path id="Caminho_117225" data-name="Caminho 117225" d="M1354.316,102.1a5.26,5.26,0,1,1-5.26-5.259,5.261,5.261,0,0,1,5.26,5.259" transform="translate(-225.464 -16.248)" fill="#ef622f"/>
        <path id="Caminho_117226" data-name="Caminho 117226" d="M1427.706,102.228a4.627,4.627,0,1,1-4.628-4.626,4.627,4.627,0,0,1,4.628,4.626" transform="translate(-237.99 -16.376)" fill="#ef622f"/>
        <path id="Caminho_117227" data-name="Caminho 117227" d="M1501.1,102.356a3.995,3.995,0,1,1-3.995-3.994,3.994,3.994,0,0,1,3.995,3.994" transform="translate(-250.516 -16.503)" fill="#ef622f"/>
        <path id="Caminho_117228" data-name="Caminho 117228" d="M1574.487,102.483a3.362,3.362,0,1,1-3.362-3.361,3.362,3.362,0,0,1,3.362,3.361" transform="translate(-263.042 -16.631)" fill="#ef622f"/>
        <path id="Caminho_117229" data-name="Caminho 117229" d="M1647.877,102.611a2.73,2.73,0,1,1-2.729-2.73,2.73,2.73,0,0,1,2.729,2.73" transform="translate(-275.568 -16.758)" fill="#ef622f"/>
        <path id="Caminho_117230" data-name="Caminho 117230" d="M1721.268,102.738a2.1,2.1,0,1,1-2.1-2.1,2.1,2.1,0,0,1,2.1,2.1" transform="translate(-288.093 -16.886)" fill="#ef622f"/>
        <path id="Caminho_117231" data-name="Caminho 117231" d="M1794.658,102.866a1.465,1.465,0,1,1-1.465-1.465,1.466,1.466,0,0,1,1.465,1.465" transform="translate(-300.619 -17.013)" fill="#ef622f"/>
        <path id="Caminho_117232" data-name="Caminho 117232" d="M1868.049,102.993a.832.832,0,1,1-.832-.832.832.832,0,0,1,.832.832" transform="translate(-313.145 -17.141)" fill="#ef622f"/>
        <path id="Caminho_117233" data-name="Caminho 117233" d="M33.289,182.967a16.644,16.644,0,1,1-16.644-16.644,16.644,16.644,0,0,1,16.644,16.644" transform="translate(0 -27.906)" fill="#ef622f"/>
        <path id="Caminho_117234" data-name="Caminho 117234" d="M106.679,183.095a16.012,16.012,0,1,1-16.012-16.012,16.012,16.012,0,0,1,16.012,16.012" transform="translate(-12.526 -28.033)" fill="#ef622f"/>
        <path id="Caminho_117235" data-name="Caminho 117235" d="M180.07,183.222a15.379,15.379,0,1,1-15.379-15.379,15.38,15.38,0,0,1,15.379,15.379" transform="translate(-25.052 -28.161)" fill="#ef622f"/>
        <path id="Caminho_117236" data-name="Caminho 117236" d="M253.46,183.35A14.747,14.747,0,1,1,238.713,168.6,14.747,14.747,0,0,1,253.46,183.35" transform="translate(-37.577 -28.289)" fill="#ef622f"/>
        <path id="Caminho_117237" data-name="Caminho 117237" d="M326.851,183.477a14.114,14.114,0,1,1-14.114-14.114,14.114,14.114,0,0,1,14.114,14.114" transform="translate(-50.103 -28.416)" fill="#ef622f"/>
        <path id="Caminho_117238" data-name="Caminho 117238" d="M400.241,183.6a13.482,13.482,0,1,1-13.482-13.482A13.482,13.482,0,0,1,400.241,183.6" transform="translate(-62.629 -28.544)" fill="#ef622f"/>
        <path id="Caminho_117239" data-name="Caminho 117239" d="M473.631,183.732a12.849,12.849,0,1,1-12.849-12.849,12.85,12.85,0,0,1,12.849,12.849" transform="translate(-75.155 -28.671)" fill="#ef622f"/>
        <path id="Caminho_117240" data-name="Caminho 117240" d="M547.022,183.86A12.217,12.217,0,1,1,534.8,171.643a12.216,12.216,0,0,1,12.217,12.217" transform="translate(-87.681 -28.799)" fill="#ef622f"/>
        <path id="Caminho_117241" data-name="Caminho 117241" d="M620.412,183.987A11.585,11.585,0,1,1,608.828,172.4a11.584,11.584,0,0,1,11.584,11.584" transform="translate(-100.206 -28.926)" fill="#ef622f"/>
        <path id="Caminho_117242" data-name="Caminho 117242" d="M693.8,184.115a10.952,10.952,0,1,1-10.952-10.952A10.952,10.952,0,0,1,693.8,184.115" transform="translate(-112.732 -29.054)" fill="#ef622f"/>
        <path id="Caminho_117243" data-name="Caminho 117243" d="M767.193,184.243a10.32,10.32,0,1,1-10.319-10.32,10.32,10.32,0,0,1,10.319,10.32" transform="translate(-125.258 -29.181)" fill="#ef622f"/>
        <path id="Caminho_117244" data-name="Caminho 117244" d="M840.583,184.37a9.687,9.687,0,1,1-9.687-9.687,9.687,9.687,0,0,1,9.687,9.687" transform="translate(-137.784 -29.309)" fill="#ef622f"/>
        <path id="Caminho_117245" data-name="Caminho 117245" d="M913.974,184.5a9.055,9.055,0,1,1-9.054-9.055,9.054,9.054,0,0,1,9.054,9.055" transform="translate(-150.31 -29.436)" fill="#ef622f"/>
        <path id="Caminho_117246" data-name="Caminho 117246" d="M987.364,184.625a8.422,8.422,0,1,1-8.422-8.422,8.422,8.422,0,0,1,8.422,8.422" transform="translate(-162.835 -29.564)" fill="#ef622f"/>
        <path id="Caminho_117247" data-name="Caminho 117247" d="M1060.754,184.753a7.789,7.789,0,1,1-7.789-7.79,7.79,7.79,0,0,1,7.789,7.79" transform="translate(-175.361 -29.691)" fill="#ef622f"/>
        <path id="Caminho_117248" data-name="Caminho 117248" d="M1134.145,184.88a7.157,7.157,0,1,1-7.157-7.157,7.157,7.157,0,0,1,7.157,7.157" transform="translate(-187.887 -29.819)" fill="#ef622f"/>
        <path id="Caminho_117249" data-name="Caminho 117249" d="M1207.536,185.008a6.525,6.525,0,1,1-6.525-6.525,6.524,6.524,0,0,1,6.525,6.525" transform="translate(-200.413 -29.946)" fill="#ef622f"/>
        <path id="Caminho_117250" data-name="Caminho 117250" d="M1280.926,185.135a5.892,5.892,0,1,1-5.892-5.892,5.893,5.893,0,0,1,5.892,5.892" transform="translate(-212.939 -30.074)" fill="#ef622f"/>
        <path id="Caminho_117251" data-name="Caminho 117251" d="M1354.316,185.263a5.26,5.26,0,1,1-5.26-5.26,5.26,5.26,0,0,1,5.26,5.26" transform="translate(-225.464 -30.201)" fill="#ef622f"/>
        <path id="Caminho_117252" data-name="Caminho 117252" d="M1427.706,185.39a4.627,4.627,0,1,1-4.628-4.627,4.627,4.627,0,0,1,4.628,4.627" transform="translate(-237.99 -30.329)" fill="#ef622f"/>
        <path id="Caminho_117253" data-name="Caminho 117253" d="M1501.1,185.518a3.995,3.995,0,1,1-3.995-3.995,3.995,3.995,0,0,1,3.995,3.995" transform="translate(-250.516 -30.456)" fill="#ef622f"/>
        <path id="Caminho_117254" data-name="Caminho 117254" d="M1574.487,185.645a3.362,3.362,0,1,1-3.362-3.362,3.362,3.362,0,0,1,3.362,3.362" transform="translate(-263.042 -30.584)" fill="#ef622f"/>
        <path id="Caminho_117255" data-name="Caminho 117255" d="M1647.877,185.773a2.73,2.73,0,1,1-2.729-2.73,2.73,2.73,0,0,1,2.729,2.73" transform="translate(-275.568 -30.711)" fill="#ef622f"/>
        <path id="Caminho_117256" data-name="Caminho 117256" d="M1721.268,185.9a2.1,2.1,0,1,1-2.1-2.1,2.1,2.1,0,0,1,2.1,2.1" transform="translate(-288.093 -30.839)" fill="#ef622f"/>
        <path id="Caminho_117257" data-name="Caminho 117257" d="M1794.658,186.028a1.465,1.465,0,1,1-1.465-1.465,1.465,1.465,0,0,1,1.465,1.465" transform="translate(-300.619 -30.966)" fill="#ef622f"/>
        <path id="Caminho_117258" data-name="Caminho 117258" d="M1868.049,186.155a.832.832,0,1,1-.832-.832.833.833,0,0,1,.832.832" transform="translate(-313.145 -31.094)" fill="#ef622f"/>
        <path id="Caminho_117259" data-name="Caminho 117259" d="M33.289,266.129a16.644,16.644,0,1,1-16.644-16.644,16.644,16.644,0,0,1,16.644,16.644" transform="translate(0 -41.859)" fill="#ef622f"/>
        <path id="Caminho_117260" data-name="Caminho 117260" d="M106.679,266.257a16.012,16.012,0,1,1-16.012-16.012,16.012,16.012,0,0,1,16.012,16.012" transform="translate(-12.526 -41.986)" fill="#ef622f"/>
        <path id="Caminho_117261" data-name="Caminho 117261" d="M180.07,266.384a15.379,15.379,0,1,1-15.379-15.379,15.38,15.38,0,0,1,15.379,15.379" transform="translate(-25.052 -42.114)" fill="#ef622f"/>
        <path id="Caminho_117262" data-name="Caminho 117262" d="M253.46,266.512a14.747,14.747,0,1,1-14.747-14.747,14.747,14.747,0,0,1,14.747,14.747" transform="translate(-37.577 -42.242)" fill="#ef622f"/>
        <path id="Caminho_117263" data-name="Caminho 117263" d="M326.851,266.639a14.114,14.114,0,1,1-14.114-14.114,14.114,14.114,0,0,1,14.114,14.114" transform="translate(-50.103 -42.369)" fill="#ef622f"/>
        <path id="Caminho_117264" data-name="Caminho 117264" d="M400.241,266.767a13.482,13.482,0,1,1-13.482-13.482,13.482,13.482,0,0,1,13.482,13.482" transform="translate(-62.629 -42.497)" fill="#ef622f"/>
        <path id="Caminho_117265" data-name="Caminho 117265" d="M473.631,266.894a12.849,12.849,0,1,1-12.849-12.849,12.85,12.85,0,0,1,12.849,12.849" transform="translate(-75.155 -42.624)" fill="#ef622f"/>
        <path id="Caminho_117266" data-name="Caminho 117266" d="M547.022,267.022A12.217,12.217,0,1,1,534.8,254.805a12.216,12.216,0,0,1,12.217,12.217" transform="translate(-87.681 -42.752)" fill="#ef622f"/>
        <path id="Caminho_117267" data-name="Caminho 117267" d="M620.412,267.149a11.585,11.585,0,1,1-11.584-11.584,11.584,11.584,0,0,1,11.584,11.584" transform="translate(-100.206 -42.879)" fill="#ef622f"/>
        <path id="Caminho_117268" data-name="Caminho 117268" d="M693.8,267.277a10.952,10.952,0,1,1-10.952-10.952A10.952,10.952,0,0,1,693.8,267.277" transform="translate(-112.732 -43.007)" fill="#ef622f"/>
        <path id="Caminho_117269" data-name="Caminho 117269" d="M767.193,267.4a10.32,10.32,0,1,1-10.319-10.32,10.32,10.32,0,0,1,10.319,10.32" transform="translate(-125.258 -43.134)" fill="#ef622f"/>
        <path id="Caminho_117270" data-name="Caminho 117270" d="M840.583,267.532a9.687,9.687,0,1,1-9.687-9.687,9.686,9.686,0,0,1,9.687,9.687" transform="translate(-137.784 -43.262)" fill="#ef622f"/>
        <path id="Caminho_117271" data-name="Caminho 117271" d="M913.974,267.66a9.055,9.055,0,1,1-9.054-9.054,9.055,9.055,0,0,1,9.054,9.054" transform="translate(-150.31 -43.389)" fill="#ef622f"/>
        <path id="Caminho_117272" data-name="Caminho 117272" d="M987.364,267.787a8.422,8.422,0,1,1-8.422-8.422,8.422,8.422,0,0,1,8.422,8.422" transform="translate(-162.835 -43.517)" fill="#ef622f"/>
        <path id="Caminho_117273" data-name="Caminho 117273" d="M1060.754,267.915a7.789,7.789,0,1,1-7.789-7.79,7.79,7.79,0,0,1,7.789,7.79" transform="translate(-175.361 -43.644)" fill="#ef622f"/>
        <path id="Caminho_117274" data-name="Caminho 117274" d="M1134.145,268.042a7.157,7.157,0,1,1-7.157-7.157,7.157,7.157,0,0,1,7.157,7.157" transform="translate(-187.887 -43.772)" fill="#ef622f"/>
        <path id="Caminho_117275" data-name="Caminho 117275" d="M1207.536,268.17a6.525,6.525,0,1,1-6.525-6.525,6.525,6.525,0,0,1,6.525,6.525" transform="translate(-200.413 -43.899)" fill="#ef622f"/>
        <path id="Caminho_117276" data-name="Caminho 117276" d="M1280.926,268.3a5.892,5.892,0,1,1-5.892-5.892,5.893,5.893,0,0,1,5.892,5.892" transform="translate(-212.939 -44.027)" fill="#ef622f"/>
        <path id="Caminho_117277" data-name="Caminho 117277" d="M1354.316,268.425a5.26,5.26,0,1,1-5.26-5.26,5.26,5.26,0,0,1,5.26,5.26" transform="translate(-225.464 -44.154)" fill="#ef622f"/>
        <path id="Caminho_117278" data-name="Caminho 117278" d="M1427.706,268.552a4.627,4.627,0,1,1-4.628-4.627,4.627,4.627,0,0,1,4.628,4.627" transform="translate(-237.99 -44.282)" fill="#ef622f"/>
        <path id="Caminho_117279" data-name="Caminho 117279" d="M1501.1,268.68a3.995,3.995,0,1,1-3.995-3.995,3.995,3.995,0,0,1,3.995,3.995" transform="translate(-250.516 -44.409)" fill="#ef622f"/>
        <path id="Caminho_117280" data-name="Caminho 117280" d="M1574.487,268.807a3.362,3.362,0,1,1-3.362-3.362,3.362,3.362,0,0,1,3.362,3.362" transform="translate(-263.042 -44.537)" fill="#ef622f"/>
        <path id="Caminho_117281" data-name="Caminho 117281" d="M1647.877,268.935a2.73,2.73,0,1,1-2.729-2.73,2.729,2.729,0,0,1,2.729,2.73" transform="translate(-275.568 -44.664)" fill="#ef622f"/>
        <path id="Caminho_117282" data-name="Caminho 117282" d="M1721.268,269.062a2.1,2.1,0,1,1-2.1-2.1,2.1,2.1,0,0,1,2.1,2.1" transform="translate(-288.093 -44.792)" fill="#ef622f"/>
        <path id="Caminho_117283" data-name="Caminho 117283" d="M1794.658,269.19a1.465,1.465,0,1,1-1.465-1.465,1.465,1.465,0,0,1,1.465,1.465" transform="translate(-300.619 -44.919)" fill="#ef622f"/>
        <path id="Caminho_117284" data-name="Caminho 117284" d="M1868.049,269.317a.832.832,0,1,1-.832-.832.833.833,0,0,1,.832.832" transform="translate(-313.145 -45.047)" fill="#ef622f"/>
        <path id="Caminho_117285" data-name="Caminho 117285" d="M33.289,349.29a16.644,16.644,0,1,1-16.644-16.644A16.644,16.644,0,0,1,33.289,349.29" transform="translate(0 -55.812)" fill="#ef622f"/>
        <path id="Caminho_117286" data-name="Caminho 117286" d="M106.679,349.418a16.012,16.012,0,1,1-16.012-16.012,16.012,16.012,0,0,1,16.012,16.012" transform="translate(-12.526 -55.939)" fill="#ef622f"/>
        <path id="Caminho_117287" data-name="Caminho 117287" d="M180.07,349.545a15.379,15.379,0,1,1-15.379-15.379,15.38,15.38,0,0,1,15.379,15.379" transform="translate(-25.052 -56.067)" fill="#ef622f"/>
        <path id="Caminho_117288" data-name="Caminho 117288" d="M253.46,349.673a14.747,14.747,0,1,1-14.747-14.747,14.747,14.747,0,0,1,14.747,14.747" transform="translate(-37.577 -56.194)" fill="#ef622f"/>
        <path id="Caminho_117289" data-name="Caminho 117289" d="M326.851,349.8a14.114,14.114,0,1,1-14.114-14.114A14.114,14.114,0,0,1,326.851,349.8" transform="translate(-50.103 -56.322)" fill="#ef622f"/>
        <path id="Caminho_117290" data-name="Caminho 117290" d="M400.241,349.928a13.482,13.482,0,1,1-13.482-13.482,13.482,13.482,0,0,1,13.482,13.482" transform="translate(-62.629 -56.449)" fill="#ef622f"/>
        <path id="Caminho_117291" data-name="Caminho 117291" d="M473.631,350.056a12.849,12.849,0,1,1-12.849-12.85,12.85,12.85,0,0,1,12.849,12.85" transform="translate(-75.155 -56.577)" fill="#ef622f"/>
        <path id="Caminho_117292" data-name="Caminho 117292" d="M547.022,350.183A12.217,12.217,0,1,1,534.8,337.966a12.217,12.217,0,0,1,12.217,12.217" transform="translate(-87.681 -56.705)" fill="#ef622f"/>
        <path id="Caminho_117293" data-name="Caminho 117293" d="M620.412,350.31a11.585,11.585,0,1,1-11.584-11.584,11.584,11.584,0,0,1,11.584,11.584" transform="translate(-100.206 -56.832)" fill="#ef622f"/>
        <path id="Caminho_117294" data-name="Caminho 117294" d="M693.8,350.438a10.952,10.952,0,1,1-10.952-10.952A10.952,10.952,0,0,1,693.8,350.438" transform="translate(-112.732 -56.959)" fill="#ef622f"/>
        <path id="Caminho_117295" data-name="Caminho 117295" d="M767.193,350.565a10.32,10.32,0,1,1-10.319-10.319,10.32,10.32,0,0,1,10.319,10.319" transform="translate(-125.258 -57.087)" fill="#ef622f"/>
        <path id="Caminho_117296" data-name="Caminho 117296" d="M840.583,350.693a9.687,9.687,0,1,1-9.687-9.687,9.687,9.687,0,0,1,9.687,9.687" transform="translate(-137.784 -57.215)" fill="#ef622f"/>
        <path id="Caminho_117297" data-name="Caminho 117297" d="M913.974,350.821a9.055,9.055,0,1,1-9.054-9.055,9.054,9.054,0,0,1,9.054,9.055" transform="translate(-150.31 -57.342)" fill="#ef622f"/>
        <path id="Caminho_117298" data-name="Caminho 117298" d="M987.364,350.948a8.422,8.422,0,1,1-8.422-8.422,8.422,8.422,0,0,1,8.422,8.422" transform="translate(-162.835 -57.47)" fill="#ef622f"/>
        <path id="Caminho_117299" data-name="Caminho 117299" d="M1060.754,351.076a7.789,7.789,0,1,1-7.789-7.79,7.79,7.79,0,0,1,7.789,7.79" transform="translate(-175.361 -57.597)" fill="#ef622f"/>
        <path id="Caminho_117300" data-name="Caminho 117300" d="M1134.145,351.2a7.157,7.157,0,1,1-7.157-7.157,7.157,7.157,0,0,1,7.157,7.157" transform="translate(-187.887 -57.725)" fill="#ef622f"/>
        <path id="Caminho_117301" data-name="Caminho 117301" d="M1207.536,351.331a6.525,6.525,0,1,1-6.525-6.525,6.524,6.524,0,0,1,6.525,6.525" transform="translate(-200.413 -57.852)" fill="#ef622f"/>
        <path id="Caminho_117302" data-name="Caminho 117302" d="M1280.926,351.458a5.892,5.892,0,1,1-5.892-5.892,5.893,5.893,0,0,1,5.892,5.892" transform="translate(-212.939 -57.98)" fill="#ef622f"/>
        <path id="Caminho_117303" data-name="Caminho 117303" d="M1354.316,351.586a5.26,5.26,0,1,1-5.26-5.26,5.26,5.26,0,0,1,5.26,5.26" transform="translate(-225.464 -58.107)" fill="#ef622f"/>
        <path id="Caminho_117304" data-name="Caminho 117304" d="M1427.706,351.713a4.627,4.627,0,1,1-4.628-4.627,4.627,4.627,0,0,1,4.628,4.627" transform="translate(-237.99 -58.235)" fill="#ef622f"/>
        <path id="Caminho_117305" data-name="Caminho 117305" d="M1501.1,351.841a3.995,3.995,0,1,1-3.995-3.995,3.995,3.995,0,0,1,3.995,3.995" transform="translate(-250.516 -58.362)" fill="#ef622f"/>
        <path id="Caminho_117306" data-name="Caminho 117306" d="M1574.487,351.968a3.362,3.362,0,1,1-3.362-3.362,3.362,3.362,0,0,1,3.362,3.362" transform="translate(-263.042 -58.49)" fill="#ef622f"/>
        <path id="Caminho_117307" data-name="Caminho 117307" d="M1647.877,352.1a2.73,2.73,0,1,1-2.729-2.73,2.729,2.729,0,0,1,2.729,2.73" transform="translate(-275.568 -58.617)" fill="#ef622f"/>
        <path id="Caminho_117308" data-name="Caminho 117308" d="M1721.268,352.223a2.1,2.1,0,1,1-2.1-2.1,2.1,2.1,0,0,1,2.1,2.1" transform="translate(-288.093 -58.745)" fill="#ef622f"/>
        <path id="Caminho_117309" data-name="Caminho 117309" d="M1794.658,352.351a1.465,1.465,0,1,1-1.465-1.465,1.465,1.465,0,0,1,1.465,1.465" transform="translate(-300.619 -58.872)" fill="#ef622f"/>
        <path id="Caminho_117310" data-name="Caminho 117310" d="M1868.049,352.478a.832.832,0,1,1-.832-.832.833.833,0,0,1,.832.832" transform="translate(-313.145 -59)" fill="#ef622f"/>
        <path id="Caminho_117311" data-name="Caminho 117311" d="M33.289,432.452a16.644,16.644,0,1,1-16.644-16.644,16.644,16.644,0,0,1,16.644,16.644" transform="translate(0 -69.765)" fill="#ef622f"/>
        <path id="Caminho_117312" data-name="Caminho 117312" d="M106.679,432.58a16.012,16.012,0,1,1-16.012-16.012,16.012,16.012,0,0,1,16.012,16.012" transform="translate(-12.526 -69.892)" fill="#ef622f"/>
        <path id="Caminho_117313" data-name="Caminho 117313" d="M180.07,432.707a15.379,15.379,0,1,1-15.379-15.379,15.38,15.38,0,0,1,15.379,15.379" transform="translate(-25.052 -70.02)" fill="#ef622f"/>
        <path id="Caminho_117314" data-name="Caminho 117314" d="M253.46,432.835a14.747,14.747,0,1,1-14.747-14.747,14.747,14.747,0,0,1,14.747,14.747" transform="translate(-37.577 -70.147)" fill="#ef622f"/>
        <path id="Caminho_117315" data-name="Caminho 117315" d="M326.851,432.962a14.114,14.114,0,1,1-14.114-14.114,14.114,14.114,0,0,1,14.114,14.114" transform="translate(-50.103 -70.275)" fill="#ef622f"/>
        <path id="Caminho_117316" data-name="Caminho 117316" d="M400.241,433.09a13.482,13.482,0,1,1-13.482-13.482,13.482,13.482,0,0,1,13.482,13.482" transform="translate(-62.629 -70.402)" fill="#ef622f"/>
        <path id="Caminho_117317" data-name="Caminho 117317" d="M473.631,433.217a12.849,12.849,0,1,1-12.849-12.85,12.85,12.85,0,0,1,12.849,12.85" transform="translate(-75.155 -70.53)" fill="#ef622f"/>
        <path id="Caminho_117318" data-name="Caminho 117318" d="M547.022,433.345A12.217,12.217,0,1,1,534.8,421.128a12.216,12.216,0,0,1,12.217,12.217" transform="translate(-87.681 -70.658)" fill="#ef622f"/>
        <path id="Caminho_117319" data-name="Caminho 117319" d="M620.412,433.472a11.585,11.585,0,1,1-11.584-11.585,11.584,11.584,0,0,1,11.584,11.585" transform="translate(-100.206 -70.785)" fill="#ef622f"/>
        <path id="Caminho_117320" data-name="Caminho 117320" d="M693.8,433.6a10.952,10.952,0,1,1-10.952-10.952A10.952,10.952,0,0,1,693.8,433.6" transform="translate(-112.732 -70.913)" fill="#ef622f"/>
        <path id="Caminho_117321" data-name="Caminho 117321" d="M767.193,433.727a10.32,10.32,0,1,1-10.319-10.319,10.32,10.32,0,0,1,10.319,10.319" transform="translate(-125.258 -71.04)" fill="#ef622f"/>
        <path id="Caminho_117322" data-name="Caminho 117322" d="M840.583,433.855a9.687,9.687,0,1,1-9.687-9.687,9.687,9.687,0,0,1,9.687,9.687" transform="translate(-137.784 -71.168)" fill="#ef622f"/>
        <path id="Caminho_117323" data-name="Caminho 117323" d="M913.974,433.983a9.055,9.055,0,1,1-9.054-9.055,9.054,9.054,0,0,1,9.054,9.055" transform="translate(-150.31 -71.295)" fill="#ef622f"/>
        <path id="Caminho_117324" data-name="Caminho 117324" d="M987.364,434.11a8.422,8.422,0,1,1-8.422-8.422,8.422,8.422,0,0,1,8.422,8.422" transform="translate(-162.835 -71.423)" fill="#ef622f"/>
        <path id="Caminho_117325" data-name="Caminho 117325" d="M1060.754,434.238a7.789,7.789,0,1,1-7.789-7.79,7.79,7.79,0,0,1,7.789,7.79" transform="translate(-175.361 -71.55)" fill="#ef622f"/>
        <path id="Caminho_117326" data-name="Caminho 117326" d="M1134.145,434.365a7.157,7.157,0,1,1-7.157-7.157,7.157,7.157,0,0,1,7.157,7.157" transform="translate(-187.887 -71.678)" fill="#ef622f"/>
        <path id="Caminho_117327" data-name="Caminho 117327" d="M1207.536,434.493a6.525,6.525,0,1,1-6.525-6.525,6.524,6.524,0,0,1,6.525,6.525" transform="translate(-200.413 -71.805)" fill="#ef622f"/>
        <path id="Caminho_117328" data-name="Caminho 117328" d="M1280.926,434.62a5.892,5.892,0,1,1-5.892-5.892,5.893,5.893,0,0,1,5.892,5.892" transform="translate(-212.939 -71.933)" fill="#ef622f"/>
        <path id="Caminho_117329" data-name="Caminho 117329" d="M1354.316,434.748a5.26,5.26,0,1,1-5.26-5.26,5.26,5.26,0,0,1,5.26,5.26" transform="translate(-225.464 -72.06)" fill="#ef622f"/>
        <path id="Caminho_117330" data-name="Caminho 117330" d="M1427.706,434.875a4.627,4.627,0,1,1-4.628-4.627,4.627,4.627,0,0,1,4.628,4.627" transform="translate(-237.99 -72.188)" fill="#ef622f"/>
        <path id="Caminho_117331" data-name="Caminho 117331" d="M1501.1,435a3.995,3.995,0,1,1-3.995-3.995A3.995,3.995,0,0,1,1501.1,435" transform="translate(-250.516 -72.315)" fill="#ef622f"/>
        <path id="Caminho_117332" data-name="Caminho 117332" d="M1574.487,435.13a3.362,3.362,0,1,1-3.362-3.362,3.362,3.362,0,0,1,3.362,3.362" transform="translate(-263.042 -72.443)" fill="#ef622f"/>
        <path id="Caminho_117333" data-name="Caminho 117333" d="M1647.877,435.258a2.73,2.73,0,1,1-2.729-2.73,2.73,2.73,0,0,1,2.729,2.73" transform="translate(-275.568 -72.57)" fill="#ef622f"/>
        <path id="Caminho_117334" data-name="Caminho 117334" d="M1721.268,435.385a2.1,2.1,0,1,1-2.1-2.1,2.1,2.1,0,0,1,2.1,2.1" transform="translate(-288.093 -72.698)" fill="#ef622f"/>
        <path id="Caminho_117335" data-name="Caminho 117335" d="M1794.658,435.513a1.465,1.465,0,1,1-1.465-1.465,1.465,1.465,0,0,1,1.465,1.465" transform="translate(-300.619 -72.825)" fill="#ef622f"/>
        <path id="Caminho_117336" data-name="Caminho 117336" d="M1868.049,435.64a.832.832,0,1,1-.832-.832.833.833,0,0,1,.832.832" transform="translate(-313.145 -72.953)" fill="#ef622f"/>
        <path id="Caminho_117337" data-name="Caminho 117337" d="M33.289,515.613a16.644,16.644,0,1,1-16.644-16.644,16.644,16.644,0,0,1,16.644,16.644" transform="translate(0 -83.718)" fill="#ef622f"/>
        <path id="Caminho_117338" data-name="Caminho 117338" d="M106.679,515.741a16.012,16.012,0,1,1-16.012-16.012,16.012,16.012,0,0,1,16.012,16.012" transform="translate(-12.526 -83.845)" fill="#ef622f"/>
        <path id="Caminho_117339" data-name="Caminho 117339" d="M180.07,515.868a15.379,15.379,0,1,1-15.379-15.379,15.38,15.38,0,0,1,15.379,15.379" transform="translate(-25.052 -83.973)" fill="#ef622f"/>
        <path id="Caminho_117340" data-name="Caminho 117340" d="M253.46,516a14.747,14.747,0,1,1-14.747-14.747A14.747,14.747,0,0,1,253.46,516" transform="translate(-37.577 -84.1)" fill="#ef622f"/>
        <path id="Caminho_117341" data-name="Caminho 117341" d="M326.851,516.123a14.114,14.114,0,1,1-14.114-14.114,14.114,14.114,0,0,1,14.114,14.114" transform="translate(-50.103 -84.228)" fill="#ef622f"/>
        <path id="Caminho_117342" data-name="Caminho 117342" d="M400.241,516.251a13.482,13.482,0,1,1-13.482-13.482,13.482,13.482,0,0,1,13.482,13.482" transform="translate(-62.629 -84.355)" fill="#ef622f"/>
        <path id="Caminho_117343" data-name="Caminho 117343" d="M473.631,516.378a12.849,12.849,0,1,1-12.849-12.85,12.85,12.85,0,0,1,12.849,12.85" transform="translate(-75.155 -84.483)" fill="#ef622f"/>
        <path id="Caminho_117344" data-name="Caminho 117344" d="M547.022,516.506A12.217,12.217,0,1,1,534.8,504.289a12.217,12.217,0,0,1,12.217,12.217" transform="translate(-87.681 -84.61)" fill="#ef622f"/>
        <path id="Caminho_117345" data-name="Caminho 117345" d="M620.412,516.633a11.585,11.585,0,1,1-11.584-11.585,11.584,11.584,0,0,1,11.584,11.585" transform="translate(-100.206 -84.738)" fill="#ef622f"/>
        <path id="Caminho_117346" data-name="Caminho 117346" d="M693.8,516.761a10.952,10.952,0,1,1-10.952-10.952A10.952,10.952,0,0,1,693.8,516.761" transform="translate(-112.732 -84.865)" fill="#ef622f"/>
        <path id="Caminho_117347" data-name="Caminho 117347" d="M767.193,516.889a10.32,10.32,0,1,1-10.319-10.32,10.32,10.32,0,0,1,10.319,10.32" transform="translate(-125.258 -84.993)" fill="#ef622f"/>
        <path id="Caminho_117348" data-name="Caminho 117348" d="M840.583,517.016a9.687,9.687,0,1,1-9.687-9.687,9.687,9.687,0,0,1,9.687,9.687" transform="translate(-137.784 -85.12)" fill="#ef622f"/>
        <path id="Caminho_117349" data-name="Caminho 117349" d="M913.974,517.143a9.055,9.055,0,1,1-9.054-9.055,9.054,9.054,0,0,1,9.054,9.055" transform="translate(-150.31 -85.248)" fill="#ef622f"/>
        <path id="Caminho_117350" data-name="Caminho 117350" d="M987.364,517.271a8.422,8.422,0,1,1-8.422-8.422,8.422,8.422,0,0,1,8.422,8.422" transform="translate(-162.835 -85.375)" fill="#ef622f"/>
        <path id="Caminho_117351" data-name="Caminho 117351" d="M1060.754,517.4a7.789,7.789,0,1,1-7.789-7.789,7.79,7.79,0,0,1,7.789,7.789" transform="translate(-175.361 -85.503)" fill="#ef622f"/>
        <path id="Caminho_117352" data-name="Caminho 117352" d="M1134.145,517.526a7.157,7.157,0,1,1-7.157-7.157,7.157,7.157,0,0,1,7.157,7.157" transform="translate(-187.887 -85.631)" fill="#ef622f"/>
        <path id="Caminho_117353" data-name="Caminho 117353" d="M1207.536,517.654a6.525,6.525,0,1,1-6.525-6.525,6.525,6.525,0,0,1,6.525,6.525" transform="translate(-200.413 -85.758)" fill="#ef622f"/>
        <path id="Caminho_117354" data-name="Caminho 117354" d="M1280.926,517.781a5.892,5.892,0,1,1-5.892-5.892,5.893,5.893,0,0,1,5.892,5.892" transform="translate(-212.939 -85.886)" fill="#ef622f"/>
        <path id="Caminho_117355" data-name="Caminho 117355" d="M1354.316,517.909a5.26,5.26,0,1,1-5.26-5.26,5.26,5.26,0,0,1,5.26,5.26" transform="translate(-225.464 -86.013)" fill="#ef622f"/>
        <path id="Caminho_117356" data-name="Caminho 117356" d="M1427.706,518.036a4.627,4.627,0,1,1-4.628-4.627,4.627,4.627,0,0,1,4.628,4.627" transform="translate(-237.99 -86.141)" fill="#ef622f"/>
        <path id="Caminho_117357" data-name="Caminho 117357" d="M1501.1,518.164a3.995,3.995,0,1,1-3.995-3.995,3.995,3.995,0,0,1,3.995,3.995" transform="translate(-250.516 -86.268)" fill="#ef622f"/>
        <path id="Caminho_117358" data-name="Caminho 117358" d="M1574.487,518.291a3.362,3.362,0,1,1-3.362-3.362,3.362,3.362,0,0,1,3.362,3.362" transform="translate(-263.042 -86.396)" fill="#ef622f"/>
        <path id="Caminho_117359" data-name="Caminho 117359" d="M1647.877,518.419a2.73,2.73,0,1,1-2.729-2.73,2.73,2.73,0,0,1,2.729,2.73" transform="translate(-275.568 -86.523)" fill="#ef622f"/>
        <path id="Caminho_117360" data-name="Caminho 117360" d="M1721.268,518.546a2.1,2.1,0,1,1-2.1-2.1,2.1,2.1,0,0,1,2.1,2.1" transform="translate(-288.093 -86.651)" fill="#ef622f"/>
        <path id="Caminho_117361" data-name="Caminho 117361" d="M1794.658,518.673a1.465,1.465,0,1,1-1.465-1.464,1.465,1.465,0,0,1,1.465,1.464" transform="translate(-300.619 -86.778)" fill="#ef622f"/>
        <path id="Caminho_117362" data-name="Caminho 117362" d="M1868.049,518.8a.832.832,0,1,1-.832-.832.833.833,0,0,1,.832.832" transform="translate(-313.145 -86.906)" fill="#ef622f"/>
        <path id="Caminho_117363" data-name="Caminho 117363" d="M33.289,598.775a16.644,16.644,0,1,1-16.644-16.644,16.644,16.644,0,0,1,16.644,16.644" transform="translate(0 -97.671)" fill="#ef622f"/>
        <path id="Caminho_117364" data-name="Caminho 117364" d="M106.679,598.9a16.012,16.012,0,1,1-16.012-16.012A16.012,16.012,0,0,1,106.679,598.9" transform="translate(-12.526 -97.799)" fill="#ef622f"/>
        <path id="Caminho_117365" data-name="Caminho 117365" d="M180.07,599.03a15.379,15.379,0,1,1-15.379-15.379A15.38,15.38,0,0,1,180.07,599.03" transform="translate(-25.052 -97.926)" fill="#ef622f"/>
        <path id="Caminho_117366" data-name="Caminho 117366" d="M253.46,599.158a14.747,14.747,0,1,1-14.747-14.747,14.747,14.747,0,0,1,14.747,14.747" transform="translate(-37.577 -98.053)" fill="#ef622f"/>
        <path id="Caminho_117367" data-name="Caminho 117367" d="M326.851,599.285a14.114,14.114,0,1,1-14.114-14.114,14.114,14.114,0,0,1,14.114,14.114" transform="translate(-50.103 -98.181)" fill="#ef622f"/>
        <path id="Caminho_117368" data-name="Caminho 117368" d="M400.241,599.413a13.482,13.482,0,1,1-13.482-13.482,13.482,13.482,0,0,1,13.482,13.482" transform="translate(-62.629 -98.309)" fill="#ef622f"/>
        <path id="Caminho_117369" data-name="Caminho 117369" d="M473.631,599.54a12.849,12.849,0,1,1-12.849-12.849,12.85,12.85,0,0,1,12.849,12.849" transform="translate(-75.155 -98.436)" fill="#ef622f"/>
        <path id="Caminho_117370" data-name="Caminho 117370" d="M547.022,599.668A12.217,12.217,0,1,1,534.8,587.451a12.217,12.217,0,0,1,12.217,12.217" transform="translate(-87.681 -98.563)" fill="#ef622f"/>
        <path id="Caminho_117371" data-name="Caminho 117371" d="M620.412,599.8a11.585,11.585,0,1,1-11.584-11.585A11.584,11.584,0,0,1,620.412,599.8" transform="translate(-100.206 -98.691)" fill="#ef622f"/>
        <path id="Caminho_117372" data-name="Caminho 117372" d="M693.8,599.923a10.952,10.952,0,1,1-10.952-10.952A10.952,10.952,0,0,1,693.8,599.923" transform="translate(-112.732 -98.819)" fill="#ef622f"/>
        <path id="Caminho_117373" data-name="Caminho 117373" d="M767.193,600.051a10.32,10.32,0,1,1-10.319-10.32,10.32,10.32,0,0,1,10.319,10.32" transform="translate(-125.258 -98.946)" fill="#ef622f"/>
        <path id="Caminho_117374" data-name="Caminho 117374" d="M840.583,600.178a9.687,9.687,0,1,1-9.687-9.687,9.687,9.687,0,0,1,9.687,9.687" transform="translate(-137.784 -99.073)" fill="#ef622f"/>
        <path id="Caminho_117375" data-name="Caminho 117375" d="M913.974,600.305a9.055,9.055,0,1,1-9.054-9.055,9.054,9.054,0,0,1,9.054,9.055" transform="translate(-150.31 -99.201)" fill="#ef622f"/>
        <path id="Caminho_117376" data-name="Caminho 117376" d="M987.364,600.433a8.422,8.422,0,1,1-8.422-8.422,8.422,8.422,0,0,1,8.422,8.422" transform="translate(-162.835 -99.329)" fill="#ef622f"/>
        <path id="Caminho_117377" data-name="Caminho 117377" d="M1060.754,600.56a7.789,7.789,0,1,1-7.789-7.789,7.79,7.79,0,0,1,7.789,7.789" transform="translate(-175.361 -99.456)" fill="#ef622f"/>
        <path id="Caminho_117378" data-name="Caminho 117378" d="M1134.145,600.688a7.157,7.157,0,1,1-7.157-7.157,7.157,7.157,0,0,1,7.157,7.157" transform="translate(-187.887 -99.584)" fill="#ef622f"/>
        <path id="Caminho_117379" data-name="Caminho 117379" d="M1207.536,600.816a6.525,6.525,0,1,1-6.525-6.525,6.525,6.525,0,0,1,6.525,6.525" transform="translate(-200.413 -99.711)" fill="#ef622f"/>
        <path id="Caminho_117380" data-name="Caminho 117380" d="M1280.926,600.943a5.892,5.892,0,1,1-5.892-5.892,5.893,5.893,0,0,1,5.892,5.892" transform="translate(-212.939 -99.839)" fill="#ef622f"/>
        <path id="Caminho_117381" data-name="Caminho 117381" d="M1354.316,601.07a5.26,5.26,0,1,1-5.26-5.259,5.26,5.26,0,0,1,5.26,5.259" transform="translate(-225.464 -99.966)" fill="#ef622f"/>
        <path id="Caminho_117382" data-name="Caminho 117382" d="M1427.706,601.2a4.627,4.627,0,1,1-4.628-4.627,4.627,4.627,0,0,1,4.628,4.627" transform="translate(-237.99 -100.094)" fill="#ef622f"/>
        <path id="Caminho_117383" data-name="Caminho 117383" d="M1501.1,601.326a3.995,3.995,0,1,1-3.995-3.995,3.995,3.995,0,0,1,3.995,3.995" transform="translate(-250.516 -100.221)" fill="#ef622f"/>
        <path id="Caminho_117384" data-name="Caminho 117384" d="M1574.487,601.453a3.362,3.362,0,1,1-3.362-3.362,3.362,3.362,0,0,1,3.362,3.362" transform="translate(-263.042 -100.349)" fill="#ef622f"/>
        <path id="Caminho_117385" data-name="Caminho 117385" d="M1647.877,601.581a2.73,2.73,0,1,1-2.729-2.73,2.73,2.73,0,0,1,2.729,2.73" transform="translate(-275.568 -100.476)" fill="#ef622f"/>
        <path id="Caminho_117386" data-name="Caminho 117386" d="M1721.268,601.708a2.1,2.1,0,1,1-2.1-2.1,2.1,2.1,0,0,1,2.1,2.1" transform="translate(-288.093 -100.604)" fill="#ef622f"/>
        <path id="Caminho_117387" data-name="Caminho 117387" d="M1794.658,601.836a1.465,1.465,0,1,1-1.465-1.465,1.465,1.465,0,0,1,1.465,1.465" transform="translate(-300.619 -100.731)" fill="#ef622f"/>
        <path id="Caminho_117388" data-name="Caminho 117388" d="M1868.049,601.963a.832.832,0,1,1-.832-.832.833.833,0,0,1,.832.832" transform="translate(-313.145 -100.859)" fill="#ef622f"/>
        <path id="Caminho_117389" data-name="Caminho 117389" d="M33.289,681.936a16.644,16.644,0,1,1-16.644-16.644,16.644,16.644,0,0,1,16.644,16.644" transform="translate(0 -111.624)" fill="#ef622f"/>
        <path id="Caminho_117390" data-name="Caminho 117390" d="M106.679,682.064a16.012,16.012,0,1,1-16.012-16.012,16.012,16.012,0,0,1,16.012,16.012" transform="translate(-12.526 -111.751)" fill="#ef622f"/>
        <path id="Caminho_117391" data-name="Caminho 117391" d="M180.07,682.191a15.379,15.379,0,1,1-15.379-15.379,15.379,15.379,0,0,1,15.379,15.379" transform="translate(-25.052 -111.879)" fill="#ef622f"/>
        <path id="Caminho_117392" data-name="Caminho 117392" d="M253.46,682.319a14.747,14.747,0,1,1-14.747-14.747,14.748,14.748,0,0,1,14.747,14.747" transform="translate(-37.577 -112.006)" fill="#ef622f"/>
        <path id="Caminho_117393" data-name="Caminho 117393" d="M326.851,682.447a14.114,14.114,0,1,1-14.114-14.115,14.114,14.114,0,0,1,14.114,14.115" transform="translate(-50.103 -112.134)" fill="#ef622f"/>
        <path id="Caminho_117394" data-name="Caminho 117394" d="M400.241,682.574a13.482,13.482,0,1,1-13.482-13.482,13.482,13.482,0,0,1,13.482,13.482" transform="translate(-62.629 -112.261)" fill="#ef622f"/>
        <path id="Caminho_117395" data-name="Caminho 117395" d="M473.631,682.7a12.849,12.849,0,1,1-12.849-12.849A12.85,12.85,0,0,1,473.631,682.7" transform="translate(-75.155 -112.389)" fill="#ef622f"/>
        <path id="Caminho_117396" data-name="Caminho 117396" d="M547.022,682.829A12.217,12.217,0,1,1,534.8,670.612a12.216,12.216,0,0,1,12.217,12.217" transform="translate(-87.681 -112.516)" fill="#ef622f"/>
        <path id="Caminho_117397" data-name="Caminho 117397" d="M620.412,682.956a11.585,11.585,0,1,1-11.584-11.584,11.584,11.584,0,0,1,11.584,11.584" transform="translate(-100.206 -112.644)" fill="#ef622f"/>
        <path id="Caminho_117398" data-name="Caminho 117398" d="M693.8,683.084a10.952,10.952,0,1,1-10.952-10.952A10.952,10.952,0,0,1,693.8,683.084" transform="translate(-112.732 -112.771)" fill="#ef622f"/>
        <path id="Caminho_117399" data-name="Caminho 117399" d="M767.193,683.212a10.32,10.32,0,1,1-10.319-10.32,10.32,10.32,0,0,1,10.319,10.32" transform="translate(-125.258 -112.899)" fill="#ef622f"/>
        <path id="Caminho_117400" data-name="Caminho 117400" d="M840.583,683.339a9.687,9.687,0,1,1-9.687-9.687,9.687,9.687,0,0,1,9.687,9.687" transform="translate(-137.784 -113.027)" fill="#ef622f"/>
        <path id="Caminho_117401" data-name="Caminho 117401" d="M913.974,683.467a9.055,9.055,0,1,1-9.054-9.055,9.054,9.054,0,0,1,9.054,9.055" transform="translate(-150.31 -113.154)" fill="#ef622f"/>
        <path id="Caminho_117402" data-name="Caminho 117402" d="M987.364,683.594a8.422,8.422,0,1,1-8.422-8.422,8.422,8.422,0,0,1,8.422,8.422" transform="translate(-162.835 -113.281)" fill="#ef622f"/>
        <path id="Caminho_117403" data-name="Caminho 117403" d="M1060.754,683.722a7.789,7.789,0,1,1-7.789-7.789,7.79,7.79,0,0,1,7.789,7.789" transform="translate(-175.361 -113.409)" fill="#ef622f"/>
        <path id="Caminho_117404" data-name="Caminho 117404" d="M1134.145,683.849a7.157,7.157,0,1,1-7.157-7.157,7.157,7.157,0,0,1,7.157,7.157" transform="translate(-187.887 -113.536)" fill="#ef622f"/>
        <path id="Caminho_117405" data-name="Caminho 117405" d="M1207.536,683.977a6.525,6.525,0,1,1-6.525-6.525,6.524,6.524,0,0,1,6.525,6.525" transform="translate(-200.413 -113.664)" fill="#ef622f"/>
        <path id="Caminho_117406" data-name="Caminho 117406" d="M1280.926,684.1a5.892,5.892,0,1,1-5.892-5.892,5.893,5.893,0,0,1,5.892,5.892" transform="translate(-212.939 -113.792)" fill="#ef622f"/>
        <path id="Caminho_117407" data-name="Caminho 117407" d="M1354.316,684.232a5.26,5.26,0,1,1-5.26-5.26,5.26,5.26,0,0,1,5.26,5.26" transform="translate(-225.464 -113.919)" fill="#ef622f"/>
        <path id="Caminho_117408" data-name="Caminho 117408" d="M1427.706,684.359a4.627,4.627,0,1,1-4.628-4.627,4.627,4.627,0,0,1,4.628,4.627" transform="translate(-237.99 -114.047)" fill="#ef622f"/>
        <path id="Caminho_117409" data-name="Caminho 117409" d="M1501.1,684.487a3.995,3.995,0,1,1-3.995-3.995,3.995,3.995,0,0,1,3.995,3.995" transform="translate(-250.516 -114.174)" fill="#ef622f"/>
        <path id="Caminho_117410" data-name="Caminho 117410" d="M1574.487,684.614a3.362,3.362,0,1,1-3.362-3.362,3.362,3.362,0,0,1,3.362,3.362" transform="translate(-263.042 -114.301)" fill="#ef622f"/>
        <path id="Caminho_117411" data-name="Caminho 117411" d="M1647.877,684.742a2.73,2.73,0,1,1-2.729-2.729,2.73,2.73,0,0,1,2.729,2.729" transform="translate(-275.568 -114.429)" fill="#ef622f"/>
        <path id="Caminho_117412" data-name="Caminho 117412" d="M1721.268,684.869a2.1,2.1,0,1,1-2.1-2.1,2.1,2.1,0,0,1,2.1,2.1" transform="translate(-288.093 -114.556)" fill="#ef622f"/>
        <path id="Caminho_117413" data-name="Caminho 117413" d="M1794.658,685a1.465,1.465,0,1,1-1.465-1.465,1.465,1.465,0,0,1,1.465,1.465" transform="translate(-300.619 -114.684)" fill="#ef622f"/>
        <path id="Caminho_117414" data-name="Caminho 117414" d="M1868.049,685.124a.832.832,0,1,1-.832-.832.833.833,0,0,1,.832.832" transform="translate(-313.145 -114.812)" fill="#ef622f"/>
        <path id="Caminho_117415" data-name="Caminho 117415" d="M33.289,765.1a16.644,16.644,0,1,1-16.644-16.644A16.644,16.644,0,0,1,33.289,765.1" transform="translate(0 -125.577)" fill="#ef622f"/>
        <path id="Caminho_117416" data-name="Caminho 117416" d="M106.679,765.226a16.012,16.012,0,1,1-16.012-16.012,16.012,16.012,0,0,1,16.012,16.012" transform="translate(-12.526 -125.704)" fill="#ef622f"/>
        <path id="Caminho_117417" data-name="Caminho 117417" d="M180.07,765.354a15.379,15.379,0,1,1-15.379-15.379,15.38,15.38,0,0,1,15.379,15.379" transform="translate(-25.052 -125.832)" fill="#ef622f"/>
        <path id="Caminho_117418" data-name="Caminho 117418" d="M253.46,765.481a14.747,14.747,0,1,1-14.747-14.747,14.747,14.747,0,0,1,14.747,14.747" transform="translate(-37.577 -125.959)" fill="#ef622f"/>
        <path id="Caminho_117419" data-name="Caminho 117419" d="M326.851,765.608a14.114,14.114,0,1,1-14.114-14.114,14.114,14.114,0,0,1,14.114,14.114" transform="translate(-50.103 -126.087)" fill="#ef622f"/>
        <path id="Caminho_117420" data-name="Caminho 117420" d="M400.241,765.736a13.482,13.482,0,1,1-13.482-13.482,13.482,13.482,0,0,1,13.482,13.482" transform="translate(-62.629 -126.214)" fill="#ef622f"/>
        <path id="Caminho_117421" data-name="Caminho 117421" d="M473.631,765.863a12.849,12.849,0,1,1-12.849-12.849,12.85,12.85,0,0,1,12.849,12.849" transform="translate(-75.155 -126.342)" fill="#ef622f"/>
        <path id="Caminho_117422" data-name="Caminho 117422" d="M547.022,765.991A12.217,12.217,0,1,1,534.8,753.774a12.216,12.216,0,0,1,12.217,12.217" transform="translate(-87.681 -126.47)" fill="#ef622f"/>
        <path id="Caminho_117423" data-name="Caminho 117423" d="M620.412,766.118a11.585,11.585,0,1,1-11.584-11.584,11.584,11.584,0,0,1,11.584,11.584" transform="translate(-100.206 -126.597)" fill="#ef622f"/>
        <path id="Caminho_117424" data-name="Caminho 117424" d="M693.8,766.246a10.952,10.952,0,1,1-10.952-10.952A10.952,10.952,0,0,1,693.8,766.246" transform="translate(-112.732 -126.724)" fill="#ef622f"/>
        <path id="Caminho_117425" data-name="Caminho 117425" d="M767.193,766.373a10.32,10.32,0,1,1-10.319-10.319,10.32,10.32,0,0,1,10.319,10.319" transform="translate(-125.258 -126.852)" fill="#ef622f"/>
        <path id="Caminho_117426" data-name="Caminho 117426" d="M840.583,766.5a9.687,9.687,0,1,1-9.687-9.687,9.686,9.686,0,0,1,9.687,9.687" transform="translate(-137.784 -126.98)" fill="#ef622f"/>
        <path id="Caminho_117427" data-name="Caminho 117427" d="M913.974,766.629a9.055,9.055,0,1,1-9.054-9.055,9.054,9.054,0,0,1,9.054,9.055" transform="translate(-150.31 -127.107)" fill="#ef622f"/>
        <path id="Caminho_117428" data-name="Caminho 117428" d="M987.364,766.756a8.422,8.422,0,1,1-8.422-8.422,8.422,8.422,0,0,1,8.422,8.422" transform="translate(-162.835 -127.235)" fill="#ef622f"/>
        <path id="Caminho_117429" data-name="Caminho 117429" d="M1060.754,766.883a7.789,7.789,0,1,1-7.789-7.789,7.79,7.79,0,0,1,7.789,7.789" transform="translate(-175.361 -127.362)" fill="#ef622f"/>
        <path id="Caminho_117430" data-name="Caminho 117430" d="M1134.145,767.011a7.157,7.157,0,1,1-7.157-7.157,7.157,7.157,0,0,1,7.157,7.157" transform="translate(-187.887 -127.489)" fill="#ef622f"/>
        <path id="Caminho_117431" data-name="Caminho 117431" d="M1207.536,767.138a6.525,6.525,0,1,1-6.525-6.524,6.524,6.524,0,0,1,6.525,6.524" transform="translate(-200.413 -127.617)" fill="#ef622f"/>
        <path id="Caminho_117432" data-name="Caminho 117432" d="M1280.926,767.266a5.892,5.892,0,1,1-5.892-5.892,5.893,5.893,0,0,1,5.892,5.892" transform="translate(-212.939 -127.745)" fill="#ef622f"/>
        <path id="Caminho_117433" data-name="Caminho 117433" d="M1354.316,767.393a5.26,5.26,0,1,1-5.26-5.26,5.26,5.26,0,0,1,5.26,5.26" transform="translate(-225.464 -127.872)" fill="#ef622f"/>
        <path id="Caminho_117434" data-name="Caminho 117434" d="M1427.706,767.521a4.627,4.627,0,1,1-4.628-4.627,4.627,4.627,0,0,1,4.628,4.627" transform="translate(-237.99 -128)" fill="#ef622f"/>
        <path id="Caminho_117435" data-name="Caminho 117435" d="M1501.1,767.649a3.995,3.995,0,1,1-3.995-3.994,3.995,3.995,0,0,1,3.995,3.994" transform="translate(-250.516 -128.127)" fill="#ef622f"/>
        <path id="Caminho_117436" data-name="Caminho 117436" d="M1574.487,767.776a3.362,3.362,0,1,1-3.362-3.362,3.362,3.362,0,0,1,3.362,3.362" transform="translate(-263.042 -128.255)" fill="#ef622f"/>
        <path id="Caminho_117437" data-name="Caminho 117437" d="M1647.877,767.9a2.73,2.73,0,1,1-2.729-2.73,2.73,2.73,0,0,1,2.729,2.73" transform="translate(-275.568 -128.382)" fill="#ef622f"/>
        <path id="Caminho_117438" data-name="Caminho 117438" d="M1721.268,768.031a2.1,2.1,0,1,1-2.1-2.1,2.1,2.1,0,0,1,2.1,2.1" transform="translate(-288.093 -128.51)" fill="#ef622f"/>
        <path id="Caminho_117439" data-name="Caminho 117439" d="M1794.658,768.159a1.465,1.465,0,1,1-1.465-1.465,1.465,1.465,0,0,1,1.465,1.465" transform="translate(-300.619 -128.637)" fill="#ef622f"/>
        <path id="Caminho_117440" data-name="Caminho 117440" d="M1868.049,768.286a.832.832,0,1,1-.832-.832.833.833,0,0,1,.832.832" transform="translate(-313.145 -128.765)" fill="#ef622f"/>
        <path id="Caminho_117441" data-name="Caminho 117441" d="M33.289,848.259a16.644,16.644,0,1,1-16.644-16.644,16.644,16.644,0,0,1,16.644,16.644" transform="translate(0 -139.53)" fill="#ef622f"/>
        <path id="Caminho_117442" data-name="Caminho 117442" d="M106.679,848.387a16.012,16.012,0,1,1-16.012-16.012,16.012,16.012,0,0,1,16.012,16.012" transform="translate(-12.526 -139.657)" fill="#ef622f"/>
        <path id="Caminho_117443" data-name="Caminho 117443" d="M180.07,848.514a15.379,15.379,0,1,1-15.379-15.379,15.38,15.38,0,0,1,15.379,15.379" transform="translate(-25.052 -139.785)" fill="#ef622f"/>
        <path id="Caminho_117444" data-name="Caminho 117444" d="M253.46,848.642A14.747,14.747,0,1,1,238.713,833.9a14.747,14.747,0,0,1,14.747,14.747" transform="translate(-37.577 -139.912)" fill="#ef622f"/>
        <path id="Caminho_117445" data-name="Caminho 117445" d="M326.851,848.769a14.114,14.114,0,1,1-14.114-14.114,14.114,14.114,0,0,1,14.114,14.114" transform="translate(-50.103 -140.04)" fill="#ef622f"/>
        <path id="Caminho_117446" data-name="Caminho 117446" d="M400.241,848.9a13.482,13.482,0,1,1-13.482-13.482A13.482,13.482,0,0,1,400.241,848.9" transform="translate(-62.629 -140.167)" fill="#ef622f"/>
        <path id="Caminho_117447" data-name="Caminho 117447" d="M473.631,849.024a12.849,12.849,0,1,1-12.849-12.849,12.85,12.85,0,0,1,12.849,12.849" transform="translate(-75.155 -140.295)" fill="#ef622f"/>
        <path id="Caminho_117448" data-name="Caminho 117448" d="M547.022,849.152A12.217,12.217,0,1,1,534.8,836.935a12.216,12.216,0,0,1,12.217,12.217" transform="translate(-87.681 -140.422)" fill="#ef622f"/>
        <path id="Caminho_117449" data-name="Caminho 117449" d="M620.412,849.279a11.585,11.585,0,1,1-11.584-11.584,11.584,11.584,0,0,1,11.584,11.584" transform="translate(-100.206 -140.55)" fill="#ef622f"/>
        <path id="Caminho_117450" data-name="Caminho 117450" d="M693.8,849.407a10.952,10.952,0,1,1-10.952-10.952A10.952,10.952,0,0,1,693.8,849.407" transform="translate(-112.732 -140.677)" fill="#ef622f"/>
        <path id="Caminho_117451" data-name="Caminho 117451" d="M767.193,849.534a10.32,10.32,0,1,1-10.319-10.319,10.32,10.32,0,0,1,10.319,10.319" transform="translate(-125.258 -140.805)" fill="#ef622f"/>
        <path id="Caminho_117452" data-name="Caminho 117452" d="M840.583,849.662a9.687,9.687,0,1,1-9.687-9.687,9.687,9.687,0,0,1,9.687,9.687" transform="translate(-137.784 -140.932)" fill="#ef622f"/>
        <path id="Caminho_117453" data-name="Caminho 117453" d="M913.974,849.789a9.055,9.055,0,1,1-9.054-9.055,9.054,9.054,0,0,1,9.054,9.055" transform="translate(-150.31 -141.06)" fill="#ef622f"/>
        <path id="Caminho_117454" data-name="Caminho 117454" d="M987.364,849.917a8.422,8.422,0,1,1-8.422-8.422,8.422,8.422,0,0,1,8.422,8.422" transform="translate(-162.835 -141.187)" fill="#ef622f"/>
        <path id="Caminho_117455" data-name="Caminho 117455" d="M1060.754,850.044a7.789,7.789,0,1,1-7.789-7.789,7.79,7.79,0,0,1,7.789,7.789" transform="translate(-175.361 -141.315)" fill="#ef622f"/>
        <path id="Caminho_117456" data-name="Caminho 117456" d="M1134.145,850.172a7.157,7.157,0,1,1-7.157-7.157,7.157,7.157,0,0,1,7.157,7.157" transform="translate(-187.887 -141.442)" fill="#ef622f"/>
        <path id="Caminho_117457" data-name="Caminho 117457" d="M1207.536,850.3a6.525,6.525,0,1,1-6.525-6.525,6.525,6.525,0,0,1,6.525,6.525" transform="translate(-200.413 -141.57)" fill="#ef622f"/>
        <path id="Caminho_117458" data-name="Caminho 117458" d="M1280.926,850.427a5.892,5.892,0,1,1-5.892-5.892,5.893,5.893,0,0,1,5.892,5.892" transform="translate(-212.939 -141.698)" fill="#ef622f"/>
        <path id="Caminho_117459" data-name="Caminho 117459" d="M1354.316,850.555a5.26,5.26,0,1,1-5.26-5.26,5.26,5.26,0,0,1,5.26,5.26" transform="translate(-225.464 -141.825)" fill="#ef622f"/>
        <path id="Caminho_117460" data-name="Caminho 117460" d="M1427.706,850.682a4.627,4.627,0,1,1-4.628-4.627,4.627,4.627,0,0,1,4.628,4.627" transform="translate(-237.99 -141.953)" fill="#ef622f"/>
        <path id="Caminho_117461" data-name="Caminho 117461" d="M1501.1,850.81a3.995,3.995,0,1,1-3.995-3.995,3.995,3.995,0,0,1,3.995,3.995" transform="translate(-250.516 -142.08)" fill="#ef622f"/>
        <path id="Caminho_117462" data-name="Caminho 117462" d="M1574.487,850.937a3.362,3.362,0,1,1-3.362-3.362,3.362,3.362,0,0,1,3.362,3.362" transform="translate(-263.042 -142.208)" fill="#ef622f"/>
        <path id="Caminho_117463" data-name="Caminho 117463" d="M1647.877,851.065a2.73,2.73,0,1,1-2.729-2.73,2.73,2.73,0,0,1,2.729,2.73" transform="translate(-275.568 -142.335)" fill="#ef622f"/>
        <path id="Caminho_117464" data-name="Caminho 117464" d="M1721.268,851.192a2.1,2.1,0,1,1-2.1-2.1,2.1,2.1,0,0,1,2.1,2.1" transform="translate(-288.093 -142.463)" fill="#ef622f"/>
        <path id="Caminho_117465" data-name="Caminho 117465" d="M1794.658,851.32a1.465,1.465,0,1,1-1.465-1.465,1.465,1.465,0,0,1,1.465,1.465" transform="translate(-300.619 -142.59)" fill="#ef622f"/>
        <path id="Caminho_117466" data-name="Caminho 117466" d="M1868.049,851.447a.832.832,0,1,1-.832-.832.833.833,0,0,1,.832.832" transform="translate(-313.145 -142.718)" fill="#ef622f"/>
        <path id="Caminho_117467" data-name="Caminho 117467" d="M33.289,931.421a16.644,16.644,0,1,1-16.644-16.644,16.644,16.644,0,0,1,16.644,16.644" transform="translate(0 -153.483)" fill="#ef622f"/>
        <path id="Caminho_117468" data-name="Caminho 117468" d="M106.679,931.549a16.012,16.012,0,1,1-16.012-16.012,16.012,16.012,0,0,1,16.012,16.012" transform="translate(-12.526 -153.61)" fill="#ef622f"/>
        <path id="Caminho_117469" data-name="Caminho 117469" d="M180.07,931.676A15.379,15.379,0,1,1,164.69,916.3a15.38,15.38,0,0,1,15.379,15.379" transform="translate(-25.052 -153.738)" fill="#ef622f"/>
        <path id="Caminho_117470" data-name="Caminho 117470" d="M253.46,931.8a14.747,14.747,0,1,1-14.747-14.747A14.747,14.747,0,0,1,253.46,931.8" transform="translate(-37.577 -153.865)" fill="#ef622f"/>
        <path id="Caminho_117471" data-name="Caminho 117471" d="M326.851,931.931a14.114,14.114,0,1,1-14.114-14.115,14.114,14.114,0,0,1,14.114,14.115" transform="translate(-50.103 -153.993)" fill="#ef622f"/>
        <path id="Caminho_117472" data-name="Caminho 117472" d="M400.241,932.059a13.482,13.482,0,1,1-13.482-13.482,13.482,13.482,0,0,1,13.482,13.482" transform="translate(-62.629 -154.12)" fill="#ef622f"/>
        <path id="Caminho_117473" data-name="Caminho 117473" d="M473.631,932.186a12.849,12.849,0,1,1-12.849-12.849,12.85,12.85,0,0,1,12.849,12.849" transform="translate(-75.155 -154.248)" fill="#ef622f"/>
        <path id="Caminho_117474" data-name="Caminho 117474" d="M547.022,932.314A12.217,12.217,0,1,1,534.8,920.1a12.216,12.216,0,0,1,12.217,12.217" transform="translate(-87.681 -154.375)" fill="#ef622f"/>
        <path id="Caminho_117475" data-name="Caminho 117475" d="M620.412,932.441a11.585,11.585,0,1,1-11.584-11.584,11.584,11.584,0,0,1,11.584,11.584" transform="translate(-100.206 -154.503)" fill="#ef622f"/>
        <path id="Caminho_117476" data-name="Caminho 117476" d="M693.8,932.569a10.952,10.952,0,1,1-10.952-10.952A10.952,10.952,0,0,1,693.8,932.569" transform="translate(-112.732 -154.63)" fill="#ef622f"/>
        <path id="Caminho_117477" data-name="Caminho 117477" d="M767.193,932.7a10.32,10.32,0,1,1-10.319-10.32,10.32,10.32,0,0,1,10.319,10.32" transform="translate(-125.258 -154.758)" fill="#ef622f"/>
        <path id="Caminho_117478" data-name="Caminho 117478" d="M840.583,932.824a9.687,9.687,0,1,1-9.687-9.687,9.687,9.687,0,0,1,9.687,9.687" transform="translate(-137.784 -154.885)" fill="#ef622f"/>
        <path id="Caminho_117479" data-name="Caminho 117479" d="M913.974,932.951a9.055,9.055,0,1,1-9.054-9.055,9.054,9.054,0,0,1,9.054,9.055" transform="translate(-150.31 -155.013)" fill="#ef622f"/>
        <path id="Caminho_117480" data-name="Caminho 117480" d="M987.364,933.079a8.422,8.422,0,1,1-8.422-8.422,8.422,8.422,0,0,1,8.422,8.422" transform="translate(-162.835 -155.141)" fill="#ef622f"/>
        <path id="Caminho_117481" data-name="Caminho 117481" d="M1060.754,933.206a7.789,7.789,0,1,1-7.789-7.79,7.79,7.79,0,0,1,7.789,7.79" transform="translate(-175.361 -155.268)" fill="#ef622f"/>
        <path id="Caminho_117482" data-name="Caminho 117482" d="M1134.145,933.334a7.157,7.157,0,1,1-7.157-7.157,7.157,7.157,0,0,1,7.157,7.157" transform="translate(-187.887 -155.395)" fill="#ef622f"/>
        <path id="Caminho_117483" data-name="Caminho 117483" d="M1207.536,933.462a6.525,6.525,0,1,1-6.525-6.525,6.524,6.524,0,0,1,6.525,6.525" transform="translate(-200.413 -155.523)" fill="#ef622f"/>
        <path id="Caminho_117484" data-name="Caminho 117484" d="M1280.926,933.589a5.892,5.892,0,1,1-5.892-5.892,5.893,5.893,0,0,1,5.892,5.892" transform="translate(-212.939 -155.651)" fill="#ef622f"/>
        <path id="Caminho_117485" data-name="Caminho 117485" d="M1354.316,933.717a5.26,5.26,0,1,1-5.26-5.26,5.26,5.26,0,0,1,5.26,5.26" transform="translate(-225.464 -155.778)" fill="#ef622f"/>
        <path id="Caminho_117486" data-name="Caminho 117486" d="M1427.706,933.844a4.627,4.627,0,1,1-4.628-4.627,4.627,4.627,0,0,1,4.628,4.627" transform="translate(-237.99 -155.905)" fill="#ef622f"/>
        <path id="Caminho_117487" data-name="Caminho 117487" d="M1501.1,933.972a3.995,3.995,0,1,1-3.995-3.995,3.995,3.995,0,0,1,3.995,3.995" transform="translate(-250.516 -156.033)" fill="#ef622f"/>
        <path id="Caminho_117488" data-name="Caminho 117488" d="M1574.487,934.1a3.362,3.362,0,1,1-3.362-3.362,3.363,3.363,0,0,1,3.362,3.362" transform="translate(-263.042 -156.161)" fill="#ef622f"/>
        <path id="Caminho_117489" data-name="Caminho 117489" d="M1647.877,934.227a2.73,2.73,0,1,1-2.729-2.73,2.73,2.73,0,0,1,2.729,2.73" transform="translate(-275.568 -156.288)" fill="#ef622f"/>
        <path id="Caminho_117490" data-name="Caminho 117490" d="M1721.268,934.354a2.1,2.1,0,1,1-2.1-2.1,2.1,2.1,0,0,1,2.1,2.1" transform="translate(-288.093 -156.416)" fill="#ef622f"/>
        <path id="Caminho_117491" data-name="Caminho 117491" d="M1794.658,934.482a1.465,1.465,0,1,1-1.465-1.465,1.465,1.465,0,0,1,1.465,1.465" transform="translate(-300.619 -156.543)" fill="#ef622f"/>
        <path id="Caminho_117492" data-name="Caminho 117492" d="M1868.049,934.609a.832.832,0,1,1-.832-.832.832.832,0,0,1,.832.832" transform="translate(-313.145 -156.671)" fill="#ef622f"/>
        <path id="Caminho_117493" data-name="Caminho 117493" d="M33.289,1014.582a16.644,16.644,0,1,1-16.644-16.645,16.644,16.644,0,0,1,16.644,16.645" transform="translate(0 -167.436)" fill="#ef622f"/>
        <path id="Caminho_117494" data-name="Caminho 117494" d="M106.679,1014.71A16.012,16.012,0,1,1,90.667,998.7a16.012,16.012,0,0,1,16.012,16.012" transform="translate(-12.526 -167.563)" fill="#ef622f"/>
        <path id="Caminho_117495" data-name="Caminho 117495" d="M180.07,1014.837a15.379,15.379,0,1,1-15.379-15.38,15.379,15.379,0,0,1,15.379,15.38" transform="translate(-25.052 -167.691)" fill="#ef622f"/>
        <path id="Caminho_117496" data-name="Caminho 117496" d="M253.46,1014.965a14.747,14.747,0,1,1-14.747-14.747,14.747,14.747,0,0,1,14.747,14.747" transform="translate(-37.577 -167.818)" fill="#ef622f"/>
        <path id="Caminho_117497" data-name="Caminho 117497" d="M326.851,1015.092a14.114,14.114,0,1,1-14.114-14.114,14.114,14.114,0,0,1,14.114,14.114" transform="translate(-50.103 -167.946)" fill="#ef622f"/>
        <path id="Caminho_117498" data-name="Caminho 117498" d="M400.241,1015.22a13.482,13.482,0,1,1-13.482-13.482,13.482,13.482,0,0,1,13.482,13.482" transform="translate(-62.629 -168.073)" fill="#ef622f"/>
        <path id="Caminho_117499" data-name="Caminho 117499" d="M473.631,1015.347a12.849,12.849,0,1,1-12.849-12.849,12.85,12.85,0,0,1,12.849,12.849" transform="translate(-75.155 -168.201)" fill="#ef622f"/>
        <path id="Caminho_117500" data-name="Caminho 117500" d="M547.022,1015.475a12.217,12.217,0,1,1-12.217-12.217,12.216,12.216,0,0,1,12.217,12.217" transform="translate(-87.681 -168.328)" fill="#ef622f"/>
        <path id="Caminho_117501" data-name="Caminho 117501" d="M620.412,1015.6a11.585,11.585,0,1,1-11.584-11.584,11.584,11.584,0,0,1,11.584,11.584" transform="translate(-100.206 -168.456)" fill="#ef622f"/>
        <path id="Caminho_117502" data-name="Caminho 117502" d="M693.8,1015.73a10.952,10.952,0,1,1-10.952-10.952A10.952,10.952,0,0,1,693.8,1015.73" transform="translate(-112.732 -168.583)" fill="#ef622f"/>
        <path id="Caminho_117503" data-name="Caminho 117503" d="M767.193,1015.857a10.32,10.32,0,1,1-10.319-10.32,10.32,10.32,0,0,1,10.319,10.32" transform="translate(-125.258 -168.711)" fill="#ef622f"/>
        <path id="Caminho_117504" data-name="Caminho 117504" d="M840.583,1015.985a9.687,9.687,0,1,1-9.687-9.687,9.686,9.686,0,0,1,9.687,9.687" transform="translate(-137.784 -168.838)" fill="#ef622f"/>
        <path id="Caminho_117505" data-name="Caminho 117505" d="M913.974,1016.113a9.055,9.055,0,1,1-9.054-9.055,9.054,9.054,0,0,1,9.054,9.055" transform="translate(-150.31 -168.966)" fill="#ef622f"/>
        <path id="Caminho_117506" data-name="Caminho 117506" d="M987.364,1016.24a8.422,8.422,0,1,1-8.422-8.422,8.422,8.422,0,0,1,8.422,8.422" transform="translate(-162.835 -169.093)" fill="#ef622f"/>
        <path id="Caminho_117507" data-name="Caminho 117507" d="M1060.754,1016.368a7.789,7.789,0,1,1-7.789-7.79,7.79,7.79,0,0,1,7.789,7.79" transform="translate(-175.361 -169.221)" fill="#ef622f"/>
        <path id="Caminho_117508" data-name="Caminho 117508" d="M1134.145,1016.5a7.157,7.157,0,1,1-7.157-7.157,7.157,7.157,0,0,1,7.157,7.157" transform="translate(-187.887 -169.348)" fill="#ef622f"/>
        <path id="Caminho_117509" data-name="Caminho 117509" d="M1207.536,1016.622a6.525,6.525,0,1,1-6.525-6.525,6.525,6.525,0,0,1,6.525,6.525" transform="translate(-200.413 -169.476)" fill="#ef622f"/>
        <path id="Caminho_117510" data-name="Caminho 117510" d="M1280.926,1016.75a5.892,5.892,0,1,1-5.892-5.892,5.893,5.893,0,0,1,5.892,5.892" transform="translate(-212.939 -169.603)" fill="#ef622f"/>
        <path id="Caminho_117511" data-name="Caminho 117511" d="M1354.316,1016.877a5.26,5.26,0,1,1-5.26-5.26,5.26,5.26,0,0,1,5.26,5.26" transform="translate(-225.464 -169.731)" fill="#ef622f"/>
        <path id="Caminho_117512" data-name="Caminho 117512" d="M1427.706,1017.005a4.627,4.627,0,1,1-4.628-4.627,4.627,4.627,0,0,1,4.628,4.627" transform="translate(-237.99 -169.859)" fill="#ef622f"/>
        <path id="Caminho_117513" data-name="Caminho 117513" d="M1501.1,1017.133a3.995,3.995,0,1,1-3.995-3.995,3.995,3.995,0,0,1,3.995,3.995" transform="translate(-250.516 -169.986)" fill="#ef622f"/>
        <path id="Caminho_117514" data-name="Caminho 117514" d="M1574.487,1017.26a3.362,3.362,0,1,1-3.362-3.362,3.362,3.362,0,0,1,3.362,3.362" transform="translate(-263.042 -170.113)" fill="#ef622f"/>
        <path id="Caminho_117515" data-name="Caminho 117515" d="M1647.877,1017.388a2.73,2.73,0,1,1-2.729-2.73,2.73,2.73,0,0,1,2.729,2.73" transform="translate(-275.568 -170.241)" fill="#ef622f"/>
        <path id="Caminho_117516" data-name="Caminho 117516" d="M1721.268,1017.515a2.1,2.1,0,1,1-2.1-2.1,2.1,2.1,0,0,1,2.1,2.1" transform="translate(-288.093 -170.369)" fill="#ef622f"/>
        <path id="Caminho_117517" data-name="Caminho 117517" d="M1794.658,1017.643a1.465,1.465,0,1,1-1.465-1.465,1.465,1.465,0,0,1,1.465,1.465" transform="translate(-300.619 -170.496)" fill="#ef622f"/>
        <path id="Caminho_117518" data-name="Caminho 117518" d="M1868.049,1017.77a.832.832,0,1,1-.832-.832.833.833,0,0,1,.832.832" transform="translate(-313.145 -170.623)" fill="#ef622f"/>
        <path id="Caminho_117519" data-name="Caminho 117519" d="M33.289,1097.745A16.644,16.644,0,1,1,16.644,1081.1a16.644,16.644,0,0,1,16.644,16.645" transform="translate(0 -181.389)" fill="#ef622f"/>
        <path id="Caminho_117520" data-name="Caminho 117520" d="M106.679,1097.872a16.012,16.012,0,1,1-16.012-16.012,16.012,16.012,0,0,1,16.012,16.012" transform="translate(-12.526 -181.516)" fill="#ef622f"/>
        <path id="Caminho_117521" data-name="Caminho 117521" d="M180.07,1098a15.379,15.379,0,1,1-15.379-15.379A15.379,15.379,0,0,1,180.07,1098" transform="translate(-25.052 -181.644)" fill="#ef622f"/>
        <path id="Caminho_117522" data-name="Caminho 117522" d="M253.46,1098.127a14.747,14.747,0,1,1-14.747-14.747,14.747,14.747,0,0,1,14.747,14.747" transform="translate(-37.577 -181.771)" fill="#ef622f"/>
        <path id="Caminho_117523" data-name="Caminho 117523" d="M326.851,1098.255a14.114,14.114,0,1,1-14.114-14.115,14.114,14.114,0,0,1,14.114,14.115" transform="translate(-50.103 -181.899)" fill="#ef622f"/>
        <path id="Caminho_117524" data-name="Caminho 117524" d="M400.241,1098.382a13.482,13.482,0,1,1-13.482-13.482,13.482,13.482,0,0,1,13.482,13.482" transform="translate(-62.629 -182.026)" fill="#ef622f"/>
        <path id="Caminho_117525" data-name="Caminho 117525" d="M473.631,1098.509a12.849,12.849,0,1,1-12.849-12.849,12.85,12.85,0,0,1,12.849,12.849" transform="translate(-75.155 -182.154)" fill="#ef622f"/>
        <path id="Caminho_117526" data-name="Caminho 117526" d="M547.022,1098.637A12.217,12.217,0,1,1,534.8,1086.42a12.216,12.216,0,0,1,12.217,12.217" transform="translate(-87.681 -182.281)" fill="#ef622f"/>
        <path id="Caminho_117527" data-name="Caminho 117527" d="M620.412,1098.765a11.585,11.585,0,1,1-11.584-11.585,11.584,11.584,0,0,1,11.584,11.585" transform="translate(-100.206 -182.409)" fill="#ef622f"/>
        <path id="Caminho_117528" data-name="Caminho 117528" d="M693.8,1098.892a10.952,10.952,0,1,1-10.952-10.953,10.952,10.952,0,0,1,10.952,10.953" transform="translate(-112.732 -182.536)" fill="#ef622f"/>
        <path id="Caminho_117529" data-name="Caminho 117529" d="M767.193,1099.019a10.32,10.32,0,1,1-10.319-10.319,10.32,10.32,0,0,1,10.319,10.319" transform="translate(-125.258 -182.664)" fill="#ef622f"/>
        <path id="Caminho_117530" data-name="Caminho 117530" d="M840.583,1099.147a9.687,9.687,0,1,1-9.687-9.687,9.687,9.687,0,0,1,9.687,9.687" transform="translate(-137.784 -182.792)" fill="#ef622f"/>
        <path id="Caminho_117531" data-name="Caminho 117531" d="M913.974,1099.275a9.055,9.055,0,1,1-9.054-9.055,9.054,9.054,0,0,1,9.054,9.055" transform="translate(-150.31 -182.919)" fill="#ef622f"/>
        <path id="Caminho_117532" data-name="Caminho 117532" d="M987.364,1099.4a8.422,8.422,0,1,1-8.422-8.422,8.422,8.422,0,0,1,8.422,8.422" transform="translate(-162.835 -183.046)" fill="#ef622f"/>
        <path id="Caminho_117533" data-name="Caminho 117533" d="M1060.754,1099.529a7.789,7.789,0,1,1-7.789-7.789,7.79,7.79,0,0,1,7.789,7.789" transform="translate(-175.361 -183.174)" fill="#ef622f"/>
        <path id="Caminho_117534" data-name="Caminho 117534" d="M1134.145,1099.657a7.157,7.157,0,1,1-7.157-7.157,7.157,7.157,0,0,1,7.157,7.157" transform="translate(-187.887 -183.302)" fill="#ef622f"/>
        <path id="Caminho_117535" data-name="Caminho 117535" d="M1207.536,1099.785a6.525,6.525,0,1,1-6.525-6.524,6.524,6.524,0,0,1,6.525,6.524" transform="translate(-200.413 -183.429)" fill="#ef622f"/>
        <path id="Caminho_117536" data-name="Caminho 117536" d="M1280.926,1099.912a5.892,5.892,0,1,1-5.892-5.892,5.893,5.893,0,0,1,5.892,5.892" transform="translate(-212.939 -183.556)" fill="#ef622f"/>
        <path id="Caminho_117537" data-name="Caminho 117537" d="M1354.316,1100.04a5.26,5.26,0,1,1-5.26-5.26,5.26,5.26,0,0,1,5.26,5.26" transform="translate(-225.464 -183.684)" fill="#ef622f"/>
        <path id="Caminho_117538" data-name="Caminho 117538" d="M1427.706,1100.167a4.627,4.627,0,1,1-4.628-4.627,4.627,4.627,0,0,1,4.628,4.627" transform="translate(-237.99 -183.812)" fill="#ef622f"/>
        <path id="Caminho_117539" data-name="Caminho 117539" d="M1501.1,1100.295a3.995,3.995,0,1,1-3.995-3.995,3.995,3.995,0,0,1,3.995,3.995" transform="translate(-250.516 -183.939)" fill="#ef622f"/>
        <path id="Caminho_117540" data-name="Caminho 117540" d="M1574.487,1100.422a3.362,3.362,0,1,1-3.362-3.362,3.362,3.362,0,0,1,3.362,3.362" transform="translate(-263.042 -184.066)" fill="#ef622f"/>
        <path id="Caminho_117541" data-name="Caminho 117541" d="M1647.877,1100.55a2.73,2.73,0,1,1-2.729-2.73,2.73,2.73,0,0,1,2.729,2.73" transform="translate(-275.568 -184.194)" fill="#ef622f"/>
        <path id="Caminho_117542" data-name="Caminho 117542" d="M1721.268,1100.677a2.1,2.1,0,1,1-2.1-2.1,2.1,2.1,0,0,1,2.1,2.1" transform="translate(-288.093 -184.322)" fill="#ef622f"/>
        <path id="Caminho_117543" data-name="Caminho 117543" d="M1794.658,1100.8a1.465,1.465,0,1,1-1.465-1.465,1.465,1.465,0,0,1,1.465,1.465" transform="translate(-300.619 -184.449)" fill="#ef622f"/>
        <path id="Caminho_117544" data-name="Caminho 117544" d="M1868.049,1100.932a.832.832,0,1,1-.832-.832.833.833,0,0,1,.832.832" transform="translate(-313.145 -184.576)" fill="#ef622f"/>
      </g>
    </g>
  </g>
  <g id="Grupo_de_máscara_16" data-name="Grupo de máscara 16" transform="translate(-1640 -2685)" clip-path="url(#clip-path-3)">
    <path id="Caminho_117090" data-name="Caminho 117090" d="M716.979,998,0,1355.946l735.931,133.775,119.522,841.356,380.341-666.535,935.973,114.822-578.816-632.388L2330.768,36.654,1253.185,702.721,648.836,0Z" transform="translate(1240.616 2058.547)" fill="#01062e"/>
  </g>
</svg>
