<svg xmlns="http://www.w3.org/2000/svg" width="297.378" height="146.742" viewBox="0 0 297.378 146.742">
  <g id="Grupo_7" data-name="Grupo 7" transform="translate(0 0)">
    <g id="Grupo_3" data-name="Grupo 3" transform="translate(0 0)">
      <path id="Caminho_9" data-name="Caminho 9" d="M54.765,72.817c-4.964,0-7.4,4.871-7.4,14.586,0,9.025,2.082,13.325,7.078,13.325,4.491,0,6.72-3.58,6.841-10.815H56.668v.38c0,3.933-.563,5.826-1.932,5.826-1.784,0-2.051-2.67-2.051-8.378,0-7.455.238-10.873,2.024-10.873,1.247,0,1.544,1.555,1.544,4.754V82.87h5.114v-.6c0-6.208-2.319-9.45-6.6-9.45" transform="translate(29.928 46.014)" fill="#f1f1f1"/>
      <path id="Caminho_10" data-name="Caminho 10" d="M60.041,73.149l-3.8,26.87h4.222l.713-5.738h3.837l.743,5.738H70.42l-3.479-26.87Zm1.606,16.714,1.428-11.916,1.4,11.916Z" transform="translate(35.537 46.224)" fill="#f1f1f1"/>
      <path id="Caminho_11" data-name="Caminho 11" d="M75.17,87.81A27.523,27.523,0,0,0,73.8,82.584L70.56,73.15H65.8v26.868H70V84.183a38.887,38.887,0,0,0,1.634,5.446l3.687,10.389h4.046V73.15H75.17Z" transform="translate(41.582 46.225)" fill="#f1f1f1"/>
      <path id="Caminho_12" data-name="Caminho 12" d="M78.83,73.149l-3.807,26.87h4.222l.684-5.738h3.837l.775,5.738h4.638l-3.45-26.87Zm1.6,16.714,1.4-11.916,1.4,11.916Z" transform="translate(47.409 46.224)" fill="#f1f1f1"/>
      <path id="Caminho_13" data-name="Caminho 13" d="M89.765,73.149H84.59v26.87H96.216V95.6H89.765Z" transform="translate(53.454 46.225)" fill="#f1f1f1"/>
      <path id="Caminho_14" data-name="Caminho 14" d="M103.869,83.964h-3.034V73.149h-5.2v26.87h5.2V88.382h3.034v11.637h5.175V73.149h-5.175Z" transform="translate(60.431 46.225)" fill="#f1f1f1"/>
      <path id="Caminho_23" data-name="Caminho 23" d="M146.729,2.317,78.9,44.241,40.86,0l4.282,62.819L0,85.359l46.332,8.422,7.523,52.959L77.8,104.787l58.911,7.22-36.428-39.8Z" transform="translate(0 0)" fill="#00a7e1"/>
      <path id="Caminho_24" data-name="Caminho 24" d="M34.364,46.723,38.5,56.7l-2.826,1.173-4.132-9.994-4.788,1.981L37.04,74.694l4.788-1.981-4.46-10.758,2.8-1.173,4.46,10.771,4.788-1.98L39.122,44.744Z" transform="translate(16.904 28.274)" fill="#eee"/>
      <path id="Caminho_25" data-name="Caminho 25" d="M51.262,40.851l3,11.081c.266.951.832,2.7,1.754,5.207-1.16-2.45-2.2-4.078-2.766-5.077l-5.739-9.656-4.4,1.82,2.8,10.873a49.689,49.689,0,0,0,1.607,5.562c-.775-1.658-1.576-3.3-2.469-4.915L39.723,45.634l-4.372,1.807L48.5,71.1l4.369-1.82L49.834,57.139a41.657,41.657,0,0,0-1.9-6.5c.891,1.937,1.9,3.948,3.092,6l6.245,10.815,4.341-1.8L54.8,39.384Z" transform="translate(22.339 24.888)" fill="#eee"/>
      <path id="Caminho_26" data-name="Caminho 26" d="M66.4,47.173c-3.629-8.716-6.872-11.7-12.848-9.217l-5.263,2.188L58.549,64.972l5.294-2.187c6.007-2.5,6.187-6.852,2.559-15.613M62.179,58.691a2.86,2.86,0,0,1-.535.178l-6.87-16.6.3-.131a2.7,2.7,0,0,1,2.706.116c.862.632,1.993,3.171,3.837,7.572,2.229,5.371,3.032,7.836.565,8.863" transform="translate(30.516 23.453)" fill="#eee"/>
      <path id="Caminho_27" data-name="Caminho 27" d="M112.813,72.844c-5.5,0-7.523,4.46-7.523,13.94s2.05,13.925,7.553,13.925c5.294,0,7.314-4.533,7.314-13.925s-2.081-13.94-7.344-13.94m0,23.376c-1.873,0-2.082-2.862-2.082-9.245,0-6.706.119-9.788,2.024-9.788,1.784,0,1.963,3.318,1.963,10.536,0,5.71-.357,8.5-1.9,8.5" transform="translate(66.535 46.032)" fill="#f1f1f1"/>
      <path id="Caminho_28" data-name="Caminho 28" d="M121.013,73.149H115.84v26.87H127.5V95.6h-6.484Z" transform="translate(73.202 46.225)" fill="#f1f1f1"/>
      <path id="Caminho_29" data-name="Caminho 29" d="M128.833,73.149h-5.176v26.87h11.631V95.6h-6.454Z" transform="translate(78.141 46.225)" fill="#f1f1f1"/>
      <path id="Caminho_30" data-name="Caminho 30" d="M137.9,83.23l-2.557-10.08h-5.175l4.462,16.024v10.846h5.2V89.173l5.294-16.024h-4.194Z" transform="translate(82.253 46.224)" fill="#f1f1f1"/>
      <path id="Caminho_31" data-name="Caminho 31" d="M155.126,84.537c-.09.984-.266,2.818-.356,5.473a54.37,54.37,0,0,0-.625-5.753l-1.606-11.108h-4.757l-1.576,11.108a49.216,49.216,0,0,0-.656,5.753c-.086-1.82-.207-3.654-.387-5.473l-1.071-11.388h-4.728l3.092,26.87h4.759l1.844-12.37a42.943,42.943,0,0,0,.713-6.737c.059,2.128.268,4.372.565,6.737l1.637,12.37h4.7l3.747-26.87h-3.837Z" transform="translate(88.068 46.224)" fill="#f1f1f1"/>
      <path id="Caminho_32" data-name="Caminho 32" d="M160.374,72.844c-5.5,0-7.523,4.46-7.523,13.94s2.082,13.925,7.553,13.925c5.294,0,7.318-4.533,7.318-13.925s-2.053-13.94-7.347-13.94m0,23.376c-1.873,0-2.081-2.862-2.081-9.245,0-6.706.117-9.788,2.02-9.788,1.784,0,1.963,3.318,1.963,10.536,0,5.71-.356,8.5-1.9,8.5" transform="translate(96.59 46.032)" fill="#f1f1f1"/>
      <path id="Caminho_33" data-name="Caminho 33" d="M170.567,72.844c-5.472,0-7.494,4.46-7.494,13.94s2.051,13.925,7.554,13.925c5.263,0,7.283-4.533,7.283-13.925s-2.05-13.94-7.344-13.94m0,23.376c-1.844,0-2.053-2.862-2.053-9.245,0-6.706.121-9.788,2.024-9.788,1.784,0,1.934,3.318,1.934,10.536,0,5.71-.328,8.5-1.9,8.5" transform="translate(103.049 46.032)" fill="#f1f1f1"/>
      <path id="Caminho_34" data-name="Caminho 34" d="M179.334,73.15h-5.71v26.87h5.71c6.513,0,8.328-3.949,8.328-13.429,0-9.45-1.873-13.44-8.328-13.44m.029,22.45a3.82,3.82,0,0,1-.563-.029V77.6h.326a2.638,2.638,0,0,1,2.44,1.146c.565.911.653,3.7.653,8.452,0,5.824-.178,8.408-2.856,8.408" transform="translate(109.716 46.225)" fill="#f1f1f1"/>
    </g>
  </g>
</svg>
