<svg height="900" viewBox="0 0 1440 900" width="1440" xmlns="http://www.w3.org/2000/svg" xmlns:xlink="http://www.w3.org/1999/xlink"><clipPath id="a"><path d="m-20-1982h1440v900h-1440z"/></clipPath><clipPath id="b"><path d="m1640 2685h1440v900h-1440z"/></clipPath><path d="m0 0h1440v900h-1440z" fill="#01062e"/><g clip-path="url(#a)" fill="#78c926" transform="translate(20 1982)"><path d="m3284.854 1979.706c0-5.216-4.568-9.444-10.2-9.444s-10.2 4.228-10.2 9.444 4.567 9.443 10.2 9.443 10.2-4.228 10.2-9.443" transform="translate(-3293.45 -3064.005)"/><path d="m3204.755 1979.97c0-5.094-4.46-9.222-9.963-9.222s-9.963 4.129-9.963 9.222 4.46 9.222 9.963 9.222 9.963-4.129 9.963-9.222" transform="translate(-3177.132 -3064.27)"/><path d="m3124.656 1980.235c0-4.971-4.354-9-9.724-9s-9.724 4.03-9.724 9 4.353 9 9.724 9 9.724-4.03 9.724-9" transform="translate(-3060.814 -3064.535)"/><path d="m3044.558 1980.5c0-4.849-4.246-8.78-9.485-8.78s-9.485 3.931-9.485 8.78 4.247 8.78 9.485 8.78 9.485-3.931 9.485-8.78" transform="translate(-2944.497 -3064.8)"/><path d="m2964.459 1980.766c0-4.727-4.139-8.559-9.246-8.559s-9.246 3.832-9.246 8.559 4.139 8.559 9.246 8.559 9.246-3.832 9.246-8.559" transform="translate(-2828.179 -3065.065)"/><path d="m2884.36 1981.031c0-4.6-4.033-8.337-9.008-8.337s-9.007 3.732-9.007 8.337 4.033 8.337 9.007 8.337 9.008-3.732 9.008-8.337" transform="translate(-2711.862 -3065.331)"/><path d="m2804.261 1981.3c0-4.482-3.926-8.116-8.768-8.116s-8.768 3.634-8.768 8.116 3.926 8.116 8.768 8.116 8.768-3.634 8.768-8.116" transform="translate(-2595.543 -3065.596)"/><path d="m2724.162 1981.561c0-4.36-3.819-7.9-8.529-7.9s-8.529 3.535-8.529 7.9 3.819 7.9 8.529 7.9 8.529-3.535 8.529-7.9" transform="translate(-2479.226 -3065.86)"/><path d="m2644.064 1981.826c0-4.238-3.711-7.674-8.29-7.674s-8.29 3.436-8.29 7.674 3.712 7.674 8.29 7.674 8.29-3.436 8.29-7.674" transform="translate(-2362.909 -3066.125)"/><path d="m2563.965 1982.091c0-4.116-3.6-7.452-8.051-7.452s-8.051 3.336-8.051 7.452 3.6 7.452 8.051 7.452 8.051-3.337 8.051-7.452" transform="translate(-2246.591 -3066.391)"/><path d="m2483.866 1982.356c0-3.994-3.5-7.231-7.812-7.231s-7.812 3.237-7.812 7.231 3.5 7.231 7.812 7.231 7.813-3.238 7.813-7.231" transform="translate(-2130.273 -3066.656)"/><path d="m2403.768 1982.621a7.6 7.6 0 1 0 -7.573 7.01 7.308 7.308 0 0 0 7.573-7.01" transform="translate(-2013.956 -3066.921)"/><path d="m2323.669 1982.887a7.356 7.356 0 1 0 -7.334 6.789 7.078 7.078 0 0 0 7.334-6.789" transform="translate(-1897.639 -3067.186)"/><path d="m2243.57 1983.152a7.117 7.117 0 1 0 -7.095 6.568 6.847 6.847 0 0 0 7.095-6.568" transform="translate(-1781.321 -3067.451)"/><path d="m2163.472 1983.417a6.877 6.877 0 1 0 -6.856 6.347 6.616 6.616 0 0 0 6.856-6.347" transform="translate(-1665.004 -3067.716)"/><path d="m2083.373 1983.682a6.637 6.637 0 1 0 -6.617 6.125 6.385 6.385 0 0 0 6.617-6.125" transform="translate(-1548.686 -3067.981)"/><path d="m2003.274 1983.947a6.4 6.4 0 1 0 -6.378 5.9 6.155 6.155 0 0 0 6.378-5.9" transform="translate(-1432.368 -3068.247)"/><path d="m1923.175 1984.212a6.158 6.158 0 1 0 -6.139 5.682 5.924 5.924 0 0 0 6.139-5.682" transform="translate(-1316.05 -3068.511)"/><path d="m1843.077 1984.478a5.918 5.918 0 1 0 -5.9 5.461 5.694 5.694 0 0 0 5.9-5.461" transform="translate(-1199.734 -3068.777)"/><path d="m1762.978 1984.742a5.678 5.678 0 1 0 -5.661 5.24 5.463 5.463 0 0 0 5.661-5.24" transform="translate(-1083.416 -3069.042)"/><path d="m1682.879 1985.007a5.438 5.438 0 1 0 -5.422 5.019 5.232 5.232 0 0 0 5.422-5.019" transform="translate(-967.098 -3069.307)"/><path d="m1602.78 1985.273a5.2 5.2 0 1 0 -5.183 4.8 5 5 0 0 0 5.183-4.8" transform="translate(-850.78 -3069.572)"/><path d="m1522.682 1985.537a4.959 4.959 0 1 0 -4.944 4.577 4.771 4.771 0 0 0 4.944-4.577" transform="translate(-734.463 -3069.837)"/><path d="m1442.583 1985.8a4.719 4.719 0 1 0 -4.705 4.355 4.541 4.541 0 0 0 4.705-4.355" transform="translate(-618.145 -3070.102)"/><path d="m1362.484 1986.068a4.479 4.479 0 1 0 -4.466 4.134 4.31 4.31 0 0 0 4.466-4.134" transform="translate(-501.827 -3070.367)"/><path d="m1282.386 1986.333a4.239 4.239 0 1 0 -4.227 3.913 4.079 4.079 0 0 0 4.227-3.913" transform="translate(-385.51 -3070.632)"/><path d="m1202.287 1986.6a4 4 0 1 0 -3.988 3.692 3.849 3.849 0 0 0 3.988-3.692" transform="translate(-269.193 -3070.897)"/><path d="m1122.188 1986.863a3.76 3.76 0 1 0 -3.749 3.47 3.618 3.618 0 0 0 3.749-3.47" transform="translate(-152.875 -3071.163)"/><path d="m1042.089 1987.128a3.521 3.521 0 1 0 -3.51 3.249 3.387 3.387 0 0 0 3.51-3.249" transform="translate(-36.556 -3071.428)"/><path d="m961.991 1987.393a3.281 3.281 0 1 0 -3.271 3.028 3.157 3.157 0 0 0 3.271-3.028" transform="translate(79.76 -3071.692)"/><path d="m881.893 1987.659a3.041 3.041 0 1 0 -3.032 2.807 2.926 2.926 0 0 0 3.032-2.807" transform="translate(196.078 -3071.958)"/><path d="m801.794 1987.923a2.8 2.8 0 1 0 -2.793 2.586 2.7 2.7 0 0 0 2.793-2.586" transform="translate(312.396 -3072.223)"/><path d="m721.695 1988.188a2.562 2.562 0 1 0 -2.554 2.365 2.465 2.465 0 0 0 2.554-2.365" transform="translate(428.714 -3072.488)"/><path d="m641.6 1988.454a2.322 2.322 0 1 0 -2.315 2.143 2.234 2.234 0 0 0 2.315-2.143" transform="translate(545.031 -3072.753)"/><path d="m561.5 1988.719a2.082 2.082 0 1 0 -2.076 1.922 2 2 0 0 0 2.076-1.922" transform="translate(661.349 -3073.018)"/><path d="m481.4 1988.984a1.843 1.843 0 1 0 -1.837 1.7 1.773 1.773 0 0 0 1.837-1.7" transform="translate(777.666 -3073.283)"/><path d="m401.3 1989.249a1.6 1.6 0 1 0 -1.6 1.479 1.542 1.542 0 0 0 1.6-1.479" transform="translate(893.983 -3073.549)"/><path d="m321.2 1989.514a1.363 1.363 0 1 0 -1.359 1.258 1.312 1.312 0 0 0 1.359-1.258" transform="translate(1010.301 -3073.813)"/><path d="m241.1 1989.779a1.124 1.124 0 1 0 -1.12 1.037 1.081 1.081 0 0 0 1.12-1.037" transform="translate(1126.619 -3074.079)"/><path d="m161 1990.045a.884.884 0 1 0 -.881.815.85.85 0 0 0 .881-.815" transform="translate(1242.937 -3074.344)"/><path d="m80.906 1990.31a.644.644 0 1 0 -.642.594.62.62 0 0 0 .642-.594" transform="translate(1359.253 -3074.609)"/><path d="m3284.854 1838.972c0-5.215-4.568-9.443-10.2-9.443s-10.2 4.228-10.2 9.443 4.567 9.444 10.2 9.444 10.2-4.228 10.2-9.444" transform="translate(-3293.45 -2987.29)"/><path d="m3204.755 1839.237c0-5.094-4.46-9.222-9.963-9.222s-9.963 4.129-9.963 9.222 4.46 9.222 9.963 9.222 9.963-4.129 9.963-9.222" transform="translate(-3177.132 -2987.555)"/><path d="m3124.656 1839.5c0-4.971-4.354-9-9.724-9s-9.724 4.03-9.724 9 4.353 9 9.724 9 9.724-4.031 9.724-9" transform="translate(-3060.814 -2987.821)"/><path d="m3044.558 1839.768c0-4.849-4.246-8.78-9.485-8.78s-9.485 3.931-9.485 8.78 4.247 8.78 9.485 8.78 9.485-3.931 9.485-8.78" transform="translate(-2944.497 -2988.085)"/><path d="m2964.459 1840.033c0-4.727-4.139-8.559-9.246-8.559s-9.246 3.832-9.246 8.559 4.139 8.559 9.246 8.559 9.246-3.832 9.246-8.559" transform="translate(-2828.179 -2988.351)"/><path d="m2884.36 1840.3c0-4.6-4.033-8.337-9.008-8.337s-9.007 3.733-9.007 8.337 4.033 8.338 9.007 8.338 9.008-3.733 9.008-8.338" transform="translate(-2711.862 -2988.616)"/><path d="m2804.261 1840.563c0-4.483-3.926-8.116-8.768-8.116s-8.768 3.634-8.768 8.116 3.926 8.116 8.768 8.116 8.768-3.634 8.768-8.116" transform="translate(-2595.543 -2988.881)"/><path d="m2724.162 1840.828c0-4.36-3.819-7.9-8.529-7.9s-8.529 3.535-8.529 7.9 3.819 7.9 8.529 7.9 8.529-3.535 8.529-7.9" transform="translate(-2479.226 -2989.146)"/><path d="m2644.064 1841.093c0-4.238-3.711-7.674-8.29-7.674s-8.29 3.436-8.29 7.674 3.712 7.674 8.29 7.674 8.29-3.436 8.29-7.674" transform="translate(-2362.909 -2989.411)"/><path d="m2563.965 1841.358c0-4.116-3.6-7.452-8.051-7.452s-8.051 3.336-8.051 7.452 3.6 7.452 8.051 7.452 8.051-3.336 8.051-7.452" transform="translate(-2246.591 -2989.676)"/><path d="m2483.866 1841.623c0-3.994-3.5-7.231-7.812-7.231s-7.812 3.237-7.812 7.231 3.5 7.232 7.812 7.232 7.813-3.238 7.813-7.232" transform="translate(-2130.273 -2989.941)"/><path d="m2403.768 1841.889a7.6 7.6 0 1 0 -7.573 7.01 7.308 7.308 0 0 0 7.573-7.01" transform="translate(-2013.956 -2990.207)"/><path d="m2323.669 1842.154a7.356 7.356 0 1 0 -7.334 6.789 7.078 7.078 0 0 0 7.334-6.789" transform="translate(-1897.639 -2990.472)"/><path d="m2243.57 1842.419a7.117 7.117 0 1 0 -7.095 6.568 6.847 6.847 0 0 0 7.095-6.568" transform="translate(-1781.321 -2990.737)"/><path d="m2163.472 1842.684a6.877 6.877 0 1 0 -6.856 6.347 6.616 6.616 0 0 0 6.856-6.347" transform="translate(-1665.004 -2991.002)"/><path d="m2083.373 1842.949a6.637 6.637 0 1 0 -6.617 6.125 6.385 6.385 0 0 0 6.617-6.125" transform="translate(-1548.686 -2991.267)"/><path d="m2003.274 1843.214a6.4 6.4 0 1 0 -6.378 5.9 6.155 6.155 0 0 0 6.378-5.9" transform="translate(-1432.368 -2991.532)"/><path d="m1923.175 1843.479a6.157 6.157 0 1 0 -6.139 5.683 5.924 5.924 0 0 0 6.139-5.683" transform="translate(-1316.05 -2991.797)"/><path d="m1843.077 1843.744a5.918 5.918 0 1 0 -5.9 5.462 5.693 5.693 0 0 0 5.9-5.462" transform="translate(-1199.734 -2992.063)"/><path d="m1762.978 1844.009a5.678 5.678 0 1 0 -5.661 5.24 5.463 5.463 0 0 0 5.661-5.24" transform="translate(-1083.416 -2992.327)"/><path d="m1682.879 1844.275a5.438 5.438 0 1 0 -5.422 5.019 5.232 5.232 0 0 0 5.422-5.019" transform="translate(-967.098 -2992.593)"/><path d="m1602.78 1844.54a5.2 5.2 0 1 0 -5.183 4.8 5 5 0 0 0 5.183-4.8" transform="translate(-850.78 -2992.857)"/><path d="m1522.682 1844.8a4.959 4.959 0 1 0 -4.944 4.577 4.771 4.771 0 0 0 4.944-4.577" transform="translate(-734.463 -2993.123)"/><path d="m1442.583 1845.07a4.719 4.719 0 1 0 -4.705 4.356 4.54 4.54 0 0 0 4.705-4.356" transform="translate(-618.145 -2993.388)"/><path d="m1362.484 1845.335a4.479 4.479 0 1 0 -4.466 4.134 4.31 4.31 0 0 0 4.466-4.134" transform="translate(-501.827 -2993.653)"/><path d="m1282.386 1845.6a4.239 4.239 0 1 0 -4.227 3.913 4.079 4.079 0 0 0 4.227-3.913" transform="translate(-385.51 -2993.917)"/><path d="m1202.287 1845.865a4 4 0 1 0 -3.988 3.692 3.848 3.848 0 0 0 3.988-3.692" transform="translate(-269.193 -2994.183)"/><path d="m1122.188 1846.13a3.76 3.76 0 1 0 -3.749 3.47 3.618 3.618 0 0 0 3.749-3.47" transform="translate(-152.875 -2994.448)"/><path d="m1042.089 1846.4a3.521 3.521 0 1 0 -3.51 3.25 3.387 3.387 0 0 0 3.51-3.25" transform="translate(-36.556 -2994.713)"/><path d="m961.991 1846.661a3.281 3.281 0 1 0 -3.271 3.028 3.157 3.157 0 0 0 3.271-3.028" transform="translate(79.76 -2994.979)"/><path d="m881.893 1846.926a3.041 3.041 0 1 0 -3.032 2.807 2.926 2.926 0 0 0 3.032-2.807" transform="translate(196.078 -2995.243)"/><path d="m801.794 1847.19a2.8 2.8 0 1 0 -2.793 2.586 2.7 2.7 0 0 0 2.793-2.586" transform="translate(312.396 -2995.508)"/><path d="m721.695 1847.455a2.562 2.562 0 1 0 -2.554 2.365 2.465 2.465 0 0 0 2.554-2.365" transform="translate(428.714 -2995.773)"/><path d="m641.6 1847.721a2.322 2.322 0 1 0 -2.315 2.143 2.234 2.234 0 0 0 2.315-2.143" transform="translate(545.031 -2996.039)"/><path d="m561.5 1847.986a2.082 2.082 0 1 0 -2.076 1.922 2 2 0 0 0 2.076-1.922" transform="translate(661.349 -2996.304)"/><path d="m481.4 1848.251a1.843 1.843 0 1 0 -1.837 1.7 1.773 1.773 0 0 0 1.837-1.7" transform="translate(777.666 -2996.568)"/><path d="m401.3 1848.516a1.6 1.6 0 1 0 -1.6 1.479 1.542 1.542 0 0 0 1.6-1.479" transform="translate(893.983 -2996.834)"/><path d="m321.2 1848.781a1.363 1.363 0 1 0 -1.359 1.258 1.312 1.312 0 0 0 1.359-1.258" transform="translate(1010.301 -2997.099)"/><path d="m241.1 1849.046a1.123 1.123 0 1 0 -1.12 1.037 1.081 1.081 0 0 0 1.12-1.037" transform="translate(1126.619 -2997.364)"/><path d="m161 1849.312a.884.884 0 1 0 -.881.816.85.85 0 0 0 .881-.816" transform="translate(1242.937 -2997.629)"/><path d="m80.906 1849.576a.644.644 0 1 0 -.642.595.62.62 0 0 0 .642-.595" transform="translate(1359.253 -2997.894)"/><path d="m3284.854 1698.24c0-5.216-4.568-9.444-10.2-9.444s-10.2 4.228-10.2 9.444 4.567 9.443 10.2 9.443 10.2-4.228 10.2-9.443" transform="translate(-3293.45 -2910.575)"/><path d="m3204.755 1698.5c0-5.093-4.46-9.222-9.963-9.222s-9.963 4.129-9.963 9.222 4.46 9.223 9.963 9.223 9.963-4.129 9.963-9.223" transform="translate(-3177.132 -2910.841)"/><path d="m3124.656 1698.77c0-4.971-4.354-9-9.724-9s-9.724 4.03-9.724 9 4.353 9 9.724 9 9.724-4.03 9.724-9" transform="translate(-3060.814 -2911.106)"/><path d="m3044.558 1699.035c0-4.849-4.246-8.78-9.485-8.78s-9.485 3.931-9.485 8.78 4.247 8.78 9.485 8.78 9.485-3.931 9.485-8.78" transform="translate(-2944.497 -2911.371)"/><path d="m2964.459 1699.3c0-4.727-4.139-8.559-9.246-8.559s-9.246 3.832-9.246 8.559 4.139 8.559 9.246 8.559 9.246-3.832 9.246-8.559" transform="translate(-2828.179 -2911.636)"/><path d="m2884.36 1699.565c0-4.6-4.033-8.337-9.008-8.337s-9.007 3.732-9.007 8.337 4.033 8.338 9.007 8.338 9.008-3.733 9.008-8.338" transform="translate(-2711.862 -2911.901)"/><path d="m2804.261 1699.83c0-4.483-3.926-8.116-8.768-8.116s-8.768 3.634-8.768 8.116 3.926 8.116 8.768 8.116 8.768-3.634 8.768-8.116" transform="translate(-2595.543 -2912.167)"/><path d="m2724.162 1700.1c0-4.36-3.819-7.9-8.529-7.9s-8.529 3.535-8.529 7.9 3.819 7.9 8.529 7.9 8.529-3.535 8.529-7.9" transform="translate(-2479.226 -2912.431)"/><path d="m2644.064 1700.361c0-4.238-3.711-7.674-8.29-7.674s-8.29 3.435-8.29 7.674 3.712 7.674 8.29 7.674 8.29-3.436 8.29-7.674" transform="translate(-2362.909 -2912.697)"/><path d="m2563.965 1700.625c0-4.116-3.6-7.453-8.051-7.453s-8.051 3.337-8.051 7.453 3.6 7.452 8.051 7.452 8.051-3.337 8.051-7.452" transform="translate(-2246.591 -2912.961)"/><path d="m2483.866 1700.89c0-3.994-3.5-7.231-7.812-7.231s-7.812 3.238-7.812 7.231 3.5 7.231 7.812 7.231 7.813-3.237 7.813-7.231" transform="translate(-2130.273 -2913.227)"/><path d="m2403.768 1701.156a7.6 7.6 0 1 0 -7.573 7.01 7.308 7.308 0 0 0 7.573-7.01" transform="translate(-2013.956 -2913.492)"/><path d="m2323.669 1701.421a7.356 7.356 0 1 0 -7.334 6.789 7.078 7.078 0 0 0 7.334-6.789" transform="translate(-1897.639 -2913.757)"/><path d="m2243.57 1701.686a7.117 7.117 0 1 0 -7.095 6.568 6.847 6.847 0 0 0 7.095-6.568" transform="translate(-1781.321 -2914.022)"/><path d="m2163.472 1701.951a6.877 6.877 0 1 0 -6.856 6.346 6.616 6.616 0 0 0 6.856-6.346" transform="translate(-1665.004 -2914.287)"/><path d="m2083.373 1702.216a6.637 6.637 0 1 0 -6.617 6.125 6.385 6.385 0 0 0 6.617-6.125" transform="translate(-1548.686 -2914.552)"/><path d="m2003.274 1702.481a6.4 6.4 0 1 0 -6.378 5.9 6.155 6.155 0 0 0 6.378-5.9" transform="translate(-1432.368 -2914.817)"/><path d="m1923.175 1702.746a6.157 6.157 0 1 0 -6.139 5.683 5.924 5.924 0 0 0 6.139-5.683" transform="translate(-1316.05 -2915.083)"/><path d="m1843.077 1703.011a5.918 5.918 0 1 0 -5.9 5.461 5.693 5.693 0 0 0 5.9-5.461" transform="translate(-1199.734 -2915.348)"/><path d="m1762.978 1703.276a5.678 5.678 0 1 0 -5.661 5.24 5.463 5.463 0 0 0 5.661-5.24" transform="translate(-1083.416 -2915.612)"/><path d="m1682.879 1703.542a5.438 5.438 0 1 0 -5.422 5.019 5.232 5.232 0 0 0 5.422-5.019" transform="translate(-967.098 -2915.878)"/><path d="m1602.78 1703.807a5.2 5.2 0 1 0 -5.183 4.8 5 5 0 0 0 5.183-4.8" transform="translate(-850.78 -2916.143)"/><path d="m1522.682 1704.072a4.959 4.959 0 1 0 -4.944 4.577 4.771 4.771 0 0 0 4.944-4.577" transform="translate(-734.463 -2916.408)"/><path d="m1442.583 1704.337a4.719 4.719 0 1 0 -4.705 4.356 4.54 4.54 0 0 0 4.705-4.356" transform="translate(-618.145 -2916.673)"/><path d="m1362.484 1704.6a4.479 4.479 0 1 0 -4.466 4.134 4.31 4.31 0 0 0 4.466-4.134" transform="translate(-501.827 -2916.938)"/><path d="m1282.386 1704.867a4.239 4.239 0 1 0 -4.227 3.913 4.079 4.079 0 0 0 4.227-3.913" transform="translate(-385.51 -2917.203)"/><path d="m1202.287 1705.132a4 4 0 1 0 -3.988 3.692 3.848 3.848 0 0 0 3.988-3.692" transform="translate(-269.193 -2917.469)"/><path d="m1122.188 1705.4a3.76 3.76 0 1 0 -3.749 3.47 3.618 3.618 0 0 0 3.749-3.47" transform="translate(-152.875 -2917.733)"/><path d="m1042.089 1705.662a3.521 3.521 0 1 0 -3.51 3.249 3.387 3.387 0 0 0 3.51-3.249" transform="translate(-36.556 -2917.999)"/><path d="m961.991 1705.928a3.281 3.281 0 1 0 -3.271 3.028 3.157 3.157 0 0 0 3.271-3.028" transform="translate(79.76 -2918.264)"/><path d="m881.893 1706.193a3.041 3.041 0 1 0 -3.033 2.807 2.926 2.926 0 0 0 3.032-2.807" transform="translate(196.078 -2918.529)"/><path d="m801.794 1706.457a2.8 2.8 0 1 0 -2.793 2.586 2.7 2.7 0 0 0 2.793-2.586" transform="translate(312.396 -2918.793)"/><path d="m721.695 1706.723a2.562 2.562 0 1 0 -2.554 2.365 2.465 2.465 0 0 0 2.554-2.365" transform="translate(428.714 -2919.059)"/><path d="m641.6 1706.988a2.322 2.322 0 1 0 -2.315 2.143 2.234 2.234 0 0 0 2.315-2.143" transform="translate(545.031 -2919.324)"/><path d="m561.5 1707.253a2.082 2.082 0 1 0 -2.076 1.922 2 2 0 0 0 2.076-1.922" transform="translate(661.349 -2919.589)"/><path d="m481.4 1707.518a1.843 1.843 0 1 0 -1.837 1.7 1.773 1.773 0 0 0 1.837-1.7" transform="translate(777.666 -2919.854)"/><path d="m401.3 1707.783a1.6 1.6 0 1 0 -1.6 1.479 1.542 1.542 0 0 0 1.6-1.479" transform="translate(893.983 -2920.119)"/><path d="m321.2 1708.048a1.363 1.363 0 1 0 -1.359 1.258 1.312 1.312 0 0 0 1.359-1.258" transform="translate(1010.301 -2920.384)"/><path d="m241.1 1708.313a1.123 1.123 0 1 0 -1.12 1.037 1.081 1.081 0 0 0 1.12-1.037" transform="translate(1126.619 -2920.649)"/><path d="m161 1708.578a.884.884 0 1 0 -.881.816.85.85 0 0 0 .881-.816" transform="translate(1242.937 -2920.915)"/><path d="m80.906 1708.844a.644.644 0 1 0 -.642.594.62.62 0 0 0 .642-.594" transform="translate(1359.253 -2921.18)"/><path d="m3284.854 1557.507c0-5.216-4.568-9.444-10.2-9.444s-10.2 4.228-10.2 9.444 4.567 9.444 10.2 9.444 10.2-4.228 10.2-9.444" transform="translate(-3293.45 -2833.861)"/><path d="m3204.755 1557.771c0-5.094-4.46-9.223-9.963-9.223s-9.963 4.129-9.963 9.223 4.46 9.223 9.963 9.223 9.963-4.129 9.963-9.223" transform="translate(-3177.132 -2834.126)"/><path d="m3124.656 1558.036c0-4.971-4.354-9-9.724-9s-9.724 4.031-9.724 9 4.353 9 9.724 9 9.724-4.03 9.724-9" transform="translate(-3060.814 -2834.391)"/><path d="m3044.558 1558.3c0-4.849-4.246-8.78-9.485-8.78s-9.485 3.931-9.485 8.78 4.247 8.78 9.485 8.78 9.485-3.931 9.485-8.78" transform="translate(-2944.497 -2834.656)"/><path d="m2964.459 1558.567c0-4.727-4.139-8.559-9.246-8.559s-9.246 3.832-9.246 8.559 4.139 8.559 9.246 8.559 9.246-3.832 9.246-8.559" transform="translate(-2828.179 -2834.921)"/><path d="m2884.36 1558.832c0-4.6-4.033-8.337-9.008-8.337s-9.007 3.732-9.007 8.337 4.033 8.338 9.007 8.338 9.008-3.733 9.008-8.338" transform="translate(-2711.862 -2835.187)"/><path d="m2804.261 1559.1c0-4.483-3.926-8.116-8.768-8.116s-8.768 3.634-8.768 8.116 3.926 8.116 8.768 8.116 8.768-3.634 8.768-8.116" transform="translate(-2595.543 -2835.452)"/><path d="m2724.162 1559.362c0-4.36-3.819-7.9-8.529-7.9s-8.529 3.535-8.529 7.9 3.819 7.9 8.529 7.9 8.529-3.535 8.529-7.9" transform="translate(-2479.226 -2835.717)"/><path d="m2644.064 1559.628c0-4.238-3.711-7.674-8.29-7.674s-8.29 3.435-8.29 7.674 3.712 7.674 8.29 7.674 8.29-3.436 8.29-7.674" transform="translate(-2362.909 -2835.982)"/><path d="m2563.965 1559.892c0-4.116-3.6-7.453-8.051-7.453s-8.051 3.337-8.051 7.453 3.6 7.453 8.051 7.453 8.051-3.337 8.051-7.453" transform="translate(-2246.591 -2836.247)"/><path d="m2483.866 1560.157c0-3.994-3.5-7.232-7.812-7.232s-7.812 3.238-7.812 7.232 3.5 7.231 7.812 7.231 7.813-3.238 7.813-7.231" transform="translate(-2130.273 -2836.512)"/><path d="m2403.768 1560.423a7.6 7.6 0 1 0 -7.573 7.01 7.308 7.308 0 0 0 7.573-7.01" transform="translate(-2013.956 -2836.777)"/><path d="m2323.669 1560.688a7.356 7.356 0 1 0 -7.334 6.789 7.078 7.078 0 0 0 7.334-6.789" transform="translate(-1897.639 -2837.042)"/><path d="m2243.57 1560.953a7.117 7.117 0 1 0 -7.095 6.568 6.847 6.847 0 0 0 7.095-6.568" transform="translate(-1781.321 -2837.307)"/><path d="m2163.472 1561.218a6.877 6.877 0 1 0 -6.856 6.347 6.616 6.616 0 0 0 6.856-6.347" transform="translate(-1665.004 -2837.573)"/><path d="m2083.373 1561.483a6.637 6.637 0 1 0 -6.617 6.125 6.385 6.385 0 0 0 6.617-6.125" transform="translate(-1548.686 -2837.838)"/><path d="m2003.274 1561.748a6.4 6.4 0 1 0 -6.378 5.9 6.155 6.155 0 0 0 6.378-5.9" transform="translate(-1432.368 -2838.103)"/><path d="m1923.175 1562.014a6.157 6.157 0 1 0 -6.139 5.683 5.924 5.924 0 0 0 6.139-5.683" transform="translate(-1316.05 -2838.368)"/><path d="m1843.077 1562.278a5.918 5.918 0 1 0 -5.9 5.461 5.693 5.693 0 0 0 5.9-5.461" transform="translate(-1199.734 -2838.633)"/><path d="m1762.978 1562.543a5.678 5.678 0 1 0 -5.661 5.24 5.463 5.463 0 0 0 5.661-5.24" transform="translate(-1083.416 -2838.898)"/><path d="m1682.879 1562.809a5.438 5.438 0 1 0 -5.422 5.019 5.232 5.232 0 0 0 5.422-5.019" transform="translate(-967.098 -2839.163)"/><path d="m1602.78 1563.074a5.2 5.2 0 1 0 -5.183 4.8 5 5 0 0 0 5.183-4.8" transform="translate(-850.78 -2839.428)"/><path d="m1522.682 1563.339a4.959 4.959 0 1 0 -4.944 4.577 4.771 4.771 0 0 0 4.944-4.577" transform="translate(-734.463 -2839.693)"/><path d="m1442.583 1563.6a4.719 4.719 0 1 0 -4.705 4.355 4.54 4.54 0 0 0 4.705-4.355" transform="translate(-618.145 -2839.958)"/><path d="m1362.484 1563.869a4.479 4.479 0 1 0 -4.466 4.134 4.31 4.31 0 0 0 4.466-4.134" transform="translate(-501.827 -2840.224)"/><path d="m1282.386 1564.134a4.239 4.239 0 1 0 -4.227 3.913 4.079 4.079 0 0 0 4.227-3.913" transform="translate(-385.51 -2840.488)"/><path d="m1202.287 1564.4a4 4 0 1 0 -3.988 3.691 3.848 3.848 0 0 0 3.988-3.691" transform="translate(-269.193 -2840.754)"/><path d="m1122.188 1564.664a3.76 3.76 0 1 0 -3.749 3.47 3.618 3.618 0 0 0 3.749-3.47" transform="translate(-152.875 -2841.019)"/><path d="m1042.089 1564.929a3.521 3.521 0 1 0 -3.51 3.249 3.387 3.387 0 0 0 3.51-3.249" transform="translate(-36.556 -2841.284)"/><path d="m961.991 1565.195a3.281 3.281 0 1 0 -3.271 3.028 3.157 3.157 0 0 0 3.271-3.028" transform="translate(79.76 -2841.549)"/><path d="m881.893 1565.46a3.041 3.041 0 1 0 -3.032 2.807 2.926 2.926 0 0 0 3.032-2.807" transform="translate(196.078 -2841.814)"/><path d="m801.794 1565.724a2.8 2.8 0 1 0 -2.794 2.586 2.7 2.7 0 0 0 2.793-2.586" transform="translate(312.396 -2842.079)"/><path d="m721.695 1565.99a2.562 2.562 0 1 0 -2.554 2.365 2.465 2.465 0 0 0 2.554-2.365" transform="translate(428.714 -2842.344)"/><path d="m641.6 1566.255a2.322 2.322 0 1 0 -2.315 2.143 2.234 2.234 0 0 0 2.315-2.143" transform="translate(545.031 -2842.609)"/><path d="m561.5 1566.52a2.082 2.082 0 1 0 -2.076 1.922 2 2 0 0 0 2.076-1.922" transform="translate(661.349 -2842.875)"/><path d="m481.4 1566.785a1.843 1.843 0 1 0 -1.837 1.7 1.773 1.773 0 0 0 1.837-1.7" transform="translate(777.666 -2843.14)"/><path d="m401.3 1567.05a1.6 1.6 0 1 0 -1.6 1.479 1.542 1.542 0 0 0 1.6-1.479" transform="translate(893.983 -2843.405)"/><path d="m321.2 1567.315a1.363 1.363 0 1 0 -1.359 1.258 1.312 1.312 0 0 0 1.359-1.258" transform="translate(1010.301 -2843.67)"/><path d="m241.1 1567.58a1.123 1.123 0 1 0 -1.12 1.037 1.081 1.081 0 0 0 1.12-1.037" transform="translate(1126.619 -2843.935)"/><path d="m161 1567.846a.884.884 0 1 0 -.881.816.85.85 0 0 0 .881-.816" transform="translate(1242.937 -2844.2)"/><path d="m80.906 1568.11a.644.644 0 1 0 -.642.595.62.62 0 0 0 .642-.595" transform="translate(1359.253 -2844.465)"/><path d="m3284.854 1416.774c0-5.216-4.568-9.444-10.2-9.444s-10.2 4.228-10.2 9.444 4.567 9.443 10.2 9.443 10.2-4.228 10.2-9.443" transform="translate(-3293.45 -2757.146)"/><path d="m3204.755 1417.038c0-5.094-4.46-9.222-9.963-9.222s-9.963 4.129-9.963 9.222 4.46 9.223 9.963 9.223 9.963-4.129 9.963-9.223" transform="translate(-3177.132 -2757.412)"/><path d="m3124.656 1417.3c0-4.971-4.354-9-9.724-9s-9.724 4.03-9.724 9 4.353 9 9.724 9 9.724-4.031 9.724-9" transform="translate(-3060.814 -2757.676)"/><path d="m3044.558 1417.569c0-4.849-4.246-8.78-9.485-8.78s-9.485 3.931-9.485 8.78 4.247 8.78 9.485 8.78 9.485-3.931 9.485-8.78" transform="translate(-2944.497 -2757.941)"/><path d="m2964.459 1417.834c0-4.727-4.139-8.559-9.246-8.559s-9.246 3.832-9.246 8.559 4.139 8.559 9.246 8.559 9.246-3.832 9.246-8.559" transform="translate(-2828.179 -2758.207)"/><path d="m2884.36 1418.1c0-4.6-4.033-8.338-9.008-8.338s-9.007 3.733-9.007 8.338 4.033 8.338 9.007 8.338 9.008-3.733 9.008-8.338" transform="translate(-2711.862 -2758.472)"/><path d="m2804.261 1418.364c0-4.483-3.926-8.116-8.768-8.116s-8.768 3.634-8.768 8.116 3.926 8.116 8.768 8.116 8.768-3.634 8.768-8.116" transform="translate(-2595.543 -2758.737)"/><path d="m2724.162 1418.629c0-4.36-3.819-7.9-8.529-7.9s-8.529 3.535-8.529 7.9 3.819 7.9 8.529 7.9 8.529-3.535 8.529-7.9" transform="translate(-2479.226 -2759.002)"/><path d="m2644.064 1418.894c0-4.238-3.711-7.674-8.29-7.674s-8.29 3.436-8.29 7.674 3.712 7.674 8.29 7.674 8.29-3.436 8.29-7.674" transform="translate(-2362.909 -2759.267)"/><path d="m2563.965 1419.159c0-4.116-3.6-7.452-8.051-7.452s-8.051 3.337-8.051 7.452 3.6 7.453 8.051 7.453 8.051-3.337 8.051-7.453" transform="translate(-2246.591 -2759.532)"/><path d="m2483.866 1419.424c0-3.994-3.5-7.232-7.812-7.232s-7.812 3.238-7.812 7.232 3.5 7.231 7.812 7.231 7.813-3.238 7.813-7.231" transform="translate(-2130.273 -2759.797)"/><path d="m2403.768 1419.69a7.6 7.6 0 1 0 -7.573 7.01 7.308 7.308 0 0 0 7.573-7.01" transform="translate(-2013.956 -2760.063)"/><path d="m2323.669 1419.955a7.356 7.356 0 1 0 -7.334 6.789 7.078 7.078 0 0 0 7.334-6.789" transform="translate(-1897.639 -2760.328)"/><path d="m2243.57 1420.22a7.117 7.117 0 1 0 -7.095 6.568 6.847 6.847 0 0 0 7.095-6.568" transform="translate(-1781.321 -2760.593)"/><path d="m2163.472 1420.485a6.877 6.877 0 1 0 -6.856 6.346 6.616 6.616 0 0 0 6.856-6.346" transform="translate(-1665.004 -2760.858)"/><path d="m2083.373 1420.75a6.637 6.637 0 1 0 -6.617 6.125 6.385 6.385 0 0 0 6.617-6.125" transform="translate(-1548.686 -2761.123)"/><path d="m2003.274 1421.015a6.4 6.4 0 1 0 -6.378 5.9 6.155 6.155 0 0 0 6.378-5.9" transform="translate(-1432.368 -2761.388)"/><path d="m1923.175 1421.28a6.157 6.157 0 1 0 -6.139 5.683 5.924 5.924 0 0 0 6.139-5.683" transform="translate(-1316.05 -2761.653)"/><path d="m1843.077 1421.545a5.918 5.918 0 1 0 -5.9 5.462 5.693 5.693 0 0 0 5.9-5.462" transform="translate(-1199.734 -2761.918)"/><path d="m1762.978 1421.81a5.678 5.678 0 1 0 -5.661 5.24 5.463 5.463 0 0 0 5.661-5.24" transform="translate(-1083.416 -2762.183)"/><path d="m1682.879 1422.076a5.438 5.438 0 1 0 -5.422 5.019 5.232 5.232 0 0 0 5.422-5.019" transform="translate(-967.098 -2762.449)"/><path d="m1602.78 1422.341a5.2 5.2 0 1 0 -5.183 4.8 5 5 0 0 0 5.183-4.8" transform="translate(-850.78 -2762.714)"/><path d="m1522.682 1422.606a4.959 4.959 0 1 0 -4.944 4.577 4.771 4.771 0 0 0 4.944-4.577" transform="translate(-734.463 -2762.979)"/><path d="m1442.583 1422.871a4.719 4.719 0 1 0 -4.705 4.355 4.54 4.54 0 0 0 4.705-4.355" transform="translate(-618.145 -2763.244)"/><path d="m1362.484 1423.136a4.479 4.479 0 1 0 -4.466 4.134 4.31 4.31 0 0 0 4.466-4.134" transform="translate(-501.827 -2763.509)"/><path d="m1282.386 1423.4a4.239 4.239 0 1 0 -4.227 3.913 4.079 4.079 0 0 0 4.227-3.913" transform="translate(-385.51 -2763.774)"/><path d="m1202.287 1423.666a4 4 0 1 0 -3.988 3.691 3.848 3.848 0 0 0 3.988-3.691" transform="translate(-269.193 -2764.04)"/><path d="m1122.188 1423.931a3.76 3.76 0 1 0 -3.749 3.47 3.618 3.618 0 0 0 3.749-3.47" transform="translate(-152.875 -2764.304)"/><path d="m1042.089 1424.2a3.521 3.521 0 1 0 -3.51 3.249 3.387 3.387 0 0 0 3.51-3.249" transform="translate(-36.556 -2764.569)"/><path d="m961.991 1424.462a3.281 3.281 0 1 0 -3.271 3.028 3.157 3.157 0 0 0 3.271-3.028" transform="translate(79.76 -2764.834)"/><path d="m881.893 1424.727a3.041 3.041 0 1 0 -3.032 2.807 2.926 2.926 0 0 0 3.032-2.807" transform="translate(196.078 -2765.1)"/><path d="m801.794 1424.992a2.8 2.8 0 1 0 -2.793 2.586 2.7 2.7 0 0 0 2.793-2.586" transform="translate(312.396 -2765.365)"/><path d="m721.695 1425.256a2.562 2.562 0 1 0 -2.554 2.365 2.465 2.465 0 0 0 2.554-2.365" transform="translate(428.714 -2765.629)"/><path d="m641.6 1425.522a2.322 2.322 0 1 0 -2.315 2.143 2.234 2.234 0 0 0 2.315-2.143" transform="translate(545.031 -2765.895)"/><path d="m561.5 1425.787a2.082 2.082 0 1 0 -2.076 1.922 2 2 0 0 0 2.076-1.922" transform="translate(661.349 -2766.16)"/><path d="m481.4 1426.052a1.843 1.843 0 1 0 -1.837 1.7 1.773 1.773 0 0 0 1.837-1.7" transform="translate(777.666 -2766.425)"/><path d="m401.3 1426.317a1.6 1.6 0 1 0 -1.6 1.479 1.542 1.542 0 0 0 1.6-1.479" transform="translate(893.983 -2766.69)"/><path d="m321.2 1426.582a1.363 1.363 0 1 0 -1.359 1.258 1.312 1.312 0 0 0 1.359-1.258" transform="translate(1010.301 -2766.955)"/><path d="m241.1 1426.847a1.123 1.123 0 1 0 -1.12 1.037 1.081 1.081 0 0 0 1.12-1.037" transform="translate(1126.619 -2767.22)"/><path d="m161 1427.113a.884.884 0 1 0 -.881.816.85.85 0 0 0 .881-.816" transform="translate(1242.937 -2767.485)"/><path d="m80.906 1427.378a.644.644 0 1 0 -.642.595.62.62 0 0 0 .642-.595" transform="translate(1359.253 -2767.75)"/><path d="m3284.854 1276.041c0-5.216-4.568-9.444-10.2-9.444s-10.2 4.228-10.2 9.444 4.567 9.443 10.2 9.443 10.2-4.228 10.2-9.443" transform="translate(-3293.45 -2680.432)"/><path d="m3204.755 1276.306c0-5.094-4.46-9.223-9.963-9.223s-9.963 4.129-9.963 9.223 4.46 9.222 9.963 9.222 9.963-4.129 9.963-9.222" transform="translate(-3177.132 -2680.697)"/><path d="m3124.656 1276.57c0-4.971-4.354-9-9.724-9s-9.724 4.03-9.724 9 4.353 9 9.724 9 9.724-4.03 9.724-9" transform="translate(-3060.814 -2680.961)"/><path d="m3044.558 1276.836c0-4.849-4.246-8.78-9.485-8.78s-9.485 3.931-9.485 8.78 4.247 8.78 9.485 8.78 9.485-3.931 9.485-8.78" transform="translate(-2944.497 -2681.227)"/><path d="m2964.459 1277.1c0-4.727-4.139-8.559-9.246-8.559s-9.246 3.832-9.246 8.559 4.139 8.559 9.246 8.559 9.246-3.832 9.246-8.559" transform="translate(-2828.179 -2681.492)"/><path d="m2884.36 1277.366c0-4.6-4.033-8.338-9.008-8.338s-9.007 3.733-9.007 8.338 4.033 8.338 9.007 8.338 9.008-3.733 9.008-8.338" transform="translate(-2711.862 -2681.757)"/><path d="m2804.261 1277.631c0-4.482-3.926-8.116-8.768-8.116s-8.768 3.634-8.768 8.116 3.926 8.116 8.768 8.116 8.768-3.634 8.768-8.116" transform="translate(-2595.543 -2682.022)"/><path d="m2724.162 1277.9c0-4.36-3.819-7.9-8.529-7.9s-8.529 3.535-8.529 7.9 3.819 7.9 8.529 7.9 8.529-3.535 8.529-7.9" transform="translate(-2479.226 -2682.288)"/><path d="m2644.064 1278.161c0-4.238-3.711-7.674-8.29-7.674s-8.29 3.436-8.29 7.674 3.712 7.673 8.29 7.673 8.29-3.435 8.29-7.673" transform="translate(-2362.909 -2682.552)"/><path d="m2563.965 1278.427c0-4.116-3.6-7.453-8.051-7.453s-8.051 3.337-8.051 7.453 3.6 7.453 8.051 7.453 8.051-3.337 8.051-7.453" transform="translate(-2246.591 -2682.818)"/><path d="m2483.866 1278.691c0-3.994-3.5-7.231-7.812-7.231s-7.812 3.237-7.812 7.231 3.5 7.231 7.812 7.231 7.813-3.238 7.813-7.231" transform="translate(-2130.273 -2683.083)"/><path d="m2403.768 1278.956a7.6 7.6 0 1 0 -7.573 7.01 7.308 7.308 0 0 0 7.573-7.01" transform="translate(-2013.956 -2683.348)"/><path d="m2323.669 1279.222a7.356 7.356 0 1 0 -7.334 6.789 7.078 7.078 0 0 0 7.334-6.789" transform="translate(-1897.639 -2683.613)"/><path d="m2243.57 1279.487a7.117 7.117 0 1 0 -7.095 6.568 6.847 6.847 0 0 0 7.095-6.568" transform="translate(-1781.321 -2683.878)"/><path d="m2163.472 1279.752a6.877 6.877 0 1 0 -6.856 6.346 6.616 6.616 0 0 0 6.856-6.346" transform="translate(-1665.004 -2684.143)"/><path d="m2083.373 1280.017a6.637 6.637 0 1 0 -6.617 6.125 6.385 6.385 0 0 0 6.617-6.125" transform="translate(-1548.686 -2684.408)"/><path d="m2003.274 1280.282a6.4 6.4 0 1 0 -6.378 5.9 6.155 6.155 0 0 0 6.378-5.9" transform="translate(-1432.368 -2684.673)"/><path d="m1923.175 1280.548a6.158 6.158 0 1 0 -6.139 5.682 5.924 5.924 0 0 0 6.139-5.682" transform="translate(-1316.05 -2684.939)"/><path d="m1843.077 1280.812a5.918 5.918 0 1 0 -5.9 5.462 5.693 5.693 0 0 0 5.9-5.462" transform="translate(-1199.734 -2685.204)"/><path d="m1762.978 1281.077a5.678 5.678 0 1 0 -5.661 5.24 5.463 5.463 0 0 0 5.661-5.24" transform="translate(-1083.416 -2685.469)"/><path d="m1682.879 1281.343a5.438 5.438 0 1 0 -5.422 5.019 5.232 5.232 0 0 0 5.422-5.019" transform="translate(-967.098 -2685.734)"/><path d="m1602.78 1281.608a5.2 5.2 0 1 0 -5.183 4.8 5 5 0 0 0 5.183-4.8" transform="translate(-850.78 -2685.999)"/><path d="m1522.682 1281.873a4.959 4.959 0 1 0 -4.944 4.577 4.771 4.771 0 0 0 4.944-4.577" transform="translate(-734.463 -2686.264)"/><path d="m1442.583 1282.138a4.719 4.719 0 1 0 -4.705 4.355 4.54 4.54 0 0 0 4.705-4.355" transform="translate(-618.145 -2686.529)"/><path d="m1362.484 1282.4a4.479 4.479 0 1 0 -4.466 4.134 4.31 4.31 0 0 0 4.466-4.134" transform="translate(-501.827 -2686.794)"/><path d="m1282.386 1282.668a4.239 4.239 0 1 0 -4.227 3.913 4.079 4.079 0 0 0 4.227-3.913" transform="translate(-385.51 -2687.06)"/><path d="m1202.287 1282.933a4 4 0 1 0 -3.988 3.692 3.848 3.848 0 0 0 3.988-3.692" transform="translate(-269.193 -2687.325)"/><path d="m1122.188 1283.2a3.76 3.76 0 1 0 -3.749 3.47 3.618 3.618 0 0 0 3.749-3.47" transform="translate(-152.875 -2687.59)"/><path d="m1042.089 1283.463a3.521 3.521 0 1 0 -3.51 3.249 3.387 3.387 0 0 0 3.51-3.249" transform="translate(-36.556 -2687.854)"/><path d="m961.991 1283.729a3.281 3.281 0 1 0 -3.271 3.028 3.157 3.157 0 0 0 3.271-3.028" transform="translate(79.76 -2688.12)"/><path d="m881.893 1283.994a3.041 3.041 0 1 0 -3.032 2.807 2.926 2.926 0 0 0 3.032-2.807" transform="translate(196.078 -2688.385)"/><path d="m801.794 1284.259a2.8 2.8 0 1 0 -2.793 2.586 2.7 2.7 0 0 0 2.793-2.586" transform="translate(312.396 -2688.65)"/><path d="m721.695 1284.524a2.562 2.562 0 1 0 -2.554 2.364 2.465 2.465 0 0 0 2.554-2.364" transform="translate(428.714 -2688.915)"/><path d="m641.6 1284.789a2.322 2.322 0 1 0 -2.315 2.143 2.234 2.234 0 0 0 2.315-2.143" transform="translate(545.031 -2689.18)"/><path d="m561.5 1285.054a2.082 2.082 0 1 0 -2.076 1.922 2 2 0 0 0 2.076-1.922" transform="translate(661.349 -2689.445)"/><path d="m481.4 1285.319a1.843 1.843 0 1 0 -1.837 1.7 1.773 1.773 0 0 0 1.837-1.7" transform="translate(777.666 -2689.71)"/><path d="m401.3 1285.584a1.6 1.6 0 1 0 -1.6 1.479 1.542 1.542 0 0 0 1.6-1.479" transform="translate(893.983 -2689.976)"/><path d="m321.2 1285.849a1.363 1.363 0 1 0 -1.359 1.258 1.312 1.312 0 0 0 1.359-1.258" transform="translate(1010.301 -2690.24)"/><path d="m241.1 1286.114a1.123 1.123 0 1 0 -1.12 1.037 1.081 1.081 0 0 0 1.12-1.037" transform="translate(1126.619 -2690.505)"/><path d="m161 1286.38a.884.884 0 1 0 -.881.816.85.85 0 0 0 .881-.816" transform="translate(1242.937 -2690.771)"/><path d="m80.906 1286.645a.644.644 0 1 0 -.642.594.62.62 0 0 0 .642-.594" transform="translate(1359.253 -2691.036)"/><path d="m3284.854 1135.307c0-5.216-4.568-9.443-10.2-9.443s-10.2 4.228-10.2 9.443 4.567 9.444 10.2 9.444 10.2-4.228 10.2-9.444" transform="translate(-3293.45 -2603.717)"/><path d="m3204.755 1135.573c0-5.093-4.46-9.223-9.963-9.223s-9.963 4.129-9.963 9.223 4.46 9.222 9.963 9.222 9.963-4.129 9.963-9.222" transform="translate(-3177.132 -2603.982)"/><path d="m3124.656 1135.837c0-4.971-4.354-9-9.724-9s-9.724 4.03-9.724 9 4.353 9 9.724 9 9.724-4.03 9.724-9" transform="translate(-3060.814 -2604.247)"/><path d="m3044.558 1136.1c0-4.849-4.246-8.78-9.485-8.78s-9.485 3.931-9.485 8.78 4.247 8.78 9.485 8.78 9.485-3.931 9.485-8.78" transform="translate(-2944.497 -2604.513)"/><path d="m2964.459 1136.368c0-4.727-4.139-8.559-9.246-8.559s-9.246 3.832-9.246 8.559 4.139 8.559 9.246 8.559 9.246-3.832 9.246-8.559" transform="translate(-2828.179 -2604.777)"/><path d="m2884.36 1136.633c0-4.6-4.033-8.338-9.008-8.338s-9.007 3.733-9.007 8.338 4.033 8.337 9.007 8.337 9.008-3.732 9.008-8.337" transform="translate(-2711.862 -2605.042)"/><path d="m2804.261 1136.9c0-4.482-3.926-8.116-8.768-8.116s-8.768 3.634-8.768 8.116 3.926 8.116 8.768 8.116 8.768-3.634 8.768-8.116" transform="translate(-2595.543 -2605.308)"/><path d="m2724.162 1137.163c0-4.36-3.819-7.9-8.529-7.9s-8.529 3.535-8.529 7.9 3.819 7.9 8.529 7.9 8.529-3.535 8.529-7.9" transform="translate(-2479.226 -2605.573)"/><path d="m2644.064 1137.428c0-4.238-3.711-7.674-8.29-7.674s-8.29 3.436-8.29 7.674 3.712 7.674 8.29 7.674 8.29-3.435 8.29-7.674" transform="translate(-2362.909 -2605.838)"/><path d="m2563.965 1137.693c0-4.116-3.6-7.453-8.051-7.453s-8.051 3.337-8.051 7.453 3.6 7.453 8.051 7.453 8.051-3.337 8.051-7.453" transform="translate(-2246.591 -2606.103)"/><path d="m2483.866 1137.958c0-3.994-3.5-7.231-7.812-7.231s-7.812 3.237-7.812 7.231 3.5 7.231 7.812 7.231 7.813-3.237 7.813-7.231" transform="translate(-2130.273 -2606.368)"/><path d="m2403.768 1138.223a7.6 7.6 0 1 0 -7.573 7.01 7.308 7.308 0 0 0 7.573-7.01" transform="translate(-2013.956 -2606.633)"/><path d="m2323.669 1138.489a7.356 7.356 0 1 0 -7.334 6.789 7.078 7.078 0 0 0 7.334-6.789" transform="translate(-1897.639 -2606.898)"/><path d="m2243.57 1138.754a7.117 7.117 0 1 0 -7.095 6.568 6.847 6.847 0 0 0 7.095-6.568" transform="translate(-1781.321 -2607.164)"/><path d="m2163.472 1139.019a6.877 6.877 0 1 0 -6.856 6.346 6.616 6.616 0 0 0 6.856-6.346" transform="translate(-1665.004 -2607.428)"/><path d="m2083.373 1139.284a6.637 6.637 0 1 0 -6.617 6.125 6.385 6.385 0 0 0 6.617-6.125" transform="translate(-1548.686 -2607.694)"/><path d="m2003.274 1139.549a6.4 6.4 0 1 0 -6.378 5.9 6.155 6.155 0 0 0 6.378-5.9" transform="translate(-1432.368 -2607.959)"/><path d="m1923.175 1139.814a6.157 6.157 0 1 0 -6.139 5.683 5.924 5.924 0 0 0 6.139-5.683" transform="translate(-1316.05 -2608.224)"/><path d="m1843.077 1140.079a5.918 5.918 0 1 0 -5.9 5.461 5.693 5.693 0 0 0 5.9-5.461" transform="translate(-1199.734 -2608.489)"/><path d="m1762.978 1140.344a5.678 5.678 0 1 0 -5.661 5.24 5.463 5.463 0 0 0 5.661-5.24" transform="translate(-1083.416 -2608.754)"/><path d="m1682.879 1140.609a5.438 5.438 0 1 0 -5.422 5.019 5.233 5.233 0 0 0 5.422-5.019" transform="translate(-967.098 -2609.019)"/><path d="m1602.78 1140.875a5.2 5.2 0 1 0 -5.183 4.8 5 5 0 0 0 5.183-4.8" transform="translate(-850.78 -2609.285)"/><path d="m1522.682 1141.14a4.959 4.959 0 1 0 -4.944 4.577 4.771 4.771 0 0 0 4.944-4.577" transform="translate(-734.463 -2609.549)"/><path d="m1442.583 1141.405a4.719 4.719 0 1 0 -4.705 4.355 4.54 4.54 0 0 0 4.705-4.355" transform="translate(-618.145 -2609.815)"/><path d="m1362.484 1141.67a4.479 4.479 0 1 0 -4.466 4.134 4.31 4.31 0 0 0 4.466-4.134" transform="translate(-501.827 -2610.08)"/><path d="m1282.386 1141.935a4.239 4.239 0 1 0 -4.227 3.913 4.079 4.079 0 0 0 4.227-3.913" transform="translate(-385.51 -2610.345)"/><path d="m1202.287 1142.2a4 4 0 1 0 -3.988 3.691 3.848 3.848 0 0 0 3.988-3.691" transform="translate(-269.193 -2610.61)"/><path d="m1122.188 1142.465a3.76 3.76 0 1 0 -3.749 3.47 3.618 3.618 0 0 0 3.749-3.47" transform="translate(-152.875 -2610.875)"/><path d="m1042.089 1142.73a3.521 3.521 0 1 0 -3.51 3.249 3.387 3.387 0 0 0 3.51-3.249" transform="translate(-36.556 -2611.14)"/><path d="m961.991 1143a3.281 3.281 0 1 0 -3.271 3.028 3.157 3.157 0 0 0 3.271-3.028" transform="translate(79.76 -2611.405)"/><path d="m881.893 1143.261a3.041 3.041 0 1 0 -3.032 2.807 2.926 2.926 0 0 0 3.032-2.807" transform="translate(196.078 -2611.67)"/><path d="m801.794 1143.526a2.8 2.8 0 1 0 -2.793 2.586 2.7 2.7 0 0 0 2.793-2.586" transform="translate(312.396 -2611.936)"/><path d="m721.695 1143.79a2.562 2.562 0 1 0 -2.554 2.365 2.465 2.465 0 0 0 2.554-2.365" transform="translate(428.714 -2612.2)"/><path d="m641.6 1144.056a2.322 2.322 0 1 0 -2.315 2.143 2.234 2.234 0 0 0 2.315-2.143" transform="translate(545.031 -2612.466)"/><path d="m561.5 1144.321a2.082 2.082 0 1 0 -2.076 1.922 2 2 0 0 0 2.076-1.922" transform="translate(661.349 -2612.73)"/><path d="m481.4 1144.586a1.843 1.843 0 1 0 -1.837 1.7 1.773 1.773 0 0 0 1.837-1.7" transform="translate(777.666 -2612.996)"/><path d="m401.3 1144.851a1.6 1.6 0 1 0 -1.6 1.479 1.542 1.542 0 0 0 1.6-1.479" transform="translate(893.983 -2613.261)"/><path d="m321.2 1145.116a1.363 1.363 0 1 0 -1.359 1.258 1.311 1.311 0 0 0 1.359-1.258" transform="translate(1010.301 -2613.526)"/><path d="m241.1 1145.381a1.123 1.123 0 1 0 -1.12 1.037 1.081 1.081 0 0 0 1.12-1.037" transform="translate(1126.619 -2613.791)"/><path d="m161 1145.646a.884.884 0 1 0 -.881.816.85.85 0 0 0 .881-.816" transform="translate(1242.937 -2614.056)"/><path d="m80.906 1145.911a.644.644 0 1 0 -.642.595.62.62 0 0 0 .642-.595" transform="translate(1359.253 -2614.321)"/><path d="m3284.854 994.575c0-5.216-4.568-9.444-10.2-9.444s-10.2 4.228-10.2 9.444 4.567 9.444 10.2 9.444 10.2-4.228 10.2-9.444" transform="translate(-3293.45 -2527.003)"/><path d="m3204.755 994.839c0-5.093-4.46-9.222-9.963-9.222s-9.963 4.129-9.963 9.222 4.46 9.223 9.963 9.223 9.963-4.129 9.963-9.223" transform="translate(-3177.132 -2527.268)"/><path d="m3124.656 995.1c0-4.971-4.354-9-9.724-9s-9.724 4.03-9.724 9 4.353 9 9.724 9 9.724-4.03 9.724-9" transform="translate(-3060.814 -2527.533)"/><path d="m3044.558 995.37c0-4.849-4.246-8.78-9.485-8.78s-9.485 3.931-9.485 8.78 4.247 8.78 9.485 8.78 9.485-3.931 9.485-8.78" transform="translate(-2944.497 -2527.798)"/><path d="m2964.459 995.635c0-4.727-4.139-8.559-9.246-8.559s-9.246 3.832-9.246 8.559 4.139 8.559 9.246 8.559 9.246-3.832 9.246-8.559" transform="translate(-2828.179 -2528.063)"/><path d="m2884.36 995.9c0-4.6-4.033-8.338-9.008-8.338s-9.007 3.733-9.007 8.338 4.033 8.337 9.007 8.337 9.008-3.732 9.008-8.337" transform="translate(-2711.862 -2528.328)"/><path d="m2804.261 996.165c0-4.483-3.926-8.116-8.768-8.116s-8.768 3.634-8.768 8.116 3.926 8.116 8.768 8.116 8.768-3.634 8.768-8.116" transform="translate(-2595.543 -2528.593)"/><path d="m2724.162 996.43c0-4.36-3.819-7.9-8.529-7.9s-8.529 3.535-8.529 7.9 3.819 7.9 8.529 7.9 8.529-3.535 8.529-7.9" transform="translate(-2479.226 -2528.858)"/><path d="m2644.064 996.7c0-4.238-3.711-7.674-8.29-7.674s-8.29 3.436-8.29 7.674 3.712 7.674 8.29 7.674 8.29-3.435 8.29-7.674" transform="translate(-2362.909 -2529.123)"/><path d="m2563.965 996.96c0-4.116-3.6-7.453-8.051-7.453s-8.051 3.337-8.051 7.453 3.6 7.453 8.051 7.453 8.051-3.337 8.051-7.453" transform="translate(-2246.591 -2529.389)"/><path d="m2483.866 997.225c0-3.994-3.5-7.231-7.812-7.231s-7.812 3.237-7.812 7.231 3.5 7.232 7.812 7.232 7.813-3.238 7.813-7.232" transform="translate(-2130.273 -2529.653)"/><path d="m2403.768 997.49a7.6 7.6 0 1 0 -7.573 7.01 7.308 7.308 0 0 0 7.573-7.01" transform="translate(-2013.956 -2529.918)"/><path d="m2323.669 997.756a7.356 7.356 0 1 0 -7.334 6.789 7.078 7.078 0 0 0 7.334-6.789" transform="translate(-1897.639 -2530.184)"/><path d="m2243.57 998.021a7.117 7.117 0 1 0 -7.095 6.568 6.847 6.847 0 0 0 7.095-6.568" transform="translate(-1781.321 -2530.449)"/><path d="m2163.472 998.286a6.877 6.877 0 1 0 -6.856 6.346 6.616 6.616 0 0 0 6.856-6.346" transform="translate(-1665.004 -2530.714)"/><path d="m2083.373 998.551a6.637 6.637 0 1 0 -6.617 6.125 6.385 6.385 0 0 0 6.617-6.125" transform="translate(-1548.686 -2530.979)"/><path d="m2003.274 998.816a6.4 6.4 0 1 0 -6.378 5.9 6.155 6.155 0 0 0 6.378-5.9" transform="translate(-1432.368 -2531.244)"/><path d="m1923.175 999.081a6.157 6.157 0 1 0 -6.139 5.683 5.924 5.924 0 0 0 6.139-5.683" transform="translate(-1316.05 -2531.509)"/><path d="m1843.077 999.346a5.918 5.918 0 1 0 -5.9 5.461 5.693 5.693 0 0 0 5.9-5.461" transform="translate(-1199.734 -2531.774)"/><path d="m1762.978 999.611a5.678 5.678 0 1 0 -5.661 5.24 5.463 5.463 0 0 0 5.661-5.24" transform="translate(-1083.416 -2532.04)"/><path d="m1682.879 999.876a5.438 5.438 0 1 0 -5.422 5.019 5.232 5.232 0 0 0 5.422-5.019" transform="translate(-967.098 -2532.305)"/><path d="m1602.78 1000.142a5.2 5.2 0 1 0 -5.183 4.8 5 5 0 0 0 5.183-4.8" transform="translate(-850.78 -2532.57)"/><path d="m1522.682 1000.407a4.959 4.959 0 1 0 -4.944 4.577 4.771 4.771 0 0 0 4.944-4.577" transform="translate(-734.463 -2532.835)"/><path d="m1442.583 1000.672a4.719 4.719 0 1 0 -4.705 4.355 4.541 4.541 0 0 0 4.705-4.355" transform="translate(-618.145 -2533.1)"/><path d="m1362.484 1000.937a4.479 4.479 0 1 0 -4.466 4.134 4.31 4.31 0 0 0 4.466-4.134" transform="translate(-501.827 -2533.365)"/><path d="m1282.386 1001.2a4.239 4.239 0 1 0 -4.227 3.913 4.079 4.079 0 0 0 4.227-3.913" transform="translate(-385.51 -2533.63)"/><path d="m1202.287 1001.467a4 4 0 1 0 -3.988 3.691 3.849 3.849 0 0 0 3.988-3.691" transform="translate(-269.193 -2533.895)"/><path d="m1122.188 1001.732a3.76 3.76 0 1 0 -3.749 3.47 3.618 3.618 0 0 0 3.749-3.47" transform="translate(-152.875 -2534.161)"/><path d="m1042.089 1002a3.521 3.521 0 1 0 -3.51 3.249 3.387 3.387 0 0 0 3.51-3.249" transform="translate(-36.556 -2534.425)"/><path d="m961.991 1002.263a3.281 3.281 0 1 0 -3.271 3.028 3.157 3.157 0 0 0 3.271-3.028" transform="translate(79.76 -2534.691)"/><path d="m881.893 1002.528a3.041 3.041 0 1 0 -3.032 2.807 2.926 2.926 0 0 0 3.032-2.807" transform="translate(196.078 -2534.956)"/><path d="m801.794 1002.793a2.8 2.8 0 1 0 -2.793 2.586 2.7 2.7 0 0 0 2.793-2.586" transform="translate(312.396 -2535.221)"/><path d="m721.695 1003.057a2.562 2.562 0 1 0 -2.554 2.365 2.465 2.465 0 0 0 2.554-2.365" transform="translate(428.714 -2535.486)"/><path d="m641.6 1003.323a2.322 2.322 0 1 0 -2.315 2.143 2.234 2.234 0 0 0 2.315-2.143" transform="translate(545.031 -2535.751)"/><path d="m561.5 1003.588a2.082 2.082 0 1 0 -2.076 1.922 2 2 0 0 0 2.076-1.922" transform="translate(661.349 -2536.016)"/><path d="m481.4 1003.853a1.843 1.843 0 1 0 -1.837 1.7 1.773 1.773 0 0 0 1.837-1.7" transform="translate(777.666 -2536.281)"/><path d="m401.3 1004.118a1.6 1.6 0 1 0 -1.6 1.479 1.542 1.542 0 0 0 1.6-1.479" transform="translate(893.983 -2536.546)"/><path d="m321.2 1004.383a1.363 1.363 0 1 0 -1.359 1.258 1.312 1.312 0 0 0 1.359-1.258" transform="translate(1010.301 -2536.812)"/><path d="m241.1 1004.648a1.123 1.123 0 1 0 -1.12 1.037 1.081 1.081 0 0 0 1.12-1.037" transform="translate(1126.619 -2537.076)"/><path d="m161 1004.914a.884.884 0 1 0 -.881.816.85.85 0 0 0 .881-.816" transform="translate(1242.937 -2537.342)"/><path d="m80.906 1005.179a.644.644 0 1 0 -.642.594.62.62 0 0 0 .642-.594" transform="translate(1359.253 -2537.606)"/><path d="m3284.854 853.841c0-5.216-4.568-9.444-10.2-9.444s-10.2 4.228-10.2 9.444 4.567 9.444 10.2 9.444 10.2-4.228 10.2-9.444" transform="translate(-3293.45 -2450.288)"/><path d="m3204.755 854.107c0-5.094-4.46-9.222-9.963-9.222s-9.963 4.129-9.963 9.222 4.46 9.222 9.963 9.222 9.963-4.129 9.963-9.222" transform="translate(-3177.132 -2450.554)"/><path d="m3124.656 854.371c0-4.971-4.354-9-9.724-9s-9.724 4.03-9.724 9 4.353 9 9.724 9 9.724-4.03 9.724-9" transform="translate(-3060.814 -2450.818)"/><path d="m3044.558 854.637c0-4.849-4.246-8.78-9.485-8.78s-9.485 3.931-9.485 8.78 4.247 8.78 9.485 8.78 9.485-3.931 9.485-8.78" transform="translate(-2944.497 -2451.083)"/><path d="m2964.459 854.9c0-4.727-4.139-8.558-9.246-8.558s-9.246 3.832-9.246 8.558 4.139 8.559 9.246 8.559 9.246-3.832 9.246-8.559" transform="translate(-2828.179 -2451.349)"/><path d="m2884.36 855.167c0-4.6-4.033-8.338-9.008-8.338s-9.007 3.733-9.007 8.338 4.033 8.337 9.007 8.337 9.008-3.732 9.008-8.337" transform="translate(-2711.862 -2451.613)"/><path d="m2804.261 855.432c0-4.482-3.926-8.116-8.768-8.116s-8.768 3.634-8.768 8.116 3.926 8.116 8.768 8.116 8.768-3.634 8.768-8.116" transform="translate(-2595.543 -2451.879)"/><path d="m2724.162 855.7c0-4.36-3.819-7.9-8.529-7.9s-8.529 3.535-8.529 7.9 3.819 7.895 8.529 7.895 8.529-3.535 8.529-7.895" transform="translate(-2479.226 -2452.144)"/><path d="m2644.064 855.962c0-4.238-3.711-7.674-8.29-7.674s-8.29 3.436-8.29 7.674 3.712 7.674 8.29 7.674 8.29-3.435 8.29-7.674" transform="translate(-2362.909 -2452.409)"/><path d="m2563.965 856.228c0-4.116-3.6-7.453-8.051-7.453s-8.051 3.337-8.051 7.453 3.6 7.453 8.051 7.453 8.051-3.337 8.051-7.453" transform="translate(-2246.591 -2452.674)"/><path d="m2483.866 856.492c0-3.994-3.5-7.231-7.812-7.231s-7.812 3.237-7.812 7.231 3.5 7.231 7.812 7.231 7.813-3.237 7.813-7.231" transform="translate(-2130.273 -2452.939)"/><path d="m2403.768 856.758a7.6 7.6 0 1 0 -7.573 7.01 7.308 7.308 0 0 0 7.573-7.01" transform="translate(-2013.956 -2453.204)"/><path d="m2323.669 857.023a7.356 7.356 0 1 0 -7.334 6.789 7.078 7.078 0 0 0 7.334-6.789" transform="translate(-1897.639 -2453.469)"/><path d="m2243.57 857.288a7.117 7.117 0 1 0 -7.095 6.568 6.847 6.847 0 0 0 7.095-6.568" transform="translate(-1781.321 -2453.734)"/><path d="m2163.472 857.553a6.877 6.877 0 1 0 -6.856 6.346 6.616 6.616 0 0 0 6.856-6.346" transform="translate(-1665.004 -2454)"/><path d="m2083.373 857.818a6.637 6.637 0 1 0 -6.617 6.126 6.385 6.385 0 0 0 6.617-6.126" transform="translate(-1548.686 -2454.265)"/><path d="m2003.274 858.083a6.4 6.4 0 1 0 -6.378 5.9 6.155 6.155 0 0 0 6.378-5.9" transform="translate(-1432.368 -2454.529)"/><path d="m1923.175 858.349a6.158 6.158 0 1 0 -6.139 5.682 5.924 5.924 0 0 0 6.139-5.682" transform="translate(-1316.05 -2454.795)"/><path d="m1843.077 858.613a5.918 5.918 0 1 0 -5.9 5.462 5.693 5.693 0 0 0 5.9-5.462" transform="translate(-1199.734 -2455.06)"/><path d="m1762.978 858.878a5.678 5.678 0 1 0 -5.661 5.24 5.463 5.463 0 0 0 5.661-5.24" transform="translate(-1083.416 -2455.325)"/><path d="m1682.879 859.144a5.438 5.438 0 1 0 -5.422 5.019 5.232 5.232 0 0 0 5.422-5.019" transform="translate(-967.098 -2455.59)"/><path d="m1602.78 859.409a5.2 5.2 0 1 0 -5.183 4.8 5 5 0 0 0 5.183-4.8" transform="translate(-850.78 -2455.855)"/><path d="m1522.682 859.674a4.959 4.959 0 1 0 -4.944 4.577 4.771 4.771 0 0 0 4.944-4.577" transform="translate(-734.463 -2456.12)"/><path d="m1442.583 859.939a4.719 4.719 0 1 0 -4.705 4.355 4.541 4.541 0 0 0 4.705-4.355" transform="translate(-618.145 -2456.385)"/><path d="m1362.484 860.2a4.479 4.479 0 1 0 -4.466 4.134 4.309 4.309 0 0 0 4.466-4.134" transform="translate(-501.827 -2456.651)"/><path d="m1282.386 860.469a4.239 4.239 0 1 0 -4.227 3.913 4.079 4.079 0 0 0 4.227-3.913" transform="translate(-385.51 -2456.916)"/><path d="m1202.287 860.734a4 4 0 1 0 -3.988 3.691 3.849 3.849 0 0 0 3.988-3.691" transform="translate(-269.193 -2457.181)"/><path d="m1122.188 861a3.76 3.76 0 1 0 -3.749 3.47 3.617 3.617 0 0 0 3.749-3.47" transform="translate(-152.875 -2457.446)"/><path d="m1042.089 861.264a3.521 3.521 0 1 0 -3.51 3.25 3.387 3.387 0 0 0 3.51-3.25" transform="translate(-36.556 -2457.711)"/><path d="m961.991 861.529a3.281 3.281 0 1 0 -3.271 3.028 3.157 3.157 0 0 0 3.271-3.028" transform="translate(79.76 -2457.976)"/><path d="m881.893 861.8a3.041 3.041 0 1 0 -3.032 2.807 2.926 2.926 0 0 0 3.032-2.807" transform="translate(196.078 -2458.242)"/><path d="m801.794 862.06a2.8 2.8 0 1 0 -2.794 2.586 2.7 2.7 0 0 0 2.793-2.586" transform="translate(312.396 -2458.506)"/><path d="m721.695 862.324a2.562 2.562 0 1 0 -2.554 2.365 2.465 2.465 0 0 0 2.554-2.365" transform="translate(428.714 -2458.771)"/><path d="m641.6 862.591a2.322 2.322 0 1 0 -2.315 2.143 2.234 2.234 0 0 0 2.315-2.143" transform="translate(545.031 -2459.037)"/><path d="m561.5 862.855a2.082 2.082 0 1 0 -2.076 1.922 2 2 0 0 0 2.076-1.922" transform="translate(661.349 -2459.301)"/><path d="m481.4 863.12a1.843 1.843 0 1 0 -1.837 1.7 1.773 1.773 0 0 0 1.837-1.7" transform="translate(777.666 -2459.566)"/><path d="m401.3 863.385a1.6 1.6 0 1 0 -1.6 1.479 1.542 1.542 0 0 0 1.6-1.479" transform="translate(893.983 -2459.832)"/><path d="m321.2 863.65a1.363 1.363 0 1 0 -1.359 1.259 1.312 1.312 0 0 0 1.359-1.259" transform="translate(1010.301 -2460.097)"/><path d="m241.1 863.915a1.123 1.123 0 1 0 -1.12 1.037 1.081 1.081 0 0 0 1.12-1.037" transform="translate(1126.619 -2460.362)"/><path d="m161 864.181a.884.884 0 1 0 -.881.816.85.85 0 0 0 .881-.816" transform="translate(1242.937 -2460.627)"/><path d="m80.906 864.446a.644.644 0 1 0 -.642.595.62.62 0 0 0 .642-.595" transform="translate(1359.253 -2460.893)"/><path d="m3284.854 713.11c0-5.216-4.568-9.444-10.2-9.444s-10.2 4.227-10.2 9.444 4.567 9.443 10.2 9.443 10.2-4.228 10.2-9.443" transform="translate(-3293.45 -2373.574)"/><path d="m3204.755 713.375c0-5.094-4.46-9.223-9.963-9.223s-9.963 4.129-9.963 9.223 4.46 9.222 9.963 9.222 9.963-4.129 9.963-9.222" transform="translate(-3177.132 -2373.839)"/><path d="m3124.656 713.639c0-4.971-4.354-9-9.724-9s-9.724 4.031-9.724 9 4.353 9 9.724 9 9.724-4.03 9.724-9" transform="translate(-3060.814 -2374.104)"/><path d="m3044.558 713.9c0-4.849-4.246-8.78-9.485-8.78s-9.485 3.931-9.485 8.78 4.247 8.78 9.485 8.78 9.485-3.931 9.485-8.78" transform="translate(-2944.497 -2374.369)"/><path d="m2964.459 714.17c0-4.727-4.139-8.559-9.246-8.559s-9.246 3.832-9.246 8.559 4.139 8.558 9.246 8.558 9.246-3.832 9.246-8.558" transform="translate(-2828.179 -2374.634)"/><path d="m2884.36 714.434c0-4.605-4.033-8.338-9.008-8.338s-9.007 3.733-9.007 8.338 4.033 8.337 9.007 8.337 9.008-3.732 9.008-8.337" transform="translate(-2711.862 -2374.898)"/><path d="m2804.261 714.7c0-4.483-3.926-8.117-8.768-8.117s-8.768 3.634-8.768 8.117 3.926 8.116 8.768 8.116 8.768-3.634 8.768-8.116" transform="translate(-2595.543 -2375.164)"/><path d="m2724.162 714.965c0-4.36-3.819-7.9-8.529-7.9s-8.529 3.535-8.529 7.9 3.819 7.895 8.529 7.895 8.529-3.535 8.529-7.895" transform="translate(-2479.226 -2375.43)"/><path d="m2644.064 715.229c0-4.238-3.711-7.675-8.29-7.675s-8.29 3.436-8.29 7.675 3.712 7.673 8.29 7.673 8.29-3.435 8.29-7.673" transform="translate(-2362.909 -2375.694)"/><path d="m2563.965 715.495c0-4.116-3.6-7.453-8.051-7.453s-8.051 3.337-8.051 7.453 3.6 7.453 8.051 7.453 8.051-3.337 8.051-7.453" transform="translate(-2246.591 -2375.959)"/><path d="m2483.866 715.76c0-3.994-3.5-7.231-7.812-7.231s-7.812 3.237-7.812 7.231 3.5 7.231 7.812 7.231 7.813-3.237 7.813-7.231" transform="translate(-2130.273 -2376.225)"/><path d="m2403.768 716.025a7.6 7.6 0 1 0 -7.573 7.009 7.308 7.308 0 0 0 7.573-7.009" transform="translate(-2013.956 -2376.49)"/><path d="m2323.669 716.29a7.356 7.356 0 1 0 -7.334 6.789 7.078 7.078 0 0 0 7.334-6.789" transform="translate(-1897.639 -2376.755)"/><path d="m2243.57 716.556a7.117 7.117 0 1 0 -7.095 6.568 6.846 6.846 0 0 0 7.095-6.568" transform="translate(-1781.321 -2377.02)"/><path d="m2163.472 716.821a6.877 6.877 0 1 0 -6.856 6.346 6.616 6.616 0 0 0 6.856-6.346" transform="translate(-1665.004 -2377.285)"/><path d="m2083.373 717.086a6.637 6.637 0 1 0 -6.617 6.125 6.386 6.386 0 0 0 6.617-6.125" transform="translate(-1548.686 -2377.55)"/><path d="m2003.274 717.351a6.4 6.4 0 1 0 -6.378 5.9 6.155 6.155 0 0 0 6.378-5.9" transform="translate(-1432.368 -2377.815)"/><path d="m1923.175 717.616a6.158 6.158 0 1 0 -6.139 5.682 5.924 5.924 0 0 0 6.139-5.682" transform="translate(-1316.05 -2378.081)"/><path d="m1843.077 717.881a5.918 5.918 0 1 0 -5.9 5.461 5.694 5.694 0 0 0 5.9-5.461" transform="translate(-1199.734 -2378.345)"/><path d="m1762.978 718.146a5.678 5.678 0 1 0 -5.661 5.24 5.463 5.463 0 0 0 5.661-5.24" transform="translate(-1083.416 -2378.611)"/><path d="m1682.879 718.411a5.438 5.438 0 1 0 -5.422 5.018 5.232 5.232 0 0 0 5.422-5.018" transform="translate(-967.098 -2378.876)"/><path d="m1602.78 718.676a5.2 5.2 0 1 0 -5.183 4.8 5 5 0 0 0 5.183-4.8" transform="translate(-850.78 -2379.141)"/><path d="m1522.682 718.942a4.959 4.959 0 1 0 -4.944 4.577 4.771 4.771 0 0 0 4.944-4.577" transform="translate(-734.463 -2379.406)"/><path d="m1442.583 719.207a4.719 4.719 0 1 0 -4.705 4.355 4.54 4.54 0 0 0 4.705-4.355" transform="translate(-618.145 -2379.671)"/><path d="m1362.484 719.472a4.479 4.479 0 1 0 -4.466 4.134 4.309 4.309 0 0 0 4.466-4.134" transform="translate(-501.827 -2379.937)"/><path d="m1282.386 719.736a4.239 4.239 0 1 0 -4.227 3.913 4.079 4.079 0 0 0 4.227-3.913" transform="translate(-385.51 -2380.201)"/><path d="m1202.287 720a4 4 0 1 0 -3.988 3.691 3.849 3.849 0 0 0 3.988-3.691" transform="translate(-269.193 -2380.466)"/><path d="m1122.188 720.267a3.761 3.761 0 1 0 -3.749 3.47 3.618 3.618 0 0 0 3.749-3.47" transform="translate(-152.875 -2380.732)"/><path d="m1042.089 720.532a3.521 3.521 0 1 0 -3.51 3.249 3.387 3.387 0 0 0 3.51-3.249" transform="translate(-36.556 -2380.996)"/><path d="m961.991 720.8a3.281 3.281 0 1 0 -3.271 3.028 3.157 3.157 0 0 0 3.271-3.028" transform="translate(79.76 -2381.262)"/><path d="m881.893 721.063a3.041 3.041 0 1 0 -3.032 2.806 2.926 2.926 0 0 0 3.032-2.806" transform="translate(196.078 -2381.527)"/><path d="m801.794 721.327a2.8 2.8 0 1 0 -2.794 2.586 2.7 2.7 0 0 0 2.793-2.586" transform="translate(312.396 -2381.792)"/><path d="m721.695 721.593a2.562 2.562 0 1 0 -2.554 2.364 2.465 2.465 0 0 0 2.554-2.364" transform="translate(428.714 -2382.057)"/><path d="m641.6 721.858a2.322 2.322 0 1 0 -2.319 2.142 2.234 2.234 0 0 0 2.315-2.143" transform="translate(545.031 -2382.322)"/><path d="m561.5 722.122a2.082 2.082 0 1 0 -2.076 1.922 2 2 0 0 0 2.076-1.922" transform="translate(661.349 -2382.587)"/><path d="m481.4 722.388a1.843 1.843 0 1 0 -1.837 1.7 1.773 1.773 0 0 0 1.837-1.7" transform="translate(777.666 -2382.853)"/><path d="m401.3 722.653a1.6 1.6 0 1 0 -1.6 1.479 1.542 1.542 0 0 0 1.6-1.479" transform="translate(893.983 -2383.118)"/><path d="m321.2 722.918a1.363 1.363 0 1 0 -1.359 1.258 1.312 1.312 0 0 0 1.359-1.258" transform="translate(1010.301 -2383.382)"/><path d="m241.1 723.183a1.123 1.123 0 1 0 -1.12 1.037 1.081 1.081 0 0 0 1.12-1.037" transform="translate(1126.619 -2383.647)"/><path d="m161 723.449a.884.884 0 1 0 -.881.816.85.85 0 0 0 .881-.816" transform="translate(1242.937 -2383.913)"/><path d="m80.906 723.714a.644.644 0 1 0 -.642.594.62.62 0 0 0 .642-.594" transform="translate(1359.253 -2384.178)"/><path d="m3284.854 572.377c0-5.216-4.568-9.444-10.2-9.444s-10.2 4.228-10.2 9.444 4.567 9.444 10.2 9.444 10.2-4.228 10.2-9.444" transform="translate(-3293.45 -2296.859)"/><path d="m3204.755 572.641c0-5.093-4.46-9.223-9.963-9.223s-9.963 4.129-9.963 9.223 4.46 9.223 9.963 9.223 9.963-4.129 9.963-9.223" transform="translate(-3177.132 -2297.124)"/><path d="m3124.656 572.906c0-4.971-4.354-9-9.724-9s-9.724 4.03-9.724 9 4.353 9 9.724 9 9.724-4.03 9.724-9" transform="translate(-3060.814 -2297.389)"/><path d="m3044.558 573.172c0-4.849-4.246-8.78-9.485-8.78s-9.485 3.931-9.485 8.78 4.247 8.78 9.485 8.78 9.485-3.931 9.485-8.78" transform="translate(-2944.497 -2297.655)"/><path d="m2964.459 573.437c0-4.727-4.139-8.559-9.246-8.559s-9.246 3.832-9.246 8.559 4.139 8.559 9.246 8.559 9.246-3.832 9.246-8.559" transform="translate(-2828.179 -2297.92)"/><path d="m2884.36 573.7c0-4.6-4.033-8.338-9.008-8.338s-9.007 3.733-9.007 8.338 4.033 8.337 9.007 8.337 9.008-3.733 9.008-8.337" transform="translate(-2711.862 -2298.185)"/><path d="m2804.261 573.967c0-4.483-3.926-8.116-8.768-8.116s-8.768 3.634-8.768 8.116 3.926 8.116 8.768 8.116 8.768-3.634 8.768-8.116" transform="translate(-2595.543 -2298.45)"/><path d="m2724.162 574.232c0-4.36-3.819-7.9-8.529-7.9s-8.529 3.535-8.529 7.9 3.819 7.9 8.529 7.9 8.529-3.535 8.529-7.9" transform="translate(-2479.226 -2298.715)"/><path d="m2644.064 574.5c0-4.238-3.711-7.674-8.29-7.674s-8.29 3.436-8.29 7.674 3.712 7.674 8.29 7.674 8.29-3.435 8.29-7.674" transform="translate(-2362.909 -2298.98)"/><path d="m2563.965 574.763c0-4.116-3.6-7.453-8.051-7.453s-8.051 3.337-8.051 7.453 3.6 7.453 8.051 7.453 8.051-3.337 8.051-7.453" transform="translate(-2246.591 -2299.245)"/><path d="m2483.866 575.027c0-3.994-3.5-7.231-7.812-7.231s-7.812 3.237-7.812 7.231 3.5 7.231 7.812 7.231 7.813-3.237 7.813-7.231" transform="translate(-2130.273 -2299.51)"/><path d="m2403.768 575.292a7.6 7.6 0 1 0 -7.573 7.01 7.308 7.308 0 0 0 7.573-7.01" transform="translate(-2013.956 -2299.775)"/><path d="m2323.669 575.558a7.356 7.356 0 1 0 -7.334 6.789 7.078 7.078 0 0 0 7.334-6.789" transform="translate(-1897.639 -2300.041)"/><path d="m2243.57 575.823a7.117 7.117 0 1 0 -7.095 6.568 6.847 6.847 0 0 0 7.095-6.568" transform="translate(-1781.321 -2300.306)"/><path d="m2163.472 576.088a6.877 6.877 0 1 0 -6.856 6.346 6.616 6.616 0 0 0 6.856-6.346" transform="translate(-1665.004 -2300.57)"/><path d="m2083.373 576.353a6.637 6.637 0 1 0 -6.617 6.125 6.385 6.385 0 0 0 6.617-6.125" transform="translate(-1548.686 -2300.836)"/><path d="m2003.274 576.618a6.4 6.4 0 1 0 -6.378 5.9 6.155 6.155 0 0 0 6.378-5.9" transform="translate(-1432.368 -2301.101)"/><path d="m1923.175 576.883a6.158 6.158 0 1 0 -6.139 5.682 5.924 5.924 0 0 0 6.139-5.682" transform="translate(-1316.05 -2301.366)"/><path d="m1843.077 577.148a5.918 5.918 0 1 0 -5.9 5.461 5.693 5.693 0 0 0 5.9-5.461" transform="translate(-1199.734 -2301.631)"/><path d="m1762.978 577.413a5.678 5.678 0 1 0 -5.661 5.24 5.463 5.463 0 0 0 5.661-5.24" transform="translate(-1083.416 -2301.896)"/><path d="m1682.879 577.678a5.438 5.438 0 1 0 -5.422 5.019 5.233 5.233 0 0 0 5.422-5.019" transform="translate(-967.098 -2302.161)"/><path d="m1602.78 577.944a5.2 5.2 0 1 0 -5.183 4.8 5 5 0 0 0 5.183-4.8" transform="translate(-850.78 -2302.427)"/><path d="m1522.682 578.209a4.959 4.959 0 1 0 -4.944 4.577 4.771 4.771 0 0 0 4.944-4.577" transform="translate(-734.463 -2302.691)"/><path d="m1442.583 578.474a4.719 4.719 0 1 0 -4.705 4.355 4.541 4.541 0 0 0 4.705-4.355" transform="translate(-618.145 -2302.957)"/><path d="m1362.484 578.739a4.479 4.479 0 1 0 -4.466 4.134 4.31 4.31 0 0 0 4.466-4.134" transform="translate(-501.827 -2303.222)"/><path d="m1282.386 579a4.239 4.239 0 1 0 -4.227 3.913 4.079 4.079 0 0 0 4.227-3.913" transform="translate(-385.51 -2303.487)"/><path d="m1202.287 579.269a4 4 0 1 0 -3.988 3.691 3.849 3.849 0 0 0 3.988-3.691" transform="translate(-269.193 -2303.752)"/><path d="m1122.188 579.534a3.76 3.76 0 1 0 -3.749 3.47 3.618 3.618 0 0 0 3.749-3.47" transform="translate(-152.875 -2304.017)"/><path d="m1042.089 579.8a3.521 3.521 0 1 0 -3.51 3.249 3.387 3.387 0 0 0 3.51-3.249" transform="translate(-36.556 -2304.282)"/><path d="m961.991 580.064a3.281 3.281 0 1 0 -3.271 3.028 3.157 3.157 0 0 0 3.271-3.028" transform="translate(79.76 -2304.547)"/><path d="m881.893 580.33a3.041 3.041 0 1 0 -3.032 2.807 2.926 2.926 0 0 0 3.032-2.807" transform="translate(196.078 -2304.813)"/><path d="m801.794 580.595a2.8 2.8 0 1 0 -2.794 2.585 2.7 2.7 0 0 0 2.793-2.586" transform="translate(312.396 -2305.078)"/><path d="m721.695 580.86a2.562 2.562 0 1 0 -2.554 2.365 2.465 2.465 0 0 0 2.554-2.365" transform="translate(428.714 -2305.342)"/><path d="m641.6 581.125a2.322 2.322 0 1 0 -2.315 2.143 2.234 2.234 0 0 0 2.315-2.143" transform="translate(545.031 -2305.608)"/><path d="m561.5 581.39a2.082 2.082 0 1 0 -2.076 1.922 2 2 0 0 0 2.076-1.922" transform="translate(661.349 -2305.873)"/><path d="m481.4 581.655a1.843 1.843 0 1 0 -1.837 1.7 1.773 1.773 0 0 0 1.837-1.7" transform="translate(777.666 -2306.138)"/><path d="m401.3 581.92a1.6 1.6 0 1 0 -1.6 1.479 1.542 1.542 0 0 0 1.6-1.479" transform="translate(893.983 -2306.403)"/><path d="m321.2 582.185a1.363 1.363 0 1 0 -1.359 1.258 1.312 1.312 0 0 0 1.359-1.258" transform="translate(1010.301 -2306.668)"/><path d="m241.1 582.45a1.123 1.123 0 1 0 -1.12 1.037 1.081 1.081 0 0 0 1.12-1.037" transform="translate(1126.619 -2306.933)"/><path d="m161 582.716a.884.884 0 1 0 -.881.816.85.85 0 0 0 .881-.816" transform="translate(1242.937 -2307.198)"/><path d="m80.906 582.981a.644.644 0 1 0 -.642.595.62.62 0 0 0 .642-.595" transform="translate(1359.253 -2307.463)"/><path d="m3284.854 431.643c0-5.215-4.568-9.444-10.2-9.444s-10.2 4.228-10.2 9.444 4.567 9.444 10.2 9.444 10.2-4.227 10.2-9.444" transform="translate(-3293.45 -2220.144)"/><path d="m3204.755 431.908c0-5.093-4.46-9.222-9.963-9.222s-9.963 4.129-9.963 9.222 4.46 9.222 9.963 9.222 9.963-4.129 9.963-9.222" transform="translate(-3177.132 -2220.41)"/><path d="m3124.656 432.173c0-4.971-4.354-9-9.724-9s-9.724 4.03-9.724 9 4.353 9 9.724 9 9.724-4.031 9.724-9" transform="translate(-3060.814 -2220.675)"/><path d="m3044.558 432.438c0-4.849-4.246-8.78-9.485-8.78s-9.485 3.931-9.485 8.78 4.247 8.78 9.485 8.78 9.485-3.931 9.485-8.78" transform="translate(-2944.497 -2220.939)"/><path d="m2964.459 432.7c0-4.727-4.139-8.558-9.246-8.558s-9.246 3.832-9.246 8.558 4.139 8.559 9.246 8.559 9.246-3.832 9.246-8.559" transform="translate(-2828.179 -2221.205)"/><path d="m2884.36 432.969c0-4.6-4.033-8.337-9.008-8.337s-9.007 3.732-9.007 8.337 4.033 8.338 9.007 8.338 9.008-3.733 9.008-8.338" transform="translate(-2711.862 -2221.471)"/><path d="m2804.261 433.233c0-4.483-3.926-8.116-8.768-8.116s-8.768 3.634-8.768 8.116 3.926 8.117 8.768 8.117 8.768-3.634 8.768-8.117" transform="translate(-2595.543 -2221.735)"/><path d="m2724.162 433.5c0-4.36-3.819-7.895-8.529-7.895s-8.529 3.535-8.529 7.895 3.819 7.9 8.529 7.9 8.529-3.535 8.529-7.9" transform="translate(-2479.226 -2222)"/><path d="m2644.064 433.764c0-4.238-3.711-7.673-8.29-7.673s-8.29 3.435-8.29 7.673 3.712 7.674 8.29 7.674 8.29-3.436 8.29-7.674" transform="translate(-2362.909 -2222.266)"/><path d="m2563.965 434.029c0-4.116-3.6-7.453-8.051-7.453s-8.051 3.337-8.051 7.453 3.6 7.453 8.051 7.453 8.051-3.337 8.051-7.453" transform="translate(-2246.591 -2222.53)"/><path d="m2483.866 434.294c0-3.994-3.5-7.231-7.812-7.231s-7.812 3.237-7.812 7.231 3.5 7.231 7.812 7.231 7.813-3.237 7.813-7.231" transform="translate(-2130.273 -2222.796)"/><path d="m2403.768 434.559a7.6 7.6 0 1 0 -7.573 7.01 7.308 7.308 0 0 0 7.573-7.01" transform="translate(-2013.956 -2223.061)"/><path d="m2323.669 434.824a7.356 7.356 0 1 0 -7.334 6.789 7.078 7.078 0 0 0 7.334-6.789" transform="translate(-1897.639 -2223.326)"/><path d="m2243.57 435.089a7.117 7.117 0 1 0 -7.095 6.568 6.847 6.847 0 0 0 7.095-6.568" transform="translate(-1781.321 -2223.59)"/><path d="m2163.472 435.355a6.877 6.877 0 1 0 -6.856 6.347 6.616 6.616 0 0 0 6.856-6.347" transform="translate(-1665.004 -2223.856)"/><path d="m2083.373 435.619a6.637 6.637 0 1 0 -6.617 6.126 6.385 6.385 0 0 0 6.617-6.126" transform="translate(-1548.686 -2224.121)"/><path d="m2003.274 435.884a6.4 6.4 0 1 0 -6.378 5.9 6.155 6.155 0 0 0 6.378-5.9" transform="translate(-1432.368 -2224.386)"/><path d="m1923.175 436.15a6.157 6.157 0 1 0 -6.139 5.683 5.924 5.924 0 0 0 6.139-5.683" transform="translate(-1316.05 -2224.652)"/><path d="m1843.077 436.414a5.918 5.918 0 1 0 -5.9 5.462 5.693 5.693 0 0 0 5.9-5.462" transform="translate(-1199.734 -2224.916)"/><path d="m1762.978 436.679a5.678 5.678 0 1 0 -5.661 5.24 5.463 5.463 0 0 0 5.661-5.24" transform="translate(-1083.416 -2225.181)"/><path d="m1682.879 436.945a5.438 5.438 0 1 0 -5.422 5.019 5.232 5.232 0 0 0 5.422-5.019" transform="translate(-967.098 -2225.447)"/><path d="m1602.78 437.21a5.2 5.2 0 1 0 -5.183 4.8 5 5 0 0 0 5.183-4.8" transform="translate(-850.78 -2225.711)"/><path d="m1522.682 437.475a4.959 4.959 0 1 0 -4.944 4.577 4.772 4.772 0 0 0 4.944-4.577" transform="translate(-734.463 -2225.977)"/><path d="m1442.583 437.74a4.719 4.719 0 1 0 -4.705 4.356 4.54 4.54 0 0 0 4.705-4.356" transform="translate(-618.145 -2226.242)"/><path d="m1362.484 438.006a4.479 4.479 0 1 0 -4.466 4.134 4.309 4.309 0 0 0 4.466-4.134" transform="translate(-501.827 -2226.507)"/><path d="m1282.386 438.27a4.239 4.239 0 1 0 -4.227 3.913 4.079 4.079 0 0 0 4.227-3.913" transform="translate(-385.51 -2226.771)"/><path d="m1202.287 438.535a4 4 0 1 0 -3.988 3.692 3.849 3.849 0 0 0 3.988-3.692" transform="translate(-269.193 -2227.037)"/><path d="m1122.188 438.8a3.76 3.76 0 1 0 -3.749 3.47 3.618 3.618 0 0 0 3.749-3.47" transform="translate(-152.875 -2227.303)"/><path d="m1042.089 439.065a3.521 3.521 0 1 0 -3.51 3.25 3.387 3.387 0 0 0 3.51-3.25" transform="translate(-36.556 -2227.567)"/><path d="m961.991 439.331a3.281 3.281 0 1 0 -3.271 3.028 3.157 3.157 0 0 0 3.271-3.028" transform="translate(79.76 -2227.833)"/><path d="m881.893 439.6a3.041 3.041 0 1 0 -3.032 2.807 2.926 2.926 0 0 0 3.032-2.807" transform="translate(196.078 -2228.098)"/><path d="m801.794 439.861a2.8 2.8 0 1 0 -2.794 2.586 2.7 2.7 0 0 0 2.793-2.586" transform="translate(312.396 -2228.362)"/><path d="m721.695 440.126a2.562 2.562 0 1 0 -2.554 2.365 2.465 2.465 0 0 0 2.554-2.365" transform="translate(428.714 -2228.627)"/><path d="m641.6 440.392a2.322 2.322 0 1 0 -2.315 2.143 2.234 2.234 0 0 0 2.315-2.143" transform="translate(545.031 -2228.893)"/><path d="m561.5 440.656a2.082 2.082 0 1 0 -2.076 1.922 2 2 0 0 0 2.076-1.922" transform="translate(661.349 -2229.158)"/><path d="m481.4 440.921a1.843 1.843 0 1 0 -1.837 1.7 1.773 1.773 0 0 0 1.837-1.7" transform="translate(777.666 -2229.422)"/><path d="m401.3 441.187a1.6 1.6 0 1 0 -1.6 1.479 1.542 1.542 0 0 0 1.6-1.479" transform="translate(893.983 -2229.688)"/><path d="m321.2 441.451a1.363 1.363 0 1 0 -1.359 1.259 1.312 1.312 0 0 0 1.359-1.259" transform="translate(1010.301 -2229.953)"/><path d="m241.1 441.716a1.123 1.123 0 1 0 -1.12 1.038 1.081 1.081 0 0 0 1.12-1.038" transform="translate(1126.619 -2230.218)"/><path d="m161 441.982a.884.884 0 1 0 -.881.816.85.85 0 0 0 .881-.816" transform="translate(1242.937 -2230.484)"/><path d="m80.906 442.247a.644.644 0 1 0 -.642.595.62.62 0 0 0 .642-.595" transform="translate(1359.253 -2230.749)"/><path d="m3284.854 290.911c0-5.216-4.568-9.444-10.2-9.444s-10.2 4.228-10.2 9.444 4.567 9.444 10.2 9.444 10.2-4.228 10.2-9.444" transform="translate(-3293.45 -2143.43)"/><path d="m3204.755 291.175c0-5.093-4.46-9.222-9.963-9.222s-9.963 4.129-9.963 9.222 4.46 9.222 9.963 9.222 9.963-4.129 9.963-9.222" transform="translate(-3177.132 -2143.695)"/><path d="m3124.656 291.44c0-4.971-4.354-9-9.724-9s-9.724 4.03-9.724 9 4.353 9 9.724 9 9.724-4.03 9.724-9" transform="translate(-3060.814 -2143.96)"/><path d="m3044.558 291.706c0-4.849-4.246-8.78-9.485-8.78s-9.485 3.931-9.485 8.78 4.247 8.78 9.485 8.78 9.485-3.931 9.485-8.78" transform="translate(-2944.497 -2144.226)"/><path d="m2964.459 291.971c0-4.727-4.139-8.559-9.246-8.559s-9.246 3.832-9.246 8.559 4.139 8.559 9.246 8.559 9.246-3.832 9.246-8.559" transform="translate(-2828.179 -2144.49)"/><path d="m2884.36 292.236c0-4.6-4.033-8.337-9.008-8.337s-9.007 3.732-9.007 8.337 4.033 8.338 9.007 8.338 9.008-3.733 9.008-8.338" transform="translate(-2711.862 -2144.756)"/><path d="m2804.261 292.5c0-4.483-3.926-8.116-8.768-8.116s-8.768 3.634-8.768 8.116 3.926 8.116 8.768 8.116 8.768-3.634 8.768-8.116" transform="translate(-2595.543 -2145.021)"/><path d="m2724.162 292.766c0-4.36-3.819-7.9-8.529-7.9s-8.529 3.535-8.529 7.9 3.819 7.9 8.529 7.9 8.529-3.535 8.529-7.9" transform="translate(-2479.226 -2145.286)"/><path d="m2644.064 293.032c0-4.238-3.711-7.674-8.29-7.674s-8.29 3.435-8.29 7.674 3.712 7.674 8.29 7.674 8.29-3.436 8.29-7.674" transform="translate(-2362.909 -2145.551)"/><path d="m2563.965 293.3c0-4.116-3.6-7.453-8.051-7.453s-8.051 3.336-8.051 7.453 3.6 7.453 8.051 7.453 8.051-3.337 8.051-7.453" transform="translate(-2246.591 -2145.816)"/><path d="m2483.866 293.561c0-3.994-3.5-7.231-7.812-7.231s-7.812 3.237-7.812 7.231 3.5 7.231 7.812 7.231 7.813-3.237 7.813-7.231" transform="translate(-2130.273 -2146.081)"/><path d="m2403.768 293.827a7.6 7.6 0 1 0 -7.573 7.01 7.308 7.308 0 0 0 7.573-7.01" transform="translate(-2013.956 -2146.347)"/><path d="m2323.669 294.091a7.356 7.356 0 1 0 -7.334 6.789 7.078 7.078 0 0 0 7.334-6.789" transform="translate(-1897.639 -2146.611)"/><path d="m2243.57 294.357a7.117 7.117 0 1 0 -7.095 6.568 6.846 6.846 0 0 0 7.095-6.568" transform="translate(-1781.321 -2146.876)"/><path d="m2163.472 294.622a6.877 6.877 0 1 0 -6.856 6.346 6.616 6.616 0 0 0 6.856-6.346" transform="translate(-1665.004 -2147.142)"/><path d="m2083.373 294.887a6.637 6.637 0 1 0 -6.617 6.125 6.386 6.386 0 0 0 6.617-6.125" transform="translate(-1548.686 -2147.406)"/><path d="m2003.274 295.152a6.4 6.4 0 1 0 -6.378 5.9 6.155 6.155 0 0 0 6.378-5.9" transform="translate(-1432.368 -2147.672)"/><path d="m1923.175 295.417a6.158 6.158 0 1 0 -6.139 5.683 5.924 5.924 0 0 0 6.139-5.683" transform="translate(-1316.05 -2147.937)"/><path d="m1843.077 295.682a5.918 5.918 0 1 0 -5.9 5.461 5.694 5.694 0 0 0 5.9-5.461" transform="translate(-1199.734 -2148.202)"/><path d="m1762.978 295.947a5.678 5.678 0 1 0 -5.661 5.24 5.463 5.463 0 0 0 5.661-5.24" transform="translate(-1083.416 -2148.467)"/><path d="m1682.879 296.213a5.438 5.438 0 1 0 -5.422 5.019 5.232 5.232 0 0 0 5.422-5.019" transform="translate(-967.098 -2148.732)"/><path d="m1602.78 296.477a5.2 5.2 0 1 0 -5.183 4.8 5 5 0 0 0 5.183-4.8" transform="translate(-850.78 -2148.997)"/><path d="m1522.682 296.743a4.959 4.959 0 1 0 -4.944 4.577 4.771 4.771 0 0 0 4.944-4.577" transform="translate(-734.463 -2149.262)"/><path d="m1442.583 297.008a4.719 4.719 0 1 0 -4.705 4.356 4.54 4.54 0 0 0 4.705-4.356" transform="translate(-618.145 -2149.528)"/><path d="m1362.484 297.273a4.479 4.479 0 1 0 -4.466 4.134 4.31 4.31 0 0 0 4.466-4.134" transform="translate(-501.827 -2149.792)"/><path d="m1282.386 297.538a4.239 4.239 0 1 0 -4.227 3.913 4.079 4.079 0 0 0 4.227-3.913" transform="translate(-385.51 -2150.058)"/><path d="m1202.287 297.8a4 4 0 1 0 -3.988 3.692 3.848 3.848 0 0 0 3.988-3.692" transform="translate(-269.193 -2150.323)"/><path d="m1122.188 298.068a3.761 3.761 0 1 0 -3.749 3.47 3.618 3.618 0 0 0 3.749-3.47" transform="translate(-152.875 -2150.588)"/><path d="m1042.089 298.333a3.521 3.521 0 1 0 -3.51 3.249 3.387 3.387 0 0 0 3.51-3.249" transform="translate(-36.556 -2150.853)"/><path d="m961.991 298.6a3.281 3.281 0 1 0 -3.271 3.028 3.157 3.157 0 0 0 3.271-3.028" transform="translate(79.76 -2151.118)"/><path d="m881.893 298.864a3.041 3.041 0 1 0 -3.032 2.806 2.926 2.926 0 0 0 3.032-2.806" transform="translate(196.078 -2151.383)"/><path d="m801.794 299.128a2.8 2.8 0 1 0 -2.794 2.586 2.7 2.7 0 0 0 2.793-2.586" transform="translate(312.396 -2151.647)"/><path d="m721.695 299.394a2.562 2.562 0 1 0 -2.554 2.365 2.465 2.465 0 0 0 2.554-2.365" transform="translate(428.714 -2151.913)"/><path d="m641.6 299.659a2.322 2.322 0 1 0 -2.315 2.143 2.234 2.234 0 0 0 2.315-2.143" transform="translate(545.031 -2152.179)"/><path d="m561.5 299.923a2.082 2.082 0 1 0 -2.076 1.922 2 2 0 0 0 2.076-1.922" transform="translate(661.349 -2152.443)"/><path d="m481.4 300.189a1.843 1.843 0 1 0 -1.837 1.7 1.773 1.773 0 0 0 1.837-1.7" transform="translate(777.666 -2152.708)"/><path d="m401.3 300.454a1.6 1.6 0 1 0 -1.6 1.479 1.542 1.542 0 0 0 1.6-1.479" transform="translate(893.983 -2152.974)"/><path d="m321.2 300.719a1.363 1.363 0 1 0 -1.359 1.258 1.312 1.312 0 0 0 1.359-1.258" transform="translate(1010.301 -2153.238)"/><path d="m241.1 300.984a1.123 1.123 0 1 0 -1.12 1.037 1.081 1.081 0 0 0 1.12-1.037" transform="translate(1126.619 -2153.504)"/><path d="m161 301.25a.884.884 0 1 0 -.881.816.85.85 0 0 0 .881-.816" transform="translate(1242.937 -2153.769)"/><path d="m80.906 301.515a.644.644 0 1 0 -.642.594.62.62 0 0 0 .642-.594" transform="translate(1359.253 -2154.034)"/><path d="m3284.854 150.178c0-5.216-4.568-9.444-10.2-9.444s-10.2 4.228-10.2 9.444 4.567 9.444 10.2 9.444 10.2-4.228 10.2-9.444" transform="translate(-3293.45 -2066.716)"/><path d="m3204.755 150.442c0-5.093-4.46-9.222-9.963-9.222s-9.963 4.129-9.963 9.222 4.46 9.222 9.963 9.222 9.963-4.129 9.963-9.222" transform="translate(-3177.132 -2066.98)"/><path d="m3124.656 150.708c0-4.971-4.354-9-9.724-9s-9.724 4.03-9.724 9 4.353 9 9.724 9 9.724-4.03 9.724-9" transform="translate(-3060.814 -2067.246)"/><path d="m3044.558 150.973c0-4.849-4.246-8.78-9.485-8.78s-9.485 3.931-9.485 8.78 4.247 8.78 9.485 8.78 9.485-3.931 9.485-8.78" transform="translate(-2944.497 -2067.511)"/><path d="m2964.459 151.238c0-4.727-4.139-8.559-9.246-8.559s-9.246 3.832-9.246 8.559 4.139 8.559 9.246 8.559 9.246-3.832 9.246-8.559" transform="translate(-2828.179 -2067.776)"/><path d="m2884.36 151.5c0-4.6-4.033-8.337-9.008-8.337s-9.007 3.732-9.007 8.337 4.033 8.338 9.007 8.338 9.008-3.733 9.008-8.338" transform="translate(-2711.862 -2068.042)"/><path d="m2804.261 151.768c0-4.483-3.926-8.116-8.768-8.116s-8.768 3.634-8.768 8.116 3.926 8.116 8.768 8.116 8.768-3.634 8.768-8.116" transform="translate(-2595.543 -2068.306)"/><path d="m2724.162 152.033c0-4.36-3.819-7.9-8.529-7.9s-8.529 3.535-8.529 7.9 3.819 7.9 8.529 7.9 8.529-3.535 8.529-7.9" transform="translate(-2479.226 -2068.571)"/><path d="m2644.064 152.3c0-4.238-3.711-7.674-8.29-7.674s-8.29 3.435-8.29 7.674 3.712 7.674 8.29 7.674 8.29-3.436 8.29-7.674" transform="translate(-2362.909 -2068.836)"/><path d="m2563.965 152.563c0-4.116-3.6-7.453-8.051-7.453s-8.051 3.337-8.051 7.453 3.6 7.453 8.051 7.453 8.051-3.337 8.051-7.453" transform="translate(-2246.591 -2069.102)"/><path d="m2483.866 152.828c0-3.994-3.5-7.231-7.812-7.231s-7.812 3.237-7.812 7.231 3.5 7.231 7.812 7.231 7.813-3.237 7.813-7.231" transform="translate(-2130.273 -2069.366)"/><path d="m2403.768 153.094a7.6 7.6 0 1 0 -7.573 7.01 7.308 7.308 0 0 0 7.573-7.01" transform="translate(-2013.956 -2069.632)"/><path d="m2323.669 153.359a7.356 7.356 0 1 0 -7.334 6.789 7.078 7.078 0 0 0 7.334-6.789" transform="translate(-1897.639 -2069.897)"/><path d="m2243.57 153.624a7.117 7.117 0 1 0 -7.095 6.568 6.847 6.847 0 0 0 7.095-6.568" transform="translate(-1781.321 -2070.162)"/><path d="m2163.472 153.889a6.877 6.877 0 1 0 -6.856 6.347 6.616 6.616 0 0 0 6.856-6.347" transform="translate(-1665.004 -2070.427)"/><path d="m2083.373 154.154a6.637 6.637 0 1 0 -6.617 6.125 6.385 6.385 0 0 0 6.617-6.125" transform="translate(-1548.686 -2070.692)"/><path d="m2003.274 154.419a6.4 6.4 0 1 0 -6.378 5.9 6.155 6.155 0 0 0 6.378-5.9" transform="translate(-1432.368 -2070.957)"/><path d="m1923.175 154.685a6.157 6.157 0 1 0 -6.139 5.683 5.924 5.924 0 0 0 6.139-5.683" transform="translate(-1316.05 -2071.223)"/><path d="m1843.077 154.949a5.918 5.918 0 1 0 -5.9 5.461 5.693 5.693 0 0 0 5.9-5.461" transform="translate(-1199.734 -2071.487)"/><path d="m1762.978 155.214a5.678 5.678 0 1 0 -5.661 5.24 5.463 5.463 0 0 0 5.661-5.24" transform="translate(-1083.416 -2071.752)"/><path d="m1682.879 155.48a5.438 5.438 0 1 0 -5.422 5.019 5.232 5.232 0 0 0 5.422-5.019" transform="translate(-967.098 -2072.018)"/><path d="m1602.78 155.745a5.2 5.2 0 1 0 -5.183 4.8 5 5 0 0 0 5.183-4.8" transform="translate(-850.78 -2072.283)"/><path d="m1522.682 156.01a4.959 4.959 0 1 0 -4.944 4.577 4.771 4.771 0 0 0 4.944-4.577" transform="translate(-734.463 -2072.548)"/><path d="m1442.583 156.275a4.719 4.719 0 1 0 -4.705 4.356 4.54 4.54 0 0 0 4.705-4.356" transform="translate(-618.145 -2072.813)"/><path d="m1362.484 156.54a4.479 4.479 0 1 0 -4.466 4.134 4.31 4.31 0 0 0 4.466-4.134" transform="translate(-501.827 -2073.078)"/><path d="m1282.386 156.8a4.239 4.239 0 1 0 -4.227 3.913 4.079 4.079 0 0 0 4.227-3.913" transform="translate(-385.51 -2073.343)"/><path d="m1202.287 157.07a4 4 0 1 0 -3.988 3.692 3.848 3.848 0 0 0 3.988-3.692" transform="translate(-269.193 -2073.608)"/><path d="m1122.188 157.335a3.76 3.76 0 1 0 -3.749 3.47 3.618 3.618 0 0 0 3.749-3.47" transform="translate(-152.875 -2073.874)"/><path d="m1042.089 157.6a3.521 3.521 0 1 0 -3.51 3.249 3.387 3.387 0 0 0 3.51-3.249" transform="translate(-36.556 -2074.138)"/><path d="m961.991 157.866a3.281 3.281 0 1 0 -3.271 3.028 3.157 3.157 0 0 0 3.271-3.028" transform="translate(79.76 -2074.404)"/><path d="m881.893 158.131a3.041 3.041 0 1 0 -3.032 2.807 2.926 2.926 0 0 0 3.032-2.807" transform="translate(196.078 -2074.669)"/><path d="m801.794 158.4a2.8 2.8 0 1 0 -2.794 2.581 2.7 2.7 0 0 0 2.793-2.586" transform="translate(312.396 -2074.934)"/><path d="m721.695 158.661a2.562 2.562 0 1 0 -2.554 2.365 2.465 2.465 0 0 0 2.554-2.365" transform="translate(428.714 -2075.199)"/><path d="m641.6 158.926a2.322 2.322 0 1 0 -2.315 2.143 2.234 2.234 0 0 0 2.315-2.143" transform="translate(545.031 -2075.464)"/><path d="m561.5 159.191a2.082 2.082 0 1 0 -2.076 1.922 2 2 0 0 0 2.076-1.922" transform="translate(661.349 -2075.729)"/><path d="m481.4 159.456a1.843 1.843 0 1 0 -1.837 1.7 1.773 1.773 0 0 0 1.837-1.7" transform="translate(777.666 -2075.994)"/><path d="m401.3 159.721a1.6 1.6 0 1 0 -1.6 1.479 1.542 1.542 0 0 0 1.6-1.479" transform="translate(893.983 -2076.259)"/><path d="m321.2 159.986a1.363 1.363 0 1 0 -1.359 1.258 1.312 1.312 0 0 0 1.359-1.258" transform="translate(1010.301 -2076.524)"/><path d="m241.1 160.251a1.123 1.123 0 1 0 -1.12 1.037 1.081 1.081 0 0 0 1.12-1.037" transform="translate(1126.619 -2076.789)"/><path d="m161 160.517a.884.884 0 1 0 -.881.816.85.85 0 0 0 .881-.816" transform="translate(1242.937 -2077.055)"/><path d="m80.906 160.782a.644.644 0 1 0 -.642.595.62.62 0 0 0 .642-.595" transform="translate(1359.253 -2077.319)"/><path d="m3284.854 9.445c0-5.216-4.568-9.444-10.2-9.444s-10.2 4.228-10.2 9.444 4.567 9.444 10.2 9.444 10.2-4.228 10.2-9.444" transform="translate(-3293.45 -1990.001)"/><path d="m3204.755 9.709c0-5.093-4.46-9.222-9.963-9.222s-9.963 4.129-9.963 9.222 4.46 9.222 9.963 9.222 9.963-4.129 9.963-9.222" transform="translate(-3177.132 -1990.266)"/><path d="m3124.656 9.975c0-4.971-4.354-9-9.724-9s-9.724 4.03-9.724 9 4.353 9 9.724 9 9.724-4.03 9.724-9" transform="translate(-3060.814 -1990.531)"/><path d="m3044.558 10.24c0-4.849-4.246-8.78-9.485-8.78s-9.485 3.931-9.485 8.78 4.247 8.78 9.485 8.78 9.485-3.931 9.485-8.78" transform="translate(-2944.497 -1990.796)"/><path d="m2964.459 10.5c0-4.727-4.139-8.559-9.246-8.559s-9.246 3.832-9.246 8.559 4.139 8.559 9.246 8.559 9.246-3.832 9.246-8.559" transform="translate(-2828.179 -1991.061)"/><path d="m2884.36 10.77c0-4.6-4.033-8.337-9.008-8.337s-9.007 3.732-9.007 8.337 4.033 8.338 9.007 8.338 9.008-3.733 9.008-8.338" transform="translate(-2711.862 -1991.327)"/><path d="m2804.261 11.035c0-4.483-3.926-8.116-8.768-8.116s-8.768 3.634-8.768 8.116 3.926 8.116 8.768 8.116 8.768-3.634 8.768-8.116" transform="translate(-2595.543 -1991.592)"/><path d="m2724.162 11.3c0-4.36-3.819-7.9-8.529-7.9s-8.529 3.535-8.529 7.9 3.819 7.9 8.529 7.9 8.529-3.535 8.529-7.9" transform="translate(-2479.226 -1991.856)"/><path d="m2644.064 11.566c0-4.238-3.711-7.674-8.29-7.674s-8.29 3.435-8.29 7.674 3.712 7.674 8.29 7.674 8.29-3.436 8.29-7.674" transform="translate(-2362.909 -1992.122)"/><path d="m2563.965 11.831c0-4.116-3.6-7.453-8.051-7.453s-8.051 3.337-8.051 7.453 3.6 7.453 8.051 7.453 8.051-3.337 8.051-7.453" transform="translate(-2246.591 -1992.387)"/><path d="m2483.866 12.1c0-3.994-3.5-7.231-7.812-7.231s-7.812 3.237-7.812 7.231 3.5 7.231 7.812 7.231 7.813-3.237 7.813-7.231" transform="translate(-2130.273 -1992.652)"/><path d="m2403.768 12.361a7.6 7.6 0 0 0 -15.146 0 7.6 7.6 0 0 0 15.146 0" transform="translate(-2013.956 -1992.917)"/><path d="m2323.669 12.626a7.356 7.356 0 0 0 -14.668 0 7.356 7.356 0 0 0 14.668 0" transform="translate(-1897.639 -1993.182)"/><path d="m2243.57 12.891a7.117 7.117 0 0 0 -14.191 0 7.117 7.117 0 0 0 14.191 0" transform="translate(-1781.321 -1993.447)"/><path d="m2163.472 13.156a6.877 6.877 0 0 0 -13.712 0 6.877 6.877 0 0 0 13.712 0" transform="translate(-1665.004 -1993.712)"/><path d="m2083.373 13.421a6.637 6.637 0 0 0 -13.234 0 6.637 6.637 0 0 0 13.234 0" transform="translate(-1548.686 -1993.978)"/><path d="m2003.274 13.686a6.4 6.4 0 0 0 -12.756 0 6.4 6.4 0 0 0 12.756 0" transform="translate(-1432.368 -1994.243)"/><path d="m1923.175 13.952a6.158 6.158 0 0 0 -12.278 0 6.157 6.157 0 0 0 12.278 0" transform="translate(-1316.05 -1994.508)"/><path d="m1843.077 14.216a5.918 5.918 0 0 0 -11.8 0 5.918 5.918 0 0 0 11.8 0" transform="translate(-1199.734 -1994.773)"/><path d="m1762.978 14.481a5.678 5.678 0 0 0 -11.323 0 5.678 5.678 0 0 0 11.323 0" transform="translate(-1083.416 -1995.038)"/><path d="m1682.879 14.747a5.438 5.438 0 0 0 -10.844 0 5.438 5.438 0 0 0 10.844 0" transform="translate(-967.098 -1995.303)"/><path d="m1602.78 15.012a5.2 5.2 0 0 0 -10.367 0 5.2 5.2 0 0 0 10.367 0" transform="translate(-850.78 -1995.568)"/><path d="m1522.682 15.277a4.959 4.959 0 0 0 -9.889 0 4.959 4.959 0 0 0 9.889 0" transform="translate(-734.463 -1995.833)"/><path d="m1442.583 15.542a4.719 4.719 0 0 0 -9.41 0 4.719 4.719 0 0 0 9.41 0" transform="translate(-618.145 -1996.099)"/><path d="m1362.484 15.807a4.479 4.479 0 0 0 -8.932 0 4.479 4.479 0 0 0 8.932 0" transform="translate(-501.827 -1996.363)"/><path d="m1282.386 16.072a4.239 4.239 0 0 0 -8.454 0 4.239 4.239 0 0 0 8.454 0" transform="translate(-385.51 -1996.628)"/><path d="m1202.287 16.337a4 4 0 0 0 -7.977 0 4 4 0 0 0 7.977 0" transform="translate(-269.193 -1996.894)"/><path d="m1122.188 16.6a3.76 3.76 0 0 0 -7.5 0 3.76 3.76 0 0 0 7.5 0" transform="translate(-152.875 -1997.159)"/><path d="m1042.089 16.867a3.521 3.521 0 0 0 -7.02 0 3.521 3.521 0 0 0 7.02 0" transform="translate(-36.556 -1997.424)"/><path d="m961.991 17.133a3.281 3.281 0 0 0 -6.542 0 3.281 3.281 0 0 0 6.542 0" transform="translate(79.76 -1997.689)"/><path d="m881.893 17.4a3.041 3.041 0 0 0 -6.065 0 3.041 3.041 0 0 0 6.065 0" transform="translate(196.078 -1997.954)"/><path d="m801.794 17.663a2.8 2.8 0 0 0 -5.587 0 2.8 2.8 0 0 0 5.587 0" transform="translate(312.396 -1998.219)"/><path d="m721.695 17.928a2.562 2.562 0 0 0 -5.108 0 2.562 2.562 0 0 0 5.108 0" transform="translate(428.714 -1998.484)"/><path d="m641.6 18.193a2.322 2.322 0 1 0 -2.315 2.143 2.234 2.234 0 0 0 2.315-2.143" transform="translate(545.031 -1998.75)"/><path d="m561.5 18.458a2.082 2.082 0 1 0 -2.076 1.922 2 2 0 0 0 2.076-1.922" transform="translate(661.349 -1999.014)"/><path d="m481.4 18.723a1.843 1.843 0 1 0 -1.837 1.7 1.773 1.773 0 0 0 1.837-1.7" transform="translate(777.666 -1999.279)"/><path d="m401.3 18.988a1.6 1.6 0 1 0 -1.6 1.479 1.542 1.542 0 0 0 1.6-1.479" transform="translate(893.983 -1999.545)"/><path d="m321.2 19.253a1.363 1.363 0 1 0 -1.359 1.258 1.312 1.312 0 0 0 1.359-1.258" transform="translate(1010.301 -1999.81)"/><path d="m241.1 19.518a1.123 1.123 0 1 0 -1.12 1.037 1.081 1.081 0 0 0 1.12-1.037" transform="translate(1126.619 -2000.075)"/><path d="m161 19.784a.884.884 0 1 0 -.881.816.85.85 0 0 0 .881-.816" transform="translate(1242.937 -2000.34)"/><path d="m80.906 20.049a.644.644 0 1 0 -.642.595.62.62 0 0 0 .642-.595" transform="translate(1359.253 -2000.605)"/></g><g clip-path="url(#b)" transform="translate(-1640 -2685)"><path d="m623.987 868.563-623.987 311.518 640.482 116.425 104.018 732.234 331.011-580.086 814.579 99.929-503.742-550.368 642.122-966.315-937.821 579.679-525.966-611.579z" fill="#01062e" transform="translate(1391.765 2209.716)"/></g></svg>