<svg height="900" viewBox="0 0 1440 900" width="1440" xmlns="http://www.w3.org/2000/svg" xmlns:xlink="http://www.w3.org/1999/xlink"><clipPath id="a"><path d="m0 0h1440v900h-1440z"/></clipPath><clipPath id="b"><path d="m0 0h1554.904v933h-1554.904z"/></clipPath><clipPath id="c"><path d="m1640 2685h1440v900h-1440z"/></clipPath><path d="m0 0h1440v900h-1440z" fill="#01062e"/><g clip-path="url(#a)"><g clip-path="url(#b)" fill="#ef622f" transform="translate(-99.477 -16.361)"><path d="m0 16.644a16.644 16.644 0 1 0 16.644-16.644 16.644 16.644 0 0 0 -16.644 16.644" transform="translate(1521.615)"/><path d="m74.655 16.772a16.012 16.012 0 1 0 16.012-16.012 16.012 16.012 0 0 0 -16.012 16.012" transform="translate(1386.096 -.128)"/><path d="m149.311 16.9a15.379 15.379 0 1 0 15.379-15.38 15.38 15.38 0 0 0 -15.379 15.38" transform="translate(1250.575 -.255)"/><path d="m223.966 17.027a14.747 14.747 0 1 0 14.747-14.747 14.747 14.747 0 0 0 -14.747 14.747" transform="translate(1115.056 -.383)"/><path d="m298.622 17.154a14.114 14.114 0 1 0 14.114-14.114 14.114 14.114 0 0 0 -14.114 14.114" transform="translate(979.535 -.51)"/><path d="m373.277 17.282a13.482 13.482 0 1 0 13.482-13.482 13.482 13.482 0 0 0 -13.482 13.482" transform="translate(844.015 -.638)"/><path d="m447.932 17.409a12.849 12.849 0 1 0 12.849-12.849 12.85 12.85 0 0 0 -12.849 12.849" transform="translate(708.496 -.765)"/><path d="m522.588 17.537a12.217 12.217 0 1 0 12.212-12.217 12.216 12.216 0 0 0 -12.217 12.217" transform="translate(572.975 -.893)"/><path d="m597.243 17.664a11.585 11.585 0 1 0 11.584-11.584 11.584 11.584 0 0 0 -11.584 11.584" transform="translate(437.456 -1.02)"/><path d="m671.9 17.792a10.952 10.952 0 1 0 10.95-10.952 10.952 10.952 0 0 0 -10.95 10.952" transform="translate(301.936 -1.148)"/><path d="m746.554 17.92a10.32 10.32 0 1 0 10.319-10.32 10.32 10.32 0 0 0 -10.319 10.32" transform="translate(166.415 -1.275)"/><path d="m821.209 18.047a9.687 9.687 0 1 0 9.691-9.687 9.687 9.687 0 0 0 -9.687 9.687" transform="translate(30.896 -1.403)"/><path d="m895.865 18.175a9.055 9.055 0 1 0 9.054-9.055 9.054 9.054 0 0 0 -9.054 9.055" transform="translate(-104.625 -1.53)"/><path d="m970.52 18.3a8.422 8.422 0 1 0 8.422-8.422 8.422 8.422 0 0 0 -8.422 8.422" transform="translate(-240.145 -1.658)"/><path d="m1045.175 18.43a7.789 7.789 0 1 0 7.789-7.79 7.79 7.79 0 0 0 -7.789 7.79" transform="translate(-375.664 -1.785)"/><path d="m1119.831 18.557a7.157 7.157 0 1 0 7.157-7.157 7.157 7.157 0 0 0 -7.157 7.157" transform="translate(-511.185 -1.913)"/><path d="m1194.486 18.685a6.525 6.525 0 1 0 6.525-6.525 6.524 6.524 0 0 0 -6.525 6.525" transform="translate(-646.704 -2.04)"/><path d="m1269.141 18.812a5.892 5.892 0 1 0 5.892-5.892 5.893 5.893 0 0 0 -5.892 5.892" transform="translate(-782.224 -2.168)"/><path d="m1343.8 18.94a5.26 5.26 0 1 0 5.26-5.26 5.26 5.26 0 0 0 -5.26 5.26" transform="translate(-917.744 -2.295)"/><path d="m1418.452 19.067a4.627 4.627 0 1 0 4.628-4.627 4.627 4.627 0 0 0 -4.628 4.627" transform="translate(-1053.264 -2.423)"/><path d="m1493.107 19.195a3.995 3.995 0 1 0 3.993-3.995 3.995 3.995 0 0 0 -3.995 3.995" transform="translate(-1188.785 -2.55)"/><path d="m1567.763 19.322a3.362 3.362 0 1 0 3.362-3.362 3.362 3.362 0 0 0 -3.362 3.362" transform="translate(-1324.304 -2.678)"/><path d="m1642.418 19.45a2.73 2.73 0 1 0 2.729-2.73 2.73 2.73 0 0 0 -2.729 2.73" transform="translate(-1459.823 -2.805)"/><path d="m1717.074 19.577a2.1 2.1 0 1 0 2.1-2.1 2.1 2.1 0 0 0 -2.1 2.1" transform="translate(-1595.345 -2.933)"/><path d="m1791.729 19.7a1.465 1.465 0 1 0 1.465-1.465 1.465 1.465 0 0 0 -1.465 1.465" transform="translate(-1730.864 -3.06)"/><path d="m1866.385 19.832a.832.832 0 1 0 .832-.832.833.833 0 0 0 -.832.832" transform="translate(-1866.385 -3.188)"/><path d="m0 99.805a16.644 16.644 0 1 0 16.644-16.644 16.644 16.644 0 0 0 -16.644 16.644" transform="translate(1521.615 -13.953)"/><path d="m74.655 99.933a16.012 16.012 0 1 0 16.012-16.011 16.012 16.012 0 0 0 -16.012 16.011" transform="translate(1386.096 -14.081)"/><path d="m149.311 100.061a15.379 15.379 0 1 0 15.379-15.379 15.38 15.38 0 0 0 -15.379 15.379" transform="translate(1250.575 -14.208)"/><path d="m223.966 100.188a14.747 14.747 0 1 0 14.747-14.746 14.747 14.747 0 0 0 -14.747 14.746" transform="translate(1115.056 -14.336)"/><path d="m298.622 100.316a14.114 14.114 0 1 0 14.114-14.116 14.114 14.114 0 0 0 -14.114 14.114" transform="translate(979.535 -14.463)"/><path d="m373.277 100.443a13.482 13.482 0 1 0 13.482-13.481 13.482 13.482 0 0 0 -13.482 13.481" transform="translate(844.015 -14.591)"/><path d="m447.932 100.571a12.849 12.849 0 1 0 12.849-12.849 12.85 12.85 0 0 0 -12.849 12.849" transform="translate(708.496 -14.718)"/><path d="m522.588 100.7a12.217 12.217 0 1 0 12.212-12.219 12.217 12.217 0 0 0 -12.212 12.219" transform="translate(572.975 -14.845)"/><path d="m597.243 100.825a11.585 11.585 0 1 0 11.584-11.584 11.584 11.584 0 0 0 -11.584 11.584" transform="translate(437.456 -14.973)"/><path d="m671.9 100.953a10.952 10.952 0 1 0 10.95-10.953 10.952 10.952 0 0 0 -10.95 10.953" transform="translate(301.936 -15.1)"/><path d="m746.554 101.08a10.32 10.32 0 1 0 10.319-10.319 10.32 10.32 0 0 0 -10.319 10.319" transform="translate(166.415 -15.228)"/><path d="m821.209 101.208a9.687 9.687 0 1 0 9.687-9.687 9.687 9.687 0 0 0 -9.687 9.687" transform="translate(30.896 -15.356)"/><path d="m895.865 101.336a9.055 9.055 0 1 0 9.054-9.055 9.055 9.055 0 0 0 -9.054 9.055" transform="translate(-104.625 -15.483)"/><path d="m970.52 101.463a8.422 8.422 0 1 0 8.422-8.421 8.422 8.422 0 0 0 -8.422 8.421" transform="translate(-240.145 -15.611)"/><path d="m1045.175 101.591a7.789 7.789 0 1 0 7.789-7.789 7.79 7.79 0 0 0 -7.789 7.789" transform="translate(-375.664 -15.738)"/><path d="m1119.831 101.718a7.157 7.157 0 1 0 7.157-7.156 7.157 7.157 0 0 0 -7.157 7.156" transform="translate(-511.185 -15.866)"/><path d="m1194.486 101.846a6.525 6.525 0 1 0 6.525-6.524 6.525 6.525 0 0 0 -6.525 6.524" transform="translate(-646.704 -15.993)"/><path d="m1269.141 101.973a5.892 5.892 0 1 0 5.892-5.891 5.894 5.894 0 0 0 -5.892 5.891" transform="translate(-782.224 -16.121)"/><path d="m1343.8 102.1a5.26 5.26 0 1 0 5.26-5.259 5.261 5.261 0 0 0 -5.26 5.259" transform="translate(-917.744 -16.248)"/><path d="m1418.452 102.228a4.627 4.627 0 1 0 4.628-4.626 4.627 4.627 0 0 0 -4.628 4.626" transform="translate(-1053.264 -16.376)"/><path d="m1493.107 102.356a3.995 3.995 0 1 0 3.995-3.994 3.994 3.994 0 0 0 -3.995 3.994" transform="translate(-1188.785 -16.503)"/><path d="m1567.763 102.483a3.362 3.362 0 1 0 3.362-3.361 3.362 3.362 0 0 0 -3.362 3.361" transform="translate(-1324.304 -16.631)"/><path d="m1642.418 102.611a2.73 2.73 0 1 0 2.729-2.73 2.73 2.73 0 0 0 -2.729 2.73" transform="translate(-1459.823 -16.758)"/><path d="m1717.074 102.738a2.1 2.1 0 1 0 2.1-2.1 2.1 2.1 0 0 0 -2.1 2.1" transform="translate(-1595.345 -16.886)"/><path d="m1791.729 102.866a1.465 1.465 0 1 0 1.465-1.465 1.466 1.466 0 0 0 -1.465 1.465" transform="translate(-1730.864 -17.013)"/><path d="m1866.385 102.993a.832.832 0 1 0 .832-.832.832.832 0 0 0 -.832.832" transform="translate(-1866.385 -17.141)"/><path d="m0 182.967a16.644 16.644 0 1 0 16.644-16.644 16.644 16.644 0 0 0 -16.644 16.644" transform="translate(1521.615 -27.906)"/><path d="m74.655 183.095a16.012 16.012 0 1 0 16.012-16.012 16.012 16.012 0 0 0 -16.012 16.012" transform="translate(1386.096 -28.033)"/><path d="m149.311 183.222a15.379 15.379 0 1 0 15.379-15.379 15.38 15.38 0 0 0 -15.379 15.379" transform="translate(1250.575 -28.161)"/><path d="m223.966 183.35a14.747 14.747 0 1 0 14.747-14.75 14.747 14.747 0 0 0 -14.747 14.747" transform="translate(1115.056 -28.289)"/><path d="m298.622 183.477a14.114 14.114 0 1 0 14.114-14.114 14.114 14.114 0 0 0 -14.114 14.114" transform="translate(979.535 -28.416)"/><path d="m373.277 183.6a13.482 13.482 0 1 0 13.482-13.482 13.482 13.482 0 0 0 -13.482 13.482" transform="translate(844.015 -28.544)"/><path d="m447.932 183.732a12.849 12.849 0 1 0 12.849-12.849 12.85 12.85 0 0 0 -12.849 12.849" transform="translate(708.496 -28.671)"/><path d="m522.588 183.86a12.217 12.217 0 1 0 12.212-12.217 12.216 12.216 0 0 0 -12.217 12.217" transform="translate(572.975 -28.799)"/><path d="m597.243 183.987a11.585 11.585 0 1 0 11.584-11.587 11.584 11.584 0 0 0 -11.584 11.584" transform="translate(437.456 -28.926)"/><path d="m671.9 184.115a10.952 10.952 0 1 0 10.952-10.952 10.952 10.952 0 0 0 -10.952 10.952" transform="translate(301.936 -29.054)"/><path d="m746.554 184.243a10.32 10.32 0 1 0 10.319-10.32 10.32 10.32 0 0 0 -10.319 10.32" transform="translate(166.415 -29.181)"/><path d="m821.209 184.37a9.687 9.687 0 1 0 9.687-9.687 9.687 9.687 0 0 0 -9.687 9.687" transform="translate(30.896 -29.309)"/><path d="m895.865 184.5a9.055 9.055 0 1 0 9.054-9.055 9.054 9.054 0 0 0 -9.054 9.055" transform="translate(-104.625 -29.436)"/><path d="m970.52 184.625a8.422 8.422 0 1 0 8.422-8.422 8.422 8.422 0 0 0 -8.422 8.422" transform="translate(-240.145 -29.564)"/><path d="m1045.175 184.753a7.789 7.789 0 1 0 7.789-7.79 7.79 7.79 0 0 0 -7.789 7.79" transform="translate(-375.664 -29.691)"/><path d="m1119.831 184.88a7.157 7.157 0 1 0 7.157-7.157 7.157 7.157 0 0 0 -7.157 7.157" transform="translate(-511.185 -29.819)"/><path d="m1194.486 185.008a6.525 6.525 0 1 0 6.525-6.525 6.524 6.524 0 0 0 -6.525 6.525" transform="translate(-646.704 -29.946)"/><path d="m1269.141 185.135a5.892 5.892 0 1 0 5.892-5.892 5.893 5.893 0 0 0 -5.892 5.892" transform="translate(-782.224 -30.074)"/><path d="m1343.8 185.263a5.26 5.26 0 1 0 5.26-5.26 5.26 5.26 0 0 0 -5.26 5.26" transform="translate(-917.744 -30.201)"/><path d="m1418.452 185.39a4.627 4.627 0 1 0 4.628-4.627 4.627 4.627 0 0 0 -4.628 4.627" transform="translate(-1053.264 -30.329)"/><path d="m1493.107 185.518a3.995 3.995 0 1 0 3.995-3.995 3.995 3.995 0 0 0 -3.995 3.995" transform="translate(-1188.785 -30.456)"/><path d="m1567.763 185.645a3.362 3.362 0 1 0 3.362-3.362 3.362 3.362 0 0 0 -3.362 3.362" transform="translate(-1324.304 -30.584)"/><path d="m1642.418 185.773a2.73 2.73 0 1 0 2.729-2.73 2.73 2.73 0 0 0 -2.729 2.73" transform="translate(-1459.823 -30.711)"/><path d="m1717.074 185.9a2.1 2.1 0 1 0 2.1-2.1 2.1 2.1 0 0 0 -2.1 2.1" transform="translate(-1595.345 -30.839)"/><path d="m1791.729 186.028a1.465 1.465 0 1 0 1.465-1.465 1.465 1.465 0 0 0 -1.465 1.465" transform="translate(-1730.864 -30.966)"/><path d="m1866.385 186.155a.832.832 0 1 0 .832-.832.833.833 0 0 0 -.832.832" transform="translate(-1866.385 -31.094)"/><path d="m0 266.129a16.644 16.644 0 1 0 16.644-16.644 16.644 16.644 0 0 0 -16.644 16.644" transform="translate(1521.615 -41.859)"/><path d="m74.655 266.257a16.012 16.012 0 1 0 16.012-16.012 16.012 16.012 0 0 0 -16.012 16.012" transform="translate(1386.096 -41.986)"/><path d="m149.311 266.384a15.379 15.379 0 1 0 15.379-15.379 15.38 15.38 0 0 0 -15.379 15.379" transform="translate(1250.575 -42.114)"/><path d="m223.966 266.512a14.747 14.747 0 1 0 14.747-14.747 14.747 14.747 0 0 0 -14.747 14.747" transform="translate(1115.056 -42.242)"/><path d="m298.622 266.639a14.114 14.114 0 1 0 14.114-14.114 14.114 14.114 0 0 0 -14.114 14.114" transform="translate(979.535 -42.369)"/><path d="m373.277 266.767a13.482 13.482 0 1 0 13.482-13.482 13.482 13.482 0 0 0 -13.482 13.482" transform="translate(844.015 -42.497)"/><path d="m447.932 266.894a12.849 12.849 0 1 0 12.849-12.849 12.85 12.85 0 0 0 -12.849 12.849" transform="translate(708.496 -42.624)"/><path d="m522.588 267.022a12.217 12.217 0 1 0 12.212-12.217 12.216 12.216 0 0 0 -12.217 12.217" transform="translate(572.975 -42.752)"/><path d="m597.243 267.149a11.585 11.585 0 1 0 11.584-11.584 11.584 11.584 0 0 0 -11.584 11.584" transform="translate(437.456 -42.879)"/><path d="m671.9 267.277a10.952 10.952 0 1 0 10.952-10.952 10.952 10.952 0 0 0 -10.952 10.952" transform="translate(301.936 -43.007)"/><path d="m746.554 267.4a10.32 10.32 0 1 0 10.319-10.32 10.32 10.32 0 0 0 -10.319 10.32" transform="translate(166.415 -43.134)"/><path d="m821.209 267.532a9.687 9.687 0 1 0 9.687-9.687 9.686 9.686 0 0 0 -9.687 9.687" transform="translate(30.896 -43.262)"/><path d="m895.865 267.66a9.055 9.055 0 1 0 9.054-9.054 9.055 9.055 0 0 0 -9.054 9.054" transform="translate(-104.625 -43.389)"/><path d="m970.52 267.787a8.422 8.422 0 1 0 8.422-8.422 8.422 8.422 0 0 0 -8.422 8.422" transform="translate(-240.145 -43.517)"/><path d="m1045.175 267.915a7.789 7.789 0 1 0 7.789-7.79 7.79 7.79 0 0 0 -7.789 7.79" transform="translate(-375.664 -43.644)"/><path d="m1119.831 268.042a7.157 7.157 0 1 0 7.157-7.157 7.157 7.157 0 0 0 -7.157 7.157" transform="translate(-511.185 -43.772)"/><path d="m1194.486 268.17a6.525 6.525 0 1 0 6.525-6.525 6.525 6.525 0 0 0 -6.525 6.525" transform="translate(-646.704 -43.899)"/><path d="m1269.141 268.3a5.892 5.892 0 1 0 5.892-5.892 5.893 5.893 0 0 0 -5.892 5.892" transform="translate(-782.224 -44.027)"/><path d="m1343.8 268.425a5.26 5.26 0 1 0 5.26-5.26 5.26 5.26 0 0 0 -5.26 5.26" transform="translate(-917.744 -44.154)"/><path d="m1418.452 268.552a4.627 4.627 0 1 0 4.628-4.627 4.627 4.627 0 0 0 -4.628 4.627" transform="translate(-1053.264 -44.282)"/><path d="m1493.107 268.68a3.995 3.995 0 1 0 3.995-3.995 3.995 3.995 0 0 0 -3.995 3.995" transform="translate(-1188.785 -44.409)"/><path d="m1567.763 268.807a3.362 3.362 0 1 0 3.362-3.362 3.362 3.362 0 0 0 -3.362 3.362" transform="translate(-1324.304 -44.537)"/><path d="m1642.418 268.935a2.73 2.73 0 1 0 2.729-2.73 2.729 2.729 0 0 0 -2.729 2.73" transform="translate(-1459.823 -44.664)"/><path d="m1717.074 269.062a2.1 2.1 0 1 0 2.1-2.1 2.1 2.1 0 0 0 -2.1 2.1" transform="translate(-1595.345 -44.792)"/><path d="m1791.729 269.19a1.465 1.465 0 1 0 1.465-1.465 1.465 1.465 0 0 0 -1.465 1.465" transform="translate(-1730.864 -44.919)"/><path d="m1866.385 269.317a.832.832 0 1 0 .832-.832.833.833 0 0 0 -.832.832" transform="translate(-1866.385 -45.047)"/><path d="m0 349.29a16.644 16.644 0 1 0 16.644-16.644 16.644 16.644 0 0 0 -16.644 16.644" transform="translate(1521.615 -55.812)"/><path d="m74.655 349.418a16.012 16.012 0 1 0 16.012-16.012 16.012 16.012 0 0 0 -16.012 16.012" transform="translate(1386.096 -55.939)"/><path d="m149.311 349.545a15.379 15.379 0 1 0 15.379-15.379 15.38 15.38 0 0 0 -15.379 15.379" transform="translate(1250.575 -56.067)"/><path d="m223.966 349.673a14.747 14.747 0 1 0 14.747-14.747 14.747 14.747 0 0 0 -14.747 14.747" transform="translate(1115.056 -56.194)"/><path d="m298.622 349.8a14.114 14.114 0 1 0 14.114-14.114 14.114 14.114 0 0 0 -14.114 14.114" transform="translate(979.535 -56.322)"/><path d="m373.277 349.928a13.482 13.482 0 1 0 13.482-13.482 13.482 13.482 0 0 0 -13.482 13.482" transform="translate(844.015 -56.449)"/><path d="m447.932 350.056a12.849 12.849 0 1 0 12.849-12.85 12.85 12.85 0 0 0 -12.849 12.85" transform="translate(708.496 -56.577)"/><path d="m522.588 350.183a12.217 12.217 0 1 0 12.212-12.217 12.217 12.217 0 0 0 -12.217 12.217" transform="translate(572.975 -56.705)"/><path d="m597.243 350.31a11.585 11.585 0 1 0 11.584-11.584 11.584 11.584 0 0 0 -11.584 11.584" transform="translate(437.456 -56.832)"/><path d="m671.9 350.438a10.952 10.952 0 1 0 10.952-10.952 10.952 10.952 0 0 0 -10.952 10.952" transform="translate(301.936 -56.959)"/><path d="m746.554 350.565a10.32 10.32 0 1 0 10.319-10.319 10.32 10.32 0 0 0 -10.319 10.319" transform="translate(166.415 -57.087)"/><path d="m821.209 350.693a9.687 9.687 0 1 0 9.687-9.687 9.687 9.687 0 0 0 -9.687 9.687" transform="translate(30.896 -57.215)"/><path d="m895.865 350.821a9.055 9.055 0 1 0 9.054-9.055 9.054 9.054 0 0 0 -9.054 9.055" transform="translate(-104.625 -57.342)"/><path d="m970.52 350.948a8.422 8.422 0 1 0 8.422-8.422 8.422 8.422 0 0 0 -8.422 8.422" transform="translate(-240.145 -57.47)"/><path d="m1045.175 351.076a7.789 7.789 0 1 0 7.789-7.79 7.79 7.79 0 0 0 -7.789 7.79" transform="translate(-375.664 -57.597)"/><path d="m1119.831 351.2a7.157 7.157 0 1 0 7.157-7.157 7.157 7.157 0 0 0 -7.157 7.157" transform="translate(-511.185 -57.725)"/><path d="m1194.486 351.331a6.525 6.525 0 1 0 6.525-6.525 6.524 6.524 0 0 0 -6.525 6.525" transform="translate(-646.704 -57.852)"/><path d="m1269.141 351.458a5.892 5.892 0 1 0 5.892-5.892 5.893 5.893 0 0 0 -5.892 5.892" transform="translate(-782.224 -57.98)"/><path d="m1343.8 351.586a5.26 5.26 0 1 0 5.26-5.26 5.26 5.26 0 0 0 -5.26 5.26" transform="translate(-917.744 -58.107)"/><path d="m1418.452 351.713a4.627 4.627 0 1 0 4.628-4.627 4.627 4.627 0 0 0 -4.628 4.627" transform="translate(-1053.264 -58.235)"/><path d="m1493.107 351.841a3.995 3.995 0 1 0 3.995-3.995 3.995 3.995 0 0 0 -3.995 3.995" transform="translate(-1188.785 -58.362)"/><path d="m1567.763 351.968a3.362 3.362 0 1 0 3.362-3.362 3.362 3.362 0 0 0 -3.362 3.362" transform="translate(-1324.304 -58.49)"/><path d="m1642.418 352.1a2.73 2.73 0 1 0 2.729-2.73 2.729 2.729 0 0 0 -2.729 2.73" transform="translate(-1459.823 -58.617)"/><path d="m1717.074 352.223a2.1 2.1 0 1 0 2.1-2.1 2.1 2.1 0 0 0 -2.1 2.1" transform="translate(-1595.345 -58.745)"/><path d="m1791.729 352.351a1.465 1.465 0 1 0 1.465-1.465 1.465 1.465 0 0 0 -1.465 1.465" transform="translate(-1730.864 -58.872)"/><path d="m1866.385 352.478a.832.832 0 1 0 .832-.832.833.833 0 0 0 -.832.832" transform="translate(-1866.385 -59)"/><path d="m0 432.452a16.644 16.644 0 1 0 16.644-16.644 16.644 16.644 0 0 0 -16.644 16.644" transform="translate(1521.615 -69.765)"/><path d="m74.655 432.58a16.012 16.012 0 1 0 16.012-16.012 16.012 16.012 0 0 0 -16.012 16.012" transform="translate(1386.096 -69.892)"/><path d="m149.311 432.707a15.379 15.379 0 1 0 15.379-15.379 15.38 15.38 0 0 0 -15.379 15.379" transform="translate(1250.575 -70.02)"/><path d="m223.966 432.835a14.747 14.747 0 1 0 14.747-14.747 14.747 14.747 0 0 0 -14.747 14.747" transform="translate(1115.056 -70.147)"/><path d="m298.622 432.962a14.114 14.114 0 1 0 14.114-14.114 14.114 14.114 0 0 0 -14.114 14.114" transform="translate(979.535 -70.275)"/><path d="m373.277 433.09a13.482 13.482 0 1 0 13.482-13.482 13.482 13.482 0 0 0 -13.482 13.482" transform="translate(844.015 -70.402)"/><path d="m447.932 433.217a12.849 12.849 0 1 0 12.849-12.85 12.85 12.85 0 0 0 -12.849 12.85" transform="translate(708.496 -70.53)"/><path d="m522.588 433.345a12.217 12.217 0 1 0 12.212-12.217 12.216 12.216 0 0 0 -12.217 12.217" transform="translate(572.975 -70.658)"/><path d="m597.243 433.472a11.585 11.585 0 1 0 11.584-11.585 11.584 11.584 0 0 0 -11.584 11.585" transform="translate(437.456 -70.785)"/><path d="m671.9 433.6a10.952 10.952 0 1 0 10.952-10.952 10.952 10.952 0 0 0 -10.952 10.952" transform="translate(301.936 -70.913)"/><path d="m746.554 433.727a10.32 10.32 0 1 0 10.319-10.319 10.32 10.32 0 0 0 -10.319 10.319" transform="translate(166.415 -71.04)"/><path d="m821.209 433.855a9.687 9.687 0 1 0 9.687-9.687 9.687 9.687 0 0 0 -9.687 9.687" transform="translate(30.896 -71.168)"/><path d="m895.865 433.983a9.055 9.055 0 1 0 9.054-9.055 9.054 9.054 0 0 0 -9.054 9.055" transform="translate(-104.625 -71.295)"/><path d="m970.52 434.11a8.422 8.422 0 1 0 8.422-8.422 8.422 8.422 0 0 0 -8.422 8.422" transform="translate(-240.145 -71.423)"/><path d="m1045.175 434.238a7.789 7.789 0 1 0 7.789-7.79 7.79 7.79 0 0 0 -7.789 7.79" transform="translate(-375.664 -71.55)"/><path d="m1119.831 434.365a7.157 7.157 0 1 0 7.157-7.157 7.157 7.157 0 0 0 -7.157 7.157" transform="translate(-511.185 -71.678)"/><path d="m1194.486 434.493a6.525 6.525 0 1 0 6.525-6.525 6.524 6.524 0 0 0 -6.525 6.525" transform="translate(-646.704 -71.805)"/><path d="m1269.141 434.62a5.892 5.892 0 1 0 5.892-5.892 5.893 5.893 0 0 0 -5.892 5.892" transform="translate(-782.224 -71.933)"/><path d="m1343.8 434.748a5.26 5.26 0 1 0 5.26-5.26 5.26 5.26 0 0 0 -5.26 5.26" transform="translate(-917.744 -72.06)"/><path d="m1418.452 434.875a4.627 4.627 0 1 0 4.628-4.627 4.627 4.627 0 0 0 -4.628 4.627" transform="translate(-1053.264 -72.188)"/><path d="m1493.107 435a3.995 3.995 0 1 0 3.995-3.995 3.995 3.995 0 0 0 -3.995 3.995" transform="translate(-1188.785 -72.315)"/><path d="m1567.763 435.13a3.362 3.362 0 1 0 3.362-3.362 3.362 3.362 0 0 0 -3.362 3.362" transform="translate(-1324.304 -72.443)"/><path d="m1642.418 435.258a2.73 2.73 0 1 0 2.729-2.73 2.73 2.73 0 0 0 -2.729 2.73" transform="translate(-1459.823 -72.57)"/><path d="m1717.074 435.385a2.1 2.1 0 1 0 2.1-2.1 2.1 2.1 0 0 0 -2.1 2.1" transform="translate(-1595.345 -72.698)"/><path d="m1791.729 435.513a1.465 1.465 0 1 0 1.465-1.465 1.465 1.465 0 0 0 -1.465 1.465" transform="translate(-1730.864 -72.825)"/><path d="m1866.385 435.64a.832.832 0 1 0 .832-.832.833.833 0 0 0 -.832.832" transform="translate(-1866.385 -72.953)"/><path d="m0 515.613a16.644 16.644 0 1 0 16.644-16.644 16.644 16.644 0 0 0 -16.644 16.644" transform="translate(1521.615 -83.718)"/><path d="m74.655 515.741a16.012 16.012 0 1 0 16.012-16.012 16.012 16.012 0 0 0 -16.012 16.012" transform="translate(1386.096 -83.845)"/><path d="m149.311 515.868a15.379 15.379 0 1 0 15.379-15.379 15.38 15.38 0 0 0 -15.379 15.379" transform="translate(1250.575 -83.973)"/><path d="m223.966 516a14.747 14.747 0 1 0 14.747-14.747 14.747 14.747 0 0 0 -14.747 14.747" transform="translate(1115.056 -84.1)"/><path d="m298.622 516.123a14.114 14.114 0 1 0 14.114-14.114 14.114 14.114 0 0 0 -14.114 14.114" transform="translate(979.535 -84.228)"/><path d="m373.277 516.251a13.482 13.482 0 1 0 13.482-13.482 13.482 13.482 0 0 0 -13.482 13.482" transform="translate(844.015 -84.355)"/><path d="m447.932 516.378a12.849 12.849 0 1 0 12.849-12.85 12.85 12.85 0 0 0 -12.849 12.85" transform="translate(708.496 -84.483)"/><path d="m522.588 516.506a12.217 12.217 0 1 0 12.212-12.217 12.217 12.217 0 0 0 -12.217 12.217" transform="translate(572.975 -84.61)"/><path d="m597.243 516.633a11.585 11.585 0 1 0 11.584-11.585 11.584 11.584 0 0 0 -11.584 11.585" transform="translate(437.456 -84.738)"/><path d="m671.9 516.761a10.952 10.952 0 1 0 10.952-10.952 10.952 10.952 0 0 0 -10.952 10.952" transform="translate(301.936 -84.865)"/><path d="m746.554 516.889a10.32 10.32 0 1 0 10.319-10.32 10.32 10.32 0 0 0 -10.319 10.32" transform="translate(166.415 -84.993)"/><path d="m821.209 517.016a9.687 9.687 0 1 0 9.687-9.687 9.687 9.687 0 0 0 -9.687 9.687" transform="translate(30.896 -85.12)"/><path d="m895.865 517.143a9.055 9.055 0 1 0 9.054-9.055 9.054 9.054 0 0 0 -9.054 9.055" transform="translate(-104.625 -85.248)"/><path d="m970.52 517.271a8.422 8.422 0 1 0 8.422-8.422 8.422 8.422 0 0 0 -8.422 8.422" transform="translate(-240.145 -85.375)"/><path d="m1045.175 517.4a7.789 7.789 0 1 0 7.789-7.789 7.79 7.79 0 0 0 -7.789 7.789" transform="translate(-375.664 -85.503)"/><path d="m1119.831 517.526a7.157 7.157 0 1 0 7.157-7.157 7.157 7.157 0 0 0 -7.157 7.157" transform="translate(-511.185 -85.631)"/><path d="m1194.486 517.654a6.525 6.525 0 1 0 6.525-6.525 6.525 6.525 0 0 0 -6.525 6.525" transform="translate(-646.704 -85.758)"/><path d="m1269.141 517.781a5.892 5.892 0 1 0 5.892-5.892 5.893 5.893 0 0 0 -5.892 5.892" transform="translate(-782.224 -85.886)"/><path d="m1343.8 517.909a5.26 5.26 0 1 0 5.26-5.26 5.26 5.26 0 0 0 -5.26 5.26" transform="translate(-917.744 -86.013)"/><path d="m1418.452 518.036a4.627 4.627 0 1 0 4.628-4.627 4.627 4.627 0 0 0 -4.628 4.627" transform="translate(-1053.264 -86.141)"/><path d="m1493.107 518.164a3.995 3.995 0 1 0 3.995-3.995 3.995 3.995 0 0 0 -3.995 3.995" transform="translate(-1188.785 -86.268)"/><path d="m1567.763 518.291a3.362 3.362 0 1 0 3.362-3.362 3.362 3.362 0 0 0 -3.362 3.362" transform="translate(-1324.304 -86.396)"/><path d="m1642.418 518.419a2.73 2.73 0 1 0 2.729-2.73 2.73 2.73 0 0 0 -2.729 2.73" transform="translate(-1459.823 -86.523)"/><path d="m1717.074 518.546a2.1 2.1 0 1 0 2.1-2.1 2.1 2.1 0 0 0 -2.1 2.1" transform="translate(-1595.345 -86.651)"/><path d="m1791.729 518.673a1.465 1.465 0 1 0 1.465-1.464 1.465 1.465 0 0 0 -1.465 1.464" transform="translate(-1730.864 -86.778)"/><path d="m1866.385 518.8a.832.832 0 1 0 .832-.832.833.833 0 0 0 -.832.832" transform="translate(-1866.385 -86.906)"/><path d="m0 598.775a16.644 16.644 0 1 0 16.644-16.644 16.644 16.644 0 0 0 -16.644 16.644" transform="translate(1521.615 -97.671)"/><path d="m74.655 598.9a16.012 16.012 0 1 0 16.012-16.012 16.012 16.012 0 0 0 -16.012 16.012" transform="translate(1386.096 -97.799)"/><path d="m149.311 599.03a15.379 15.379 0 1 0 15.379-15.379 15.38 15.38 0 0 0 -15.379 15.379" transform="translate(1250.575 -97.926)"/><path d="m223.966 599.158a14.747 14.747 0 1 0 14.747-14.747 14.747 14.747 0 0 0 -14.747 14.747" transform="translate(1115.056 -98.053)"/><path d="m298.622 599.285a14.114 14.114 0 1 0 14.114-14.114 14.114 14.114 0 0 0 -14.114 14.114" transform="translate(979.535 -98.181)"/><path d="m373.277 599.413a13.482 13.482 0 1 0 13.482-13.482 13.482 13.482 0 0 0 -13.482 13.482" transform="translate(844.015 -98.309)"/><path d="m447.932 599.54a12.849 12.849 0 1 0 12.849-12.849 12.85 12.85 0 0 0 -12.849 12.849" transform="translate(708.496 -98.436)"/><path d="m522.588 599.668a12.217 12.217 0 1 0 12.212-12.217 12.217 12.217 0 0 0 -12.217 12.217" transform="translate(572.975 -98.563)"/><path d="m597.243 599.8a11.585 11.585 0 1 0 11.584-11.585 11.584 11.584 0 0 0 -11.584 11.585" transform="translate(437.456 -98.691)"/><path d="m671.9 599.923a10.952 10.952 0 1 0 10.952-10.952 10.952 10.952 0 0 0 -10.952 10.952" transform="translate(301.936 -98.819)"/><path d="m746.554 600.051a10.32 10.32 0 1 0 10.319-10.32 10.32 10.32 0 0 0 -10.319 10.32" transform="translate(166.415 -98.946)"/><path d="m821.209 600.178a9.687 9.687 0 1 0 9.687-9.687 9.687 9.687 0 0 0 -9.687 9.687" transform="translate(30.896 -99.073)"/><path d="m895.865 600.305a9.055 9.055 0 1 0 9.054-9.055 9.054 9.054 0 0 0 -9.054 9.055" transform="translate(-104.625 -99.201)"/><path d="m970.52 600.433a8.422 8.422 0 1 0 8.422-8.422 8.422 8.422 0 0 0 -8.422 8.422" transform="translate(-240.145 -99.329)"/><path d="m1045.175 600.56a7.789 7.789 0 1 0 7.789-7.789 7.79 7.79 0 0 0 -7.789 7.789" transform="translate(-375.664 -99.456)"/><path d="m1119.831 600.688a7.157 7.157 0 1 0 7.157-7.157 7.157 7.157 0 0 0 -7.157 7.157" transform="translate(-511.185 -99.584)"/><path d="m1194.486 600.816a6.525 6.525 0 1 0 6.525-6.525 6.525 6.525 0 0 0 -6.525 6.525" transform="translate(-646.704 -99.711)"/><path d="m1269.141 600.943a5.892 5.892 0 1 0 5.892-5.892 5.893 5.893 0 0 0 -5.892 5.892" transform="translate(-782.224 -99.839)"/><path d="m1343.8 601.07a5.26 5.26 0 1 0 5.26-5.259 5.26 5.26 0 0 0 -5.26 5.259" transform="translate(-917.744 -99.966)"/><path d="m1418.452 601.2a4.627 4.627 0 1 0 4.628-4.627 4.627 4.627 0 0 0 -4.628 4.627" transform="translate(-1053.264 -100.094)"/><path d="m1493.107 601.326a3.995 3.995 0 1 0 3.995-3.995 3.995 3.995 0 0 0 -3.995 3.995" transform="translate(-1188.785 -100.221)"/><path d="m1567.763 601.453a3.362 3.362 0 1 0 3.362-3.362 3.362 3.362 0 0 0 -3.362 3.362" transform="translate(-1324.304 -100.349)"/><path d="m1642.418 601.581a2.73 2.73 0 1 0 2.729-2.73 2.73 2.73 0 0 0 -2.729 2.73" transform="translate(-1459.823 -100.476)"/><path d="m1717.074 601.708a2.1 2.1 0 1 0 2.1-2.1 2.1 2.1 0 0 0 -2.1 2.1" transform="translate(-1595.345 -100.604)"/><path d="m1791.729 601.836a1.465 1.465 0 1 0 1.465-1.465 1.465 1.465 0 0 0 -1.465 1.465" transform="translate(-1730.864 -100.731)"/><path d="m1866.385 601.963a.832.832 0 1 0 .832-.832.833.833 0 0 0 -.832.832" transform="translate(-1866.385 -100.859)"/><path d="m0 681.936a16.644 16.644 0 1 0 16.644-16.644 16.644 16.644 0 0 0 -16.644 16.644" transform="translate(1521.615 -111.624)"/><path d="m74.655 682.064a16.012 16.012 0 1 0 16.012-16.012 16.012 16.012 0 0 0 -16.012 16.012" transform="translate(1386.096 -111.751)"/><path d="m149.311 682.191a15.379 15.379 0 1 0 15.379-15.379 15.379 15.379 0 0 0 -15.379 15.379" transform="translate(1250.575 -111.879)"/><path d="m223.966 682.319a14.747 14.747 0 1 0 14.747-14.747 14.748 14.748 0 0 0 -14.747 14.747" transform="translate(1115.056 -112.006)"/><path d="m298.622 682.447a14.114 14.114 0 1 0 14.114-14.115 14.114 14.114 0 0 0 -14.114 14.115" transform="translate(979.535 -112.134)"/><path d="m373.277 682.574a13.482 13.482 0 1 0 13.482-13.482 13.482 13.482 0 0 0 -13.482 13.482" transform="translate(844.015 -112.261)"/><path d="m447.932 682.7a12.849 12.849 0 1 0 12.849-12.849 12.85 12.85 0 0 0 -12.849 12.849" transform="translate(708.496 -112.389)"/><path d="m522.588 682.829a12.217 12.217 0 1 0 12.212-12.217 12.216 12.216 0 0 0 -12.217 12.217" transform="translate(572.975 -112.516)"/><path d="m597.243 682.956a11.585 11.585 0 1 0 11.584-11.584 11.584 11.584 0 0 0 -11.584 11.584" transform="translate(437.456 -112.644)"/><path d="m671.9 683.084a10.952 10.952 0 1 0 10.952-10.952 10.952 10.952 0 0 0 -10.952 10.952" transform="translate(301.936 -112.771)"/><path d="m746.554 683.212a10.32 10.32 0 1 0 10.319-10.32 10.32 10.32 0 0 0 -10.319 10.32" transform="translate(166.415 -112.899)"/><path d="m821.209 683.339a9.687 9.687 0 1 0 9.687-9.687 9.687 9.687 0 0 0 -9.687 9.687" transform="translate(30.896 -113.027)"/><path d="m895.865 683.467a9.055 9.055 0 1 0 9.054-9.055 9.054 9.054 0 0 0 -9.054 9.055" transform="translate(-104.625 -113.154)"/><path d="m970.52 683.594a8.422 8.422 0 1 0 8.422-8.422 8.422 8.422 0 0 0 -8.422 8.422" transform="translate(-240.145 -113.281)"/><path d="m1045.175 683.722a7.789 7.789 0 1 0 7.789-7.789 7.79 7.79 0 0 0 -7.789 7.789" transform="translate(-375.664 -113.409)"/><path d="m1119.831 683.849a7.157 7.157 0 1 0 7.157-7.157 7.157 7.157 0 0 0 -7.157 7.157" transform="translate(-511.185 -113.536)"/><path d="m1194.486 683.977a6.525 6.525 0 1 0 6.525-6.525 6.524 6.524 0 0 0 -6.525 6.525" transform="translate(-646.704 -113.664)"/><path d="m1269.141 684.1a5.892 5.892 0 1 0 5.892-5.892 5.893 5.893 0 0 0 -5.892 5.892" transform="translate(-782.224 -113.792)"/><path d="m1343.8 684.232a5.26 5.26 0 1 0 5.26-5.26 5.26 5.26 0 0 0 -5.26 5.26" transform="translate(-917.744 -113.919)"/><path d="m1418.452 684.359a4.627 4.627 0 1 0 4.628-4.627 4.627 4.627 0 0 0 -4.628 4.627" transform="translate(-1053.264 -114.047)"/><path d="m1493.107 684.487a3.995 3.995 0 1 0 3.995-3.995 3.995 3.995 0 0 0 -3.995 3.995" transform="translate(-1188.785 -114.174)"/><path d="m1567.763 684.614a3.362 3.362 0 1 0 3.362-3.362 3.362 3.362 0 0 0 -3.362 3.362" transform="translate(-1324.304 -114.301)"/><path d="m1642.418 684.742a2.73 2.73 0 1 0 2.729-2.729 2.73 2.73 0 0 0 -2.729 2.729" transform="translate(-1459.823 -114.429)"/><path d="m1717.074 684.869a2.1 2.1 0 1 0 2.1-2.1 2.1 2.1 0 0 0 -2.1 2.1" transform="translate(-1595.345 -114.556)"/><path d="m1791.729 685a1.465 1.465 0 1 0 1.465-1.465 1.465 1.465 0 0 0 -1.465 1.465" transform="translate(-1730.864 -114.684)"/><path d="m1866.385 685.124a.832.832 0 1 0 .832-.832.833.833 0 0 0 -.832.832" transform="translate(-1866.385 -114.812)"/><path d="m0 765.1a16.644 16.644 0 1 0 16.644-16.644 16.644 16.644 0 0 0 -16.644 16.644" transform="translate(1521.615 -125.577)"/><path d="m74.655 765.226a16.012 16.012 0 1 0 16.012-16.012 16.012 16.012 0 0 0 -16.012 16.012" transform="translate(1386.096 -125.704)"/><path d="m149.311 765.354a15.379 15.379 0 1 0 15.379-15.379 15.38 15.38 0 0 0 -15.379 15.379" transform="translate(1250.575 -125.832)"/><path d="m223.966 765.481a14.747 14.747 0 1 0 14.747-14.747 14.747 14.747 0 0 0 -14.747 14.747" transform="translate(1115.056 -125.959)"/><path d="m298.622 765.608a14.114 14.114 0 1 0 14.114-14.114 14.114 14.114 0 0 0 -14.114 14.114" transform="translate(979.535 -126.087)"/><path d="m373.277 765.736a13.482 13.482 0 1 0 13.482-13.482 13.482 13.482 0 0 0 -13.482 13.482" transform="translate(844.015 -126.214)"/><path d="m447.932 765.863a12.849 12.849 0 1 0 12.849-12.849 12.85 12.85 0 0 0 -12.849 12.849" transform="translate(708.496 -126.342)"/><path d="m522.588 765.991a12.217 12.217 0 1 0 12.212-12.217 12.216 12.216 0 0 0 -12.217 12.217" transform="translate(572.975 -126.47)"/><path d="m597.243 766.118a11.585 11.585 0 1 0 11.584-11.584 11.584 11.584 0 0 0 -11.584 11.584" transform="translate(437.456 -126.597)"/><path d="m671.9 766.246a10.952 10.952 0 1 0 10.952-10.952 10.952 10.952 0 0 0 -10.952 10.952" transform="translate(301.936 -126.724)"/><path d="m746.554 766.373a10.32 10.32 0 1 0 10.319-10.319 10.32 10.32 0 0 0 -10.319 10.319" transform="translate(166.415 -126.852)"/><path d="m821.209 766.5a9.687 9.687 0 1 0 9.687-9.687 9.686 9.686 0 0 0 -9.687 9.687" transform="translate(30.896 -126.98)"/><path d="m895.865 766.629a9.055 9.055 0 1 0 9.054-9.055 9.054 9.054 0 0 0 -9.054 9.055" transform="translate(-104.625 -127.107)"/><path d="m970.52 766.756a8.422 8.422 0 1 0 8.422-8.422 8.422 8.422 0 0 0 -8.422 8.422" transform="translate(-240.145 -127.235)"/><path d="m1045.175 766.883a7.789 7.789 0 1 0 7.789-7.789 7.79 7.79 0 0 0 -7.789 7.789" transform="translate(-375.664 -127.362)"/><path d="m1119.831 767.011a7.157 7.157 0 1 0 7.157-7.157 7.157 7.157 0 0 0 -7.157 7.157" transform="translate(-511.185 -127.489)"/><path d="m1194.486 767.138a6.525 6.525 0 1 0 6.525-6.524 6.524 6.524 0 0 0 -6.525 6.524" transform="translate(-646.704 -127.617)"/><path d="m1269.141 767.266a5.892 5.892 0 1 0 5.892-5.892 5.893 5.893 0 0 0 -5.892 5.892" transform="translate(-782.224 -127.745)"/><path d="m1343.8 767.393a5.26 5.26 0 1 0 5.26-5.26 5.26 5.26 0 0 0 -5.26 5.26" transform="translate(-917.744 -127.872)"/><path d="m1418.452 767.521a4.627 4.627 0 1 0 4.628-4.627 4.627 4.627 0 0 0 -4.628 4.627" transform="translate(-1053.264 -128)"/><path d="m1493.107 767.649a3.995 3.995 0 1 0 3.995-3.994 3.995 3.995 0 0 0 -3.995 3.994" transform="translate(-1188.785 -128.127)"/><path d="m1567.763 767.776a3.362 3.362 0 1 0 3.362-3.362 3.362 3.362 0 0 0 -3.362 3.362" transform="translate(-1324.304 -128.255)"/><path d="m1642.418 767.9a2.73 2.73 0 1 0 2.729-2.73 2.73 2.73 0 0 0 -2.729 2.73" transform="translate(-1459.823 -128.382)"/><path d="m1717.074 768.031a2.1 2.1 0 1 0 2.1-2.1 2.1 2.1 0 0 0 -2.1 2.1" transform="translate(-1595.345 -128.51)"/><path d="m1791.729 768.159a1.465 1.465 0 1 0 1.465-1.465 1.465 1.465 0 0 0 -1.465 1.465" transform="translate(-1730.864 -128.637)"/><path d="m1866.385 768.286a.832.832 0 1 0 .832-.832.833.833 0 0 0 -.832.832" transform="translate(-1866.385 -128.765)"/><path d="m0 848.259a16.644 16.644 0 1 0 16.644-16.644 16.644 16.644 0 0 0 -16.644 16.644" transform="translate(1521.615 -139.53)"/><path d="m74.655 848.387a16.012 16.012 0 1 0 16.012-16.012 16.012 16.012 0 0 0 -16.012 16.012" transform="translate(1386.096 -139.657)"/><path d="m149.311 848.514a15.379 15.379 0 1 0 15.379-15.379 15.38 15.38 0 0 0 -15.379 15.379" transform="translate(1250.575 -139.785)"/><path d="m223.966 848.642a14.747 14.747 0 1 0 14.747-14.742 14.747 14.747 0 0 0 -14.747 14.747" transform="translate(1115.056 -139.912)"/><path d="m298.622 848.769a14.114 14.114 0 1 0 14.114-14.114 14.114 14.114 0 0 0 -14.114 14.114" transform="translate(979.535 -140.04)"/><path d="m373.277 848.9a13.482 13.482 0 1 0 13.482-13.482 13.482 13.482 0 0 0 -13.482 13.482" transform="translate(844.015 -140.167)"/><path d="m447.932 849.024a12.849 12.849 0 1 0 12.849-12.849 12.85 12.85 0 0 0 -12.849 12.849" transform="translate(708.496 -140.295)"/><path d="m522.588 849.152a12.217 12.217 0 1 0 12.212-12.217 12.216 12.216 0 0 0 -12.217 12.217" transform="translate(572.975 -140.422)"/><path d="m597.243 849.279a11.585 11.585 0 1 0 11.584-11.584 11.584 11.584 0 0 0 -11.584 11.584" transform="translate(437.456 -140.55)"/><path d="m671.9 849.407a10.952 10.952 0 1 0 10.952-10.952 10.952 10.952 0 0 0 -10.952 10.952" transform="translate(301.936 -140.677)"/><path d="m746.554 849.534a10.32 10.32 0 1 0 10.319-10.319 10.32 10.32 0 0 0 -10.319 10.319" transform="translate(166.415 -140.805)"/><path d="m821.209 849.662a9.687 9.687 0 1 0 9.687-9.687 9.687 9.687 0 0 0 -9.687 9.687" transform="translate(30.896 -140.932)"/><path d="m895.865 849.789a9.055 9.055 0 1 0 9.054-9.055 9.054 9.054 0 0 0 -9.054 9.055" transform="translate(-104.625 -141.06)"/><path d="m970.52 849.917a8.422 8.422 0 1 0 8.422-8.422 8.422 8.422 0 0 0 -8.422 8.422" transform="translate(-240.145 -141.187)"/><path d="m1045.175 850.044a7.789 7.789 0 1 0 7.789-7.789 7.79 7.79 0 0 0 -7.789 7.789" transform="translate(-375.664 -141.315)"/><path d="m1119.831 850.172a7.157 7.157 0 1 0 7.157-7.157 7.157 7.157 0 0 0 -7.157 7.157" transform="translate(-511.185 -141.442)"/><path d="m1194.486 850.3a6.525 6.525 0 1 0 6.525-6.525 6.525 6.525 0 0 0 -6.525 6.525" transform="translate(-646.704 -141.57)"/><path d="m1269.141 850.427a5.892 5.892 0 1 0 5.892-5.892 5.893 5.893 0 0 0 -5.892 5.892" transform="translate(-782.224 -141.698)"/><path d="m1343.8 850.555a5.26 5.26 0 1 0 5.26-5.26 5.26 5.26 0 0 0 -5.26 5.26" transform="translate(-917.744 -141.825)"/><path d="m1418.452 850.682a4.627 4.627 0 1 0 4.628-4.627 4.627 4.627 0 0 0 -4.628 4.627" transform="translate(-1053.264 -141.953)"/><path d="m1493.107 850.81a3.995 3.995 0 1 0 3.995-3.995 3.995 3.995 0 0 0 -3.995 3.995" transform="translate(-1188.785 -142.08)"/><path d="m1567.763 850.937a3.362 3.362 0 1 0 3.362-3.362 3.362 3.362 0 0 0 -3.362 3.362" transform="translate(-1324.304 -142.208)"/><path d="m1642.418 851.065a2.73 2.73 0 1 0 2.729-2.73 2.73 2.73 0 0 0 -2.729 2.73" transform="translate(-1459.823 -142.335)"/><path d="m1717.074 851.192a2.1 2.1 0 1 0 2.1-2.1 2.1 2.1 0 0 0 -2.1 2.1" transform="translate(-1595.345 -142.463)"/><path d="m1791.729 851.32a1.465 1.465 0 1 0 1.465-1.465 1.465 1.465 0 0 0 -1.465 1.465" transform="translate(-1730.864 -142.59)"/><path d="m1866.385 851.447a.832.832 0 1 0 .832-.832.833.833 0 0 0 -.832.832" transform="translate(-1866.385 -142.718)"/><path d="m0 931.421a16.644 16.644 0 1 0 16.644-16.644 16.644 16.644 0 0 0 -16.644 16.644" transform="translate(1521.615 -153.483)"/><path d="m74.655 931.549a16.012 16.012 0 1 0 16.012-16.012 16.012 16.012 0 0 0 -16.012 16.012" transform="translate(1386.096 -153.61)"/><path d="m149.311 931.676a15.379 15.379 0 1 0 15.379-15.376 15.38 15.38 0 0 0 -15.379 15.379" transform="translate(1250.575 -153.738)"/><path d="m223.966 931.8a14.747 14.747 0 1 0 14.747-14.747 14.747 14.747 0 0 0 -14.747 14.747" transform="translate(1115.056 -153.865)"/><path d="m298.622 931.931a14.114 14.114 0 1 0 14.114-14.115 14.114 14.114 0 0 0 -14.114 14.115" transform="translate(979.535 -153.993)"/><path d="m373.277 932.059a13.482 13.482 0 1 0 13.482-13.482 13.482 13.482 0 0 0 -13.482 13.482" transform="translate(844.015 -154.12)"/><path d="m447.932 932.186a12.849 12.849 0 1 0 12.849-12.849 12.85 12.85 0 0 0 -12.849 12.849" transform="translate(708.496 -154.248)"/><path d="m522.588 932.314a12.217 12.217 0 1 0 12.212-12.214 12.216 12.216 0 0 0 -12.217 12.217" transform="translate(572.975 -154.375)"/><path d="m597.243 932.441a11.585 11.585 0 1 0 11.584-11.584 11.584 11.584 0 0 0 -11.584 11.584" transform="translate(437.456 -154.503)"/><path d="m671.9 932.569a10.952 10.952 0 1 0 10.952-10.952 10.952 10.952 0 0 0 -10.952 10.952" transform="translate(301.936 -154.63)"/><path d="m746.554 932.7a10.32 10.32 0 1 0 10.319-10.32 10.32 10.32 0 0 0 -10.319 10.32" transform="translate(166.415 -154.758)"/><path d="m821.209 932.824a9.687 9.687 0 1 0 9.687-9.687 9.687 9.687 0 0 0 -9.687 9.687" transform="translate(30.896 -154.885)"/><path d="m895.865 932.951a9.055 9.055 0 1 0 9.054-9.055 9.054 9.054 0 0 0 -9.054 9.055" transform="translate(-104.625 -155.013)"/><path d="m970.52 933.079a8.422 8.422 0 1 0 8.422-8.422 8.422 8.422 0 0 0 -8.422 8.422" transform="translate(-240.145 -155.141)"/><path d="m1045.175 933.206a7.789 7.789 0 1 0 7.789-7.79 7.79 7.79 0 0 0 -7.789 7.79" transform="translate(-375.664 -155.268)"/><path d="m1119.831 933.334a7.157 7.157 0 1 0 7.157-7.157 7.157 7.157 0 0 0 -7.157 7.157" transform="translate(-511.185 -155.395)"/><path d="m1194.486 933.462a6.525 6.525 0 1 0 6.525-6.525 6.524 6.524 0 0 0 -6.525 6.525" transform="translate(-646.704 -155.523)"/><path d="m1269.141 933.589a5.892 5.892 0 1 0 5.892-5.892 5.893 5.893 0 0 0 -5.892 5.892" transform="translate(-782.224 -155.651)"/><path d="m1343.8 933.717a5.26 5.26 0 1 0 5.26-5.26 5.26 5.26 0 0 0 -5.26 5.26" transform="translate(-917.744 -155.778)"/><path d="m1418.452 933.844a4.627 4.627 0 1 0 4.628-4.627 4.627 4.627 0 0 0 -4.628 4.627" transform="translate(-1053.264 -155.905)"/><path d="m1493.107 933.972a3.995 3.995 0 1 0 3.995-3.995 3.995 3.995 0 0 0 -3.995 3.995" transform="translate(-1188.785 -156.033)"/><path d="m1567.763 934.1a3.362 3.362 0 1 0 3.362-3.362 3.363 3.363 0 0 0 -3.362 3.362" transform="translate(-1324.304 -156.161)"/><path d="m1642.418 934.227a2.73 2.73 0 1 0 2.729-2.73 2.73 2.73 0 0 0 -2.729 2.73" transform="translate(-1459.823 -156.288)"/><path d="m1717.074 934.354a2.1 2.1 0 1 0 2.1-2.1 2.1 2.1 0 0 0 -2.1 2.1" transform="translate(-1595.345 -156.416)"/><path d="m1791.729 934.482a1.465 1.465 0 1 0 1.465-1.465 1.465 1.465 0 0 0 -1.465 1.465" transform="translate(-1730.864 -156.543)"/><path d="m1866.385 934.609a.832.832 0 1 0 .832-.832.832.832 0 0 0 -.832.832" transform="translate(-1866.385 -156.671)"/><path d="m0 1014.582a16.644 16.644 0 1 0 16.644-16.645 16.644 16.644 0 0 0 -16.644 16.645" transform="translate(1521.615 -167.436)"/><path d="m74.655 1014.71a16.012 16.012 0 1 0 16.012-16.01 16.012 16.012 0 0 0 -16.012 16.012" transform="translate(1386.096 -167.563)"/><path d="m149.311 1014.837a15.379 15.379 0 1 0 15.379-15.38 15.379 15.379 0 0 0 -15.379 15.38" transform="translate(1250.575 -167.691)"/><path d="m223.966 1014.965a14.747 14.747 0 1 0 14.747-14.747 14.747 14.747 0 0 0 -14.747 14.747" transform="translate(1115.056 -167.818)"/><path d="m298.622 1015.092a14.114 14.114 0 1 0 14.114-14.114 14.114 14.114 0 0 0 -14.114 14.114" transform="translate(979.535 -167.946)"/><path d="m373.277 1015.22a13.482 13.482 0 1 0 13.482-13.482 13.482 13.482 0 0 0 -13.482 13.482" transform="translate(844.015 -168.073)"/><path d="m447.932 1015.347a12.849 12.849 0 1 0 12.849-12.849 12.85 12.85 0 0 0 -12.849 12.849" transform="translate(708.496 -168.201)"/><path d="m522.588 1015.475a12.217 12.217 0 1 0 12.217-12.217 12.216 12.216 0 0 0 -12.217 12.217" transform="translate(572.975 -168.328)"/><path d="m597.243 1015.6a11.585 11.585 0 1 0 11.584-11.584 11.584 11.584 0 0 0 -11.584 11.584" transform="translate(437.456 -168.456)"/><path d="m671.9 1015.73a10.952 10.952 0 1 0 10.952-10.952 10.952 10.952 0 0 0 -10.952 10.952" transform="translate(301.936 -168.583)"/><path d="m746.554 1015.857a10.32 10.32 0 1 0 10.319-10.32 10.32 10.32 0 0 0 -10.319 10.32" transform="translate(166.415 -168.711)"/><path d="m821.209 1015.985a9.687 9.687 0 1 0 9.687-9.687 9.686 9.686 0 0 0 -9.687 9.687" transform="translate(30.896 -168.838)"/><path d="m895.865 1016.113a9.055 9.055 0 1 0 9.054-9.055 9.054 9.054 0 0 0 -9.054 9.055" transform="translate(-104.625 -168.966)"/><path d="m970.52 1016.24a8.422 8.422 0 1 0 8.422-8.422 8.422 8.422 0 0 0 -8.422 8.422" transform="translate(-240.145 -169.093)"/><path d="m1045.175 1016.368a7.789 7.789 0 1 0 7.789-7.79 7.79 7.79 0 0 0 -7.789 7.79" transform="translate(-375.664 -169.221)"/><path d="m1119.831 1016.5a7.157 7.157 0 1 0 7.157-7.157 7.157 7.157 0 0 0 -7.157 7.157" transform="translate(-511.185 -169.348)"/><path d="m1194.486 1016.622a6.525 6.525 0 1 0 6.525-6.525 6.525 6.525 0 0 0 -6.525 6.525" transform="translate(-646.704 -169.476)"/><path d="m1269.141 1016.75a5.892 5.892 0 1 0 5.892-5.892 5.893 5.893 0 0 0 -5.892 5.892" transform="translate(-782.224 -169.603)"/><path d="m1343.8 1016.877a5.26 5.26 0 1 0 5.26-5.26 5.26 5.26 0 0 0 -5.26 5.26" transform="translate(-917.744 -169.731)"/><path d="m1418.452 1017.005a4.627 4.627 0 1 0 4.628-4.627 4.627 4.627 0 0 0 -4.628 4.627" transform="translate(-1053.264 -169.859)"/><path d="m1493.107 1017.133a3.995 3.995 0 1 0 3.995-3.995 3.995 3.995 0 0 0 -3.995 3.995" transform="translate(-1188.785 -169.986)"/><path d="m1567.763 1017.26a3.362 3.362 0 1 0 3.362-3.362 3.362 3.362 0 0 0 -3.362 3.362" transform="translate(-1324.304 -170.113)"/><path d="m1642.418 1017.388a2.73 2.73 0 1 0 2.729-2.73 2.73 2.73 0 0 0 -2.729 2.73" transform="translate(-1459.823 -170.241)"/><path d="m1717.074 1017.515a2.1 2.1 0 1 0 2.1-2.1 2.1 2.1 0 0 0 -2.1 2.1" transform="translate(-1595.345 -170.369)"/><path d="m1791.729 1017.643a1.465 1.465 0 1 0 1.465-1.465 1.465 1.465 0 0 0 -1.465 1.465" transform="translate(-1730.864 -170.496)"/><path d="m1866.385 1017.77a.832.832 0 1 0 .832-.832.833.833 0 0 0 -.832.832" transform="translate(-1866.385 -170.623)"/><path d="m0 1097.745a16.644 16.644 0 1 0 16.644-16.645 16.644 16.644 0 0 0 -16.644 16.645" transform="translate(1521.615 -181.389)"/><path d="m74.655 1097.872a16.012 16.012 0 1 0 16.012-16.012 16.012 16.012 0 0 0 -16.012 16.012" transform="translate(1386.096 -181.516)"/><path d="m149.311 1098a15.379 15.379 0 1 0 15.379-15.379 15.379 15.379 0 0 0 -15.379 15.379" transform="translate(1250.575 -181.644)"/><path d="m223.966 1098.127a14.747 14.747 0 1 0 14.747-14.747 14.747 14.747 0 0 0 -14.747 14.747" transform="translate(1115.056 -181.771)"/><path d="m298.622 1098.255a14.114 14.114 0 1 0 14.114-14.115 14.114 14.114 0 0 0 -14.114 14.115" transform="translate(979.535 -181.899)"/><path d="m373.277 1098.382a13.482 13.482 0 1 0 13.482-13.482 13.482 13.482 0 0 0 -13.482 13.482" transform="translate(844.015 -182.026)"/><path d="m447.932 1098.509a12.849 12.849 0 1 0 12.849-12.849 12.85 12.85 0 0 0 -12.849 12.849" transform="translate(708.496 -182.154)"/><path d="m522.588 1098.637a12.217 12.217 0 1 0 12.212-12.217 12.216 12.216 0 0 0 -12.217 12.217" transform="translate(572.975 -182.281)"/><path d="m597.243 1098.765a11.585 11.585 0 1 0 11.584-11.585 11.584 11.584 0 0 0 -11.584 11.585" transform="translate(437.456 -182.409)"/><path d="m671.9 1098.892a10.952 10.952 0 1 0 10.952-10.953 10.952 10.952 0 0 0 -10.952 10.953" transform="translate(301.936 -182.536)"/><path d="m746.554 1099.019a10.32 10.32 0 1 0 10.319-10.319 10.32 10.32 0 0 0 -10.319 10.319" transform="translate(166.415 -182.664)"/><path d="m821.209 1099.147a9.687 9.687 0 1 0 9.687-9.687 9.687 9.687 0 0 0 -9.687 9.687" transform="translate(30.896 -182.792)"/><path d="m895.865 1099.275a9.055 9.055 0 1 0 9.054-9.055 9.054 9.054 0 0 0 -9.054 9.055" transform="translate(-104.625 -182.919)"/><path d="m970.52 1099.4a8.422 8.422 0 1 0 8.422-8.422 8.422 8.422 0 0 0 -8.422 8.422" transform="translate(-240.145 -183.046)"/><path d="m1045.175 1099.529a7.789 7.789 0 1 0 7.789-7.789 7.79 7.79 0 0 0 -7.789 7.789" transform="translate(-375.664 -183.174)"/><path d="m1119.831 1099.657a7.157 7.157 0 1 0 7.157-7.157 7.157 7.157 0 0 0 -7.157 7.157" transform="translate(-511.185 -183.302)"/><path d="m1194.486 1099.785a6.525 6.525 0 1 0 6.525-6.524 6.524 6.524 0 0 0 -6.525 6.524" transform="translate(-646.704 -183.429)"/><path d="m1269.141 1099.912a5.892 5.892 0 1 0 5.892-5.892 5.893 5.893 0 0 0 -5.892 5.892" transform="translate(-782.224 -183.556)"/><path d="m1343.8 1100.04a5.26 5.26 0 1 0 5.26-5.26 5.26 5.26 0 0 0 -5.26 5.26" transform="translate(-917.744 -183.684)"/><path d="m1418.452 1100.167a4.627 4.627 0 1 0 4.628-4.627 4.627 4.627 0 0 0 -4.628 4.627" transform="translate(-1053.264 -183.812)"/><path d="m1493.107 1100.295a3.995 3.995 0 1 0 3.995-3.995 3.995 3.995 0 0 0 -3.995 3.995" transform="translate(-1188.785 -183.939)"/><path d="m1567.763 1100.422a3.362 3.362 0 1 0 3.362-3.362 3.362 3.362 0 0 0 -3.362 3.362" transform="translate(-1324.304 -184.066)"/><path d="m1642.418 1100.55a2.73 2.73 0 1 0 2.729-2.73 2.73 2.73 0 0 0 -2.729 2.73" transform="translate(-1459.823 -184.194)"/><path d="m1717.074 1100.677a2.1 2.1 0 1 0 2.1-2.1 2.1 2.1 0 0 0 -2.1 2.1" transform="translate(-1595.345 -184.322)"/><path d="m1791.729 1100.8a1.465 1.465 0 1 0 1.465-1.465 1.465 1.465 0 0 0 -1.465 1.465" transform="translate(-1730.864 -184.449)"/><path d="m1866.385 1100.932a.832.832 0 1 0 .832-.832.833.833 0 0 0 -.832.832" transform="translate(-1866.385 -184.576)"/></g></g><g clip-path="url(#c)" transform="translate(-1640 -2685)"><path d="m716.979 998-716.979 357.946 735.931 133.775 119.522 841.356 380.341-666.535 935.973 114.822-578.816-632.388 737.817-1110.322-1077.583 666.067-604.349-702.721z" fill="#01062e" transform="translate(1194.616 2058.547)"/></g></svg>