<svg height="900" viewBox="0 0 1440 900" width="1440" xmlns="http://www.w3.org/2000/svg" xmlns:xlink="http://www.w3.org/1999/xlink"><clipPath id="a"><path d="m0 0h1440v900h-1440z"/></clipPath><clipPath id="b"><path d="m1640 2685h1440v900h-1440z"/></clipPath><path d="m0 0h1440v900h-1440z" fill="#01062e"/><g clip-path="url(#a)" fill="#78c926"><path d="m3264.45 1979.706c0-5.216 4.568-9.444 10.2-9.444s10.2 4.228 10.2 9.444-4.567 9.443-10.2 9.443-10.2-4.228-10.2-9.443" transform="translate(-1835.854 -1082.005)"/><path d="m3184.829 1979.97c0-5.094 4.46-9.222 9.963-9.222s9.963 4.129 9.963 9.222-4.46 9.222-9.963 9.222-9.963-4.129-9.963-9.222" transform="translate(-1792.452 -1082.27)"/><path d="m3105.208 1980.235c0-4.971 4.354-9 9.724-9s9.724 4.03 9.724 9-4.353 9-9.724 9-9.724-4.03-9.724-9" transform="translate(-1749.05 -1082.535)"/><path d="m3025.587 1980.5c0-4.849 4.246-8.78 9.485-8.78s9.485 3.931 9.485 8.78-4.247 8.78-9.485 8.78-9.485-3.931-9.485-8.78" transform="translate(-1705.648 -1082.8)"/><path d="m2945.967 1980.766c0-4.727 4.139-8.559 9.246-8.559s9.246 3.832 9.246 8.559-4.139 8.559-9.246 8.559-9.246-3.832-9.246-8.559" transform="translate(-1662.247 -1083.065)"/><path d="m2866.346 1981.031c0-4.6 4.033-8.337 9.008-8.337s9.007 3.732 9.007 8.337-4.033 8.337-9.007 8.337-9.008-3.732-9.008-8.337" transform="translate(-1618.844 -1083.331)"/><path d="m2786.725 1981.3c0-4.482 3.926-8.116 8.768-8.116s8.768 3.634 8.768 8.116-3.926 8.116-8.768 8.116-8.768-3.634-8.768-8.116" transform="translate(-1575.442 -1083.596)"/><path d="m2707.1 1981.561c0-4.36 3.819-7.9 8.529-7.9s8.529 3.535 8.529 7.9-3.819 7.9-8.529 7.9-8.529-3.535-8.529-7.9" transform="translate(-1532.041 -1083.86)"/><path d="m2627.484 1981.826c0-4.238 3.711-7.674 8.29-7.674s8.29 3.436 8.29 7.674-3.712 7.674-8.29 7.674-8.29-3.436-8.29-7.674" transform="translate(-1488.639 -1084.125)"/><path d="m2547.863 1982.091c0-4.116 3.6-7.452 8.051-7.452s8.051 3.336 8.051 7.452-3.6 7.452-8.051 7.452-8.051-3.337-8.051-7.452" transform="translate(-1445.237 -1084.391)"/><path d="m2468.242 1982.356c0-3.994 3.5-7.231 7.813-7.231s7.812 3.237 7.812 7.231-3.5 7.231-7.812 7.231-7.812-3.238-7.812-7.231" transform="translate(-1401.835 -1084.656)"/><path d="m2388.622 1982.621a7.6 7.6 0 1 1 7.573 7.01 7.308 7.308 0 0 1 -7.573-7.01" transform="translate(-1358.433 -1084.921)"/><path d="m2309 1982.887a7.356 7.356 0 1 1 7.334 6.789 7.078 7.078 0 0 1 -7.334-6.789" transform="translate(-1315.031 -1085.186)"/><path d="m2229.38 1983.152a7.117 7.117 0 1 1 7.095 6.568 6.847 6.847 0 0 1 -7.095-6.568" transform="translate(-1271.629 -1085.451)"/><path d="m2149.76 1983.417a6.877 6.877 0 1 1 6.856 6.347 6.616 6.616 0 0 1 -6.856-6.347" transform="translate(-1228.228 -1085.716)"/><path d="m2070.139 1983.682a6.637 6.637 0 1 1 6.617 6.125 6.385 6.385 0 0 1 -6.617-6.125" transform="translate(-1184.826 -1085.981)"/><path d="m1990.518 1983.947a6.4 6.4 0 1 1 6.378 5.9 6.155 6.155 0 0 1 -6.378-5.9" transform="translate(-1141.424 -1086.247)"/><path d="m1910.9 1984.212a6.158 6.158 0 1 1 6.139 5.682 5.924 5.924 0 0 1 -6.139-5.682" transform="translate(-1098.022 -1086.511)"/><path d="m1831.277 1984.478a5.918 5.918 0 1 1 5.9 5.461 5.694 5.694 0 0 1 -5.9-5.461" transform="translate(-1054.62 -1086.777)"/><path d="m1751.656 1984.742a5.678 5.678 0 1 1 5.661 5.24 5.463 5.463 0 0 1 -5.661-5.24" transform="translate(-1011.219 -1087.042)"/><path d="m1672.035 1985.007a5.438 5.438 0 1 1 5.422 5.019 5.232 5.232 0 0 1 -5.422-5.019" transform="translate(-967.816 -1087.307)"/><path d="m1592.414 1985.273a5.2 5.2 0 1 1 5.183 4.8 5 5 0 0 1 -5.183-4.8" transform="translate(-924.415 -1087.572)"/><path d="m1512.794 1985.537a4.959 4.959 0 1 1 4.944 4.577 4.771 4.771 0 0 1 -4.944-4.577" transform="translate(-881.013 -1087.837)"/><path d="m1433.173 1985.8a4.719 4.719 0 1 1 4.705 4.355 4.541 4.541 0 0 1 -4.705-4.355" transform="translate(-837.611 -1088.102)"/><path d="m1353.552 1986.068a4.479 4.479 0 1 1 4.466 4.134 4.31 4.31 0 0 1 -4.466-4.134" transform="translate(-794.209 -1088.367)"/><path d="m1273.932 1986.333a4.239 4.239 0 1 1 4.227 3.913 4.079 4.079 0 0 1 -4.227-3.913" transform="translate(-750.808 -1088.632)"/><path d="m1194.311 1986.6a4 4 0 1 1 3.988 3.692 3.849 3.849 0 0 1 -3.988-3.692" transform="translate(-707.406 -1088.897)"/><path d="m1114.69 1986.863a3.76 3.76 0 1 1 3.749 3.47 3.618 3.618 0 0 1 -3.749-3.47" transform="translate(-664.004 -1089.163)"/><path d="m1035.069 1987.128a3.521 3.521 0 1 1 3.51 3.249 3.387 3.387 0 0 1 -3.51-3.249" transform="translate(-620.602 -1089.428)"/><path d="m955.449 1987.393a3.281 3.281 0 1 1 3.271 3.028 3.157 3.157 0 0 1 -3.271-3.028" transform="translate(-577.2 -1089.692)"/><path d="m875.828 1987.659a3.041 3.041 0 1 1 3.032 2.807 2.926 2.926 0 0 1 -3.032-2.807" transform="translate(-533.798 -1089.958)"/><path d="m796.207 1987.923a2.8 2.8 0 1 1 2.793 2.586 2.7 2.7 0 0 1 -2.793-2.586" transform="translate(-490.396 -1090.223)"/><path d="m716.586 1988.188a2.562 2.562 0 1 1 2.554 2.365 2.465 2.465 0 0 1 -2.554-2.365" transform="translate(-446.994 -1090.488)"/><path d="m636.966 1988.454a2.322 2.322 0 1 1 2.315 2.143 2.234 2.234 0 0 1 -2.315-2.143" transform="translate(-403.593 -1090.753)"/><path d="m557.345 1988.719a2.082 2.082 0 1 1 2.076 1.922 2 2 0 0 1 -2.076-1.922" transform="translate(-360.191 -1091.018)"/><path d="m477.724 1988.984a1.843 1.843 0 1 1 1.837 1.7 1.773 1.773 0 0 1 -1.837-1.7" transform="translate(-316.789 -1091.283)"/><path d="m398.1 1989.249a1.6 1.6 0 1 1 1.6 1.479 1.542 1.542 0 0 1 -1.6-1.479" transform="translate(-273.387 -1091.549)"/><path d="m318.483 1989.514a1.363 1.363 0 1 1 1.359 1.258 1.312 1.312 0 0 1 -1.359-1.258" transform="translate(-229.985 -1091.813)"/><path d="m238.862 1989.779a1.124 1.124 0 1 1 1.12 1.037 1.081 1.081 0 0 1 -1.12-1.037" transform="translate(-186.583 -1092.079)"/><path d="m159.241 1990.045a.884.884 0 1 1 .881.815.85.85 0 0 1 -.881-.815" transform="translate(-143.182 -1092.344)"/><path d="m79.621 1990.31a.644.644 0 1 1 .642.594.62.62 0 0 1 -.642-.594" transform="translate(-99.78 -1092.609)"/><path d="m3264.45 1838.972c0-5.215 4.568-9.443 10.2-9.443s10.2 4.228 10.2 9.443-4.567 9.444-10.2 9.444-10.2-4.228-10.2-9.444" transform="translate(-1835.854 -1005.29)"/><path d="m3184.829 1839.237c0-5.094 4.46-9.222 9.963-9.222s9.963 4.129 9.963 9.222-4.46 9.222-9.963 9.222-9.963-4.129-9.963-9.222" transform="translate(-1792.452 -1005.555)"/><path d="m3105.208 1839.5c0-4.971 4.354-9 9.724-9s9.724 4.03 9.724 9-4.353 9-9.724 9-9.724-4.031-9.724-9" transform="translate(-1749.05 -1005.821)"/><path d="m3025.587 1839.768c0-4.849 4.246-8.78 9.485-8.78s9.485 3.931 9.485 8.78-4.247 8.78-9.485 8.78-9.485-3.931-9.485-8.78" transform="translate(-1705.648 -1006.085)"/><path d="m2945.967 1840.033c0-4.727 4.139-8.559 9.246-8.559s9.246 3.832 9.246 8.559-4.139 8.559-9.246 8.559-9.246-3.832-9.246-8.559" transform="translate(-1662.247 -1006.351)"/><path d="m2866.346 1840.3c0-4.6 4.033-8.337 9.008-8.337s9.007 3.733 9.007 8.337-4.033 8.338-9.007 8.338-9.008-3.733-9.008-8.338" transform="translate(-1618.844 -1006.616)"/><path d="m2786.725 1840.563c0-4.483 3.926-8.116 8.768-8.116s8.768 3.634 8.768 8.116-3.926 8.116-8.768 8.116-8.768-3.634-8.768-8.116" transform="translate(-1575.442 -1006.881)"/><path d="m2707.1 1840.828c0-4.36 3.819-7.9 8.529-7.9s8.529 3.535 8.529 7.9-3.819 7.9-8.529 7.9-8.529-3.535-8.529-7.9" transform="translate(-1532.041 -1007.146)"/><path d="m2627.484 1841.093c0-4.238 3.711-7.674 8.29-7.674s8.29 3.436 8.29 7.674-3.712 7.674-8.29 7.674-8.29-3.436-8.29-7.674" transform="translate(-1488.639 -1007.411)"/><path d="m2547.863 1841.358c0-4.116 3.6-7.452 8.051-7.452s8.051 3.336 8.051 7.452-3.6 7.452-8.051 7.452-8.051-3.336-8.051-7.452" transform="translate(-1445.237 -1007.676)"/><path d="m2468.242 1841.623c0-3.994 3.5-7.231 7.813-7.231s7.812 3.237 7.812 7.231-3.5 7.232-7.812 7.232-7.812-3.238-7.812-7.232" transform="translate(-1401.835 -1007.941)"/><path d="m2388.622 1841.889a7.6 7.6 0 1 1 7.573 7.01 7.308 7.308 0 0 1 -7.573-7.01" transform="translate(-1358.433 -1008.207)"/><path d="m2309 1842.154a7.356 7.356 0 1 1 7.334 6.789 7.078 7.078 0 0 1 -7.334-6.789" transform="translate(-1315.031 -1008.472)"/><path d="m2229.38 1842.419a7.117 7.117 0 1 1 7.095 6.568 6.847 6.847 0 0 1 -7.095-6.568" transform="translate(-1271.629 -1008.737)"/><path d="m2149.76 1842.684a6.877 6.877 0 1 1 6.856 6.347 6.616 6.616 0 0 1 -6.856-6.347" transform="translate(-1228.228 -1009.002)"/><path d="m2070.139 1842.949a6.637 6.637 0 1 1 6.617 6.125 6.385 6.385 0 0 1 -6.617-6.125" transform="translate(-1184.826 -1009.267)"/><path d="m1990.518 1843.214a6.4 6.4 0 1 1 6.378 5.9 6.155 6.155 0 0 1 -6.378-5.9" transform="translate(-1141.424 -1009.532)"/><path d="m1910.9 1843.479a6.157 6.157 0 1 1 6.139 5.683 5.924 5.924 0 0 1 -6.139-5.683" transform="translate(-1098.022 -1009.797)"/><path d="m1831.277 1843.744a5.918 5.918 0 1 1 5.9 5.462 5.693 5.693 0 0 1 -5.9-5.462" transform="translate(-1054.62 -1010.063)"/><path d="m1751.656 1844.009a5.678 5.678 0 1 1 5.661 5.24 5.463 5.463 0 0 1 -5.661-5.24" transform="translate(-1011.219 -1010.327)"/><path d="m1672.035 1844.275a5.438 5.438 0 1 1 5.422 5.019 5.232 5.232 0 0 1 -5.422-5.019" transform="translate(-967.816 -1010.593)"/><path d="m1592.414 1844.54a5.2 5.2 0 1 1 5.183 4.8 5 5 0 0 1 -5.183-4.8" transform="translate(-924.415 -1010.857)"/><path d="m1512.794 1844.8a4.959 4.959 0 1 1 4.944 4.577 4.771 4.771 0 0 1 -4.944-4.577" transform="translate(-881.013 -1011.123)"/><path d="m1433.173 1845.07a4.719 4.719 0 1 1 4.705 4.356 4.54 4.54 0 0 1 -4.705-4.356" transform="translate(-837.611 -1011.388)"/><path d="m1353.552 1845.335a4.479 4.479 0 1 1 4.466 4.134 4.31 4.31 0 0 1 -4.466-4.134" transform="translate(-794.209 -1011.653)"/><path d="m1273.932 1845.6a4.239 4.239 0 1 1 4.227 3.913 4.079 4.079 0 0 1 -4.227-3.913" transform="translate(-750.808 -1011.917)"/><path d="m1194.311 1845.865a4 4 0 1 1 3.988 3.692 3.848 3.848 0 0 1 -3.988-3.692" transform="translate(-707.406 -1012.183)"/><path d="m1114.69 1846.13a3.76 3.76 0 1 1 3.749 3.47 3.618 3.618 0 0 1 -3.749-3.47" transform="translate(-664.004 -1012.448)"/><path d="m1035.069 1846.4a3.521 3.521 0 1 1 3.51 3.25 3.387 3.387 0 0 1 -3.51-3.25" transform="translate(-620.602 -1012.713)"/><path d="m955.449 1846.661a3.281 3.281 0 1 1 3.271 3.028 3.157 3.157 0 0 1 -3.271-3.028" transform="translate(-577.2 -1012.979)"/><path d="m875.828 1846.926a3.041 3.041 0 1 1 3.032 2.807 2.926 2.926 0 0 1 -3.032-2.807" transform="translate(-533.798 -1013.243)"/><path d="m796.207 1847.19a2.8 2.8 0 1 1 2.793 2.586 2.7 2.7 0 0 1 -2.793-2.586" transform="translate(-490.396 -1013.508)"/><path d="m716.586 1847.455a2.562 2.562 0 1 1 2.554 2.365 2.465 2.465 0 0 1 -2.554-2.365" transform="translate(-446.994 -1013.773)"/><path d="m636.966 1847.721a2.322 2.322 0 1 1 2.315 2.143 2.234 2.234 0 0 1 -2.315-2.143" transform="translate(-403.593 -1014.039)"/><path d="m557.345 1847.986a2.082 2.082 0 1 1 2.076 1.922 2 2 0 0 1 -2.076-1.922" transform="translate(-360.191 -1014.304)"/><path d="m477.724 1848.251a1.843 1.843 0 1 1 1.837 1.7 1.773 1.773 0 0 1 -1.837-1.7" transform="translate(-316.789 -1014.568)"/><path d="m398.1 1848.516a1.6 1.6 0 1 1 1.6 1.479 1.542 1.542 0 0 1 -1.6-1.479" transform="translate(-273.387 -1014.834)"/><path d="m318.483 1848.781a1.363 1.363 0 1 1 1.359 1.258 1.312 1.312 0 0 1 -1.359-1.258" transform="translate(-229.985 -1015.099)"/><path d="m238.862 1849.046a1.123 1.123 0 1 1 1.12 1.037 1.081 1.081 0 0 1 -1.12-1.037" transform="translate(-186.583 -1015.364)"/><path d="m159.241 1849.312a.884.884 0 1 1 .881.816.85.85 0 0 1 -.881-.816" transform="translate(-143.182 -1015.629)"/><path d="m79.621 1849.576a.644.644 0 1 1 .642.595.62.62 0 0 1 -.642-.595" transform="translate(-99.78 -1015.894)"/><path d="m3264.45 1698.24c0-5.216 4.568-9.444 10.2-9.444s10.2 4.228 10.2 9.444-4.567 9.443-10.2 9.443-10.2-4.228-10.2-9.443" transform="translate(-1835.854 -928.575)"/><path d="m3184.829 1698.5c0-5.093 4.46-9.222 9.963-9.222s9.963 4.129 9.963 9.222-4.46 9.223-9.963 9.223-9.963-4.129-9.963-9.223" transform="translate(-1792.452 -928.841)"/><path d="m3105.208 1698.77c0-4.971 4.354-9 9.724-9s9.724 4.03 9.724 9-4.353 9-9.724 9-9.724-4.03-9.724-9" transform="translate(-1749.05 -929.106)"/><path d="m3025.587 1699.035c0-4.849 4.246-8.78 9.485-8.78s9.485 3.931 9.485 8.78-4.247 8.78-9.485 8.78-9.485-3.931-9.485-8.78" transform="translate(-1705.648 -929.371)"/><path d="m2945.967 1699.3c0-4.727 4.139-8.559 9.246-8.559s9.246 3.832 9.246 8.559-4.139 8.559-9.246 8.559-9.246-3.832-9.246-8.559" transform="translate(-1662.247 -929.636)"/><path d="m2866.346 1699.565c0-4.6 4.033-8.337 9.008-8.337s9.007 3.732 9.007 8.337-4.033 8.338-9.007 8.338-9.008-3.733-9.008-8.338" transform="translate(-1618.844 -929.901)"/><path d="m2786.725 1699.83c0-4.483 3.926-8.116 8.768-8.116s8.768 3.634 8.768 8.116-3.926 8.116-8.768 8.116-8.768-3.634-8.768-8.116" transform="translate(-1575.442 -930.167)"/><path d="m2707.1 1700.1c0-4.36 3.819-7.9 8.529-7.9s8.529 3.535 8.529 7.9-3.819 7.9-8.529 7.9-8.529-3.535-8.529-7.9" transform="translate(-1532.041 -930.431)"/><path d="m2627.484 1700.361c0-4.238 3.711-7.674 8.29-7.674s8.29 3.435 8.29 7.674-3.712 7.674-8.29 7.674-8.29-3.436-8.29-7.674" transform="translate(-1488.639 -930.697)"/><path d="m2547.863 1700.625c0-4.116 3.6-7.453 8.051-7.453s8.051 3.337 8.051 7.453-3.6 7.452-8.051 7.452-8.051-3.337-8.051-7.452" transform="translate(-1445.237 -930.961)"/><path d="m2468.242 1700.89c0-3.994 3.5-7.231 7.813-7.231s7.812 3.238 7.812 7.231-3.5 7.231-7.812 7.231-7.812-3.237-7.812-7.231" transform="translate(-1401.835 -931.227)"/><path d="m2388.622 1701.156a7.6 7.6 0 1 1 7.573 7.01 7.308 7.308 0 0 1 -7.573-7.01" transform="translate(-1358.433 -931.492)"/><path d="m2309 1701.421a7.356 7.356 0 1 1 7.334 6.789 7.078 7.078 0 0 1 -7.334-6.789" transform="translate(-1315.031 -931.757)"/><path d="m2229.38 1701.686a7.117 7.117 0 1 1 7.095 6.568 6.847 6.847 0 0 1 -7.095-6.568" transform="translate(-1271.629 -932.022)"/><path d="m2149.76 1701.951a6.877 6.877 0 1 1 6.856 6.346 6.616 6.616 0 0 1 -6.856-6.346" transform="translate(-1228.228 -932.287)"/><path d="m2070.139 1702.216a6.637 6.637 0 1 1 6.617 6.125 6.385 6.385 0 0 1 -6.617-6.125" transform="translate(-1184.826 -932.552)"/><path d="m1990.518 1702.481a6.4 6.4 0 1 1 6.378 5.9 6.155 6.155 0 0 1 -6.378-5.9" transform="translate(-1141.424 -932.817)"/><path d="m1910.9 1702.746a6.157 6.157 0 1 1 6.139 5.683 5.924 5.924 0 0 1 -6.139-5.683" transform="translate(-1098.022 -933.083)"/><path d="m1831.277 1703.011a5.918 5.918 0 1 1 5.9 5.461 5.693 5.693 0 0 1 -5.9-5.461" transform="translate(-1054.62 -933.348)"/><path d="m1751.656 1703.276a5.678 5.678 0 1 1 5.661 5.24 5.463 5.463 0 0 1 -5.661-5.24" transform="translate(-1011.219 -933.612)"/><path d="m1672.035 1703.542a5.438 5.438 0 1 1 5.422 5.019 5.232 5.232 0 0 1 -5.422-5.019" transform="translate(-967.816 -933.878)"/><path d="m1592.414 1703.807a5.2 5.2 0 1 1 5.183 4.8 5 5 0 0 1 -5.183-4.8" transform="translate(-924.415 -934.143)"/><path d="m1512.794 1704.072a4.959 4.959 0 1 1 4.944 4.577 4.771 4.771 0 0 1 -4.944-4.577" transform="translate(-881.013 -934.408)"/><path d="m1433.173 1704.337a4.719 4.719 0 1 1 4.705 4.356 4.54 4.54 0 0 1 -4.705-4.356" transform="translate(-837.611 -934.673)"/><path d="m1353.552 1704.6a4.479 4.479 0 1 1 4.466 4.134 4.31 4.31 0 0 1 -4.466-4.134" transform="translate(-794.209 -934.938)"/><path d="m1273.932 1704.867a4.239 4.239 0 1 1 4.227 3.913 4.079 4.079 0 0 1 -4.227-3.913" transform="translate(-750.808 -935.203)"/><path d="m1194.311 1705.132a4 4 0 1 1 3.988 3.692 3.848 3.848 0 0 1 -3.988-3.692" transform="translate(-707.406 -935.469)"/><path d="m1114.69 1705.4a3.76 3.76 0 1 1 3.749 3.47 3.618 3.618 0 0 1 -3.749-3.47" transform="translate(-664.004 -935.733)"/><path d="m1035.069 1705.662a3.521 3.521 0 1 1 3.51 3.249 3.387 3.387 0 0 1 -3.51-3.249" transform="translate(-620.602 -935.999)"/><path d="m955.449 1705.928a3.281 3.281 0 1 1 3.271 3.028 3.157 3.157 0 0 1 -3.271-3.028" transform="translate(-577.2 -936.264)"/><path d="m875.828 1706.193a3.041 3.041 0 1 1 3.032 2.807 2.926 2.926 0 0 1 -3.032-2.807" transform="translate(-533.798 -936.529)"/><path d="m796.207 1706.457a2.8 2.8 0 1 1 2.793 2.586 2.7 2.7 0 0 1 -2.793-2.586" transform="translate(-490.396 -936.793)"/><path d="m716.586 1706.723a2.562 2.562 0 1 1 2.554 2.365 2.465 2.465 0 0 1 -2.554-2.365" transform="translate(-446.994 -937.059)"/><path d="m636.966 1706.988a2.322 2.322 0 1 1 2.315 2.143 2.234 2.234 0 0 1 -2.315-2.143" transform="translate(-403.593 -937.324)"/><path d="m557.345 1707.253a2.082 2.082 0 1 1 2.076 1.922 2 2 0 0 1 -2.076-1.922" transform="translate(-360.191 -937.589)"/><path d="m477.724 1707.518a1.843 1.843 0 1 1 1.837 1.7 1.773 1.773 0 0 1 -1.837-1.7" transform="translate(-316.789 -937.854)"/><path d="m398.1 1707.783a1.6 1.6 0 1 1 1.6 1.479 1.542 1.542 0 0 1 -1.6-1.479" transform="translate(-273.387 -938.119)"/><path d="m318.483 1708.048a1.363 1.363 0 1 1 1.359 1.258 1.312 1.312 0 0 1 -1.359-1.258" transform="translate(-229.985 -938.384)"/><path d="m238.862 1708.313a1.123 1.123 0 1 1 1.12 1.037 1.081 1.081 0 0 1 -1.12-1.037" transform="translate(-186.583 -938.649)"/><path d="m159.241 1708.578a.884.884 0 1 1 .881.816.85.85 0 0 1 -.881-.816" transform="translate(-143.182 -938.915)"/><path d="m79.621 1708.844a.644.644 0 1 1 .642.594.62.62 0 0 1 -.642-.594" transform="translate(-99.78 -939.18)"/><path d="m3264.45 1557.507c0-5.216 4.568-9.444 10.2-9.444s10.2 4.228 10.2 9.444-4.567 9.444-10.2 9.444-10.2-4.228-10.2-9.444" transform="translate(-1835.854 -851.861)"/><path d="m3184.829 1557.771c0-5.094 4.46-9.223 9.963-9.223s9.963 4.129 9.963 9.223-4.46 9.223-9.963 9.223-9.963-4.129-9.963-9.223" transform="translate(-1792.452 -852.126)"/><path d="m3105.208 1558.036c0-4.971 4.354-9 9.724-9s9.724 4.031 9.724 9-4.353 9-9.724 9-9.724-4.03-9.724-9" transform="translate(-1749.05 -852.391)"/><path d="m3025.587 1558.3c0-4.849 4.246-8.78 9.485-8.78s9.485 3.931 9.485 8.78-4.247 8.78-9.485 8.78-9.485-3.931-9.485-8.78" transform="translate(-1705.648 -852.656)"/><path d="m2945.967 1558.567c0-4.727 4.139-8.559 9.246-8.559s9.246 3.832 9.246 8.559-4.139 8.559-9.246 8.559-9.246-3.832-9.246-8.559" transform="translate(-1662.247 -852.921)"/><path d="m2866.346 1558.832c0-4.6 4.033-8.337 9.008-8.337s9.007 3.732 9.007 8.337-4.033 8.338-9.007 8.338-9.008-3.733-9.008-8.338" transform="translate(-1618.844 -853.187)"/><path d="m2786.725 1559.1c0-4.483 3.926-8.116 8.768-8.116s8.768 3.634 8.768 8.116-3.926 8.116-8.768 8.116-8.768-3.634-8.768-8.116" transform="translate(-1575.442 -853.452)"/><path d="m2707.1 1559.362c0-4.36 3.819-7.9 8.529-7.9s8.529 3.535 8.529 7.9-3.819 7.9-8.529 7.9-8.529-3.535-8.529-7.9" transform="translate(-1532.041 -853.717)"/><path d="m2627.484 1559.628c0-4.238 3.711-7.674 8.29-7.674s8.29 3.435 8.29 7.674-3.712 7.674-8.29 7.674-8.29-3.436-8.29-7.674" transform="translate(-1488.639 -853.982)"/><path d="m2547.863 1559.892c0-4.116 3.6-7.453 8.051-7.453s8.051 3.337 8.051 7.453-3.6 7.453-8.051 7.453-8.051-3.337-8.051-7.453" transform="translate(-1445.237 -854.247)"/><path d="m2468.242 1560.157c0-3.994 3.5-7.232 7.813-7.232s7.812 3.238 7.812 7.232-3.5 7.231-7.812 7.231-7.812-3.238-7.812-7.231" transform="translate(-1401.835 -854.512)"/><path d="m2388.622 1560.423a7.6 7.6 0 1 1 7.573 7.01 7.308 7.308 0 0 1 -7.573-7.01" transform="translate(-1358.433 -854.777)"/><path d="m2309 1560.688a7.356 7.356 0 1 1 7.334 6.789 7.078 7.078 0 0 1 -7.334-6.789" transform="translate(-1315.031 -855.042)"/><path d="m2229.38 1560.953a7.117 7.117 0 1 1 7.095 6.568 6.847 6.847 0 0 1 -7.095-6.568" transform="translate(-1271.629 -855.307)"/><path d="m2149.76 1561.218a6.877 6.877 0 1 1 6.856 6.347 6.616 6.616 0 0 1 -6.856-6.347" transform="translate(-1228.228 -855.573)"/><path d="m2070.139 1561.483a6.637 6.637 0 1 1 6.617 6.125 6.385 6.385 0 0 1 -6.617-6.125" transform="translate(-1184.826 -855.838)"/><path d="m1990.518 1561.748a6.4 6.4 0 1 1 6.378 5.9 6.155 6.155 0 0 1 -6.378-5.9" transform="translate(-1141.424 -856.103)"/><path d="m1910.9 1562.014a6.157 6.157 0 1 1 6.139 5.683 5.924 5.924 0 0 1 -6.139-5.683" transform="translate(-1098.022 -856.368)"/><path d="m1831.277 1562.278a5.918 5.918 0 1 1 5.9 5.461 5.693 5.693 0 0 1 -5.9-5.461" transform="translate(-1054.62 -856.633)"/><path d="m1751.656 1562.543a5.678 5.678 0 1 1 5.661 5.24 5.463 5.463 0 0 1 -5.661-5.24" transform="translate(-1011.219 -856.898)"/><path d="m1672.035 1562.809a5.438 5.438 0 1 1 5.422 5.019 5.232 5.232 0 0 1 -5.422-5.019" transform="translate(-967.816 -857.163)"/><path d="m1592.414 1563.074a5.2 5.2 0 1 1 5.183 4.8 5 5 0 0 1 -5.183-4.8" transform="translate(-924.415 -857.428)"/><path d="m1512.794 1563.339a4.959 4.959 0 1 1 4.944 4.577 4.771 4.771 0 0 1 -4.944-4.577" transform="translate(-881.013 -857.693)"/><path d="m1433.173 1563.6a4.719 4.719 0 1 1 4.705 4.355 4.54 4.54 0 0 1 -4.705-4.355" transform="translate(-837.611 -857.958)"/><path d="m1353.552 1563.869a4.479 4.479 0 1 1 4.466 4.134 4.31 4.31 0 0 1 -4.466-4.134" transform="translate(-794.209 -858.224)"/><path d="m1273.932 1564.134a4.239 4.239 0 1 1 4.227 3.913 4.079 4.079 0 0 1 -4.227-3.913" transform="translate(-750.808 -858.488)"/><path d="m1194.311 1564.4a4 4 0 1 1 3.988 3.691 3.848 3.848 0 0 1 -3.988-3.691" transform="translate(-707.406 -858.754)"/><path d="m1114.69 1564.664a3.76 3.76 0 1 1 3.749 3.47 3.618 3.618 0 0 1 -3.749-3.47" transform="translate(-664.004 -859.019)"/><path d="m1035.069 1564.929a3.521 3.521 0 1 1 3.51 3.249 3.387 3.387 0 0 1 -3.51-3.249" transform="translate(-620.602 -859.284)"/><path d="m955.449 1565.195a3.281 3.281 0 1 1 3.271 3.028 3.157 3.157 0 0 1 -3.271-3.028" transform="translate(-577.2 -859.549)"/><path d="m875.828 1565.46a3.041 3.041 0 1 1 3.032 2.807 2.926 2.926 0 0 1 -3.032-2.807" transform="translate(-533.798 -859.814)"/><path d="m796.207 1565.724a2.8 2.8 0 1 1 2.793 2.586 2.7 2.7 0 0 1 -2.793-2.586" transform="translate(-490.396 -860.079)"/><path d="m716.586 1565.99a2.562 2.562 0 1 1 2.554 2.365 2.465 2.465 0 0 1 -2.554-2.365" transform="translate(-446.994 -860.344)"/><path d="m636.966 1566.255a2.322 2.322 0 1 1 2.315 2.143 2.234 2.234 0 0 1 -2.315-2.143" transform="translate(-403.593 -860.609)"/><path d="m557.345 1566.52a2.082 2.082 0 1 1 2.076 1.922 2 2 0 0 1 -2.076-1.922" transform="translate(-360.191 -860.875)"/><path d="m477.724 1566.785a1.843 1.843 0 1 1 1.837 1.7 1.773 1.773 0 0 1 -1.837-1.7" transform="translate(-316.789 -861.14)"/><path d="m398.1 1567.05a1.6 1.6 0 1 1 1.6 1.479 1.542 1.542 0 0 1 -1.6-1.479" transform="translate(-273.387 -861.405)"/><path d="m318.483 1567.315a1.363 1.363 0 1 1 1.359 1.258 1.312 1.312 0 0 1 -1.359-1.258" transform="translate(-229.985 -861.67)"/><path d="m238.862 1567.58a1.123 1.123 0 1 1 1.12 1.037 1.081 1.081 0 0 1 -1.12-1.037" transform="translate(-186.583 -861.935)"/><path d="m159.241 1567.846a.884.884 0 1 1 .881.816.85.85 0 0 1 -.881-.816" transform="translate(-143.182 -862.2)"/><path d="m79.621 1568.11a.644.644 0 1 1 .642.595.62.62 0 0 1 -.642-.595" transform="translate(-99.78 -862.465)"/><path d="m3264.45 1416.774c0-5.216 4.568-9.444 10.2-9.444s10.2 4.228 10.2 9.444-4.567 9.443-10.2 9.443-10.2-4.228-10.2-9.443" transform="translate(-1835.854 -775.146)"/><path d="m3184.829 1417.038c0-5.094 4.46-9.222 9.963-9.222s9.963 4.129 9.963 9.222-4.46 9.223-9.963 9.223-9.963-4.129-9.963-9.223" transform="translate(-1792.452 -775.412)"/><path d="m3105.208 1417.3c0-4.971 4.354-9 9.724-9s9.724 4.03 9.724 9-4.353 9-9.724 9-9.724-4.031-9.724-9" transform="translate(-1749.05 -775.676)"/><path d="m3025.587 1417.569c0-4.849 4.246-8.78 9.485-8.78s9.485 3.931 9.485 8.78-4.247 8.78-9.485 8.78-9.485-3.931-9.485-8.78" transform="translate(-1705.648 -775.941)"/><path d="m2945.967 1417.834c0-4.727 4.139-8.559 9.246-8.559s9.246 3.832 9.246 8.559-4.139 8.559-9.246 8.559-9.246-3.832-9.246-8.559" transform="translate(-1662.247 -776.207)"/><path d="m2866.346 1418.1c0-4.6 4.033-8.338 9.008-8.338s9.007 3.733 9.007 8.338-4.033 8.338-9.007 8.338-9.008-3.733-9.008-8.338" transform="translate(-1618.844 -776.472)"/><path d="m2786.725 1418.364c0-4.483 3.926-8.116 8.768-8.116s8.768 3.634 8.768 8.116-3.926 8.116-8.768 8.116-8.768-3.634-8.768-8.116" transform="translate(-1575.442 -776.737)"/><path d="m2707.1 1418.629c0-4.36 3.819-7.9 8.529-7.9s8.529 3.535 8.529 7.9-3.819 7.9-8.529 7.9-8.529-3.535-8.529-7.9" transform="translate(-1532.041 -777.002)"/><path d="m2627.484 1418.894c0-4.238 3.711-7.674 8.29-7.674s8.29 3.436 8.29 7.674-3.712 7.674-8.29 7.674-8.29-3.436-8.29-7.674" transform="translate(-1488.639 -777.267)"/><path d="m2547.863 1419.159c0-4.116 3.6-7.452 8.051-7.452s8.051 3.337 8.051 7.452-3.6 7.453-8.051 7.453-8.051-3.337-8.051-7.453" transform="translate(-1445.237 -777.532)"/><path d="m2468.242 1419.424c0-3.994 3.5-7.232 7.813-7.232s7.812 3.238 7.812 7.232-3.5 7.231-7.812 7.231-7.812-3.238-7.812-7.231" transform="translate(-1401.835 -777.797)"/><path d="m2388.622 1419.69a7.6 7.6 0 1 1 7.573 7.01 7.308 7.308 0 0 1 -7.573-7.01" transform="translate(-1358.433 -778.063)"/><path d="m2309 1419.955a7.356 7.356 0 1 1 7.334 6.789 7.078 7.078 0 0 1 -7.334-6.789" transform="translate(-1315.031 -778.328)"/><path d="m2229.38 1420.22a7.117 7.117 0 1 1 7.095 6.568 6.847 6.847 0 0 1 -7.095-6.568" transform="translate(-1271.629 -778.593)"/><path d="m2149.76 1420.485a6.877 6.877 0 1 1 6.856 6.346 6.616 6.616 0 0 1 -6.856-6.346" transform="translate(-1228.228 -778.858)"/><path d="m2070.139 1420.75a6.637 6.637 0 1 1 6.617 6.125 6.385 6.385 0 0 1 -6.617-6.125" transform="translate(-1184.826 -779.123)"/><path d="m1990.518 1421.015a6.4 6.4 0 1 1 6.378 5.9 6.155 6.155 0 0 1 -6.378-5.9" transform="translate(-1141.424 -779.388)"/><path d="m1910.9 1421.28a6.157 6.157 0 1 1 6.139 5.683 5.924 5.924 0 0 1 -6.139-5.683" transform="translate(-1098.022 -779.653)"/><path d="m1831.277 1421.545a5.918 5.918 0 1 1 5.9 5.462 5.693 5.693 0 0 1 -5.9-5.462" transform="translate(-1054.62 -779.918)"/><path d="m1751.656 1421.81a5.678 5.678 0 1 1 5.661 5.24 5.463 5.463 0 0 1 -5.661-5.24" transform="translate(-1011.219 -780.183)"/><path d="m1672.035 1422.076a5.438 5.438 0 1 1 5.422 5.019 5.232 5.232 0 0 1 -5.422-5.019" transform="translate(-967.816 -780.449)"/><path d="m1592.414 1422.341a5.2 5.2 0 1 1 5.183 4.8 5 5 0 0 1 -5.183-4.8" transform="translate(-924.415 -780.714)"/><path d="m1512.794 1422.606a4.959 4.959 0 1 1 4.944 4.577 4.771 4.771 0 0 1 -4.944-4.577" transform="translate(-881.013 -780.979)"/><path d="m1433.173 1422.871a4.719 4.719 0 1 1 4.705 4.355 4.54 4.54 0 0 1 -4.705-4.355" transform="translate(-837.611 -781.244)"/><path d="m1353.552 1423.136a4.479 4.479 0 1 1 4.466 4.134 4.31 4.31 0 0 1 -4.466-4.134" transform="translate(-794.209 -781.509)"/><path d="m1273.932 1423.4a4.239 4.239 0 1 1 4.227 3.913 4.079 4.079 0 0 1 -4.227-3.913" transform="translate(-750.808 -781.774)"/><path d="m1194.311 1423.666a4 4 0 1 1 3.988 3.691 3.848 3.848 0 0 1 -3.988-3.691" transform="translate(-707.406 -782.04)"/><path d="m1114.69 1423.931a3.76 3.76 0 1 1 3.749 3.47 3.618 3.618 0 0 1 -3.749-3.47" transform="translate(-664.004 -782.304)"/><path d="m1035.069 1424.2a3.521 3.521 0 1 1 3.51 3.249 3.387 3.387 0 0 1 -3.51-3.249" transform="translate(-620.602 -782.569)"/><path d="m955.449 1424.462a3.281 3.281 0 1 1 3.271 3.028 3.157 3.157 0 0 1 -3.271-3.028" transform="translate(-577.2 -782.834)"/><path d="m875.828 1424.727a3.041 3.041 0 1 1 3.032 2.807 2.926 2.926 0 0 1 -3.032-2.807" transform="translate(-533.798 -783.1)"/><path d="m796.207 1424.992a2.8 2.8 0 1 1 2.793 2.586 2.7 2.7 0 0 1 -2.793-2.586" transform="translate(-490.396 -783.365)"/><path d="m716.586 1425.256a2.562 2.562 0 1 1 2.554 2.365 2.465 2.465 0 0 1 -2.554-2.365" transform="translate(-446.994 -783.629)"/><path d="m636.966 1425.522a2.322 2.322 0 1 1 2.315 2.143 2.234 2.234 0 0 1 -2.315-2.143" transform="translate(-403.593 -783.895)"/><path d="m557.345 1425.787a2.082 2.082 0 1 1 2.076 1.922 2 2 0 0 1 -2.076-1.922" transform="translate(-360.191 -784.16)"/><path d="m477.724 1426.052a1.843 1.843 0 1 1 1.837 1.7 1.773 1.773 0 0 1 -1.837-1.7" transform="translate(-316.789 -784.425)"/><path d="m398.1 1426.317a1.6 1.6 0 1 1 1.6 1.479 1.542 1.542 0 0 1 -1.6-1.479" transform="translate(-273.387 -784.69)"/><path d="m318.483 1426.582a1.363 1.363 0 1 1 1.359 1.258 1.312 1.312 0 0 1 -1.359-1.258" transform="translate(-229.985 -784.955)"/><path d="m238.862 1426.847a1.123 1.123 0 1 1 1.12 1.037 1.081 1.081 0 0 1 -1.12-1.037" transform="translate(-186.583 -785.22)"/><path d="m159.241 1427.113a.884.884 0 1 1 .881.816.85.85 0 0 1 -.881-.816" transform="translate(-143.182 -785.485)"/><path d="m79.621 1427.378a.644.644 0 1 1 .642.595.62.62 0 0 1 -.642-.595" transform="translate(-99.78 -785.75)"/><path d="m3264.45 1276.041c0-5.216 4.568-9.444 10.2-9.444s10.2 4.228 10.2 9.444-4.567 9.443-10.2 9.443-10.2-4.228-10.2-9.443" transform="translate(-1835.854 -698.432)"/><path d="m3184.829 1276.306c0-5.094 4.46-9.223 9.963-9.223s9.963 4.129 9.963 9.223-4.46 9.222-9.963 9.222-9.963-4.129-9.963-9.222" transform="translate(-1792.452 -698.697)"/><path d="m3105.208 1276.57c0-4.971 4.354-9 9.724-9s9.724 4.03 9.724 9-4.353 9-9.724 9-9.724-4.03-9.724-9" transform="translate(-1749.05 -698.961)"/><path d="m3025.587 1276.836c0-4.849 4.246-8.78 9.485-8.78s9.485 3.931 9.485 8.78-4.247 8.78-9.485 8.78-9.485-3.931-9.485-8.78" transform="translate(-1705.648 -699.227)"/><path d="m2945.967 1277.1c0-4.727 4.139-8.559 9.246-8.559s9.246 3.832 9.246 8.559-4.139 8.559-9.246 8.559-9.246-3.832-9.246-8.559" transform="translate(-1662.247 -699.492)"/><path d="m2866.346 1277.366c0-4.6 4.033-8.338 9.008-8.338s9.007 3.733 9.007 8.338-4.033 8.338-9.007 8.338-9.008-3.733-9.008-8.338" transform="translate(-1618.844 -699.757)"/><path d="m2786.725 1277.631c0-4.482 3.926-8.116 8.768-8.116s8.768 3.634 8.768 8.116-3.926 8.116-8.768 8.116-8.768-3.634-8.768-8.116" transform="translate(-1575.442 -700.022)"/><path d="m2707.1 1277.9c0-4.36 3.819-7.9 8.529-7.9s8.529 3.535 8.529 7.9-3.819 7.9-8.529 7.9-8.529-3.535-8.529-7.9" transform="translate(-1532.041 -700.288)"/><path d="m2627.484 1278.161c0-4.238 3.711-7.674 8.29-7.674s8.29 3.436 8.29 7.674-3.712 7.673-8.29 7.673-8.29-3.435-8.29-7.673" transform="translate(-1488.639 -700.552)"/><path d="m2547.863 1278.427c0-4.116 3.6-7.453 8.051-7.453s8.051 3.337 8.051 7.453-3.6 7.453-8.051 7.453-8.051-3.337-8.051-7.453" transform="translate(-1445.237 -700.818)"/><path d="m2468.242 1278.691c0-3.994 3.5-7.231 7.813-7.231s7.812 3.237 7.812 7.231-3.5 7.231-7.812 7.231-7.812-3.238-7.812-7.231" transform="translate(-1401.835 -701.083)"/><path d="m2388.622 1278.956a7.6 7.6 0 1 1 7.573 7.01 7.308 7.308 0 0 1 -7.573-7.01" transform="translate(-1358.433 -701.348)"/><path d="m2309 1279.222a7.356 7.356 0 1 1 7.334 6.789 7.078 7.078 0 0 1 -7.334-6.789" transform="translate(-1315.031 -701.613)"/><path d="m2229.38 1279.487a7.117 7.117 0 1 1 7.095 6.568 6.847 6.847 0 0 1 -7.095-6.568" transform="translate(-1271.629 -701.878)"/><path d="m2149.76 1279.752a6.877 6.877 0 1 1 6.856 6.346 6.616 6.616 0 0 1 -6.856-6.346" transform="translate(-1228.228 -702.143)"/><path d="m2070.139 1280.017a6.637 6.637 0 1 1 6.617 6.125 6.385 6.385 0 0 1 -6.617-6.125" transform="translate(-1184.826 -702.408)"/><path d="m1990.518 1280.282a6.4 6.4 0 1 1 6.378 5.9 6.155 6.155 0 0 1 -6.378-5.9" transform="translate(-1141.424 -702.673)"/><path d="m1910.9 1280.548a6.158 6.158 0 1 1 6.139 5.682 5.924 5.924 0 0 1 -6.139-5.682" transform="translate(-1098.022 -702.939)"/><path d="m1831.277 1280.812a5.918 5.918 0 1 1 5.9 5.462 5.693 5.693 0 0 1 -5.9-5.462" transform="translate(-1054.62 -703.204)"/><path d="m1751.656 1281.077a5.678 5.678 0 1 1 5.661 5.24 5.463 5.463 0 0 1 -5.661-5.24" transform="translate(-1011.219 -703.469)"/><path d="m1672.035 1281.343a5.438 5.438 0 1 1 5.422 5.019 5.232 5.232 0 0 1 -5.422-5.019" transform="translate(-967.816 -703.734)"/><path d="m1592.414 1281.608a5.2 5.2 0 1 1 5.183 4.8 5 5 0 0 1 -5.183-4.8" transform="translate(-924.415 -703.999)"/><path d="m1512.794 1281.873a4.959 4.959 0 1 1 4.944 4.577 4.771 4.771 0 0 1 -4.944-4.577" transform="translate(-881.013 -704.264)"/><path d="m1433.173 1282.138a4.719 4.719 0 1 1 4.705 4.355 4.54 4.54 0 0 1 -4.705-4.355" transform="translate(-837.611 -704.529)"/><path d="m1353.552 1282.4a4.479 4.479 0 1 1 4.466 4.134 4.31 4.31 0 0 1 -4.466-4.134" transform="translate(-794.209 -704.794)"/><path d="m1273.932 1282.668a4.239 4.239 0 1 1 4.227 3.913 4.079 4.079 0 0 1 -4.227-3.913" transform="translate(-750.808 -705.06)"/><path d="m1194.311 1282.933a4 4 0 1 1 3.988 3.692 3.848 3.848 0 0 1 -3.988-3.692" transform="translate(-707.406 -705.325)"/><path d="m1114.69 1283.2a3.76 3.76 0 1 1 3.749 3.47 3.618 3.618 0 0 1 -3.749-3.47" transform="translate(-664.004 -705.59)"/><path d="m1035.069 1283.463a3.521 3.521 0 1 1 3.51 3.249 3.387 3.387 0 0 1 -3.51-3.249" transform="translate(-620.602 -705.854)"/><path d="m955.449 1283.729a3.281 3.281 0 1 1 3.271 3.028 3.157 3.157 0 0 1 -3.271-3.028" transform="translate(-577.2 -706.12)"/><path d="m875.828 1283.994a3.041 3.041 0 1 1 3.032 2.807 2.926 2.926 0 0 1 -3.032-2.807" transform="translate(-533.798 -706.385)"/><path d="m796.207 1284.259a2.8 2.8 0 1 1 2.793 2.586 2.7 2.7 0 0 1 -2.793-2.586" transform="translate(-490.396 -706.65)"/><path d="m716.586 1284.524a2.562 2.562 0 1 1 2.554 2.364 2.465 2.465 0 0 1 -2.554-2.364" transform="translate(-446.994 -706.915)"/><path d="m636.966 1284.789a2.322 2.322 0 1 1 2.315 2.143 2.234 2.234 0 0 1 -2.315-2.143" transform="translate(-403.593 -707.18)"/><path d="m557.345 1285.054a2.082 2.082 0 1 1 2.076 1.922 2 2 0 0 1 -2.076-1.922" transform="translate(-360.191 -707.445)"/><path d="m477.724 1285.319a1.843 1.843 0 1 1 1.837 1.7 1.773 1.773 0 0 1 -1.837-1.7" transform="translate(-316.789 -707.71)"/><path d="m398.1 1285.584a1.6 1.6 0 1 1 1.6 1.479 1.542 1.542 0 0 1 -1.6-1.479" transform="translate(-273.387 -707.976)"/><path d="m318.483 1285.849a1.363 1.363 0 1 1 1.359 1.258 1.312 1.312 0 0 1 -1.359-1.258" transform="translate(-229.985 -708.24)"/><path d="m238.862 1286.114a1.123 1.123 0 1 1 1.12 1.037 1.081 1.081 0 0 1 -1.12-1.037" transform="translate(-186.583 -708.505)"/><path d="m159.241 1286.38a.884.884 0 1 1 .881.816.85.85 0 0 1 -.881-.816" transform="translate(-143.182 -708.771)"/><path d="m79.621 1286.645a.644.644 0 1 1 .642.594.62.62 0 0 1 -.642-.594" transform="translate(-99.78 -709.036)"/><path d="m3264.45 1135.307c0-5.216 4.568-9.443 10.2-9.443s10.2 4.228 10.2 9.443-4.567 9.444-10.2 9.444-10.2-4.228-10.2-9.444" transform="translate(-1835.854 -621.717)"/><path d="m3184.829 1135.573c0-5.093 4.46-9.223 9.963-9.223s9.963 4.129 9.963 9.223-4.46 9.222-9.963 9.222-9.963-4.129-9.963-9.222" transform="translate(-1792.452 -621.982)"/><path d="m3105.208 1135.837c0-4.971 4.354-9 9.724-9s9.724 4.03 9.724 9-4.353 9-9.724 9-9.724-4.03-9.724-9" transform="translate(-1749.05 -622.247)"/><path d="m3025.587 1136.1c0-4.849 4.246-8.78 9.485-8.78s9.485 3.931 9.485 8.78-4.247 8.78-9.485 8.78-9.485-3.931-9.485-8.78" transform="translate(-1705.648 -622.513)"/><path d="m2945.967 1136.368c0-4.727 4.139-8.559 9.246-8.559s9.246 3.832 9.246 8.559-4.139 8.559-9.246 8.559-9.246-3.832-9.246-8.559" transform="translate(-1662.247 -622.777)"/><path d="m2866.346 1136.633c0-4.6 4.033-8.338 9.008-8.338s9.007 3.733 9.007 8.338-4.033 8.337-9.007 8.337-9.008-3.732-9.008-8.337" transform="translate(-1618.844 -623.042)"/><path d="m2786.725 1136.9c0-4.482 3.926-8.116 8.768-8.116s8.768 3.634 8.768 8.116-3.926 8.116-8.768 8.116-8.768-3.634-8.768-8.116" transform="translate(-1575.442 -623.308)"/><path d="m2707.1 1137.163c0-4.36 3.819-7.9 8.529-7.9s8.529 3.535 8.529 7.9-3.819 7.9-8.529 7.9-8.529-3.535-8.529-7.9" transform="translate(-1532.041 -623.573)"/><path d="m2627.484 1137.428c0-4.238 3.711-7.674 8.29-7.674s8.29 3.436 8.29 7.674-3.712 7.674-8.29 7.674-8.29-3.435-8.29-7.674" transform="translate(-1488.639 -623.838)"/><path d="m2547.863 1137.693c0-4.116 3.6-7.453 8.051-7.453s8.051 3.337 8.051 7.453-3.6 7.453-8.051 7.453-8.051-3.337-8.051-7.453" transform="translate(-1445.237 -624.103)"/><path d="m2468.242 1137.958c0-3.994 3.5-7.231 7.813-7.231s7.812 3.237 7.812 7.231-3.5 7.231-7.812 7.231-7.812-3.237-7.812-7.231" transform="translate(-1401.835 -624.368)"/><path d="m2388.622 1138.223a7.6 7.6 0 1 1 7.573 7.01 7.308 7.308 0 0 1 -7.573-7.01" transform="translate(-1358.433 -624.633)"/><path d="m2309 1138.489a7.356 7.356 0 1 1 7.334 6.789 7.078 7.078 0 0 1 -7.334-6.789" transform="translate(-1315.031 -624.898)"/><path d="m2229.38 1138.754a7.117 7.117 0 1 1 7.095 6.568 6.847 6.847 0 0 1 -7.095-6.568" transform="translate(-1271.629 -625.164)"/><path d="m2149.76 1139.019a6.877 6.877 0 1 1 6.856 6.346 6.616 6.616 0 0 1 -6.856-6.346" transform="translate(-1228.228 -625.428)"/><path d="m2070.139 1139.284a6.637 6.637 0 1 1 6.617 6.125 6.385 6.385 0 0 1 -6.617-6.125" transform="translate(-1184.826 -625.694)"/><path d="m1990.518 1139.549a6.4 6.4 0 1 1 6.378 5.9 6.155 6.155 0 0 1 -6.378-5.9" transform="translate(-1141.424 -625.959)"/><path d="m1910.9 1139.814a6.157 6.157 0 1 1 6.139 5.683 5.924 5.924 0 0 1 -6.139-5.683" transform="translate(-1098.022 -626.224)"/><path d="m1831.277 1140.079a5.918 5.918 0 1 1 5.9 5.461 5.693 5.693 0 0 1 -5.9-5.461" transform="translate(-1054.62 -626.489)"/><path d="m1751.656 1140.344a5.678 5.678 0 1 1 5.661 5.24 5.463 5.463 0 0 1 -5.661-5.24" transform="translate(-1011.219 -626.754)"/><path d="m1672.035 1140.609a5.438 5.438 0 1 1 5.422 5.019 5.233 5.233 0 0 1 -5.422-5.019" transform="translate(-967.816 -627.019)"/><path d="m1592.414 1140.875a5.2 5.2 0 1 1 5.183 4.8 5 5 0 0 1 -5.183-4.8" transform="translate(-924.415 -627.285)"/><path d="m1512.794 1141.14a4.959 4.959 0 1 1 4.944 4.577 4.771 4.771 0 0 1 -4.944-4.577" transform="translate(-881.013 -627.549)"/><path d="m1433.173 1141.405a4.719 4.719 0 1 1 4.705 4.355 4.54 4.54 0 0 1 -4.705-4.355" transform="translate(-837.611 -627.815)"/><path d="m1353.552 1141.67a4.479 4.479 0 1 1 4.466 4.134 4.31 4.31 0 0 1 -4.466-4.134" transform="translate(-794.209 -628.08)"/><path d="m1273.932 1141.935a4.239 4.239 0 1 1 4.227 3.913 4.079 4.079 0 0 1 -4.227-3.913" transform="translate(-750.808 -628.345)"/><path d="m1194.311 1142.2a4 4 0 1 1 3.988 3.691 3.848 3.848 0 0 1 -3.988-3.691" transform="translate(-707.406 -628.61)"/><path d="m1114.69 1142.465a3.76 3.76 0 1 1 3.749 3.47 3.618 3.618 0 0 1 -3.749-3.47" transform="translate(-664.004 -628.875)"/><path d="m1035.069 1142.73a3.521 3.521 0 1 1 3.51 3.249 3.387 3.387 0 0 1 -3.51-3.249" transform="translate(-620.602 -629.14)"/><path d="m955.449 1143a3.281 3.281 0 1 1 3.271 3.028 3.157 3.157 0 0 1 -3.271-3.028" transform="translate(-577.2 -629.405)"/><path d="m875.828 1143.261a3.041 3.041 0 1 1 3.032 2.807 2.926 2.926 0 0 1 -3.032-2.807" transform="translate(-533.798 -629.67)"/><path d="m796.207 1143.526a2.8 2.8 0 1 1 2.793 2.586 2.7 2.7 0 0 1 -2.793-2.586" transform="translate(-490.396 -629.936)"/><path d="m716.586 1143.79a2.562 2.562 0 1 1 2.554 2.365 2.465 2.465 0 0 1 -2.554-2.365" transform="translate(-446.994 -630.2)"/><path d="m636.966 1144.056a2.322 2.322 0 1 1 2.315 2.143 2.234 2.234 0 0 1 -2.315-2.143" transform="translate(-403.593 -630.466)"/><path d="m557.345 1144.321a2.082 2.082 0 1 1 2.076 1.922 2 2 0 0 1 -2.076-1.922" transform="translate(-360.191 -630.73)"/><path d="m477.724 1144.586a1.843 1.843 0 1 1 1.837 1.7 1.773 1.773 0 0 1 -1.837-1.7" transform="translate(-316.789 -630.996)"/><path d="m398.1 1144.851a1.6 1.6 0 1 1 1.6 1.479 1.542 1.542 0 0 1 -1.6-1.479" transform="translate(-273.387 -631.261)"/><path d="m318.483 1145.116a1.363 1.363 0 1 1 1.359 1.258 1.311 1.311 0 0 1 -1.359-1.258" transform="translate(-229.985 -631.526)"/><path d="m238.862 1145.381a1.123 1.123 0 1 1 1.12 1.037 1.081 1.081 0 0 1 -1.12-1.037" transform="translate(-186.583 -631.791)"/><path d="m159.241 1145.646a.884.884 0 1 1 .881.816.85.85 0 0 1 -.881-.816" transform="translate(-143.182 -632.056)"/><path d="m79.621 1145.911a.644.644 0 1 1 .642.595.62.62 0 0 1 -.642-.595" transform="translate(-99.78 -632.321)"/><path d="m3264.45 994.575c0-5.216 4.568-9.444 10.2-9.444s10.2 4.228 10.2 9.444-4.567 9.444-10.2 9.444-10.2-4.228-10.2-9.444" transform="translate(-1835.854 -545.003)"/><path d="m3184.829 994.839c0-5.093 4.46-9.222 9.963-9.222s9.963 4.129 9.963 9.222-4.46 9.223-9.963 9.223-9.963-4.129-9.963-9.223" transform="translate(-1792.452 -545.268)"/><path d="m3105.208 995.1c0-4.971 4.354-9 9.724-9s9.724 4.03 9.724 9-4.353 9-9.724 9-9.724-4.03-9.724-9" transform="translate(-1749.05 -545.533)"/><path d="m3025.587 995.37c0-4.849 4.246-8.78 9.485-8.78s9.485 3.931 9.485 8.78-4.247 8.78-9.485 8.78-9.485-3.931-9.485-8.78" transform="translate(-1705.648 -545.798)"/><path d="m2945.967 995.635c0-4.727 4.139-8.559 9.246-8.559s9.246 3.832 9.246 8.559-4.139 8.559-9.246 8.559-9.246-3.832-9.246-8.559" transform="translate(-1662.247 -546.063)"/><path d="m2866.346 995.9c0-4.6 4.033-8.338 9.008-8.338s9.007 3.733 9.007 8.338-4.033 8.337-9.007 8.337-9.008-3.732-9.008-8.337" transform="translate(-1618.844 -546.328)"/><path d="m2786.725 996.165c0-4.483 3.926-8.116 8.768-8.116s8.768 3.634 8.768 8.116-3.926 8.116-8.768 8.116-8.768-3.634-8.768-8.116" transform="translate(-1575.442 -546.593)"/><path d="m2707.1 996.43c0-4.36 3.819-7.9 8.529-7.9s8.529 3.535 8.529 7.9-3.819 7.9-8.529 7.9-8.529-3.535-8.529-7.9" transform="translate(-1532.041 -546.858)"/><path d="m2627.484 996.7c0-4.238 3.711-7.674 8.29-7.674s8.29 3.436 8.29 7.674-3.712 7.674-8.29 7.674-8.29-3.435-8.29-7.674" transform="translate(-1488.639 -547.123)"/><path d="m2547.863 996.96c0-4.116 3.6-7.453 8.051-7.453s8.051 3.337 8.051 7.453-3.6 7.453-8.051 7.453-8.051-3.337-8.051-7.453" transform="translate(-1445.237 -547.389)"/><path d="m2468.242 997.225c0-3.994 3.5-7.231 7.813-7.231s7.812 3.237 7.812 7.231-3.5 7.232-7.812 7.232-7.812-3.238-7.812-7.232" transform="translate(-1401.835 -547.653)"/><path d="m2388.622 997.49a7.6 7.6 0 1 1 7.573 7.01 7.308 7.308 0 0 1 -7.573-7.01" transform="translate(-1358.433 -547.918)"/><path d="m2309 997.756a7.356 7.356 0 1 1 7.334 6.789 7.078 7.078 0 0 1 -7.334-6.789" transform="translate(-1315.031 -548.184)"/><path d="m2229.38 998.021a7.117 7.117 0 1 1 7.095 6.568 6.847 6.847 0 0 1 -7.095-6.568" transform="translate(-1271.629 -548.449)"/><path d="m2149.76 998.286a6.877 6.877 0 1 1 6.856 6.346 6.616 6.616 0 0 1 -6.856-6.346" transform="translate(-1228.228 -548.714)"/><path d="m2070.139 998.551a6.637 6.637 0 1 1 6.617 6.125 6.385 6.385 0 0 1 -6.617-6.125" transform="translate(-1184.826 -548.979)"/><path d="m1990.518 998.816a6.4 6.4 0 1 1 6.378 5.9 6.155 6.155 0 0 1 -6.378-5.9" transform="translate(-1141.424 -549.244)"/><path d="m1910.9 999.081a6.157 6.157 0 1 1 6.139 5.683 5.924 5.924 0 0 1 -6.139-5.683" transform="translate(-1098.022 -549.509)"/><path d="m1831.277 999.346a5.918 5.918 0 1 1 5.9 5.461 5.693 5.693 0 0 1 -5.9-5.461" transform="translate(-1054.62 -549.774)"/><path d="m1751.656 999.611a5.678 5.678 0 1 1 5.661 5.24 5.463 5.463 0 0 1 -5.661-5.24" transform="translate(-1011.219 -550.04)"/><path d="m1672.035 999.876a5.438 5.438 0 1 1 5.422 5.019 5.232 5.232 0 0 1 -5.422-5.019" transform="translate(-967.816 -550.305)"/><path d="m1592.414 1000.142a5.2 5.2 0 1 1 5.183 4.8 5 5 0 0 1 -5.183-4.8" transform="translate(-924.415 -550.57)"/><path d="m1512.794 1000.407a4.959 4.959 0 1 1 4.944 4.577 4.771 4.771 0 0 1 -4.944-4.577" transform="translate(-881.013 -550.835)"/><path d="m1433.173 1000.672a4.719 4.719 0 1 1 4.705 4.355 4.541 4.541 0 0 1 -4.705-4.355" transform="translate(-837.611 -551.1)"/><path d="m1353.552 1000.937a4.479 4.479 0 1 1 4.466 4.134 4.31 4.31 0 0 1 -4.466-4.134" transform="translate(-794.209 -551.365)"/><path d="m1273.932 1001.2a4.239 4.239 0 1 1 4.227 3.913 4.079 4.079 0 0 1 -4.227-3.913" transform="translate(-750.808 -551.63)"/><path d="m1194.311 1001.467a4 4 0 1 1 3.988 3.691 3.849 3.849 0 0 1 -3.988-3.691" transform="translate(-707.406 -551.895)"/><path d="m1114.69 1001.732a3.76 3.76 0 1 1 3.749 3.47 3.618 3.618 0 0 1 -3.749-3.47" transform="translate(-664.004 -552.161)"/><path d="m1035.069 1002a3.521 3.521 0 1 1 3.51 3.249 3.387 3.387 0 0 1 -3.51-3.249" transform="translate(-620.602 -552.425)"/><path d="m955.449 1002.263a3.281 3.281 0 1 1 3.271 3.028 3.157 3.157 0 0 1 -3.271-3.028" transform="translate(-577.2 -552.691)"/><path d="m875.828 1002.528a3.041 3.041 0 1 1 3.032 2.807 2.926 2.926 0 0 1 -3.032-2.807" transform="translate(-533.798 -552.956)"/><path d="m796.207 1002.793a2.8 2.8 0 1 1 2.793 2.586 2.7 2.7 0 0 1 -2.793-2.586" transform="translate(-490.396 -553.221)"/><path d="m716.586 1003.057a2.562 2.562 0 1 1 2.554 2.365 2.465 2.465 0 0 1 -2.554-2.365" transform="translate(-446.994 -553.486)"/><path d="m636.966 1003.323a2.322 2.322 0 1 1 2.315 2.143 2.234 2.234 0 0 1 -2.315-2.143" transform="translate(-403.593 -553.751)"/><path d="m557.345 1003.588a2.082 2.082 0 1 1 2.076 1.922 2 2 0 0 1 -2.076-1.922" transform="translate(-360.191 -554.016)"/><path d="m477.724 1003.853a1.843 1.843 0 1 1 1.837 1.7 1.773 1.773 0 0 1 -1.837-1.7" transform="translate(-316.789 -554.281)"/><path d="m398.1 1004.118a1.6 1.6 0 1 1 1.6 1.479 1.542 1.542 0 0 1 -1.6-1.479" transform="translate(-273.387 -554.546)"/><path d="m318.483 1004.383a1.363 1.363 0 1 1 1.359 1.258 1.312 1.312 0 0 1 -1.359-1.258" transform="translate(-229.985 -554.812)"/><path d="m238.862 1004.648a1.123 1.123 0 1 1 1.12 1.037 1.081 1.081 0 0 1 -1.12-1.037" transform="translate(-186.583 -555.076)"/><path d="m159.241 1004.914a.884.884 0 1 1 .881.816.85.85 0 0 1 -.881-.816" transform="translate(-143.182 -555.342)"/><path d="m79.621 1005.179a.644.644 0 1 1 .642.594.62.62 0 0 1 -.642-.594" transform="translate(-99.78 -555.606)"/><path d="m3264.45 853.841c0-5.216 4.568-9.444 10.2-9.444s10.2 4.228 10.2 9.444-4.567 9.444-10.2 9.444-10.2-4.228-10.2-9.444" transform="translate(-1835.854 -468.288)"/><path d="m3184.829 854.107c0-5.094 4.46-9.222 9.963-9.222s9.963 4.129 9.963 9.222-4.46 9.222-9.963 9.222-9.963-4.129-9.963-9.222" transform="translate(-1792.452 -468.554)"/><path d="m3105.208 854.371c0-4.971 4.354-9 9.724-9s9.724 4.03 9.724 9-4.353 9-9.724 9-9.724-4.03-9.724-9" transform="translate(-1749.05 -468.818)"/><path d="m3025.587 854.637c0-4.849 4.246-8.78 9.485-8.78s9.485 3.931 9.485 8.78-4.247 8.78-9.485 8.78-9.485-3.931-9.485-8.78" transform="translate(-1705.648 -469.084)"/><path d="m2945.967 854.9c0-4.727 4.139-8.558 9.246-8.558s9.246 3.832 9.246 8.558-4.139 8.559-9.246 8.559-9.246-3.832-9.246-8.559" transform="translate(-1662.247 -469.349)"/><path d="m2866.346 855.167c0-4.6 4.033-8.338 9.008-8.338s9.007 3.733 9.007 8.338-4.033 8.337-9.007 8.337-9.008-3.732-9.008-8.337" transform="translate(-1618.844 -469.613)"/><path d="m2786.725 855.432c0-4.482 3.926-8.116 8.768-8.116s8.768 3.634 8.768 8.116-3.926 8.116-8.768 8.116-8.768-3.634-8.768-8.116" transform="translate(-1575.442 -469.879)"/><path d="m2707.1 855.7c0-4.36 3.819-7.9 8.529-7.9s8.529 3.535 8.529 7.9-3.819 7.895-8.529 7.895-8.529-3.535-8.529-7.895" transform="translate(-1532.041 -470.144)"/><path d="m2627.484 855.962c0-4.238 3.711-7.674 8.29-7.674s8.29 3.436 8.29 7.674-3.712 7.674-8.29 7.674-8.29-3.435-8.29-7.674" transform="translate(-1488.639 -470.409)"/><path d="m2547.863 856.228c0-4.116 3.6-7.453 8.051-7.453s8.051 3.337 8.051 7.453-3.6 7.453-8.051 7.453-8.051-3.337-8.051-7.453" transform="translate(-1445.237 -470.674)"/><path d="m2468.242 856.492c0-3.994 3.5-7.231 7.813-7.231s7.812 3.237 7.812 7.231-3.5 7.231-7.812 7.231-7.812-3.237-7.812-7.231" transform="translate(-1401.835 -470.939)"/><path d="m2388.622 856.758a7.6 7.6 0 1 1 7.573 7.01 7.308 7.308 0 0 1 -7.573-7.01" transform="translate(-1358.433 -471.204)"/><path d="m2309 857.023a7.356 7.356 0 1 1 7.334 6.789 7.078 7.078 0 0 1 -7.334-6.789" transform="translate(-1315.031 -471.469)"/><path d="m2229.38 857.288a7.117 7.117 0 1 1 7.095 6.568 6.847 6.847 0 0 1 -7.095-6.568" transform="translate(-1271.629 -471.734)"/><path d="m2149.76 857.553a6.877 6.877 0 1 1 6.856 6.346 6.616 6.616 0 0 1 -6.856-6.346" transform="translate(-1228.228 -472)"/><path d="m2070.139 857.818a6.637 6.637 0 1 1 6.617 6.126 6.385 6.385 0 0 1 -6.617-6.126" transform="translate(-1184.826 -472.265)"/><path d="m1990.518 858.083a6.4 6.4 0 1 1 6.378 5.9 6.155 6.155 0 0 1 -6.378-5.9" transform="translate(-1141.424 -472.529)"/><path d="m1910.9 858.349a6.158 6.158 0 1 1 6.139 5.682 5.924 5.924 0 0 1 -6.139-5.682" transform="translate(-1098.022 -472.795)"/><path d="m1831.277 858.613a5.918 5.918 0 1 1 5.9 5.462 5.693 5.693 0 0 1 -5.9-5.462" transform="translate(-1054.62 -473.06)"/><path d="m1751.656 858.878a5.678 5.678 0 1 1 5.661 5.24 5.463 5.463 0 0 1 -5.661-5.24" transform="translate(-1011.219 -473.325)"/><path d="m1672.035 859.144a5.438 5.438 0 1 1 5.422 5.019 5.232 5.232 0 0 1 -5.422-5.019" transform="translate(-967.816 -473.59)"/><path d="m1592.414 859.409a5.2 5.2 0 1 1 5.183 4.8 5 5 0 0 1 -5.183-4.8" transform="translate(-924.415 -473.855)"/><path d="m1512.794 859.674a4.959 4.959 0 1 1 4.944 4.577 4.771 4.771 0 0 1 -4.944-4.577" transform="translate(-881.013 -474.12)"/><path d="m1433.173 859.939a4.719 4.719 0 1 1 4.705 4.355 4.541 4.541 0 0 1 -4.705-4.355" transform="translate(-837.611 -474.385)"/><path d="m1353.552 860.2a4.479 4.479 0 1 1 4.466 4.134 4.309 4.309 0 0 1 -4.466-4.134" transform="translate(-794.209 -474.651)"/><path d="m1273.932 860.469a4.239 4.239 0 1 1 4.227 3.913 4.079 4.079 0 0 1 -4.227-3.913" transform="translate(-750.808 -474.916)"/><path d="m1194.311 860.734a4 4 0 1 1 3.988 3.691 3.849 3.849 0 0 1 -3.988-3.691" transform="translate(-707.406 -475.181)"/><path d="m1114.69 861a3.76 3.76 0 1 1 3.749 3.47 3.617 3.617 0 0 1 -3.749-3.47" transform="translate(-664.004 -475.446)"/><path d="m1035.069 861.264a3.521 3.521 0 1 1 3.51 3.25 3.387 3.387 0 0 1 -3.51-3.25" transform="translate(-620.602 -475.711)"/><path d="m955.449 861.529a3.281 3.281 0 1 1 3.271 3.028 3.157 3.157 0 0 1 -3.271-3.028" transform="translate(-577.2 -475.976)"/><path d="m875.828 861.8a3.041 3.041 0 1 1 3.032 2.807 2.926 2.926 0 0 1 -3.032-2.807" transform="translate(-533.798 -476.242)"/><path d="m796.207 862.06a2.8 2.8 0 1 1 2.793 2.586 2.7 2.7 0 0 1 -2.793-2.586" transform="translate(-490.396 -476.506)"/><path d="m716.586 862.324a2.562 2.562 0 1 1 2.554 2.365 2.465 2.465 0 0 1 -2.554-2.365" transform="translate(-446.994 -476.771)"/><path d="m636.966 862.591a2.322 2.322 0 1 1 2.315 2.143 2.234 2.234 0 0 1 -2.315-2.143" transform="translate(-403.593 -477.037)"/><path d="m557.345 862.855a2.082 2.082 0 1 1 2.076 1.922 2 2 0 0 1 -2.076-1.922" transform="translate(-360.191 -477.301)"/><path d="m477.724 863.12a1.843 1.843 0 1 1 1.837 1.7 1.773 1.773 0 0 1 -1.837-1.7" transform="translate(-316.789 -477.566)"/><path d="m398.1 863.385a1.6 1.6 0 1 1 1.6 1.479 1.542 1.542 0 0 1 -1.6-1.479" transform="translate(-273.387 -477.832)"/><path d="m318.483 863.65a1.363 1.363 0 1 1 1.359 1.259 1.312 1.312 0 0 1 -1.359-1.259" transform="translate(-229.985 -478.097)"/><path d="m238.862 863.915a1.123 1.123 0 1 1 1.12 1.037 1.081 1.081 0 0 1 -1.12-1.037" transform="translate(-186.583 -478.362)"/><path d="m159.241 864.181a.884.884 0 1 1 .881.816.85.85 0 0 1 -.881-.816" transform="translate(-143.182 -478.627)"/><path d="m79.621 864.446a.644.644 0 1 1 .642.595.62.62 0 0 1 -.642-.595" transform="translate(-99.78 -478.893)"/><path d="m3264.45 713.11c0-5.216 4.568-9.444 10.2-9.444s10.2 4.227 10.2 9.444-4.567 9.443-10.2 9.443-10.2-4.228-10.2-9.443" transform="translate(-1835.854 -391.574)"/><path d="m3184.829 713.375c0-5.094 4.46-9.223 9.963-9.223s9.963 4.129 9.963 9.223-4.46 9.222-9.963 9.222-9.963-4.129-9.963-9.222" transform="translate(-1792.452 -391.839)"/><path d="m3105.208 713.639c0-4.971 4.354-9 9.724-9s9.724 4.031 9.724 9-4.353 9-9.724 9-9.724-4.03-9.724-9" transform="translate(-1749.05 -392.104)"/><path d="m3025.587 713.9c0-4.849 4.246-8.78 9.485-8.78s9.485 3.931 9.485 8.78-4.247 8.78-9.485 8.78-9.485-3.931-9.485-8.78" transform="translate(-1705.648 -392.369)"/><path d="m2945.967 714.17c0-4.727 4.139-8.559 9.246-8.559s9.246 3.832 9.246 8.559-4.139 8.558-9.246 8.558-9.246-3.832-9.246-8.558" transform="translate(-1662.247 -392.634)"/><path d="m2866.346 714.434c0-4.605 4.033-8.338 9.008-8.338s9.007 3.733 9.007 8.338-4.033 8.337-9.007 8.337-9.008-3.732-9.008-8.337" transform="translate(-1618.844 -392.898)"/><path d="m2786.725 714.7c0-4.483 3.926-8.117 8.768-8.117s8.768 3.634 8.768 8.117-3.926 8.116-8.768 8.116-8.768-3.634-8.768-8.116" transform="translate(-1575.442 -393.164)"/><path d="m2707.1 714.965c0-4.36 3.819-7.9 8.529-7.9s8.529 3.535 8.529 7.9-3.819 7.895-8.529 7.895-8.529-3.535-8.529-7.895" transform="translate(-1532.041 -393.43)"/><path d="m2627.484 715.229c0-4.238 3.711-7.675 8.29-7.675s8.29 3.436 8.29 7.675-3.712 7.673-8.29 7.673-8.29-3.435-8.29-7.673" transform="translate(-1488.639 -393.694)"/><path d="m2547.863 715.495c0-4.116 3.6-7.453 8.051-7.453s8.051 3.337 8.051 7.453-3.6 7.453-8.051 7.453-8.051-3.337-8.051-7.453" transform="translate(-1445.237 -393.96)"/><path d="m2468.242 715.76c0-3.994 3.5-7.231 7.813-7.231s7.812 3.237 7.812 7.231-3.5 7.231-7.812 7.231-7.812-3.237-7.812-7.231" transform="translate(-1401.835 -394.225)"/><path d="m2388.622 716.025a7.6 7.6 0 1 1 7.573 7.009 7.308 7.308 0 0 1 -7.573-7.009" transform="translate(-1358.433 -394.49)"/><path d="m2309 716.29a7.356 7.356 0 1 1 7.334 6.789 7.078 7.078 0 0 1 -7.334-6.789" transform="translate(-1315.031 -394.755)"/><path d="m2229.38 716.556a7.117 7.117 0 1 1 7.095 6.568 6.846 6.846 0 0 1 -7.095-6.568" transform="translate(-1271.629 -395.02)"/><path d="m2149.76 716.821a6.877 6.877 0 1 1 6.856 6.346 6.616 6.616 0 0 1 -6.856-6.346" transform="translate(-1228.228 -395.285)"/><path d="m2070.139 717.086a6.637 6.637 0 1 1 6.617 6.125 6.386 6.386 0 0 1 -6.617-6.125" transform="translate(-1184.826 -395.55)"/><path d="m1990.518 717.351a6.4 6.4 0 1 1 6.378 5.9 6.155 6.155 0 0 1 -6.378-5.9" transform="translate(-1141.424 -395.815)"/><path d="m1910.9 717.616a6.158 6.158 0 1 1 6.139 5.682 5.924 5.924 0 0 1 -6.139-5.682" transform="translate(-1098.022 -396.081)"/><path d="m1831.277 717.881a5.918 5.918 0 1 1 5.9 5.461 5.694 5.694 0 0 1 -5.9-5.461" transform="translate(-1054.62 -396.345)"/><path d="m1751.656 718.146a5.678 5.678 0 1 1 5.661 5.24 5.463 5.463 0 0 1 -5.661-5.24" transform="translate(-1011.219 -396.611)"/><path d="m1672.035 718.411a5.438 5.438 0 1 1 5.422 5.018 5.232 5.232 0 0 1 -5.422-5.018" transform="translate(-967.816 -396.876)"/><path d="m1592.414 718.676a5.2 5.2 0 1 1 5.183 4.8 5 5 0 0 1 -5.183-4.8" transform="translate(-924.415 -397.141)"/><path d="m1512.794 718.942a4.959 4.959 0 1 1 4.944 4.577 4.771 4.771 0 0 1 -4.944-4.577" transform="translate(-881.013 -397.406)"/><path d="m1433.173 719.207a4.719 4.719 0 1 1 4.705 4.355 4.54 4.54 0 0 1 -4.705-4.355" transform="translate(-837.611 -397.671)"/><path d="m1353.552 719.472a4.479 4.479 0 1 1 4.466 4.134 4.309 4.309 0 0 1 -4.466-4.134" transform="translate(-794.209 -397.937)"/><path d="m1273.932 719.736a4.239 4.239 0 1 1 4.227 3.913 4.079 4.079 0 0 1 -4.227-3.913" transform="translate(-750.808 -398.201)"/><path d="m1194.311 720a4 4 0 1 1 3.988 3.691 3.849 3.849 0 0 1 -3.988-3.691" transform="translate(-707.406 -398.466)"/><path d="m1114.69 720.267a3.761 3.761 0 1 1 3.749 3.47 3.618 3.618 0 0 1 -3.749-3.47" transform="translate(-664.004 -398.732)"/><path d="m1035.069 720.532a3.521 3.521 0 1 1 3.51 3.249 3.387 3.387 0 0 1 -3.51-3.249" transform="translate(-620.602 -398.996)"/><path d="m955.449 720.8a3.281 3.281 0 1 1 3.271 3.028 3.157 3.157 0 0 1 -3.271-3.028" transform="translate(-577.2 -399.262)"/><path d="m875.828 721.063a3.041 3.041 0 1 1 3.032 2.806 2.926 2.926 0 0 1 -3.032-2.806" transform="translate(-533.798 -399.527)"/><path d="m796.207 721.327a2.8 2.8 0 1 1 2.793 2.586 2.7 2.7 0 0 1 -2.793-2.586" transform="translate(-490.396 -399.792)"/><path d="m716.586 721.593a2.562 2.562 0 1 1 2.554 2.364 2.465 2.465 0 0 1 -2.554-2.364" transform="translate(-446.994 -400.057)"/><path d="m636.966 721.858a2.322 2.322 0 1 1 2.315 2.142 2.234 2.234 0 0 1 -2.315-2.143" transform="translate(-403.593 -400.322)"/><path d="m557.345 722.122a2.082 2.082 0 1 1 2.076 1.922 2 2 0 0 1 -2.076-1.922" transform="translate(-360.191 -400.587)"/><path d="m477.724 722.388a1.843 1.843 0 1 1 1.837 1.7 1.773 1.773 0 0 1 -1.837-1.7" transform="translate(-316.789 -400.853)"/><path d="m398.1 722.653a1.6 1.6 0 1 1 1.6 1.479 1.542 1.542 0 0 1 -1.6-1.479" transform="translate(-273.387 -401.118)"/><path d="m318.483 722.918a1.363 1.363 0 1 1 1.359 1.258 1.312 1.312 0 0 1 -1.359-1.258" transform="translate(-229.985 -401.382)"/><path d="m238.862 723.183a1.123 1.123 0 1 1 1.12 1.037 1.081 1.081 0 0 1 -1.12-1.037" transform="translate(-186.583 -401.647)"/><path d="m159.241 723.449a.884.884 0 1 1 .881.816.85.85 0 0 1 -.881-.816" transform="translate(-143.182 -401.913)"/><path d="m79.621 723.714a.644.644 0 1 1 .642.594.62.62 0 0 1 -.642-.594" transform="translate(-99.78 -402.178)"/><path d="m3264.45 572.377c0-5.216 4.568-9.444 10.2-9.444s10.2 4.228 10.2 9.444-4.567 9.444-10.2 9.444-10.2-4.228-10.2-9.444" transform="translate(-1835.854 -314.859)"/><path d="m3184.829 572.641c0-5.093 4.46-9.223 9.963-9.223s9.963 4.129 9.963 9.223-4.46 9.223-9.963 9.223-9.963-4.129-9.963-9.223" transform="translate(-1792.452 -315.124)"/><path d="m3105.208 572.906c0-4.971 4.354-9 9.724-9s9.724 4.03 9.724 9-4.353 9-9.724 9-9.724-4.03-9.724-9" transform="translate(-1749.05 -315.389)"/><path d="m3025.587 573.172c0-4.849 4.246-8.78 9.485-8.78s9.485 3.931 9.485 8.78-4.247 8.78-9.485 8.78-9.485-3.931-9.485-8.78" transform="translate(-1705.648 -315.655)"/><path d="m2945.967 573.437c0-4.727 4.139-8.559 9.246-8.559s9.246 3.832 9.246 8.559-4.139 8.563-9.246 8.563-9.246-3.832-9.246-8.559" transform="translate(-1662.247 -315.92)"/><path d="m2866.346 573.7c0-4.6 4.033-8.338 9.008-8.338s9.007 3.733 9.007 8.338-4.033 8.337-9.007 8.337-9.008-3.733-9.008-8.337" transform="translate(-1618.844 -316.185)"/><path d="m2786.725 573.967c0-4.483 3.926-8.116 8.768-8.116s8.768 3.634 8.768 8.116-3.926 8.116-8.768 8.116-8.768-3.634-8.768-8.116" transform="translate(-1575.442 -316.45)"/><path d="m2707.1 574.232c0-4.36 3.819-7.9 8.529-7.9s8.529 3.535 8.529 7.9-3.819 7.9-8.529 7.9-8.529-3.535-8.529-7.9" transform="translate(-1532.041 -316.715)"/><path d="m2627.484 574.5c0-4.238 3.711-7.674 8.29-7.674s8.29 3.436 8.29 7.674-3.712 7.674-8.29 7.674-8.29-3.435-8.29-7.674" transform="translate(-1488.639 -316.98)"/><path d="m2547.863 574.763c0-4.116 3.6-7.453 8.051-7.453s8.051 3.337 8.051 7.453-3.6 7.453-8.051 7.453-8.051-3.337-8.051-7.453" transform="translate(-1445.237 -317.245)"/><path d="m2468.242 575.027c0-3.994 3.5-7.231 7.813-7.231s7.812 3.237 7.812 7.231-3.5 7.231-7.812 7.231-7.812-3.237-7.812-7.231" transform="translate(-1401.835 -317.51)"/><path d="m2388.622 575.292a7.6 7.6 0 1 1 7.573 7.01 7.308 7.308 0 0 1 -7.573-7.01" transform="translate(-1358.433 -317.775)"/><path d="m2309 575.558a7.356 7.356 0 1 1 7.334 6.789 7.078 7.078 0 0 1 -7.334-6.789" transform="translate(-1315.031 -318.041)"/><path d="m2229.38 575.823a7.117 7.117 0 1 1 7.095 6.568 6.847 6.847 0 0 1 -7.095-6.568" transform="translate(-1271.629 -318.306)"/><path d="m2149.76 576.088a6.877 6.877 0 1 1 6.856 6.346 6.616 6.616 0 0 1 -6.856-6.346" transform="translate(-1228.228 -318.57)"/><path d="m2070.139 576.353a6.637 6.637 0 1 1 6.617 6.125 6.385 6.385 0 0 1 -6.617-6.125" transform="translate(-1184.826 -318.836)"/><path d="m1990.518 576.618a6.4 6.4 0 1 1 6.378 5.9 6.155 6.155 0 0 1 -6.378-5.9" transform="translate(-1141.424 -319.101)"/><path d="m1910.9 576.883a6.158 6.158 0 1 1 6.139 5.682 5.924 5.924 0 0 1 -6.139-5.682" transform="translate(-1098.022 -319.366)"/><path d="m1831.277 577.148a5.918 5.918 0 1 1 5.9 5.461 5.693 5.693 0 0 1 -5.9-5.461" transform="translate(-1054.62 -319.631)"/><path d="m1751.656 577.413a5.678 5.678 0 1 1 5.661 5.24 5.463 5.463 0 0 1 -5.661-5.24" transform="translate(-1011.219 -319.896)"/><path d="m1672.035 577.678a5.438 5.438 0 1 1 5.422 5.019 5.233 5.233 0 0 1 -5.422-5.019" transform="translate(-967.816 -320.161)"/><path d="m1592.414 577.944a5.2 5.2 0 1 1 5.183 4.8 5 5 0 0 1 -5.183-4.8" transform="translate(-924.415 -320.427)"/><path d="m1512.794 578.209a4.959 4.959 0 1 1 4.944 4.577 4.771 4.771 0 0 1 -4.944-4.577" transform="translate(-881.013 -320.691)"/><path d="m1433.173 578.474a4.719 4.719 0 1 1 4.705 4.355 4.541 4.541 0 0 1 -4.705-4.355" transform="translate(-837.611 -320.957)"/><path d="m1353.552 578.739a4.479 4.479 0 1 1 4.466 4.134 4.31 4.31 0 0 1 -4.466-4.134" transform="translate(-794.209 -321.222)"/><path d="m1273.932 579a4.239 4.239 0 1 1 4.227 3.913 4.079 4.079 0 0 1 -4.227-3.913" transform="translate(-750.808 -321.487)"/><path d="m1194.311 579.269a4 4 0 1 1 3.988 3.691 3.849 3.849 0 0 1 -3.988-3.691" transform="translate(-707.406 -321.752)"/><path d="m1114.69 579.534a3.76 3.76 0 1 1 3.749 3.47 3.618 3.618 0 0 1 -3.749-3.47" transform="translate(-664.004 -322.017)"/><path d="m1035.069 579.8a3.521 3.521 0 1 1 3.51 3.249 3.387 3.387 0 0 1 -3.51-3.249" transform="translate(-620.602 -322.282)"/><path d="m955.449 580.064a3.281 3.281 0 1 1 3.271 3.028 3.157 3.157 0 0 1 -3.271-3.028" transform="translate(-577.2 -322.547)"/><path d="m875.828 580.33a3.041 3.041 0 1 1 3.032 2.807 2.926 2.926 0 0 1 -3.032-2.807" transform="translate(-533.798 -322.813)"/><path d="m796.207 580.595a2.8 2.8 0 1 1 2.793 2.585 2.7 2.7 0 0 1 -2.793-2.586" transform="translate(-490.396 -323.078)"/><path d="m716.586 580.86a2.562 2.562 0 1 1 2.554 2.365 2.465 2.465 0 0 1 -2.554-2.365" transform="translate(-446.994 -323.342)"/><path d="m636.966 581.125a2.322 2.322 0 1 1 2.315 2.143 2.234 2.234 0 0 1 -2.315-2.143" transform="translate(-403.593 -323.608)"/><path d="m557.345 581.39a2.082 2.082 0 1 1 2.076 1.922 2 2 0 0 1 -2.076-1.922" transform="translate(-360.191 -323.873)"/><path d="m477.724 581.655a1.843 1.843 0 1 1 1.837 1.7 1.773 1.773 0 0 1 -1.837-1.7" transform="translate(-316.789 -324.138)"/><path d="m398.1 581.92a1.6 1.6 0 1 1 1.6 1.479 1.542 1.542 0 0 1 -1.6-1.479" transform="translate(-273.387 -324.403)"/><path d="m318.483 582.185a1.363 1.363 0 1 1 1.359 1.258 1.312 1.312 0 0 1 -1.359-1.258" transform="translate(-229.985 -324.668)"/><path d="m238.862 582.45a1.123 1.123 0 1 1 1.12 1.037 1.081 1.081 0 0 1 -1.12-1.037" transform="translate(-186.583 -324.933)"/><path d="m159.241 582.716a.884.884 0 1 1 .881.816.85.85 0 0 1 -.881-.816" transform="translate(-143.182 -325.198)"/><path d="m79.621 582.981a.644.644 0 1 1 .642.595.62.62 0 0 1 -.642-.595" transform="translate(-99.78 -325.463)"/><path d="m3264.45 431.643c0-5.215 4.568-9.444 10.2-9.444s10.2 4.228 10.2 9.444-4.567 9.444-10.2 9.444-10.2-4.227-10.2-9.444" transform="translate(-1835.854 -238.144)"/><path d="m3184.829 431.908c0-5.093 4.46-9.222 9.963-9.222s9.963 4.129 9.963 9.222-4.46 9.222-9.963 9.222-9.963-4.129-9.963-9.222" transform="translate(-1792.452 -238.41)"/><path d="m3105.208 432.173c0-4.971 4.354-9 9.724-9s9.724 4.03 9.724 9-4.353 9-9.724 9-9.724-4.031-9.724-9" transform="translate(-1749.05 -238.675)"/><path d="m3025.587 432.438c0-4.849 4.246-8.78 9.485-8.78s9.485 3.931 9.485 8.78-4.247 8.78-9.485 8.78-9.485-3.931-9.485-8.78" transform="translate(-1705.648 -238.939)"/><path d="m2945.967 432.7c0-4.727 4.139-8.558 9.246-8.558s9.246 3.832 9.246 8.558-4.139 8.559-9.246 8.559-9.246-3.832-9.246-8.559" transform="translate(-1662.247 -239.205)"/><path d="m2866.346 432.969c0-4.6 4.033-8.337 9.008-8.337s9.007 3.732 9.007 8.337-4.033 8.338-9.007 8.338-9.008-3.733-9.008-8.338" transform="translate(-1618.844 -239.471)"/><path d="m2786.725 433.233c0-4.483 3.926-8.116 8.768-8.116s8.768 3.634 8.768 8.116-3.926 8.117-8.768 8.117-8.768-3.634-8.768-8.117" transform="translate(-1575.442 -239.735)"/><path d="m2707.1 433.5c0-4.36 3.819-7.895 8.529-7.895s8.529 3.535 8.529 7.895-3.819 7.9-8.529 7.9-8.529-3.535-8.529-7.9" transform="translate(-1532.041 -240.001)"/><path d="m2627.484 433.764c0-4.238 3.711-7.673 8.29-7.673s8.29 3.435 8.29 7.673-3.712 7.674-8.29 7.674-8.29-3.436-8.29-7.674" transform="translate(-1488.639 -240.266)"/><path d="m2547.863 434.029c0-4.116 3.6-7.453 8.051-7.453s8.051 3.337 8.051 7.453-3.6 7.453-8.051 7.453-8.051-3.337-8.051-7.453" transform="translate(-1445.237 -240.53)"/><path d="m2468.242 434.294c0-3.994 3.5-7.231 7.813-7.231s7.812 3.237 7.812 7.231-3.5 7.231-7.812 7.231-7.812-3.237-7.812-7.231" transform="translate(-1401.835 -240.796)"/><path d="m2388.622 434.559a7.6 7.6 0 1 1 7.573 7.01 7.308 7.308 0 0 1 -7.573-7.01" transform="translate(-1358.433 -241.061)"/><path d="m2309 434.824a7.356 7.356 0 1 1 7.334 6.789 7.078 7.078 0 0 1 -7.334-6.789" transform="translate(-1315.031 -241.326)"/><path d="m2229.38 435.089a7.117 7.117 0 1 1 7.095 6.568 6.847 6.847 0 0 1 -7.095-6.568" transform="translate(-1271.629 -241.59)"/><path d="m2149.76 435.355a6.877 6.877 0 1 1 6.856 6.347 6.616 6.616 0 0 1 -6.856-6.347" transform="translate(-1228.228 -241.856)"/><path d="m2070.139 435.619a6.637 6.637 0 1 1 6.617 6.126 6.385 6.385 0 0 1 -6.617-6.126" transform="translate(-1184.826 -242.121)"/><path d="m1990.518 435.884a6.4 6.4 0 1 1 6.378 5.9 6.155 6.155 0 0 1 -6.378-5.9" transform="translate(-1141.424 -242.386)"/><path d="m1910.9 436.15a6.157 6.157 0 1 1 6.139 5.683 5.924 5.924 0 0 1 -6.139-5.683" transform="translate(-1098.022 -242.652)"/><path d="m1831.277 436.414a5.918 5.918 0 1 1 5.9 5.462 5.693 5.693 0 0 1 -5.9-5.462" transform="translate(-1054.62 -242.916)"/><path d="m1751.656 436.679a5.678 5.678 0 1 1 5.661 5.24 5.463 5.463 0 0 1 -5.661-5.24" transform="translate(-1011.219 -243.181)"/><path d="m1672.035 436.945a5.438 5.438 0 1 1 5.422 5.019 5.232 5.232 0 0 1 -5.422-5.019" transform="translate(-967.816 -243.447)"/><path d="m1592.414 437.21a5.2 5.2 0 1 1 5.183 4.8 5 5 0 0 1 -5.183-4.8" transform="translate(-924.415 -243.711)"/><path d="m1512.794 437.475a4.959 4.959 0 1 1 4.944 4.577 4.772 4.772 0 0 1 -4.944-4.577" transform="translate(-881.013 -243.977)"/><path d="m1433.173 437.74a4.719 4.719 0 1 1 4.705 4.356 4.54 4.54 0 0 1 -4.705-4.356" transform="translate(-837.611 -244.242)"/><path d="m1353.552 438.006a4.479 4.479 0 1 1 4.466 4.134 4.309 4.309 0 0 1 -4.466-4.134" transform="translate(-794.209 -244.507)"/><path d="m1273.932 438.27a4.239 4.239 0 1 1 4.227 3.913 4.079 4.079 0 0 1 -4.227-3.913" transform="translate(-750.808 -244.772)"/><path d="m1194.311 438.535a4 4 0 1 1 3.988 3.692 3.849 3.849 0 0 1 -3.988-3.692" transform="translate(-707.406 -245.037)"/><path d="m1114.69 438.8a3.76 3.76 0 1 1 3.749 3.47 3.618 3.618 0 0 1 -3.749-3.47" transform="translate(-664.004 -245.303)"/><path d="m1035.069 439.065a3.521 3.521 0 1 1 3.51 3.25 3.387 3.387 0 0 1 -3.51-3.25" transform="translate(-620.602 -245.567)"/><path d="m955.449 439.331a3.281 3.281 0 1 1 3.271 3.028 3.157 3.157 0 0 1 -3.271-3.028" transform="translate(-577.2 -245.833)"/><path d="m875.828 439.6a3.041 3.041 0 1 1 3.032 2.807 2.926 2.926 0 0 1 -3.032-2.807" transform="translate(-533.798 -246.098)"/><path d="m796.207 439.861a2.8 2.8 0 1 1 2.793 2.586 2.7 2.7 0 0 1 -2.793-2.586" transform="translate(-490.396 -246.362)"/><path d="m716.586 440.126a2.562 2.562 0 1 1 2.554 2.365 2.465 2.465 0 0 1 -2.554-2.365" transform="translate(-446.994 -246.627)"/><path d="m636.966 440.392a2.322 2.322 0 1 1 2.315 2.143 2.234 2.234 0 0 1 -2.315-2.143" transform="translate(-403.593 -246.893)"/><path d="m557.345 440.656a2.082 2.082 0 1 1 2.076 1.922 2 2 0 0 1 -2.076-1.922" transform="translate(-360.191 -247.158)"/><path d="m477.724 440.921a1.843 1.843 0 1 1 1.837 1.7 1.773 1.773 0 0 1 -1.837-1.7" transform="translate(-316.789 -247.422)"/><path d="m398.1 441.187a1.6 1.6 0 1 1 1.6 1.479 1.542 1.542 0 0 1 -1.6-1.479" transform="translate(-273.387 -247.689)"/><path d="m318.483 441.451a1.363 1.363 0 1 1 1.359 1.259 1.312 1.312 0 0 1 -1.359-1.259" transform="translate(-229.985 -247.953)"/><path d="m238.862 441.716a1.123 1.123 0 1 1 1.12 1.038 1.081 1.081 0 0 1 -1.12-1.038" transform="translate(-186.583 -248.218)"/><path d="m159.241 441.982a.884.884 0 1 1 .881.816.85.85 0 0 1 -.881-.816" transform="translate(-143.182 -248.484)"/><path d="m79.621 442.247a.644.644 0 1 1 .642.595.62.62 0 0 1 -.642-.595" transform="translate(-99.78 -248.749)"/><path d="m3264.45 290.911c0-5.216 4.568-9.444 10.2-9.444s10.2 4.228 10.2 9.444-4.567 9.444-10.2 9.444-10.2-4.228-10.2-9.444" transform="translate(-1835.854 -161.43)"/><path d="m3184.829 291.175c0-5.093 4.46-9.222 9.963-9.222s9.963 4.129 9.963 9.222-4.46 9.222-9.963 9.222-9.963-4.129-9.963-9.222" transform="translate(-1792.452 -161.695)"/><path d="m3105.208 291.44c0-4.971 4.354-9 9.724-9s9.724 4.03 9.724 9-4.353 9-9.724 9-9.724-4.03-9.724-9" transform="translate(-1749.05 -161.96)"/><path d="m3025.587 291.706c0-4.849 4.246-8.78 9.485-8.78s9.485 3.931 9.485 8.78-4.247 8.78-9.485 8.78-9.485-3.931-9.485-8.78" transform="translate(-1705.648 -162.226)"/><path d="m2945.967 291.971c0-4.727 4.139-8.559 9.246-8.559s9.246 3.832 9.246 8.559-4.139 8.559-9.246 8.559-9.246-3.832-9.246-8.559" transform="translate(-1662.247 -162.49)"/><path d="m2866.346 292.236c0-4.6 4.033-8.337 9.008-8.337s9.007 3.732 9.007 8.337-4.033 8.338-9.007 8.338-9.008-3.733-9.008-8.338" transform="translate(-1618.844 -162.756)"/><path d="m2786.725 292.5c0-4.483 3.926-8.116 8.768-8.116s8.768 3.634 8.768 8.116-3.926 8.116-8.768 8.116-8.768-3.634-8.768-8.116" transform="translate(-1575.442 -163.021)"/><path d="m2707.1 292.766c0-4.36 3.819-7.9 8.529-7.9s8.529 3.535 8.529 7.9-3.819 7.9-8.529 7.9-8.529-3.535-8.529-7.9" transform="translate(-1532.041 -163.286)"/><path d="m2627.484 293.032c0-4.238 3.711-7.674 8.29-7.674s8.29 3.435 8.29 7.674-3.712 7.674-8.29 7.674-8.29-3.436-8.29-7.674" transform="translate(-1488.639 -163.551)"/><path d="m2547.863 293.3c0-4.116 3.6-7.453 8.051-7.453s8.051 3.336 8.051 7.453-3.6 7.453-8.051 7.453-8.051-3.337-8.051-7.453" transform="translate(-1445.237 -163.816)"/><path d="m2468.242 293.561c0-3.994 3.5-7.231 7.813-7.231s7.812 3.237 7.812 7.231-3.5 7.231-7.812 7.231-7.812-3.237-7.812-7.231" transform="translate(-1401.835 -164.081)"/><path d="m2388.622 293.827a7.6 7.6 0 1 1 7.573 7.01 7.308 7.308 0 0 1 -7.573-7.01" transform="translate(-1358.433 -164.347)"/><path d="m2309 294.091a7.356 7.356 0 1 1 7.334 6.789 7.078 7.078 0 0 1 -7.334-6.789" transform="translate(-1315.031 -164.611)"/><path d="m2229.38 294.357a7.117 7.117 0 1 1 7.095 6.568 6.846 6.846 0 0 1 -7.095-6.568" transform="translate(-1271.629 -164.876)"/><path d="m2149.76 294.622a6.877 6.877 0 1 1 6.856 6.346 6.616 6.616 0 0 1 -6.856-6.346" transform="translate(-1228.228 -165.142)"/><path d="m2070.139 294.887a6.637 6.637 0 1 1 6.617 6.125 6.386 6.386 0 0 1 -6.617-6.125" transform="translate(-1184.826 -165.406)"/><path d="m1990.518 295.152a6.4 6.4 0 1 1 6.378 5.9 6.155 6.155 0 0 1 -6.378-5.9" transform="translate(-1141.424 -165.672)"/><path d="m1910.9 295.417a6.158 6.158 0 1 1 6.139 5.683 5.924 5.924 0 0 1 -6.139-5.683" transform="translate(-1098.022 -165.937)"/><path d="m1831.277 295.682a5.918 5.918 0 1 1 5.9 5.461 5.694 5.694 0 0 1 -5.9-5.461" transform="translate(-1054.62 -166.202)"/><path d="m1751.656 295.947a5.678 5.678 0 1 1 5.661 5.24 5.463 5.463 0 0 1 -5.661-5.24" transform="translate(-1011.219 -166.467)"/><path d="m1672.035 296.213a5.438 5.438 0 1 1 5.422 5.019 5.232 5.232 0 0 1 -5.422-5.019" transform="translate(-967.816 -166.732)"/><path d="m1592.414 296.477a5.2 5.2 0 1 1 5.183 4.8 5 5 0 0 1 -5.183-4.8" transform="translate(-924.415 -166.997)"/><path d="m1512.794 296.743a4.959 4.959 0 1 1 4.944 4.577 4.771 4.771 0 0 1 -4.944-4.577" transform="translate(-881.013 -167.262)"/><path d="m1433.173 297.008a4.719 4.719 0 1 1 4.705 4.356 4.54 4.54 0 0 1 -4.705-4.356" transform="translate(-837.611 -167.528)"/><path d="m1353.552 297.273a4.479 4.479 0 1 1 4.466 4.134 4.31 4.31 0 0 1 -4.466-4.134" transform="translate(-794.209 -167.793)"/><path d="m1273.932 297.538a4.239 4.239 0 1 1 4.227 3.913 4.079 4.079 0 0 1 -4.227-3.913" transform="translate(-750.808 -168.058)"/><path d="m1194.311 297.8a4 4 0 1 1 3.988 3.692 3.848 3.848 0 0 1 -3.988-3.692" transform="translate(-707.406 -168.323)"/><path d="m1114.69 298.068a3.761 3.761 0 1 1 3.749 3.47 3.618 3.618 0 0 1 -3.749-3.47" transform="translate(-664.004 -168.588)"/><path d="m1035.069 298.333a3.521 3.521 0 1 1 3.51 3.249 3.387 3.387 0 0 1 -3.51-3.249" transform="translate(-620.602 -168.853)"/><path d="m955.449 298.6a3.281 3.281 0 1 1 3.271 3.028 3.157 3.157 0 0 1 -3.271-3.028" transform="translate(-577.2 -169.118)"/><path d="m875.828 298.864a3.041 3.041 0 1 1 3.032 2.806 2.926 2.926 0 0 1 -3.032-2.806" transform="translate(-533.798 -169.383)"/><path d="m796.207 299.128a2.8 2.8 0 1 1 2.793 2.586 2.7 2.7 0 0 1 -2.793-2.586" transform="translate(-490.396 -169.647)"/><path d="m716.586 299.394a2.562 2.562 0 1 1 2.554 2.365 2.465 2.465 0 0 1 -2.554-2.365" transform="translate(-446.994 -169.913)"/><path d="m636.966 299.659a2.322 2.322 0 1 1 2.315 2.143 2.234 2.234 0 0 1 -2.315-2.143" transform="translate(-403.593 -170.179)"/><path d="m557.345 299.923a2.082 2.082 0 1 1 2.076 1.922 2 2 0 0 1 -2.076-1.922" transform="translate(-360.191 -170.443)"/><path d="m477.724 300.189a1.843 1.843 0 1 1 1.837 1.7 1.773 1.773 0 0 1 -1.837-1.7" transform="translate(-316.789 -170.709)"/><path d="m398.1 300.454a1.6 1.6 0 1 1 1.6 1.479 1.542 1.542 0 0 1 -1.6-1.479" transform="translate(-273.387 -170.974)"/><path d="m318.483 300.719a1.363 1.363 0 1 1 1.359 1.258 1.312 1.312 0 0 1 -1.359-1.258" transform="translate(-229.985 -171.238)"/><path d="m238.862 300.984a1.123 1.123 0 1 1 1.12 1.037 1.081 1.081 0 0 1 -1.12-1.037" transform="translate(-186.583 -171.504)"/><path d="m159.241 301.25a.884.884 0 1 1 .881.816.85.85 0 0 1 -.881-.816" transform="translate(-143.182 -171.769)"/><path d="m79.621 301.515a.644.644 0 1 1 .642.594.62.62 0 0 1 -.642-.594" transform="translate(-99.78 -172.034)"/><path d="m3264.45 150.178c0-5.216 4.568-9.444 10.2-9.444s10.2 4.228 10.2 9.444-4.567 9.444-10.2 9.444-10.2-4.228-10.2-9.444" transform="translate(-1835.854 -84.716)"/><path d="m3184.829 150.442c0-5.093 4.46-9.222 9.963-9.222s9.963 4.129 9.963 9.222-4.46 9.222-9.963 9.222-9.963-4.129-9.963-9.222" transform="translate(-1792.452 -84.98)"/><path d="m3105.208 150.708c0-4.971 4.354-9 9.724-9s9.724 4.03 9.724 9-4.353 9-9.724 9-9.724-4.03-9.724-9" transform="translate(-1749.05 -85.246)"/><path d="m3025.587 150.973c0-4.849 4.246-8.78 9.485-8.78s9.485 3.931 9.485 8.78-4.247 8.78-9.485 8.78-9.485-3.931-9.485-8.78" transform="translate(-1705.648 -85.511)"/><path d="m2945.967 151.238c0-4.727 4.139-8.559 9.246-8.559s9.246 3.832 9.246 8.559-4.139 8.559-9.246 8.559-9.246-3.832-9.246-8.559" transform="translate(-1662.247 -85.776)"/><path d="m2866.346 151.5c0-4.6 4.033-8.337 9.008-8.337s9.007 3.732 9.007 8.337-4.033 8.338-9.007 8.338-9.008-3.733-9.008-8.338" transform="translate(-1618.844 -86.042)"/><path d="m2786.725 151.768c0-4.483 3.926-8.116 8.768-8.116s8.768 3.634 8.768 8.116-3.926 8.116-8.768 8.116-8.768-3.634-8.768-8.116" transform="translate(-1575.442 -86.306)"/><path d="m2707.1 152.033c0-4.36 3.819-7.9 8.529-7.9s8.529 3.535 8.529 7.9-3.819 7.9-8.529 7.9-8.529-3.535-8.529-7.9" transform="translate(-1532.041 -86.571)"/><path d="m2627.484 152.3c0-4.238 3.711-7.674 8.29-7.674s8.29 3.435 8.29 7.674-3.712 7.674-8.29 7.674-8.29-3.436-8.29-7.674" transform="translate(-1488.639 -86.836)"/><path d="m2547.863 152.563c0-4.116 3.6-7.453 8.051-7.453s8.051 3.337 8.051 7.453-3.6 7.453-8.051 7.453-8.051-3.337-8.051-7.453" transform="translate(-1445.237 -87.102)"/><path d="m2468.242 152.828c0-3.994 3.5-7.231 7.813-7.231s7.812 3.237 7.812 7.231-3.5 7.231-7.812 7.231-7.812-3.237-7.812-7.231" transform="translate(-1401.835 -87.366)"/><path d="m2388.622 153.094a7.6 7.6 0 1 1 7.573 7.01 7.308 7.308 0 0 1 -7.573-7.01" transform="translate(-1358.433 -87.632)"/><path d="m2309 153.359a7.356 7.356 0 1 1 7.334 6.789 7.078 7.078 0 0 1 -7.334-6.789" transform="translate(-1315.031 -87.897)"/><path d="m2229.38 153.624a7.117 7.117 0 1 1 7.095 6.568 6.847 6.847 0 0 1 -7.095-6.568" transform="translate(-1271.629 -88.162)"/><path d="m2149.76 153.889a6.877 6.877 0 1 1 6.856 6.347 6.616 6.616 0 0 1 -6.856-6.347" transform="translate(-1228.228 -88.427)"/><path d="m2070.139 154.154a6.637 6.637 0 1 1 6.617 6.125 6.385 6.385 0 0 1 -6.617-6.125" transform="translate(-1184.826 -88.692)"/><path d="m1990.518 154.419a6.4 6.4 0 1 1 6.378 5.9 6.155 6.155 0 0 1 -6.378-5.9" transform="translate(-1141.424 -88.957)"/><path d="m1910.9 154.685a6.157 6.157 0 1 1 6.139 5.683 5.924 5.924 0 0 1 -6.139-5.683" transform="translate(-1098.022 -89.223)"/><path d="m1831.277 154.949a5.918 5.918 0 1 1 5.9 5.461 5.693 5.693 0 0 1 -5.9-5.461" transform="translate(-1054.62 -89.487)"/><path d="m1751.656 155.214a5.678 5.678 0 1 1 5.661 5.24 5.463 5.463 0 0 1 -5.661-5.24" transform="translate(-1011.219 -89.752)"/><path d="m1672.035 155.48a5.438 5.438 0 1 1 5.422 5.019 5.232 5.232 0 0 1 -5.422-5.019" transform="translate(-967.816 -90.018)"/><path d="m1592.414 155.745a5.2 5.2 0 1 1 5.183 4.8 5 5 0 0 1 -5.183-4.8" transform="translate(-924.415 -90.283)"/><path d="m1512.794 156.01a4.959 4.959 0 1 1 4.944 4.577 4.771 4.771 0 0 1 -4.944-4.577" transform="translate(-881.013 -90.548)"/><path d="m1433.173 156.275a4.719 4.719 0 1 1 4.705 4.356 4.54 4.54 0 0 1 -4.705-4.356" transform="translate(-837.611 -90.813)"/><path d="m1353.552 156.54a4.479 4.479 0 1 1 4.466 4.134 4.31 4.31 0 0 1 -4.466-4.134" transform="translate(-794.209 -91.078)"/><path d="m1273.932 156.8a4.239 4.239 0 1 1 4.227 3.913 4.079 4.079 0 0 1 -4.227-3.913" transform="translate(-750.808 -91.343)"/><path d="m1194.311 157.07a4 4 0 1 1 3.988 3.692 3.848 3.848 0 0 1 -3.988-3.692" transform="translate(-707.406 -91.608)"/><path d="m1114.69 157.335a3.76 3.76 0 1 1 3.749 3.47 3.618 3.618 0 0 1 -3.749-3.47" transform="translate(-664.004 -91.874)"/><path d="m1035.069 157.6a3.521 3.521 0 1 1 3.51 3.249 3.387 3.387 0 0 1 -3.51-3.249" transform="translate(-620.602 -92.138)"/><path d="m955.449 157.866a3.281 3.281 0 1 1 3.271 3.028 3.157 3.157 0 0 1 -3.271-3.028" transform="translate(-577.2 -92.404)"/><path d="m875.828 158.131a3.041 3.041 0 1 1 3.032 2.807 2.926 2.926 0 0 1 -3.032-2.807" transform="translate(-533.798 -92.669)"/><path d="m796.207 158.4a2.8 2.8 0 1 1 2.793 2.581 2.7 2.7 0 0 1 -2.793-2.586" transform="translate(-490.396 -92.934)"/><path d="m716.586 158.661a2.562 2.562 0 1 1 2.554 2.365 2.465 2.465 0 0 1 -2.554-2.365" transform="translate(-446.994 -93.199)"/><path d="m636.966 158.926a2.322 2.322 0 1 1 2.315 2.143 2.234 2.234 0 0 1 -2.315-2.143" transform="translate(-403.593 -93.464)"/><path d="m557.345 159.191a2.082 2.082 0 1 1 2.076 1.922 2 2 0 0 1 -2.076-1.922" transform="translate(-360.191 -93.729)"/><path d="m477.724 159.456a1.843 1.843 0 1 1 1.837 1.7 1.773 1.773 0 0 1 -1.837-1.7" transform="translate(-316.789 -93.994)"/><path d="m398.1 159.721a1.6 1.6 0 1 1 1.6 1.479 1.542 1.542 0 0 1 -1.6-1.479" transform="translate(-273.387 -94.259)"/><path d="m318.483 159.986a1.363 1.363 0 1 1 1.359 1.258 1.312 1.312 0 0 1 -1.359-1.258" transform="translate(-229.985 -94.524)"/><path d="m238.862 160.251a1.123 1.123 0 1 1 1.12 1.037 1.081 1.081 0 0 1 -1.12-1.037" transform="translate(-186.583 -94.789)"/><path d="m159.241 160.517a.884.884 0 1 1 .881.816.85.85 0 0 1 -.881-.816" transform="translate(-143.182 -95.055)"/><path d="m79.621 160.782a.644.644 0 1 1 .642.595.62.62 0 0 1 -.642-.595" transform="translate(-99.78 -95.319)"/><path d="m3264.45 9.445c0-5.216 4.568-9.444 10.2-9.444s10.2 4.228 10.2 9.444-4.567 9.444-10.2 9.444-10.2-4.228-10.2-9.444" transform="translate(-1835.854 -8.001)"/><path d="m3184.829 9.709c0-5.093 4.46-9.222 9.963-9.222s9.963 4.129 9.963 9.222-4.46 9.222-9.963 9.222-9.963-4.129-9.963-9.222" transform="translate(-1792.452 -8.266)"/><path d="m3105.208 9.975c0-4.971 4.354-9 9.724-9s9.724 4.03 9.724 9-4.353 9-9.724 9-9.724-4.03-9.724-9" transform="translate(-1749.05 -8.531)"/><path d="m3025.587 10.24c0-4.849 4.246-8.78 9.485-8.78s9.485 3.931 9.485 8.78-4.247 8.78-9.485 8.78-9.485-3.931-9.485-8.78" transform="translate(-1705.648 -8.796)"/><path d="m2945.967 10.5c0-4.727 4.139-8.559 9.246-8.559s9.246 3.832 9.246 8.559-4.139 8.559-9.246 8.559-9.246-3.832-9.246-8.559" transform="translate(-1662.247 -9.061)"/><path d="m2866.346 10.77c0-4.6 4.033-8.337 9.008-8.337s9.007 3.732 9.007 8.337-4.033 8.338-9.007 8.338-9.008-3.733-9.008-8.338" transform="translate(-1618.844 -9.327)"/><path d="m2786.725 11.035c0-4.483 3.926-8.116 8.768-8.116s8.768 3.634 8.768 8.116-3.926 8.116-8.768 8.116-8.768-3.634-8.768-8.116" transform="translate(-1575.442 -9.592)"/><path d="m2707.1 11.3c0-4.36 3.819-7.9 8.529-7.9s8.529 3.535 8.529 7.9-3.819 7.9-8.529 7.9-8.529-3.535-8.529-7.9" transform="translate(-1532.041 -9.856)"/><path d="m2627.484 11.566c0-4.238 3.711-7.674 8.29-7.674s8.29 3.435 8.29 7.674-3.712 7.674-8.29 7.674-8.29-3.436-8.29-7.674" transform="translate(-1488.639 -10.122)"/><path d="m2547.863 11.831c0-4.116 3.6-7.453 8.051-7.453s8.051 3.337 8.051 7.453-3.6 7.453-8.051 7.453-8.051-3.337-8.051-7.453" transform="translate(-1445.237 -10.387)"/><path d="m2468.242 12.1c0-3.994 3.5-7.231 7.813-7.231s7.812 3.237 7.812 7.231-3.5 7.231-7.812 7.231-7.812-3.237-7.812-7.231" transform="translate(-1401.835 -10.652)"/><path d="m2388.622 12.361a7.6 7.6 0 0 1 15.146 0 7.6 7.6 0 0 1 -15.146 0" transform="translate(-1358.433 -10.918)"/><path d="m2309 12.626a7.356 7.356 0 0 1 14.668 0 7.356 7.356 0 0 1 -14.668 0" transform="translate(-1315.031 -11.182)"/><path d="m2229.38 12.891a7.117 7.117 0 0 1 14.191 0 7.117 7.117 0 0 1 -14.191 0" transform="translate(-1271.629 -11.447)"/><path d="m2149.76 13.156a6.877 6.877 0 0 1 13.712 0 6.877 6.877 0 0 1 -13.712 0" transform="translate(-1228.228 -11.712)"/><path d="m2070.139 13.421a6.637 6.637 0 0 1 13.234 0 6.637 6.637 0 0 1 -13.234 0" transform="translate(-1184.826 -11.978)"/><path d="m1990.518 13.686a6.4 6.4 0 0 1 12.756 0 6.4 6.4 0 0 1 -12.756 0" transform="translate(-1141.424 -12.243)"/><path d="m1910.9 13.952a6.158 6.158 0 0 1 12.278 0 6.157 6.157 0 0 1 -12.278 0" transform="translate(-1098.022 -12.508)"/><path d="m1831.277 14.216a5.918 5.918 0 0 1 11.8 0 5.918 5.918 0 0 1 -11.8 0" transform="translate(-1054.62 -12.773)"/><path d="m1751.656 14.481a5.678 5.678 0 0 1 11.323 0 5.678 5.678 0 0 1 -11.323 0" transform="translate(-1011.219 -13.038)"/><path d="m1672.035 14.747a5.438 5.438 0 0 1 10.844 0 5.438 5.438 0 0 1 -10.844 0" transform="translate(-967.816 -13.303)"/><path d="m1592.414 15.012a5.2 5.2 0 0 1 10.367 0 5.2 5.2 0 0 1 -10.367 0" transform="translate(-924.415 -13.568)"/><path d="m1512.794 15.277a4.959 4.959 0 0 1 9.889 0 4.959 4.959 0 0 1 -9.889 0" transform="translate(-881.013 -13.833)"/><path d="m1433.173 15.542a4.719 4.719 0 0 1 9.41 0 4.719 4.719 0 0 1 -9.41 0" transform="translate(-837.611 -14.099)"/><path d="m1353.552 15.807a4.479 4.479 0 0 1 8.932 0 4.479 4.479 0 0 1 -8.932 0" transform="translate(-794.209 -14.363)"/><path d="m1273.932 16.072a4.239 4.239 0 0 1 8.454 0 4.239 4.239 0 0 1 -8.454 0" transform="translate(-750.808 -14.628)"/><path d="m1194.311 16.337a4 4 0 0 1 7.977 0 4 4 0 0 1 -7.977 0" transform="translate(-707.406 -14.894)"/><path d="m1114.69 16.6a3.76 3.76 0 0 1 7.5 0 3.76 3.76 0 0 1 -7.5 0" transform="translate(-664.004 -15.159)"/><path d="m1035.069 16.867a3.521 3.521 0 0 1 7.02 0 3.521 3.521 0 0 1 -7.02 0" transform="translate(-620.602 -15.424)"/><path d="m955.449 17.133a3.281 3.281 0 0 1 6.542 0 3.281 3.281 0 0 1 -6.542 0" transform="translate(-577.2 -15.689)"/><path d="m875.828 17.4a3.041 3.041 0 0 1 6.065 0 3.041 3.041 0 0 1 -6.065 0" transform="translate(-533.798 -15.954)"/><path d="m796.207 17.663a2.8 2.8 0 0 1 5.587 0 2.8 2.8 0 0 1 -5.587 0" transform="translate(-490.396 -16.219)"/><path d="m716.586 17.928a2.562 2.562 0 0 1 5.108 0 2.562 2.562 0 0 1 -5.108 0" transform="translate(-446.994 -16.484)"/><path d="m636.966 18.193a2.322 2.322 0 1 1 2.315 2.143 2.234 2.234 0 0 1 -2.315-2.143" transform="translate(-403.593 -16.75)"/><path d="m557.345 18.458a2.082 2.082 0 1 1 2.076 1.922 2 2 0 0 1 -2.076-1.922" transform="translate(-360.191 -17.014)"/><path d="m477.724 18.723a1.843 1.843 0 1 1 1.837 1.7 1.773 1.773 0 0 1 -1.837-1.7" transform="translate(-316.789 -17.279)"/><path d="m398.1 18.988a1.6 1.6 0 1 1 1.6 1.479 1.542 1.542 0 0 1 -1.6-1.479" transform="translate(-273.387 -17.545)"/><path d="m318.483 19.253a1.363 1.363 0 1 1 1.359 1.258 1.312 1.312 0 0 1 -1.359-1.258" transform="translate(-229.985 -17.81)"/><path d="m238.862 19.518a1.123 1.123 0 1 1 1.12 1.037 1.081 1.081 0 0 1 -1.12-1.037" transform="translate(-186.583 -18.075)"/><path d="m159.241 19.784a.884.884 0 1 1 .881.816.85.85 0 0 1 -.881-.816" transform="translate(-143.182 -18.34)"/><path d="m79.621 20.049a.644.644 0 1 1 .642.595.62.62 0 0 1 -.642-.595" transform="translate(-99.78 -18.605)"/></g><g clip-path="url(#b)" transform="translate(-1640 -2685)"><path d="m623.987 868.563-623.987 311.518 640.482 116.425 104.018 732.234 331.011-580.086 814.579 99.929-503.742-550.368 642.122-966.315-937.821 579.679-525.966-611.579z" fill="#01062e" transform="translate(1391.765 2209.716)"/></g></svg>