<svg id="Grupo_176745" data-name="Grupo 176745" xmlns="http://www.w3.org/2000/svg" xmlns:xlink="http://www.w3.org/1999/xlink" width="393" height="852" viewBox="0 0 393 852">
  <defs>
    <clipPath id="clip-path">
      <rect id="Retângulo_161621" data-name="Retângulo 161621" width="393" height="852" fill="#fff"/>
    </clipPath>
    <clipPath id="clip-path-2">
      <rect id="Retângulo_161620" data-name="Retângulo 161620" width="1471.976" height="883.24" fill="#ef622f"/>
    </clipPath>
    <clipPath id="clip-path-3">
      <rect id="Retângulo_161555" data-name="Retângulo 161555" width="393" height="852" fill="#fff" stroke="#707070" stroke-width="1"/>
    </clipPath>
  </defs>
  <rect id="Retângulo_161622" data-name="Retângulo 161622" width="393" height="852" fill="#01062e"/>
  <g id="Grupo_de_máscara_20" data-name="Grupo de máscara 20" clip-path="url(#clip-path)">
    <g id="Grupo_176722" data-name="Grupo 176722" transform="translate(-682.605 -15.488)">
      <g id="Grupo_176721" data-name="Grupo 176721" clip-path="url(#clip-path-2)">
        <path id="Caminho_117181" data-name="Caminho 117181" d="M31.513,15.757A15.757,15.757,0,1,1,15.757,0,15.756,15.756,0,0,1,31.513,15.757" fill="#ef622f"/>
        <path id="Caminho_117182" data-name="Caminho 117182" d="M104.971,15.918A15.158,15.158,0,1,1,89.813.76a15.158,15.158,0,0,1,15.158,15.158" transform="translate(-15.839 -0.161)" fill="#ef622f"/>
        <path id="Caminho_117183" data-name="Caminho 117183" d="M178.429,16.079A14.559,14.559,0,1,1,163.87,1.52a14.559,14.559,0,0,1,14.559,14.559" transform="translate(-31.679 -0.322)" fill="#ef622f"/>
        <path id="Caminho_117184" data-name="Caminho 117184" d="M251.887,16.24a13.96,13.96,0,1,1-13.96-13.96,13.961,13.961,0,0,1,13.96,13.96" transform="translate(-47.518 -0.484)" fill="#ef622f"/>
        <path id="Caminho_117185" data-name="Caminho 117185" d="M325.345,16.4A13.362,13.362,0,1,1,311.984,3.04,13.361,13.361,0,0,1,325.345,16.4" transform="translate(-63.358 -0.645)" fill="#ef622f"/>
        <path id="Caminho_117186" data-name="Caminho 117186" d="M398.8,16.563A12.763,12.763,0,1,1,386.04,3.8,12.763,12.763,0,0,1,398.8,16.563" transform="translate(-79.197 -0.806)" fill="#ef622f"/>
        <path id="Caminho_117187" data-name="Caminho 117187" d="M472.26,16.724A12.164,12.164,0,1,1,460.1,4.56,12.164,12.164,0,0,1,472.26,16.724" transform="translate(-95.036 -0.967)" fill="#ef622f"/>
        <path id="Caminho_117188" data-name="Caminho 117188" d="M545.719,16.885A11.565,11.565,0,1,1,534.153,5.32a11.565,11.565,0,0,1,11.565,11.565" transform="translate(-110.876 -1.129)" fill="#ef622f"/>
        <path id="Caminho_117189" data-name="Caminho 117189" d="M619.176,17.047A10.967,10.967,0,1,1,608.21,6.08a10.966,10.966,0,0,1,10.967,10.967" transform="translate(-126.715 -1.29)" fill="#ef622f"/>
        <path id="Caminho_117190" data-name="Caminho 117190" d="M692.634,17.208A10.368,10.368,0,1,1,682.266,6.84a10.368,10.368,0,0,1,10.368,10.368" transform="translate(-142.554 -1.451)" fill="#ef622f"/>
        <path id="Caminho_117191" data-name="Caminho 117191" d="M766.092,17.369A9.769,9.769,0,1,1,756.323,7.6a9.769,9.769,0,0,1,9.769,9.769" transform="translate(-158.394 -1.612)" fill="#ef622f"/>
        <path id="Caminho_117192" data-name="Caminho 117192" d="M839.55,17.53a9.17,9.17,0,1,1-9.17-9.17,9.17,9.17,0,0,1,9.17,9.17" transform="translate(-174.233 -1.774)" fill="#ef622f"/>
        <path id="Caminho_117193" data-name="Caminho 117193" d="M913.008,17.692a8.572,8.572,0,1,1-8.572-8.572,8.571,8.571,0,0,1,8.572,8.572" transform="translate(-190.073 -1.935)" fill="#ef622f"/>
        <path id="Caminho_117194" data-name="Caminho 117194" d="M986.466,17.853a7.973,7.973,0,1,1-7.973-7.973,7.973,7.973,0,0,1,7.973,7.973" transform="translate(-205.912 -2.096)" fill="#ef622f"/>
        <path id="Caminho_117195" data-name="Caminho 117195" d="M1059.923,18.014a7.374,7.374,0,1,1-7.374-7.374,7.375,7.375,0,0,1,7.374,7.374" transform="translate(-221.751 -2.257)" fill="#ef622f"/>
        <path id="Caminho_117196" data-name="Caminho 117196" d="M1133.382,18.175a6.775,6.775,0,1,1-6.776-6.775,6.775,6.775,0,0,1,6.776,6.775" transform="translate(-237.591 -2.419)" fill="#ef622f"/>
        <path id="Caminho_117197" data-name="Caminho 117197" d="M1206.84,18.337a6.177,6.177,0,1,1-6.177-6.177,6.177,6.177,0,0,1,6.177,6.177" transform="translate(-253.43 -2.58)" fill="#ef622f"/>
        <path id="Caminho_117198" data-name="Caminho 117198" d="M1280.3,18.5a5.578,5.578,0,1,1-5.578-5.578A5.579,5.579,0,0,1,1280.3,18.5" transform="translate(-269.27 -2.741)" fill="#ef622f"/>
        <path id="Caminho_117199" data-name="Caminho 117199" d="M1353.755,18.659a4.979,4.979,0,1,1-4.979-4.979,4.979,4.979,0,0,1,4.979,4.979" transform="translate(-285.109 -2.902)" fill="#ef622f"/>
        <path id="Caminho_117200" data-name="Caminho 117200" d="M1427.213,18.82a4.38,4.38,0,1,1-4.381-4.38,4.38,4.38,0,0,1,4.381,4.38" transform="translate(-300.948 -3.064)" fill="#ef622f"/>
        <path id="Caminho_117201" data-name="Caminho 117201" d="M1500.671,18.982a3.782,3.782,0,1,1-3.782-3.782,3.782,3.782,0,0,1,3.782,3.782" transform="translate(-316.787 -3.225)" fill="#ef622f"/>
        <path id="Caminho_117202" data-name="Caminho 117202" d="M1574.128,19.143a3.183,3.183,0,1,1-3.183-3.183,3.183,3.183,0,0,1,3.183,3.183" transform="translate(-332.627 -3.386)" fill="#ef622f"/>
        <path id="Caminho_117203" data-name="Caminho 117203" d="M1647.586,19.3A2.584,2.584,0,1,1,1645,16.72a2.584,2.584,0,0,1,2.583,2.584" transform="translate(-348.466 -3.547)" fill="#ef622f"/>
        <path id="Caminho_117204" data-name="Caminho 117204" d="M1721.045,19.465a1.985,1.985,0,1,1-1.985-1.985,1.985,1.985,0,0,1,1.985,1.985" transform="translate(-364.306 -3.709)" fill="#ef622f"/>
        <path id="Caminho_117205" data-name="Caminho 117205" d="M1794.5,19.627a1.387,1.387,0,1,1-1.387-1.387,1.387,1.387,0,0,1,1.387,1.387" transform="translate(-380.145 -3.87)" fill="#ef622f"/>
        <path id="Caminho_117206" data-name="Caminho 117206" d="M1867.961,19.788a.788.788,0,1,1-.788-.788.788.788,0,0,1,.788.788" transform="translate(-395.985 -4.031)" fill="#ef622f"/>
        <path id="Caminho_117207" data-name="Caminho 117207" d="M31.513,98.918A15.757,15.757,0,1,1,15.757,83.161,15.756,15.756,0,0,1,31.513,98.918" transform="translate(0 -17.644)" fill="#ef622f"/>
        <path id="Caminho_117208" data-name="Caminho 117208" d="M104.971,99.079A15.158,15.158,0,1,1,89.813,83.922a15.158,15.158,0,0,1,15.158,15.157" transform="translate(-15.839 -17.805)" fill="#ef622f"/>
        <path id="Caminho_117209" data-name="Caminho 117209" d="M178.429,99.24A14.559,14.559,0,1,1,163.87,84.682,14.559,14.559,0,0,1,178.429,99.24" transform="translate(-31.679 -17.967)" fill="#ef622f"/>
        <path id="Caminho_117210" data-name="Caminho 117210" d="M251.887,99.4a13.96,13.96,0,1,1-13.96-13.96,13.96,13.96,0,0,1,13.96,13.96" transform="translate(-47.518 -18.128)" fill="#ef622f"/>
        <path id="Caminho_117211" data-name="Caminho 117211" d="M325.345,99.563A13.362,13.362,0,1,1,311.984,86.2a13.362,13.362,0,0,1,13.362,13.361" transform="translate(-63.358 -18.289)" fill="#ef622f"/>
        <path id="Caminho_117212" data-name="Caminho 117212" d="M398.8,99.724A12.763,12.763,0,1,1,386.04,86.962,12.763,12.763,0,0,1,398.8,99.724" transform="translate(-79.197 -18.45)" fill="#ef622f"/>
        <path id="Caminho_117213" data-name="Caminho 117213" d="M472.26,99.885A12.164,12.164,0,1,1,460.1,87.722,12.165,12.165,0,0,1,472.26,99.885" transform="translate(-95.036 -18.612)" fill="#ef622f"/>
        <path id="Caminho_117214" data-name="Caminho 117214" d="M545.719,100.046a11.565,11.565,0,1,1-11.565-11.565,11.565,11.565,0,0,1,11.565,11.565" transform="translate(-110.876 -18.773)" fill="#ef622f"/>
        <path id="Caminho_117215" data-name="Caminho 117215" d="M619.176,100.208A10.967,10.967,0,1,1,608.21,89.241a10.966,10.966,0,0,1,10.967,10.967" transform="translate(-126.715 -18.934)" fill="#ef622f"/>
        <path id="Caminho_117216" data-name="Caminho 117216" d="M692.634,100.369A10.368,10.368,0,1,1,682.266,90a10.368,10.368,0,0,1,10.368,10.368" transform="translate(-142.554 -19.095)" fill="#ef622f"/>
        <path id="Caminho_117217" data-name="Caminho 117217" d="M766.092,100.53a9.769,9.769,0,1,1-9.769-9.769,9.77,9.77,0,0,1,9.769,9.769" transform="translate(-158.394 -19.256)" fill="#ef622f"/>
        <path id="Caminho_117218" data-name="Caminho 117218" d="M839.55,100.691a9.17,9.17,0,1,1-9.17-9.17,9.17,9.17,0,0,1,9.17,9.17" transform="translate(-174.233 -19.418)" fill="#ef622f"/>
        <path id="Caminho_117219" data-name="Caminho 117219" d="M913.008,100.853a8.572,8.572,0,1,1-8.572-8.572,8.572,8.572,0,0,1,8.572,8.572" transform="translate(-190.073 -19.579)" fill="#ef622f"/>
        <path id="Caminho_117220" data-name="Caminho 117220" d="M986.466,101.014a7.973,7.973,0,1,1-7.973-7.972,7.973,7.973,0,0,1,7.973,7.972" transform="translate(-205.912 -19.74)" fill="#ef622f"/>
        <path id="Caminho_117221" data-name="Caminho 117221" d="M1059.923,101.175a7.374,7.374,0,1,1-7.374-7.373,7.374,7.374,0,0,1,7.374,7.373" transform="translate(-221.751 -19.902)" fill="#ef622f"/>
        <path id="Caminho_117222" data-name="Caminho 117222" d="M1133.382,101.337a6.775,6.775,0,1,1-6.776-6.775,6.775,6.775,0,0,1,6.776,6.775" transform="translate(-237.591 -20.063)" fill="#ef622f"/>
        <path id="Caminho_117223" data-name="Caminho 117223" d="M1206.84,101.5a6.177,6.177,0,1,1-6.177-6.176,6.177,6.177,0,0,1,6.177,6.176" transform="translate(-253.43 -20.224)" fill="#ef622f"/>
        <path id="Caminho_117224" data-name="Caminho 117224" d="M1280.3,101.659a5.578,5.578,0,1,1-5.578-5.577,5.579,5.579,0,0,1,5.578,5.577" transform="translate(-269.27 -20.385)" fill="#ef622f"/>
        <path id="Caminho_117225" data-name="Caminho 117225" d="M1353.755,101.82a4.979,4.979,0,1,1-4.979-4.978,4.98,4.98,0,0,1,4.979,4.978" transform="translate(-285.109 -20.547)" fill="#ef622f"/>
        <path id="Caminho_117226" data-name="Caminho 117226" d="M1427.213,101.982a4.38,4.38,0,1,1-4.381-4.38,4.38,4.38,0,0,1,4.381,4.38" transform="translate(-300.948 -20.708)" fill="#ef622f"/>
        <path id="Caminho_117227" data-name="Caminho 117227" d="M1500.671,102.143a3.782,3.782,0,1,1-3.782-3.781,3.781,3.781,0,0,1,3.782,3.781" transform="translate(-316.787 -20.869)" fill="#ef622f"/>
        <path id="Caminho_117228" data-name="Caminho 117228" d="M1574.128,102.3a3.183,3.183,0,1,1-3.183-3.182,3.183,3.183,0,0,1,3.183,3.182" transform="translate(-332.627 -21.03)" fill="#ef622f"/>
        <path id="Caminho_117229" data-name="Caminho 117229" d="M1647.586,102.465A2.584,2.584,0,1,1,1645,99.881a2.584,2.584,0,0,1,2.583,2.584" transform="translate(-348.466 -21.191)" fill="#ef622f"/>
        <path id="Caminho_117230" data-name="Caminho 117230" d="M1721.045,102.626a1.985,1.985,0,1,1-1.985-1.985,1.985,1.985,0,0,1,1.985,1.985" transform="translate(-364.306 -21.353)" fill="#ef622f"/>
        <path id="Caminho_117231" data-name="Caminho 117231" d="M1794.5,102.788a1.387,1.387,0,1,1-1.387-1.387,1.388,1.388,0,0,1,1.387,1.387" transform="translate(-380.145 -21.514)" fill="#ef622f"/>
        <path id="Caminho_117232" data-name="Caminho 117232" d="M1867.961,102.949a.788.788,0,1,1-.788-.788.788.788,0,0,1,.788.788" transform="translate(-395.985 -21.675)" fill="#ef622f"/>
        <path id="Caminho_117233" data-name="Caminho 117233" d="M31.513,182.08a15.757,15.757,0,1,1-15.757-15.757A15.756,15.756,0,0,1,31.513,182.08" transform="translate(0 -35.288)" fill="#ef622f"/>
        <path id="Caminho_117234" data-name="Caminho 117234" d="M104.971,182.241a15.158,15.158,0,1,1-15.158-15.158,15.158,15.158,0,0,1,15.158,15.158" transform="translate(-15.839 -35.449)" fill="#ef622f"/>
        <path id="Caminho_117235" data-name="Caminho 117235" d="M178.429,182.4a14.559,14.559,0,1,1-14.559-14.559A14.559,14.559,0,0,1,178.429,182.4" transform="translate(-31.679 -35.611)" fill="#ef622f"/>
        <path id="Caminho_117236" data-name="Caminho 117236" d="M251.887,182.563a13.96,13.96,0,1,1-13.96-13.96,13.961,13.961,0,0,1,13.96,13.96" transform="translate(-47.518 -35.772)" fill="#ef622f"/>
        <path id="Caminho_117237" data-name="Caminho 117237" d="M325.345,182.725a13.362,13.362,0,1,1-13.362-13.362,13.361,13.361,0,0,1,13.362,13.362" transform="translate(-63.358 -35.933)" fill="#ef622f"/>
        <path id="Caminho_117238" data-name="Caminho 117238" d="M398.8,182.886a12.763,12.763,0,1,1-12.763-12.763A12.763,12.763,0,0,1,398.8,182.886" transform="translate(-79.197 -36.094)" fill="#ef622f"/>
        <path id="Caminho_117239" data-name="Caminho 117239" d="M472.26,183.047A12.164,12.164,0,1,1,460.1,170.883a12.164,12.164,0,0,1,12.164,12.164" transform="translate(-95.036 -36.256)" fill="#ef622f"/>
        <path id="Caminho_117240" data-name="Caminho 117240" d="M545.719,183.208a11.565,11.565,0,1,1-11.565-11.565,11.565,11.565,0,0,1,11.565,11.565" transform="translate(-110.876 -36.417)" fill="#ef622f"/>
        <path id="Caminho_117241" data-name="Caminho 117241" d="M619.176,183.37A10.967,10.967,0,1,1,608.21,172.4a10.966,10.966,0,0,1,10.967,10.967" transform="translate(-126.715 -36.578)" fill="#ef622f"/>
        <path id="Caminho_117242" data-name="Caminho 117242" d="M692.634,183.531a10.368,10.368,0,1,1-10.368-10.368,10.368,10.368,0,0,1,10.368,10.368" transform="translate(-142.554 -36.739)" fill="#ef622f"/>
        <path id="Caminho_117243" data-name="Caminho 117243" d="M766.092,183.692a9.769,9.769,0,1,1-9.769-9.769,9.769,9.769,0,0,1,9.769,9.769" transform="translate(-158.394 -36.901)" fill="#ef622f"/>
        <path id="Caminho_117244" data-name="Caminho 117244" d="M839.55,183.853a9.17,9.17,0,1,1-9.17-9.17,9.17,9.17,0,0,1,9.17,9.17" transform="translate(-174.233 -37.062)" fill="#ef622f"/>
        <path id="Caminho_117245" data-name="Caminho 117245" d="M913.008,184.015a8.572,8.572,0,1,1-8.572-8.572,8.572,8.572,0,0,1,8.572,8.572" transform="translate(-190.073 -37.223)" fill="#ef622f"/>
        <path id="Caminho_117246" data-name="Caminho 117246" d="M986.466,184.176a7.973,7.973,0,1,1-7.973-7.973,7.973,7.973,0,0,1,7.973,7.973" transform="translate(-205.912 -37.384)" fill="#ef622f"/>
        <path id="Caminho_117247" data-name="Caminho 117247" d="M1059.923,184.337a7.374,7.374,0,1,1-7.374-7.374,7.375,7.375,0,0,1,7.374,7.374" transform="translate(-221.751 -37.546)" fill="#ef622f"/>
        <path id="Caminho_117248" data-name="Caminho 117248" d="M1133.382,184.5a6.775,6.775,0,1,1-6.776-6.775,6.775,6.775,0,0,1,6.776,6.775" transform="translate(-237.591 -37.707)" fill="#ef622f"/>
        <path id="Caminho_117249" data-name="Caminho 117249" d="M1206.84,184.66a6.177,6.177,0,1,1-6.177-6.177,6.177,6.177,0,0,1,6.177,6.177" transform="translate(-253.43 -37.868)" fill="#ef622f"/>
        <path id="Caminho_117250" data-name="Caminho 117250" d="M1280.3,184.821a5.578,5.578,0,1,1-5.578-5.578,5.579,5.579,0,0,1,5.578,5.578" transform="translate(-269.27 -38.029)" fill="#ef622f"/>
        <path id="Caminho_117251" data-name="Caminho 117251" d="M1353.755,184.982a4.979,4.979,0,1,1-4.979-4.979,4.979,4.979,0,0,1,4.979,4.979" transform="translate(-285.109 -38.191)" fill="#ef622f"/>
        <path id="Caminho_117252" data-name="Caminho 117252" d="M1427.213,185.143a4.38,4.38,0,1,1-4.381-4.38,4.38,4.38,0,0,1,4.381,4.38" transform="translate(-300.948 -38.352)" fill="#ef622f"/>
        <path id="Caminho_117253" data-name="Caminho 117253" d="M1500.671,185.3a3.782,3.782,0,1,1-3.782-3.782,3.782,3.782,0,0,1,3.782,3.782" transform="translate(-316.787 -38.513)" fill="#ef622f"/>
        <path id="Caminho_117254" data-name="Caminho 117254" d="M1574.128,185.466a3.183,3.183,0,1,1-3.183-3.183,3.183,3.183,0,0,1,3.183,3.183" transform="translate(-332.627 -38.674)" fill="#ef622f"/>
        <path id="Caminho_117255" data-name="Caminho 117255" d="M1647.586,185.627a2.584,2.584,0,1,1-2.583-2.584,2.584,2.584,0,0,1,2.583,2.584" transform="translate(-348.466 -38.836)" fill="#ef622f"/>
        <path id="Caminho_117256" data-name="Caminho 117256" d="M1721.045,185.788a1.985,1.985,0,1,1-1.985-1.985,1.985,1.985,0,0,1,1.985,1.985" transform="translate(-364.306 -38.997)" fill="#ef622f"/>
        <path id="Caminho_117257" data-name="Caminho 117257" d="M1794.5,185.95a1.387,1.387,0,1,1-1.387-1.387,1.387,1.387,0,0,1,1.387,1.387" transform="translate(-380.145 -39.158)" fill="#ef622f"/>
        <path id="Caminho_117258" data-name="Caminho 117258" d="M1867.961,186.111a.788.788,0,1,1-.788-.788.788.788,0,0,1,.788.788" transform="translate(-395.985 -39.319)" fill="#ef622f"/>
        <path id="Caminho_117259" data-name="Caminho 117259" d="M31.513,265.242a15.757,15.757,0,1,1-15.757-15.757,15.756,15.756,0,0,1,15.757,15.757" transform="translate(0 -52.932)" fill="#ef622f"/>
        <path id="Caminho_117260" data-name="Caminho 117260" d="M104.971,265.4a15.158,15.158,0,1,1-15.158-15.158A15.158,15.158,0,0,1,104.971,265.4" transform="translate(-15.839 -53.094)" fill="#ef622f"/>
        <path id="Caminho_117261" data-name="Caminho 117261" d="M178.429,265.564a14.559,14.559,0,1,1-14.559-14.559,14.559,14.559,0,0,1,14.559,14.559" transform="translate(-31.679 -53.255)" fill="#ef622f"/>
        <path id="Caminho_117262" data-name="Caminho 117262" d="M251.887,265.725a13.96,13.96,0,1,1-13.96-13.96,13.961,13.961,0,0,1,13.96,13.96" transform="translate(-47.518 -53.416)" fill="#ef622f"/>
        <path id="Caminho_117263" data-name="Caminho 117263" d="M325.345,265.887a13.362,13.362,0,1,1-13.362-13.362,13.361,13.361,0,0,1,13.362,13.362" transform="translate(-63.358 -53.577)" fill="#ef622f"/>
        <path id="Caminho_117264" data-name="Caminho 117264" d="M398.8,266.048a12.763,12.763,0,1,1-12.763-12.763A12.763,12.763,0,0,1,398.8,266.048" transform="translate(-79.197 -53.739)" fill="#ef622f"/>
        <path id="Caminho_117265" data-name="Caminho 117265" d="M472.26,266.209A12.164,12.164,0,1,1,460.1,254.045a12.164,12.164,0,0,1,12.164,12.164" transform="translate(-95.036 -53.9)" fill="#ef622f"/>
        <path id="Caminho_117266" data-name="Caminho 117266" d="M545.719,266.37a11.565,11.565,0,1,1-11.565-11.565,11.565,11.565,0,0,1,11.565,11.565" transform="translate(-110.876 -54.061)" fill="#ef622f"/>
        <path id="Caminho_117267" data-name="Caminho 117267" d="M619.176,266.532a10.967,10.967,0,1,1-10.967-10.967,10.966,10.966,0,0,1,10.967,10.967" transform="translate(-126.715 -54.222)" fill="#ef622f"/>
        <path id="Caminho_117268" data-name="Caminho 117268" d="M692.634,266.693a10.368,10.368,0,1,1-10.368-10.368,10.368,10.368,0,0,1,10.368,10.368" transform="translate(-142.554 -54.384)" fill="#ef622f"/>
        <path id="Caminho_117269" data-name="Caminho 117269" d="M766.092,266.854a9.769,9.769,0,1,1-9.769-9.769,9.769,9.769,0,0,1,9.769,9.769" transform="translate(-158.394 -54.545)" fill="#ef622f"/>
        <path id="Caminho_117270" data-name="Caminho 117270" d="M839.55,267.015a9.17,9.17,0,1,1-9.17-9.17,9.17,9.17,0,0,1,9.17,9.17" transform="translate(-174.233 -54.706)" fill="#ef622f"/>
        <path id="Caminho_117271" data-name="Caminho 117271" d="M913.008,267.177a8.572,8.572,0,1,1-8.572-8.572,8.572,8.572,0,0,1,8.572,8.572" transform="translate(-190.073 -54.867)" fill="#ef622f"/>
        <path id="Caminho_117272" data-name="Caminho 117272" d="M986.466,267.338a7.973,7.973,0,1,1-7.973-7.973,7.973,7.973,0,0,1,7.973,7.973" transform="translate(-205.912 -55.029)" fill="#ef622f"/>
        <path id="Caminho_117273" data-name="Caminho 117273" d="M1059.923,267.5a7.374,7.374,0,1,1-7.374-7.374,7.375,7.375,0,0,1,7.374,7.374" transform="translate(-221.751 -55.19)" fill="#ef622f"/>
        <path id="Caminho_117274" data-name="Caminho 117274" d="M1133.382,267.66a6.775,6.775,0,1,1-6.776-6.775,6.775,6.775,0,0,1,6.776,6.775" transform="translate(-237.591 -55.351)" fill="#ef622f"/>
        <path id="Caminho_117275" data-name="Caminho 117275" d="M1206.84,267.822a6.177,6.177,0,1,1-6.177-6.177,6.177,6.177,0,0,1,6.177,6.177" transform="translate(-253.43 -55.512)" fill="#ef622f"/>
        <path id="Caminho_117276" data-name="Caminho 117276" d="M1280.3,267.983a5.578,5.578,0,1,1-5.578-5.578,5.579,5.579,0,0,1,5.578,5.578" transform="translate(-269.27 -55.674)" fill="#ef622f"/>
        <path id="Caminho_117277" data-name="Caminho 117277" d="M1353.755,268.144a4.979,4.979,0,1,1-4.979-4.979,4.979,4.979,0,0,1,4.979,4.979" transform="translate(-285.109 -55.835)" fill="#ef622f"/>
        <path id="Caminho_117278" data-name="Caminho 117278" d="M1427.213,268.305a4.38,4.38,0,1,1-4.381-4.38,4.38,4.38,0,0,1,4.381,4.38" transform="translate(-300.948 -55.996)" fill="#ef622f"/>
        <path id="Caminho_117279" data-name="Caminho 117279" d="M1500.671,268.467a3.782,3.782,0,1,1-3.782-3.782,3.782,3.782,0,0,1,3.782,3.782" transform="translate(-316.787 -56.157)" fill="#ef622f"/>
        <path id="Caminho_117280" data-name="Caminho 117280" d="M1574.128,268.628a3.183,3.183,0,1,1-3.183-3.183,3.183,3.183,0,0,1,3.183,3.183" transform="translate(-332.627 -56.319)" fill="#ef622f"/>
        <path id="Caminho_117281" data-name="Caminho 117281" d="M1647.586,268.789A2.584,2.584,0,1,1,1645,266.2a2.584,2.584,0,0,1,2.583,2.584" transform="translate(-348.466 -56.48)" fill="#ef622f"/>
        <path id="Caminho_117282" data-name="Caminho 117282" d="M1721.045,268.95a1.985,1.985,0,1,1-1.985-1.985,1.985,1.985,0,0,1,1.985,1.985" transform="translate(-364.306 -56.641)" fill="#ef622f"/>
        <path id="Caminho_117283" data-name="Caminho 117283" d="M1794.5,269.112a1.387,1.387,0,1,1-1.387-1.387,1.387,1.387,0,0,1,1.387,1.387" transform="translate(-380.145 -56.802)" fill="#ef622f"/>
        <path id="Caminho_117284" data-name="Caminho 117284" d="M1867.961,269.273a.788.788,0,1,1-.788-.788.788.788,0,0,1,.788.788" transform="translate(-395.985 -56.964)" fill="#ef622f"/>
        <path id="Caminho_117285" data-name="Caminho 117285" d="M31.513,348.4a15.757,15.757,0,1,1-15.757-15.757A15.756,15.756,0,0,1,31.513,348.4" transform="translate(0 -70.576)" fill="#ef622f"/>
        <path id="Caminho_117286" data-name="Caminho 117286" d="M104.971,348.564a15.158,15.158,0,1,1-15.158-15.158,15.158,15.158,0,0,1,15.158,15.158" transform="translate(-15.839 -70.738)" fill="#ef622f"/>
        <path id="Caminho_117287" data-name="Caminho 117287" d="M178.429,348.725a14.559,14.559,0,1,1-14.559-14.559,14.559,14.559,0,0,1,14.559,14.559" transform="translate(-31.679 -70.899)" fill="#ef622f"/>
        <path id="Caminho_117288" data-name="Caminho 117288" d="M251.887,348.886a13.96,13.96,0,1,1-13.96-13.96,13.961,13.961,0,0,1,13.96,13.96" transform="translate(-47.518 -71.06)" fill="#ef622f"/>
        <path id="Caminho_117289" data-name="Caminho 117289" d="M325.345,349.048a13.362,13.362,0,1,1-13.362-13.362,13.361,13.361,0,0,1,13.362,13.362" transform="translate(-63.358 -71.221)" fill="#ef622f"/>
        <path id="Caminho_117290" data-name="Caminho 117290" d="M398.8,349.209a12.763,12.763,0,1,1-12.763-12.763A12.763,12.763,0,0,1,398.8,349.209" transform="translate(-79.197 -71.383)" fill="#ef622f"/>
        <path id="Caminho_117291" data-name="Caminho 117291" d="M472.26,349.37A12.164,12.164,0,1,1,460.1,337.206,12.164,12.164,0,0,1,472.26,349.37" transform="translate(-95.036 -71.544)" fill="#ef622f"/>
        <path id="Caminho_117292" data-name="Caminho 117292" d="M545.719,349.531a11.565,11.565,0,1,1-11.565-11.565,11.565,11.565,0,0,1,11.565,11.565" transform="translate(-110.876 -71.705)" fill="#ef622f"/>
        <path id="Caminho_117293" data-name="Caminho 117293" d="M619.176,349.693a10.967,10.967,0,1,1-10.967-10.967,10.966,10.966,0,0,1,10.967,10.967" transform="translate(-126.715 -71.866)" fill="#ef622f"/>
        <path id="Caminho_117294" data-name="Caminho 117294" d="M692.634,349.854a10.368,10.368,0,1,1-10.368-10.368,10.368,10.368,0,0,1,10.368,10.368" transform="translate(-142.554 -72.028)" fill="#ef622f"/>
        <path id="Caminho_117295" data-name="Caminho 117295" d="M766.092,350.015a9.769,9.769,0,1,1-9.769-9.769,9.769,9.769,0,0,1,9.769,9.769" transform="translate(-158.394 -72.189)" fill="#ef622f"/>
        <path id="Caminho_117296" data-name="Caminho 117296" d="M839.55,350.176a9.17,9.17,0,1,1-9.17-9.17,9.17,9.17,0,0,1,9.17,9.17" transform="translate(-174.233 -72.35)" fill="#ef622f"/>
        <path id="Caminho_117297" data-name="Caminho 117297" d="M913.008,350.338a8.572,8.572,0,1,1-8.572-8.572,8.572,8.572,0,0,1,8.572,8.572" transform="translate(-190.073 -72.511)" fill="#ef622f"/>
        <path id="Caminho_117298" data-name="Caminho 117298" d="M986.466,350.5a7.973,7.973,0,1,1-7.973-7.973,7.973,7.973,0,0,1,7.973,7.973" transform="translate(-205.912 -72.673)" fill="#ef622f"/>
        <path id="Caminho_117299" data-name="Caminho 117299" d="M1059.923,350.66a7.374,7.374,0,1,1-7.374-7.374,7.375,7.375,0,0,1,7.374,7.374" transform="translate(-221.751 -72.834)" fill="#ef622f"/>
        <path id="Caminho_117300" data-name="Caminho 117300" d="M1133.382,350.821a6.775,6.775,0,1,1-6.776-6.775,6.775,6.775,0,0,1,6.776,6.775" transform="translate(-237.591 -72.995)" fill="#ef622f"/>
        <path id="Caminho_117301" data-name="Caminho 117301" d="M1206.84,350.983a6.177,6.177,0,1,1-6.177-6.177,6.177,6.177,0,0,1,6.177,6.177" transform="translate(-253.43 -73.156)" fill="#ef622f"/>
        <path id="Caminho_117302" data-name="Caminho 117302" d="M1280.3,351.144a5.578,5.578,0,1,1-5.578-5.578,5.579,5.579,0,0,1,5.578,5.578" transform="translate(-269.27 -73.317)" fill="#ef622f"/>
        <path id="Caminho_117303" data-name="Caminho 117303" d="M1353.755,351.305a4.979,4.979,0,1,1-4.979-4.979,4.979,4.979,0,0,1,4.979,4.979" transform="translate(-285.109 -73.479)" fill="#ef622f"/>
        <path id="Caminho_117304" data-name="Caminho 117304" d="M1427.213,351.466a4.38,4.38,0,1,1-4.381-4.38,4.38,4.38,0,0,1,4.381,4.38" transform="translate(-300.948 -73.64)" fill="#ef622f"/>
        <path id="Caminho_117305" data-name="Caminho 117305" d="M1500.671,351.628a3.782,3.782,0,1,1-3.782-3.782,3.782,3.782,0,0,1,3.782,3.782" transform="translate(-316.787 -73.801)" fill="#ef622f"/>
        <path id="Caminho_117306" data-name="Caminho 117306" d="M1574.128,351.789a3.183,3.183,0,1,1-3.183-3.183,3.183,3.183,0,0,1,3.183,3.183" transform="translate(-332.627 -73.963)" fill="#ef622f"/>
        <path id="Caminho_117307" data-name="Caminho 117307" d="M1647.586,351.95a2.584,2.584,0,1,1-2.583-2.584,2.584,2.584,0,0,1,2.583,2.584" transform="translate(-348.466 -74.124)" fill="#ef622f"/>
        <path id="Caminho_117308" data-name="Caminho 117308" d="M1721.045,352.111a1.985,1.985,0,1,1-1.985-1.985,1.985,1.985,0,0,1,1.985,1.985" transform="translate(-364.306 -74.285)" fill="#ef622f"/>
        <path id="Caminho_117309" data-name="Caminho 117309" d="M1794.5,352.273a1.387,1.387,0,1,1-1.387-1.387,1.387,1.387,0,0,1,1.387,1.387" transform="translate(-380.145 -74.446)" fill="#ef622f"/>
        <path id="Caminho_117310" data-name="Caminho 117310" d="M1867.961,352.434a.788.788,0,1,1-.788-.788.788.788,0,0,1,.788.788" transform="translate(-395.985 -74.608)" fill="#ef622f"/>
        <path id="Caminho_117311" data-name="Caminho 117311" d="M31.513,431.565a15.757,15.757,0,1,1-15.757-15.757,15.756,15.756,0,0,1,15.757,15.757" transform="translate(0 -88.22)" fill="#ef622f"/>
        <path id="Caminho_117312" data-name="Caminho 117312" d="M104.971,431.726a15.158,15.158,0,1,1-15.158-15.158,15.158,15.158,0,0,1,15.158,15.158" transform="translate(-15.839 -88.382)" fill="#ef622f"/>
        <path id="Caminho_117313" data-name="Caminho 117313" d="M178.429,431.887a14.559,14.559,0,1,1-14.559-14.559,14.559,14.559,0,0,1,14.559,14.559" transform="translate(-31.679 -88.543)" fill="#ef622f"/>
        <path id="Caminho_117314" data-name="Caminho 117314" d="M251.887,432.048a13.96,13.96,0,1,1-13.96-13.96,13.961,13.961,0,0,1,13.96,13.96" transform="translate(-47.518 -88.704)" fill="#ef622f"/>
        <path id="Caminho_117315" data-name="Caminho 117315" d="M325.345,432.21a13.362,13.362,0,1,1-13.362-13.362,13.361,13.361,0,0,1,13.362,13.362" transform="translate(-63.358 -88.865)" fill="#ef622f"/>
        <path id="Caminho_117316" data-name="Caminho 117316" d="M398.8,432.371a12.763,12.763,0,1,1-12.763-12.763A12.763,12.763,0,0,1,398.8,432.371" transform="translate(-79.197 -89.027)" fill="#ef622f"/>
        <path id="Caminho_117317" data-name="Caminho 117317" d="M472.26,432.532A12.164,12.164,0,1,1,460.1,420.368a12.164,12.164,0,0,1,12.164,12.164" transform="translate(-95.036 -89.188)" fill="#ef622f"/>
        <path id="Caminho_117318" data-name="Caminho 117318" d="M545.719,432.693a11.565,11.565,0,1,1-11.565-11.565,11.565,11.565,0,0,1,11.565,11.565" transform="translate(-110.876 -89.349)" fill="#ef622f"/>
        <path id="Caminho_117319" data-name="Caminho 117319" d="M619.176,432.855a10.967,10.967,0,1,1-10.967-10.967,10.967,10.967,0,0,1,10.967,10.967" transform="translate(-126.715 -89.51)" fill="#ef622f"/>
        <path id="Caminho_117320" data-name="Caminho 117320" d="M692.634,433.016a10.368,10.368,0,1,1-10.368-10.368,10.368,10.368,0,0,1,10.368,10.368" transform="translate(-142.554 -89.672)" fill="#ef622f"/>
        <path id="Caminho_117321" data-name="Caminho 117321" d="M766.092,433.177a9.769,9.769,0,1,1-9.769-9.769,9.769,9.769,0,0,1,9.769,9.769" transform="translate(-158.394 -89.833)" fill="#ef622f"/>
        <path id="Caminho_117322" data-name="Caminho 117322" d="M839.55,433.338a9.17,9.17,0,1,1-9.17-9.17,9.17,9.17,0,0,1,9.17,9.17" transform="translate(-174.233 -89.994)" fill="#ef622f"/>
        <path id="Caminho_117323" data-name="Caminho 117323" d="M913.008,433.5a8.572,8.572,0,1,1-8.572-8.572,8.571,8.571,0,0,1,8.572,8.572" transform="translate(-190.073 -90.155)" fill="#ef622f"/>
        <path id="Caminho_117324" data-name="Caminho 117324" d="M986.466,433.661a7.973,7.973,0,1,1-7.973-7.973,7.973,7.973,0,0,1,7.973,7.973" transform="translate(-205.912 -90.317)" fill="#ef622f"/>
        <path id="Caminho_117325" data-name="Caminho 117325" d="M1059.923,433.822a7.374,7.374,0,1,1-7.374-7.374,7.375,7.375,0,0,1,7.374,7.374" transform="translate(-221.751 -90.478)" fill="#ef622f"/>
        <path id="Caminho_117326" data-name="Caminho 117326" d="M1133.382,433.983a6.775,6.775,0,1,1-6.776-6.775,6.775,6.775,0,0,1,6.776,6.775" transform="translate(-237.591 -90.639)" fill="#ef622f"/>
        <path id="Caminho_117327" data-name="Caminho 117327" d="M1206.84,434.145a6.177,6.177,0,1,1-6.177-6.177,6.177,6.177,0,0,1,6.177,6.177" transform="translate(-253.43 -90.8)" fill="#ef622f"/>
        <path id="Caminho_117328" data-name="Caminho 117328" d="M1280.3,434.306a5.578,5.578,0,1,1-5.578-5.578,5.579,5.579,0,0,1,5.578,5.578" transform="translate(-269.27 -90.962)" fill="#ef622f"/>
        <path id="Caminho_117329" data-name="Caminho 117329" d="M1353.755,434.467a4.979,4.979,0,1,1-4.979-4.979,4.979,4.979,0,0,1,4.979,4.979" transform="translate(-285.109 -91.123)" fill="#ef622f"/>
        <path id="Caminho_117330" data-name="Caminho 117330" d="M1427.213,434.628a4.38,4.38,0,1,1-4.381-4.38,4.38,4.38,0,0,1,4.381,4.38" transform="translate(-300.948 -91.284)" fill="#ef622f"/>
        <path id="Caminho_117331" data-name="Caminho 117331" d="M1500.671,434.79a3.782,3.782,0,1,1-3.782-3.782,3.782,3.782,0,0,1,3.782,3.782" transform="translate(-316.787 -91.445)" fill="#ef622f"/>
        <path id="Caminho_117332" data-name="Caminho 117332" d="M1574.128,434.951a3.183,3.183,0,1,1-3.183-3.183,3.183,3.183,0,0,1,3.183,3.183" transform="translate(-332.627 -91.607)" fill="#ef622f"/>
        <path id="Caminho_117333" data-name="Caminho 117333" d="M1647.586,435.112a2.584,2.584,0,1,1-2.583-2.584,2.584,2.584,0,0,1,2.583,2.584" transform="translate(-348.466 -91.768)" fill="#ef622f"/>
        <path id="Caminho_117334" data-name="Caminho 117334" d="M1721.045,435.273a1.985,1.985,0,1,1-1.985-1.985,1.985,1.985,0,0,1,1.985,1.985" transform="translate(-364.306 -91.929)" fill="#ef622f"/>
        <path id="Caminho_117335" data-name="Caminho 117335" d="M1794.5,435.435a1.387,1.387,0,1,1-1.387-1.387,1.387,1.387,0,0,1,1.387,1.387" transform="translate(-380.145 -92.09)" fill="#ef622f"/>
        <path id="Caminho_117336" data-name="Caminho 117336" d="M1867.961,435.6a.788.788,0,1,1-.788-.788.788.788,0,0,1,.788.788" transform="translate(-395.985 -92.252)" fill="#ef622f"/>
        <path id="Caminho_117337" data-name="Caminho 117337" d="M31.513,514.726a15.757,15.757,0,1,1-15.757-15.757,15.756,15.756,0,0,1,15.757,15.757" transform="translate(0 -105.865)" fill="#ef622f"/>
        <path id="Caminho_117338" data-name="Caminho 117338" d="M104.971,514.887a15.158,15.158,0,1,1-15.158-15.158,15.158,15.158,0,0,1,15.158,15.158" transform="translate(-15.839 -106.026)" fill="#ef622f"/>
        <path id="Caminho_117339" data-name="Caminho 117339" d="M178.429,515.048a14.559,14.559,0,1,1-14.559-14.559,14.559,14.559,0,0,1,14.559,14.559" transform="translate(-31.679 -106.187)" fill="#ef622f"/>
        <path id="Caminho_117340" data-name="Caminho 117340" d="M251.887,515.209a13.96,13.96,0,1,1-13.96-13.96,13.961,13.961,0,0,1,13.96,13.96" transform="translate(-47.518 -106.348)" fill="#ef622f"/>
        <path id="Caminho_117341" data-name="Caminho 117341" d="M325.345,515.371a13.362,13.362,0,1,1-13.362-13.362,13.361,13.361,0,0,1,13.362,13.362" transform="translate(-63.358 -106.51)" fill="#ef622f"/>
        <path id="Caminho_117342" data-name="Caminho 117342" d="M398.8,515.532a12.763,12.763,0,1,1-12.763-12.763A12.763,12.763,0,0,1,398.8,515.532" transform="translate(-79.197 -106.671)" fill="#ef622f"/>
        <path id="Caminho_117343" data-name="Caminho 117343" d="M472.26,515.693A12.164,12.164,0,1,1,460.1,503.529a12.164,12.164,0,0,1,12.164,12.164" transform="translate(-95.036 -106.832)" fill="#ef622f"/>
        <path id="Caminho_117344" data-name="Caminho 117344" d="M545.719,515.854a11.565,11.565,0,1,1-11.565-11.565,11.565,11.565,0,0,1,11.565,11.565" transform="translate(-110.876 -106.993)" fill="#ef622f"/>
        <path id="Caminho_117345" data-name="Caminho 117345" d="M619.176,516.016a10.967,10.967,0,1,1-10.967-10.967,10.966,10.966,0,0,1,10.967,10.967" transform="translate(-126.715 -107.155)" fill="#ef622f"/>
        <path id="Caminho_117346" data-name="Caminho 117346" d="M692.634,516.177a10.368,10.368,0,1,1-10.368-10.368,10.368,10.368,0,0,1,10.368,10.368" transform="translate(-142.554 -107.316)" fill="#ef622f"/>
        <path id="Caminho_117347" data-name="Caminho 117347" d="M766.092,516.338a9.769,9.769,0,1,1-9.769-9.769,9.769,9.769,0,0,1,9.769,9.769" transform="translate(-158.394 -107.477)" fill="#ef622f"/>
        <path id="Caminho_117348" data-name="Caminho 117348" d="M839.55,516.5a9.17,9.17,0,1,1-9.17-9.17,9.17,9.17,0,0,1,9.17,9.17" transform="translate(-174.233 -107.638)" fill="#ef622f"/>
        <path id="Caminho_117349" data-name="Caminho 117349" d="M913.008,516.661a8.572,8.572,0,1,1-8.572-8.572,8.571,8.571,0,0,1,8.572,8.572" transform="translate(-190.073 -107.799)" fill="#ef622f"/>
        <path id="Caminho_117350" data-name="Caminho 117350" d="M986.466,516.822a7.973,7.973,0,1,1-7.973-7.973,7.973,7.973,0,0,1,7.973,7.973" transform="translate(-205.912 -107.961)" fill="#ef622f"/>
        <path id="Caminho_117351" data-name="Caminho 117351" d="M1059.923,516.983a7.374,7.374,0,1,1-7.374-7.374,7.374,7.374,0,0,1,7.374,7.374" transform="translate(-221.751 -108.122)" fill="#ef622f"/>
        <path id="Caminho_117352" data-name="Caminho 117352" d="M1133.382,517.144a6.775,6.775,0,1,1-6.776-6.775,6.775,6.775,0,0,1,6.776,6.775" transform="translate(-237.591 -108.283)" fill="#ef622f"/>
        <path id="Caminho_117353" data-name="Caminho 117353" d="M1206.84,517.306a6.177,6.177,0,1,1-6.177-6.177,6.177,6.177,0,0,1,6.177,6.177" transform="translate(-253.43 -108.445)" fill="#ef622f"/>
        <path id="Caminho_117354" data-name="Caminho 117354" d="M1280.3,517.467a5.578,5.578,0,1,1-5.578-5.578,5.578,5.578,0,0,1,5.578,5.578" transform="translate(-269.27 -108.606)" fill="#ef622f"/>
        <path id="Caminho_117355" data-name="Caminho 117355" d="M1353.755,517.628a4.979,4.979,0,1,1-4.979-4.979,4.979,4.979,0,0,1,4.979,4.979" transform="translate(-285.109 -108.767)" fill="#ef622f"/>
        <path id="Caminho_117356" data-name="Caminho 117356" d="M1427.213,517.789a4.38,4.38,0,1,1-4.381-4.38,4.38,4.38,0,0,1,4.381,4.38" transform="translate(-300.948 -108.928)" fill="#ef622f"/>
        <path id="Caminho_117357" data-name="Caminho 117357" d="M1500.671,517.951a3.782,3.782,0,1,1-3.782-3.782,3.782,3.782,0,0,1,3.782,3.782" transform="translate(-316.787 -109.089)" fill="#ef622f"/>
        <path id="Caminho_117358" data-name="Caminho 117358" d="M1574.128,518.112a3.183,3.183,0,1,1-3.183-3.183,3.183,3.183,0,0,1,3.183,3.183" transform="translate(-332.627 -109.251)" fill="#ef622f"/>
        <path id="Caminho_117359" data-name="Caminho 117359" d="M1647.586,518.273a2.584,2.584,0,1,1-2.583-2.584,2.584,2.584,0,0,1,2.583,2.584" transform="translate(-348.466 -109.412)" fill="#ef622f"/>
        <path id="Caminho_117360" data-name="Caminho 117360" d="M1721.045,518.434a1.985,1.985,0,1,1-1.985-1.985,1.985,1.985,0,0,1,1.985,1.985" transform="translate(-364.306 -109.573)" fill="#ef622f"/>
        <path id="Caminho_117361" data-name="Caminho 117361" d="M1794.5,518.6a1.387,1.387,0,1,1-1.387-1.386,1.387,1.387,0,0,1,1.387,1.386" transform="translate(-380.145 -109.735)" fill="#ef622f"/>
        <path id="Caminho_117362" data-name="Caminho 117362" d="M1867.961,518.757a.788.788,0,1,1-.788-.788.788.788,0,0,1,.788.788" transform="translate(-395.985 -109.896)" fill="#ef622f"/>
        <path id="Caminho_117363" data-name="Caminho 117363" d="M31.513,597.888a15.757,15.757,0,1,1-15.757-15.757,15.756,15.756,0,0,1,15.757,15.757" transform="translate(0 -123.509)" fill="#ef622f"/>
        <path id="Caminho_117364" data-name="Caminho 117364" d="M104.971,598.049a15.158,15.158,0,1,1-15.158-15.158,15.158,15.158,0,0,1,15.158,15.158" transform="translate(-15.839 -123.67)" fill="#ef622f"/>
        <path id="Caminho_117365" data-name="Caminho 117365" d="M178.429,598.21a14.559,14.559,0,1,1-14.559-14.559,14.559,14.559,0,0,1,14.559,14.559" transform="translate(-31.679 -123.831)" fill="#ef622f"/>
        <path id="Caminho_117366" data-name="Caminho 117366" d="M251.887,598.371a13.96,13.96,0,1,1-13.96-13.96,13.961,13.961,0,0,1,13.96,13.96" transform="translate(-47.518 -123.992)" fill="#ef622f"/>
        <path id="Caminho_117367" data-name="Caminho 117367" d="M325.345,598.532a13.362,13.362,0,1,1-13.362-13.362,13.361,13.361,0,0,1,13.362,13.362" transform="translate(-63.358 -124.154)" fill="#ef622f"/>
        <path id="Caminho_117368" data-name="Caminho 117368" d="M398.8,598.694a12.763,12.763,0,1,1-12.763-12.763A12.763,12.763,0,0,1,398.8,598.694" transform="translate(-79.197 -124.315)" fill="#ef622f"/>
        <path id="Caminho_117369" data-name="Caminho 117369" d="M472.26,598.855A12.164,12.164,0,1,1,460.1,586.691a12.164,12.164,0,0,1,12.164,12.164" transform="translate(-95.036 -124.476)" fill="#ef622f"/>
        <path id="Caminho_117370" data-name="Caminho 117370" d="M545.719,599.016a11.565,11.565,0,1,1-11.565-11.565,11.565,11.565,0,0,1,11.565,11.565" transform="translate(-110.876 -124.637)" fill="#ef622f"/>
        <path id="Caminho_117371" data-name="Caminho 117371" d="M619.176,599.178a10.967,10.967,0,1,1-10.967-10.967,10.966,10.966,0,0,1,10.967,10.967" transform="translate(-126.715 -124.799)" fill="#ef622f"/>
        <path id="Caminho_117372" data-name="Caminho 117372" d="M692.634,599.339a10.368,10.368,0,1,1-10.368-10.368,10.368,10.368,0,0,1,10.368,10.368" transform="translate(-142.554 -124.96)" fill="#ef622f"/>
        <path id="Caminho_117373" data-name="Caminho 117373" d="M766.092,599.5a9.769,9.769,0,1,1-9.769-9.769,9.77,9.77,0,0,1,9.769,9.769" transform="translate(-158.394 -125.121)" fill="#ef622f"/>
        <path id="Caminho_117374" data-name="Caminho 117374" d="M839.55,599.661a9.17,9.17,0,1,1-9.17-9.17,9.17,9.17,0,0,1,9.17,9.17" transform="translate(-174.233 -125.282)" fill="#ef622f"/>
        <path id="Caminho_117375" data-name="Caminho 117375" d="M913.008,599.822a8.572,8.572,0,1,1-8.572-8.572,8.572,8.572,0,0,1,8.572,8.572" transform="translate(-190.073 -125.444)" fill="#ef622f"/>
        <path id="Caminho_117376" data-name="Caminho 117376" d="M986.466,599.984a7.973,7.973,0,1,1-7.973-7.973,7.973,7.973,0,0,1,7.973,7.973" transform="translate(-205.912 -125.605)" fill="#ef622f"/>
        <path id="Caminho_117377" data-name="Caminho 117377" d="M1059.923,600.145a7.374,7.374,0,1,1-7.374-7.374,7.375,7.375,0,0,1,7.374,7.374" transform="translate(-221.751 -125.766)" fill="#ef622f"/>
        <path id="Caminho_117378" data-name="Caminho 117378" d="M1133.382,600.306a6.775,6.775,0,1,1-6.776-6.775,6.775,6.775,0,0,1,6.776,6.775" transform="translate(-237.591 -125.928)" fill="#ef622f"/>
        <path id="Caminho_117379" data-name="Caminho 117379" d="M1206.84,600.468a6.177,6.177,0,1,1-6.177-6.177,6.177,6.177,0,0,1,6.177,6.177" transform="translate(-253.43 -126.089)" fill="#ef622f"/>
        <path id="Caminho_117380" data-name="Caminho 117380" d="M1280.3,600.629a5.578,5.578,0,1,1-5.578-5.578,5.578,5.578,0,0,1,5.578,5.578" transform="translate(-269.27 -126.25)" fill="#ef622f"/>
        <path id="Caminho_117381" data-name="Caminho 117381" d="M1353.755,600.79a4.979,4.979,0,1,1-4.979-4.979,4.979,4.979,0,0,1,4.979,4.979" transform="translate(-285.109 -126.411)" fill="#ef622f"/>
        <path id="Caminho_117382" data-name="Caminho 117382" d="M1427.213,600.951a4.38,4.38,0,1,1-4.381-4.38,4.38,4.38,0,0,1,4.381,4.38" transform="translate(-300.948 -126.573)" fill="#ef622f"/>
        <path id="Caminho_117383" data-name="Caminho 117383" d="M1500.671,601.113a3.782,3.782,0,1,1-3.782-3.782,3.782,3.782,0,0,1,3.782,3.782" transform="translate(-316.787 -126.733)" fill="#ef622f"/>
        <path id="Caminho_117384" data-name="Caminho 117384" d="M1574.128,601.274a3.183,3.183,0,1,1-3.183-3.183,3.183,3.183,0,0,1,3.183,3.183" transform="translate(-332.627 -126.895)" fill="#ef622f"/>
        <path id="Caminho_117385" data-name="Caminho 117385" d="M1647.586,601.435a2.584,2.584,0,1,1-2.583-2.584,2.584,2.584,0,0,1,2.583,2.584" transform="translate(-348.466 -127.056)" fill="#ef622f"/>
        <path id="Caminho_117386" data-name="Caminho 117386" d="M1721.045,601.6a1.985,1.985,0,1,1-1.985-1.985,1.985,1.985,0,0,1,1.985,1.985" transform="translate(-364.306 -127.217)" fill="#ef622f"/>
        <path id="Caminho_117387" data-name="Caminho 117387" d="M1794.5,601.758a1.387,1.387,0,1,1-1.387-1.387,1.387,1.387,0,0,1,1.387,1.387" transform="translate(-380.145 -127.379)" fill="#ef622f"/>
        <path id="Caminho_117388" data-name="Caminho 117388" d="M1867.961,601.919a.788.788,0,1,1-.788-.788.788.788,0,0,1,.788.788" transform="translate(-395.985 -127.54)" fill="#ef622f"/>
        <path id="Caminho_117389" data-name="Caminho 117389" d="M31.513,681.049a15.757,15.757,0,1,1-15.757-15.757,15.756,15.756,0,0,1,15.757,15.757" transform="translate(0 -141.153)" fill="#ef622f"/>
        <path id="Caminho_117390" data-name="Caminho 117390" d="M104.971,681.21a15.158,15.158,0,1,1-15.158-15.158,15.158,15.158,0,0,1,15.158,15.158" transform="translate(-15.839 -141.314)" fill="#ef622f"/>
        <path id="Caminho_117391" data-name="Caminho 117391" d="M178.429,681.371a14.559,14.559,0,1,1-14.559-14.559,14.559,14.559,0,0,1,14.559,14.559" transform="translate(-31.679 -141.475)" fill="#ef622f"/>
        <path id="Caminho_117392" data-name="Caminho 117392" d="M251.887,681.532a13.96,13.96,0,1,1-13.96-13.96,13.961,13.961,0,0,1,13.96,13.96" transform="translate(-47.518 -141.637)" fill="#ef622f"/>
        <path id="Caminho_117393" data-name="Caminho 117393" d="M325.345,681.694a13.362,13.362,0,1,1-13.362-13.362,13.361,13.361,0,0,1,13.362,13.362" transform="translate(-63.358 -141.798)" fill="#ef622f"/>
        <path id="Caminho_117394" data-name="Caminho 117394" d="M398.8,681.855a12.763,12.763,0,1,1-12.763-12.763A12.763,12.763,0,0,1,398.8,681.855" transform="translate(-79.197 -141.959)" fill="#ef622f"/>
        <path id="Caminho_117395" data-name="Caminho 117395" d="M472.26,682.016A12.164,12.164,0,1,1,460.1,669.852a12.164,12.164,0,0,1,12.164,12.164" transform="translate(-95.036 -142.12)" fill="#ef622f"/>
        <path id="Caminho_117396" data-name="Caminho 117396" d="M545.719,682.177a11.565,11.565,0,1,1-11.565-11.565,11.565,11.565,0,0,1,11.565,11.565" transform="translate(-110.876 -142.281)" fill="#ef622f"/>
        <path id="Caminho_117397" data-name="Caminho 117397" d="M619.176,682.339a10.967,10.967,0,1,1-10.967-10.967,10.966,10.966,0,0,1,10.967,10.967" transform="translate(-126.715 -142.443)" fill="#ef622f"/>
        <path id="Caminho_117398" data-name="Caminho 117398" d="M692.634,682.5a10.368,10.368,0,1,1-10.368-10.368A10.368,10.368,0,0,1,692.634,682.5" transform="translate(-142.554 -142.604)" fill="#ef622f"/>
        <path id="Caminho_117399" data-name="Caminho 117399" d="M766.092,682.661a9.769,9.769,0,1,1-9.769-9.769,9.769,9.769,0,0,1,9.769,9.769" transform="translate(-158.394 -142.765)" fill="#ef622f"/>
        <path id="Caminho_117400" data-name="Caminho 117400" d="M839.55,682.823a9.17,9.17,0,1,1-9.17-9.17,9.17,9.17,0,0,1,9.17,9.17" transform="translate(-174.233 -142.927)" fill="#ef622f"/>
        <path id="Caminho_117401" data-name="Caminho 117401" d="M913.008,682.984a8.572,8.572,0,1,1-8.572-8.572,8.571,8.571,0,0,1,8.572,8.572" transform="translate(-190.073 -143.088)" fill="#ef622f"/>
        <path id="Caminho_117402" data-name="Caminho 117402" d="M986.466,683.145a7.973,7.973,0,1,1-7.973-7.973,7.973,7.973,0,0,1,7.973,7.973" transform="translate(-205.912 -143.249)" fill="#ef622f"/>
        <path id="Caminho_117403" data-name="Caminho 117403" d="M1059.923,683.306a7.374,7.374,0,1,1-7.374-7.374,7.375,7.375,0,0,1,7.374,7.374" transform="translate(-221.751 -143.41)" fill="#ef622f"/>
        <path id="Caminho_117404" data-name="Caminho 117404" d="M1133.382,683.467a6.775,6.775,0,1,1-6.776-6.775,6.775,6.775,0,0,1,6.776,6.775" transform="translate(-237.591 -143.571)" fill="#ef622f"/>
        <path id="Caminho_117405" data-name="Caminho 117405" d="M1206.84,683.629a6.177,6.177,0,1,1-6.177-6.177,6.177,6.177,0,0,1,6.177,6.177" transform="translate(-253.43 -143.733)" fill="#ef622f"/>
        <path id="Caminho_117406" data-name="Caminho 117406" d="M1280.3,683.79a5.578,5.578,0,1,1-5.578-5.578,5.579,5.579,0,0,1,5.578,5.578" transform="translate(-269.27 -143.894)" fill="#ef622f"/>
        <path id="Caminho_117407" data-name="Caminho 117407" d="M1353.755,683.951a4.979,4.979,0,1,1-4.979-4.979,4.979,4.979,0,0,1,4.979,4.979" transform="translate(-285.109 -144.055)" fill="#ef622f"/>
        <path id="Caminho_117408" data-name="Caminho 117408" d="M1427.213,684.112a4.38,4.38,0,1,1-4.381-4.38,4.38,4.38,0,0,1,4.381,4.38" transform="translate(-300.948 -144.216)" fill="#ef622f"/>
        <path id="Caminho_117409" data-name="Caminho 117409" d="M1500.671,684.274a3.782,3.782,0,1,1-3.782-3.782,3.782,3.782,0,0,1,3.782,3.782" transform="translate(-316.787 -144.378)" fill="#ef622f"/>
        <path id="Caminho_117410" data-name="Caminho 117410" d="M1574.128,684.435a3.183,3.183,0,1,1-3.183-3.183,3.183,3.183,0,0,1,3.183,3.183" transform="translate(-332.627 -144.539)" fill="#ef622f"/>
        <path id="Caminho_117411" data-name="Caminho 117411" d="M1647.586,684.6a2.584,2.584,0,1,1-2.583-2.584,2.584,2.584,0,0,1,2.583,2.584" transform="translate(-348.466 -144.7)" fill="#ef622f"/>
        <path id="Caminho_117412" data-name="Caminho 117412" d="M1721.045,684.757a1.985,1.985,0,1,1-1.985-1.985,1.985,1.985,0,0,1,1.985,1.985" transform="translate(-364.306 -144.861)" fill="#ef622f"/>
        <path id="Caminho_117413" data-name="Caminho 117413" d="M1794.5,684.919a1.387,1.387,0,1,1-1.387-1.387,1.387,1.387,0,0,1,1.387,1.387" transform="translate(-380.145 -145.023)" fill="#ef622f"/>
        <path id="Caminho_117414" data-name="Caminho 117414" d="M1867.961,685.08a.788.788,0,1,1-.788-.788.788.788,0,0,1,.788.788" transform="translate(-395.985 -145.184)" fill="#ef622f"/>
        <path id="Caminho_117415" data-name="Caminho 117415" d="M31.513,764.211a15.757,15.757,0,1,1-15.757-15.757,15.756,15.756,0,0,1,15.757,15.757" transform="translate(0 -158.797)" fill="#ef622f"/>
        <path id="Caminho_117416" data-name="Caminho 117416" d="M104.971,764.372a15.158,15.158,0,1,1-15.158-15.158,15.158,15.158,0,0,1,15.158,15.158" transform="translate(-15.839 -158.958)" fill="#ef622f"/>
        <path id="Caminho_117417" data-name="Caminho 117417" d="M178.429,764.533a14.559,14.559,0,1,1-14.559-14.559,14.559,14.559,0,0,1,14.559,14.559" transform="translate(-31.679 -159.12)" fill="#ef622f"/>
        <path id="Caminho_117418" data-name="Caminho 117418" d="M251.887,764.694a13.96,13.96,0,1,1-13.96-13.96,13.961,13.961,0,0,1,13.96,13.96" transform="translate(-47.518 -159.281)" fill="#ef622f"/>
        <path id="Caminho_117419" data-name="Caminho 117419" d="M325.345,764.855a13.362,13.362,0,1,1-13.362-13.362,13.361,13.361,0,0,1,13.362,13.362" transform="translate(-63.358 -159.442)" fill="#ef622f"/>
        <path id="Caminho_117420" data-name="Caminho 117420" d="M398.8,765.017a12.763,12.763,0,1,1-12.763-12.763A12.763,12.763,0,0,1,398.8,765.017" transform="translate(-79.197 -159.603)" fill="#ef622f"/>
        <path id="Caminho_117421" data-name="Caminho 117421" d="M472.26,765.178A12.164,12.164,0,1,1,460.1,753.014a12.164,12.164,0,0,1,12.164,12.164" transform="translate(-95.036 -159.764)" fill="#ef622f"/>
        <path id="Caminho_117422" data-name="Caminho 117422" d="M545.719,765.339a11.565,11.565,0,1,1-11.565-11.565,11.565,11.565,0,0,1,11.565,11.565" transform="translate(-110.876 -159.926)" fill="#ef622f"/>
        <path id="Caminho_117423" data-name="Caminho 117423" d="M619.176,765.5a10.967,10.967,0,1,1-10.967-10.967A10.967,10.967,0,0,1,619.176,765.5" transform="translate(-126.715 -160.087)" fill="#ef622f"/>
        <path id="Caminho_117424" data-name="Caminho 117424" d="M692.634,765.662a10.368,10.368,0,1,1-10.368-10.368,10.368,10.368,0,0,1,10.368,10.368" transform="translate(-142.554 -160.248)" fill="#ef622f"/>
        <path id="Caminho_117425" data-name="Caminho 117425" d="M766.092,765.823a9.769,9.769,0,1,1-9.769-9.769,9.769,9.769,0,0,1,9.769,9.769" transform="translate(-158.394 -160.409)" fill="#ef622f"/>
        <path id="Caminho_117426" data-name="Caminho 117426" d="M839.55,765.984a9.17,9.17,0,1,1-9.17-9.17,9.17,9.17,0,0,1,9.17,9.17" transform="translate(-174.233 -160.571)" fill="#ef622f"/>
        <path id="Caminho_117427" data-name="Caminho 117427" d="M913.008,766.146a8.572,8.572,0,1,1-8.572-8.572,8.571,8.571,0,0,1,8.572,8.572" transform="translate(-190.073 -160.732)" fill="#ef622f"/>
        <path id="Caminho_117428" data-name="Caminho 117428" d="M986.466,766.307a7.973,7.973,0,1,1-7.973-7.973,7.973,7.973,0,0,1,7.973,7.973" transform="translate(-205.912 -160.893)" fill="#ef622f"/>
        <path id="Caminho_117429" data-name="Caminho 117429" d="M1059.923,766.468a7.374,7.374,0,1,1-7.374-7.374,7.375,7.375,0,0,1,7.374,7.374" transform="translate(-221.751 -161.054)" fill="#ef622f"/>
        <path id="Caminho_117430" data-name="Caminho 117430" d="M1133.382,766.629a6.775,6.775,0,1,1-6.776-6.775,6.775,6.775,0,0,1,6.776,6.775" transform="translate(-237.591 -161.216)" fill="#ef622f"/>
        <path id="Caminho_117431" data-name="Caminho 117431" d="M1206.84,766.79a6.177,6.177,0,1,1-6.177-6.176,6.177,6.177,0,0,1,6.177,6.176" transform="translate(-253.43 -161.377)" fill="#ef622f"/>
        <path id="Caminho_117432" data-name="Caminho 117432" d="M1280.3,766.952a5.578,5.578,0,1,1-5.578-5.578,5.579,5.579,0,0,1,5.578,5.578" transform="translate(-269.27 -161.538)" fill="#ef622f"/>
        <path id="Caminho_117433" data-name="Caminho 117433" d="M1353.755,767.113a4.979,4.979,0,1,1-4.979-4.979,4.979,4.979,0,0,1,4.979,4.979" transform="translate(-285.109 -161.699)" fill="#ef622f"/>
        <path id="Caminho_117434" data-name="Caminho 117434" d="M1427.213,767.274a4.38,4.38,0,1,1-4.381-4.38,4.38,4.38,0,0,1,4.381,4.38" transform="translate(-300.948 -161.861)" fill="#ef622f"/>
        <path id="Caminho_117435" data-name="Caminho 117435" d="M1500.671,767.435a3.782,3.782,0,1,1-3.782-3.781,3.782,3.782,0,0,1,3.782,3.781" transform="translate(-316.787 -162.022)" fill="#ef622f"/>
        <path id="Caminho_117436" data-name="Caminho 117436" d="M1574.128,767.6a3.183,3.183,0,1,1-3.183-3.183,3.183,3.183,0,0,1,3.183,3.183" transform="translate(-332.627 -162.183)" fill="#ef622f"/>
        <path id="Caminho_117437" data-name="Caminho 117437" d="M1647.586,767.758a2.584,2.584,0,1,1-2.583-2.584,2.584,2.584,0,0,1,2.583,2.584" transform="translate(-348.466 -162.344)" fill="#ef622f"/>
        <path id="Caminho_117438" data-name="Caminho 117438" d="M1721.045,767.919a1.985,1.985,0,1,1-1.985-1.985,1.985,1.985,0,0,1,1.985,1.985" transform="translate(-364.306 -162.506)" fill="#ef622f"/>
        <path id="Caminho_117439" data-name="Caminho 117439" d="M1794.5,768.081a1.387,1.387,0,1,1-1.387-1.387,1.387,1.387,0,0,1,1.387,1.387" transform="translate(-380.145 -162.667)" fill="#ef622f"/>
        <path id="Caminho_117440" data-name="Caminho 117440" d="M1867.961,768.242a.788.788,0,1,1-.788-.788.788.788,0,0,1,.788.788" transform="translate(-395.985 -162.828)" fill="#ef622f"/>
        <path id="Caminho_117441" data-name="Caminho 117441" d="M31.513,847.372a15.757,15.757,0,1,1-15.757-15.757,15.756,15.756,0,0,1,15.757,15.757" transform="translate(0 -176.441)" fill="#ef622f"/>
        <path id="Caminho_117442" data-name="Caminho 117442" d="M104.971,847.533a15.158,15.158,0,1,1-15.158-15.158,15.158,15.158,0,0,1,15.158,15.158" transform="translate(-15.839 -176.602)" fill="#ef622f"/>
        <path id="Caminho_117443" data-name="Caminho 117443" d="M178.429,847.694a14.559,14.559,0,1,1-14.559-14.559,14.559,14.559,0,0,1,14.559,14.559" transform="translate(-31.679 -176.763)" fill="#ef622f"/>
        <path id="Caminho_117444" data-name="Caminho 117444" d="M251.887,847.855a13.96,13.96,0,1,1-13.96-13.96,13.961,13.961,0,0,1,13.96,13.96" transform="translate(-47.518 -176.925)" fill="#ef622f"/>
        <path id="Caminho_117445" data-name="Caminho 117445" d="M325.345,848.017a13.362,13.362,0,1,1-13.362-13.362,13.361,13.361,0,0,1,13.362,13.362" transform="translate(-63.358 -177.086)" fill="#ef622f"/>
        <path id="Caminho_117446" data-name="Caminho 117446" d="M398.8,848.178a12.763,12.763,0,1,1-12.763-12.763A12.763,12.763,0,0,1,398.8,848.178" transform="translate(-79.197 -177.247)" fill="#ef622f"/>
        <path id="Caminho_117447" data-name="Caminho 117447" d="M472.26,848.339A12.164,12.164,0,1,1,460.1,836.175a12.164,12.164,0,0,1,12.164,12.164" transform="translate(-95.036 -177.409)" fill="#ef622f"/>
        <path id="Caminho_117448" data-name="Caminho 117448" d="M545.719,848.5a11.565,11.565,0,1,1-11.565-11.565A11.565,11.565,0,0,1,545.719,848.5" transform="translate(-110.876 -177.57)" fill="#ef622f"/>
        <path id="Caminho_117449" data-name="Caminho 117449" d="M619.176,848.661a10.967,10.967,0,1,1-10.967-10.967,10.966,10.966,0,0,1,10.967,10.967" transform="translate(-126.715 -177.731)" fill="#ef622f"/>
        <path id="Caminho_117450" data-name="Caminho 117450" d="M692.634,848.823a10.368,10.368,0,1,1-10.368-10.368,10.368,10.368,0,0,1,10.368,10.368" transform="translate(-142.554 -177.892)" fill="#ef622f"/>
        <path id="Caminho_117451" data-name="Caminho 117451" d="M766.092,848.984a9.769,9.769,0,1,1-9.769-9.769,9.769,9.769,0,0,1,9.769,9.769" transform="translate(-158.394 -178.053)" fill="#ef622f"/>
        <path id="Caminho_117452" data-name="Caminho 117452" d="M839.55,849.145a9.17,9.17,0,1,1-9.17-9.17,9.17,9.17,0,0,1,9.17,9.17" transform="translate(-174.233 -178.215)" fill="#ef622f"/>
        <path id="Caminho_117453" data-name="Caminho 117453" d="M913.008,849.307a8.572,8.572,0,1,1-8.572-8.572,8.571,8.571,0,0,1,8.572,8.572" transform="translate(-190.073 -178.376)" fill="#ef622f"/>
        <path id="Caminho_117454" data-name="Caminho 117454" d="M986.466,849.468a7.973,7.973,0,1,1-7.973-7.973,7.973,7.973,0,0,1,7.973,7.973" transform="translate(-205.912 -178.537)" fill="#ef622f"/>
        <path id="Caminho_117455" data-name="Caminho 117455" d="M1059.923,849.629a7.374,7.374,0,1,1-7.374-7.374,7.375,7.375,0,0,1,7.374,7.374" transform="translate(-221.751 -178.698)" fill="#ef622f"/>
        <path id="Caminho_117456" data-name="Caminho 117456" d="M1133.382,849.79a6.775,6.775,0,1,1-6.776-6.775,6.775,6.775,0,0,1,6.776,6.775" transform="translate(-237.591 -178.86)" fill="#ef622f"/>
        <path id="Caminho_117457" data-name="Caminho 117457" d="M1206.84,849.952a6.177,6.177,0,1,1-6.177-6.177,6.177,6.177,0,0,1,6.177,6.177" transform="translate(-253.43 -179.021)" fill="#ef622f"/>
        <path id="Caminho_117458" data-name="Caminho 117458" d="M1280.3,850.113a5.578,5.578,0,1,1-5.578-5.578,5.579,5.579,0,0,1,5.578,5.578" transform="translate(-269.27 -179.182)" fill="#ef622f"/>
        <path id="Caminho_117459" data-name="Caminho 117459" d="M1353.755,850.274a4.979,4.979,0,1,1-4.979-4.979,4.979,4.979,0,0,1,4.979,4.979" transform="translate(-285.109 -179.343)" fill="#ef622f"/>
        <path id="Caminho_117460" data-name="Caminho 117460" d="M1427.213,850.435a4.38,4.38,0,1,1-4.381-4.38,4.38,4.38,0,0,1,4.381,4.38" transform="translate(-300.948 -179.505)" fill="#ef622f"/>
        <path id="Caminho_117461" data-name="Caminho 117461" d="M1500.671,850.6a3.782,3.782,0,1,1-3.782-3.782,3.782,3.782,0,0,1,3.782,3.782" transform="translate(-316.787 -179.666)" fill="#ef622f"/>
        <path id="Caminho_117462" data-name="Caminho 117462" d="M1574.128,850.758a3.183,3.183,0,1,1-3.183-3.183,3.183,3.183,0,0,1,3.183,3.183" transform="translate(-332.627 -179.827)" fill="#ef622f"/>
        <path id="Caminho_117463" data-name="Caminho 117463" d="M1647.586,850.919a2.584,2.584,0,1,1-2.583-2.584,2.584,2.584,0,0,1,2.583,2.584" transform="translate(-348.466 -179.988)" fill="#ef622f"/>
        <path id="Caminho_117464" data-name="Caminho 117464" d="M1721.045,851.08a1.985,1.985,0,1,1-1.985-1.985,1.985,1.985,0,0,1,1.985,1.985" transform="translate(-364.306 -180.15)" fill="#ef622f"/>
        <path id="Caminho_117465" data-name="Caminho 117465" d="M1794.5,851.242a1.387,1.387,0,1,1-1.387-1.387,1.387,1.387,0,0,1,1.387,1.387" transform="translate(-380.145 -180.311)" fill="#ef622f"/>
        <path id="Caminho_117466" data-name="Caminho 117466" d="M1867.961,851.4a.788.788,0,1,1-.788-.788.788.788,0,0,1,.788.788" transform="translate(-395.985 -180.472)" fill="#ef622f"/>
        <path id="Caminho_117467" data-name="Caminho 117467" d="M31.513,930.534a15.757,15.757,0,1,1-15.757-15.757,15.756,15.756,0,0,1,15.757,15.757" transform="translate(0 -194.085)" fill="#ef622f"/>
        <path id="Caminho_117468" data-name="Caminho 117468" d="M104.971,930.695a15.158,15.158,0,1,1-15.158-15.158,15.158,15.158,0,0,1,15.158,15.158" transform="translate(-15.839 -194.246)" fill="#ef622f"/>
        <path id="Caminho_117469" data-name="Caminho 117469" d="M178.429,930.856A14.559,14.559,0,1,1,163.87,916.3a14.559,14.559,0,0,1,14.559,14.559" transform="translate(-31.679 -194.408)" fill="#ef622f"/>
        <path id="Caminho_117470" data-name="Caminho 117470" d="M251.887,931.017a13.96,13.96,0,1,1-13.96-13.96,13.961,13.961,0,0,1,13.96,13.96" transform="translate(-47.518 -194.569)" fill="#ef622f"/>
        <path id="Caminho_117471" data-name="Caminho 117471" d="M325.345,931.179a13.362,13.362,0,1,1-13.362-13.362,13.361,13.361,0,0,1,13.362,13.362" transform="translate(-63.358 -194.73)" fill="#ef622f"/>
        <path id="Caminho_117472" data-name="Caminho 117472" d="M398.8,931.34a12.763,12.763,0,1,1-12.763-12.763A12.763,12.763,0,0,1,398.8,931.34" transform="translate(-79.197 -194.891)" fill="#ef622f"/>
        <path id="Caminho_117473" data-name="Caminho 117473" d="M472.26,931.5A12.164,12.164,0,1,1,460.1,919.337,12.165,12.165,0,0,1,472.26,931.5" transform="translate(-95.036 -195.053)" fill="#ef622f"/>
        <path id="Caminho_117474" data-name="Caminho 117474" d="M545.719,931.662A11.565,11.565,0,1,1,534.153,920.1a11.565,11.565,0,0,1,11.565,11.565" transform="translate(-110.876 -195.214)" fill="#ef622f"/>
        <path id="Caminho_117475" data-name="Caminho 117475" d="M619.176,931.824a10.967,10.967,0,1,1-10.967-10.967,10.966,10.966,0,0,1,10.967,10.967" transform="translate(-126.715 -195.375)" fill="#ef622f"/>
        <path id="Caminho_117476" data-name="Caminho 117476" d="M692.634,931.985a10.368,10.368,0,1,1-10.368-10.368,10.368,10.368,0,0,1,10.368,10.368" transform="translate(-142.554 -195.536)" fill="#ef622f"/>
        <path id="Caminho_117477" data-name="Caminho 117477" d="M766.092,932.146a9.769,9.769,0,1,1-9.769-9.769,9.769,9.769,0,0,1,9.769,9.769" transform="translate(-158.394 -195.698)" fill="#ef622f"/>
        <path id="Caminho_117478" data-name="Caminho 117478" d="M839.55,932.307a9.17,9.17,0,1,1-9.17-9.17,9.17,9.17,0,0,1,9.17,9.17" transform="translate(-174.233 -195.859)" fill="#ef622f"/>
        <path id="Caminho_117479" data-name="Caminho 117479" d="M913.008,932.468a8.572,8.572,0,1,1-8.572-8.572,8.571,8.571,0,0,1,8.572,8.572" transform="translate(-190.073 -196.02)" fill="#ef622f"/>
        <path id="Caminho_117480" data-name="Caminho 117480" d="M986.466,932.63a7.973,7.973,0,1,1-7.973-7.973,7.973,7.973,0,0,1,7.973,7.973" transform="translate(-205.912 -196.181)" fill="#ef622f"/>
        <path id="Caminho_117481" data-name="Caminho 117481" d="M1059.923,932.791a7.374,7.374,0,1,1-7.374-7.374,7.375,7.375,0,0,1,7.374,7.374" transform="translate(-221.751 -196.343)" fill="#ef622f"/>
        <path id="Caminho_117482" data-name="Caminho 117482" d="M1133.382,932.952a6.775,6.775,0,1,1-6.776-6.775,6.775,6.775,0,0,1,6.776,6.775" transform="translate(-237.591 -196.504)" fill="#ef622f"/>
        <path id="Caminho_117483" data-name="Caminho 117483" d="M1206.84,933.114a6.177,6.177,0,1,1-6.177-6.177,6.177,6.177,0,0,1,6.177,6.177" transform="translate(-253.43 -196.665)" fill="#ef622f"/>
        <path id="Caminho_117484" data-name="Caminho 117484" d="M1280.3,933.275a5.578,5.578,0,1,1-5.578-5.578,5.579,5.579,0,0,1,5.578,5.578" transform="translate(-269.27 -196.826)" fill="#ef622f"/>
        <path id="Caminho_117485" data-name="Caminho 117485" d="M1353.755,933.436a4.979,4.979,0,1,1-4.979-4.979,4.979,4.979,0,0,1,4.979,4.979" transform="translate(-285.109 -196.988)" fill="#ef622f"/>
        <path id="Caminho_117486" data-name="Caminho 117486" d="M1427.213,933.6a4.38,4.38,0,1,1-4.381-4.38,4.38,4.38,0,0,1,4.381,4.38" transform="translate(-300.948 -197.149)" fill="#ef622f"/>
        <path id="Caminho_117487" data-name="Caminho 117487" d="M1500.671,933.759a3.782,3.782,0,1,1-3.782-3.782,3.782,3.782,0,0,1,3.782,3.782" transform="translate(-316.787 -197.31)" fill="#ef622f"/>
        <path id="Caminho_117488" data-name="Caminho 117488" d="M1574.128,933.92a3.183,3.183,0,1,1-3.183-3.183,3.183,3.183,0,0,1,3.183,3.183" transform="translate(-332.627 -197.471)" fill="#ef622f"/>
        <path id="Caminho_117489" data-name="Caminho 117489" d="M1647.586,934.081A2.584,2.584,0,1,1,1645,931.5a2.584,2.584,0,0,1,2.583,2.584" transform="translate(-348.466 -197.633)" fill="#ef622f"/>
        <path id="Caminho_117490" data-name="Caminho 117490" d="M1721.045,934.242a1.985,1.985,0,1,1-1.985-1.985,1.985,1.985,0,0,1,1.985,1.985" transform="translate(-364.306 -197.794)" fill="#ef622f"/>
        <path id="Caminho_117491" data-name="Caminho 117491" d="M1794.5,934.4a1.387,1.387,0,1,1-1.387-1.386,1.387,1.387,0,0,1,1.387,1.386" transform="translate(-380.145 -197.955)" fill="#ef622f"/>
        <path id="Caminho_117492" data-name="Caminho 117492" d="M1867.961,934.565a.788.788,0,1,1-.788-.788.788.788,0,0,1,.788.788" transform="translate(-395.985 -198.116)" fill="#ef622f"/>
        <path id="Caminho_117493" data-name="Caminho 117493" d="M31.513,1013.695a15.757,15.757,0,1,1-15.757-15.757,15.756,15.756,0,0,1,15.757,15.757" transform="translate(0 -211.729)" fill="#ef622f"/>
        <path id="Caminho_117494" data-name="Caminho 117494" d="M104.971,1013.856A15.158,15.158,0,1,1,89.813,998.7a15.158,15.158,0,0,1,15.158,15.158" transform="translate(-15.839 -211.89)" fill="#ef622f"/>
        <path id="Caminho_117495" data-name="Caminho 117495" d="M178.429,1014.017a14.559,14.559,0,1,1-14.559-14.559,14.559,14.559,0,0,1,14.559,14.559" transform="translate(-31.679 -212.052)" fill="#ef622f"/>
        <path id="Caminho_117496" data-name="Caminho 117496" d="M251.887,1014.179a13.96,13.96,0,1,1-13.96-13.961,13.96,13.96,0,0,1,13.96,13.961" transform="translate(-47.518 -212.213)" fill="#ef622f"/>
        <path id="Caminho_117497" data-name="Caminho 117497" d="M325.345,1014.339a13.362,13.362,0,1,1-13.362-13.362,13.362,13.362,0,0,1,13.362,13.362" transform="translate(-63.358 -212.374)" fill="#ef622f"/>
        <path id="Caminho_117498" data-name="Caminho 117498" d="M398.8,1014.5a12.763,12.763,0,1,1-12.763-12.763A12.763,12.763,0,0,1,398.8,1014.5" transform="translate(-79.197 -212.535)" fill="#ef622f"/>
        <path id="Caminho_117499" data-name="Caminho 117499" d="M472.26,1014.662A12.164,12.164,0,1,1,460.1,1002.5a12.164,12.164,0,0,1,12.164,12.164" transform="translate(-95.036 -212.697)" fill="#ef622f"/>
        <path id="Caminho_117500" data-name="Caminho 117500" d="M545.719,1014.823a11.565,11.565,0,1,1-11.565-11.566,11.565,11.565,0,0,1,11.565,11.566" transform="translate(-110.876 -212.858)" fill="#ef622f"/>
        <path id="Caminho_117501" data-name="Caminho 117501" d="M619.176,1014.984a10.967,10.967,0,1,1-10.967-10.967,10.966,10.966,0,0,1,10.967,10.967" transform="translate(-126.715 -213.019)" fill="#ef622f"/>
        <path id="Caminho_117502" data-name="Caminho 117502" d="M692.634,1015.146a10.368,10.368,0,1,1-10.368-10.368,10.368,10.368,0,0,1,10.368,10.368" transform="translate(-142.554 -213.18)" fill="#ef622f"/>
        <path id="Caminho_117503" data-name="Caminho 117503" d="M766.092,1015.307a9.769,9.769,0,1,1-9.769-9.769,9.77,9.77,0,0,1,9.769,9.769" transform="translate(-158.394 -213.341)" fill="#ef622f"/>
        <path id="Caminho_117504" data-name="Caminho 117504" d="M839.55,1015.469a9.17,9.17,0,1,1-9.17-9.17,9.17,9.17,0,0,1,9.17,9.17" transform="translate(-174.233 -213.503)" fill="#ef622f"/>
        <path id="Caminho_117505" data-name="Caminho 117505" d="M913.008,1015.63a8.572,8.572,0,1,1-8.572-8.572,8.572,8.572,0,0,1,8.572,8.572" transform="translate(-190.073 -213.664)" fill="#ef622f"/>
        <path id="Caminho_117506" data-name="Caminho 117506" d="M986.466,1015.791a7.973,7.973,0,1,1-7.973-7.973,7.973,7.973,0,0,1,7.973,7.973" transform="translate(-205.912 -213.825)" fill="#ef622f"/>
        <path id="Caminho_117507" data-name="Caminho 117507" d="M1059.923,1015.952a7.374,7.374,0,1,1-7.374-7.374,7.374,7.374,0,0,1,7.374,7.374" transform="translate(-221.751 -213.987)" fill="#ef622f"/>
        <path id="Caminho_117508" data-name="Caminho 117508" d="M1133.382,1016.113a6.775,6.775,0,1,1-6.776-6.775,6.775,6.775,0,0,1,6.776,6.775" transform="translate(-237.591 -214.148)" fill="#ef622f"/>
        <path id="Caminho_117509" data-name="Caminho 117509" d="M1206.84,1016.275a6.177,6.177,0,1,1-6.177-6.177,6.177,6.177,0,0,1,6.177,6.177" transform="translate(-253.43 -214.309)" fill="#ef622f"/>
        <path id="Caminho_117510" data-name="Caminho 117510" d="M1280.3,1016.436a5.578,5.578,0,1,1-5.578-5.578,5.578,5.578,0,0,1,5.578,5.578" transform="translate(-269.27 -214.47)" fill="#ef622f"/>
        <path id="Caminho_117511" data-name="Caminho 117511" d="M1353.755,1016.6a4.979,4.979,0,1,1-4.979-4.979,4.979,4.979,0,0,1,4.979,4.979" transform="translate(-285.109 -214.631)" fill="#ef622f"/>
        <path id="Caminho_117512" data-name="Caminho 117512" d="M1427.213,1016.758a4.38,4.38,0,1,1-4.381-4.38,4.38,4.38,0,0,1,4.381,4.38" transform="translate(-300.948 -214.793)" fill="#ef622f"/>
        <path id="Caminho_117513" data-name="Caminho 117513" d="M1500.671,1016.92a3.782,3.782,0,1,1-3.782-3.782,3.782,3.782,0,0,1,3.782,3.782" transform="translate(-316.787 -214.954)" fill="#ef622f"/>
        <path id="Caminho_117514" data-name="Caminho 117514" d="M1574.128,1017.081a3.183,3.183,0,1,1-3.183-3.183,3.183,3.183,0,0,1,3.183,3.183" transform="translate(-332.627 -215.115)" fill="#ef622f"/>
        <path id="Caminho_117515" data-name="Caminho 117515" d="M1647.586,1017.242a2.584,2.584,0,1,1-2.583-2.584,2.584,2.584,0,0,1,2.583,2.584" transform="translate(-348.466 -215.276)" fill="#ef622f"/>
        <path id="Caminho_117516" data-name="Caminho 117516" d="M1721.045,1017.4a1.985,1.985,0,1,1-1.985-1.985,1.985,1.985,0,0,1,1.985,1.985" transform="translate(-364.306 -215.438)" fill="#ef622f"/>
        <path id="Caminho_117517" data-name="Caminho 117517" d="M1794.5,1017.564a1.387,1.387,0,1,1-1.387-1.387,1.387,1.387,0,0,1,1.387,1.387" transform="translate(-380.145 -215.599)" fill="#ef622f"/>
        <path id="Caminho_117518" data-name="Caminho 117518" d="M1867.961,1017.726a.788.788,0,1,1-.788-.788.788.788,0,0,1,.788.788" transform="translate(-395.985 -215.76)" fill="#ef622f"/>
        <path id="Caminho_117519" data-name="Caminho 117519" d="M31.513,1096.857A15.757,15.757,0,1,1,15.757,1081.1a15.756,15.756,0,0,1,15.757,15.757" transform="translate(0 -229.373)" fill="#ef622f"/>
        <path id="Caminho_117520" data-name="Caminho 117520" d="M104.971,1097.018a15.158,15.158,0,1,1-15.158-15.158,15.158,15.158,0,0,1,15.158,15.158" transform="translate(-15.839 -229.535)" fill="#ef622f"/>
        <path id="Caminho_117521" data-name="Caminho 117521" d="M178.429,1097.179a14.559,14.559,0,1,1-14.559-14.559,14.559,14.559,0,0,1,14.559,14.559" transform="translate(-31.679 -229.696)" fill="#ef622f"/>
        <path id="Caminho_117522" data-name="Caminho 117522" d="M251.887,1097.34a13.96,13.96,0,1,1-13.96-13.961,13.961,13.961,0,0,1,13.96,13.961" transform="translate(-47.518 -229.857)" fill="#ef622f"/>
        <path id="Caminho_117523" data-name="Caminho 117523" d="M325.345,1097.5a13.362,13.362,0,1,1-13.362-13.362,13.361,13.361,0,0,1,13.362,13.362" transform="translate(-63.358 -230.018)" fill="#ef622f"/>
        <path id="Caminho_117524" data-name="Caminho 117524" d="M398.8,1097.663A12.763,12.763,0,1,1,386.04,1084.9a12.763,12.763,0,0,1,12.763,12.763" transform="translate(-79.197 -230.179)" fill="#ef622f"/>
        <path id="Caminho_117525" data-name="Caminho 117525" d="M472.26,1097.824A12.164,12.164,0,1,1,460.1,1085.66a12.165,12.165,0,0,1,12.164,12.164" transform="translate(-95.036 -230.341)" fill="#ef622f"/>
        <path id="Caminho_117526" data-name="Caminho 117526" d="M545.719,1097.985a11.565,11.565,0,1,1-11.565-11.565,11.565,11.565,0,0,1,11.565,11.565" transform="translate(-110.876 -230.502)" fill="#ef622f"/>
        <path id="Caminho_117527" data-name="Caminho 117527" d="M619.176,1098.147a10.967,10.967,0,1,1-10.967-10.967,10.967,10.967,0,0,1,10.967,10.967" transform="translate(-126.715 -230.663)" fill="#ef622f"/>
        <path id="Caminho_117528" data-name="Caminho 117528" d="M692.634,1098.308a10.368,10.368,0,1,1-10.368-10.368,10.368,10.368,0,0,1,10.368,10.368" transform="translate(-142.554 -230.824)" fill="#ef622f"/>
        <path id="Caminho_117529" data-name="Caminho 117529" d="M766.092,1098.469a9.769,9.769,0,1,1-9.769-9.769,9.769,9.769,0,0,1,9.769,9.769" transform="translate(-158.394 -230.986)" fill="#ef622f"/>
        <path id="Caminho_117530" data-name="Caminho 117530" d="M839.55,1098.63a9.17,9.17,0,1,1-9.17-9.17,9.17,9.17,0,0,1,9.17,9.17" transform="translate(-174.233 -231.147)" fill="#ef622f"/>
        <path id="Caminho_117531" data-name="Caminho 117531" d="M913.008,1098.792a8.572,8.572,0,1,1-8.572-8.572,8.572,8.572,0,0,1,8.572,8.572" transform="translate(-190.073 -231.308)" fill="#ef622f"/>
        <path id="Caminho_117532" data-name="Caminho 117532" d="M986.466,1098.953a7.973,7.973,0,1,1-7.973-7.973,7.973,7.973,0,0,1,7.973,7.973" transform="translate(-205.912 -231.469)" fill="#ef622f"/>
        <path id="Caminho_117533" data-name="Caminho 117533" d="M1059.923,1099.114a7.374,7.374,0,1,1-7.374-7.374,7.374,7.374,0,0,1,7.374,7.374" transform="translate(-221.751 -231.631)" fill="#ef622f"/>
        <path id="Caminho_117534" data-name="Caminho 117534" d="M1133.382,1099.276a6.775,6.775,0,1,1-6.776-6.775,6.775,6.775,0,0,1,6.776,6.775" transform="translate(-237.591 -231.792)" fill="#ef622f"/>
        <path id="Caminho_117535" data-name="Caminho 117535" d="M1206.84,1099.437a6.177,6.177,0,1,1-6.177-6.176,6.177,6.177,0,0,1,6.177,6.176" transform="translate(-253.43 -231.954)" fill="#ef622f"/>
        <path id="Caminho_117536" data-name="Caminho 117536" d="M1280.3,1099.6a5.578,5.578,0,1,1-5.578-5.578,5.579,5.579,0,0,1,5.578,5.578" transform="translate(-269.27 -232.114)" fill="#ef622f"/>
        <path id="Caminho_117537" data-name="Caminho 117537" d="M1353.755,1099.759a4.979,4.979,0,1,1-4.979-4.979,4.98,4.98,0,0,1,4.979,4.979" transform="translate(-285.109 -232.276)" fill="#ef622f"/>
        <path id="Caminho_117538" data-name="Caminho 117538" d="M1427.213,1099.92a4.38,4.38,0,1,1-4.381-4.38,4.38,4.38,0,0,1,4.381,4.38" transform="translate(-300.948 -232.437)" fill="#ef622f"/>
        <path id="Caminho_117539" data-name="Caminho 117539" d="M1500.671,1100.082a3.782,3.782,0,1,1-3.782-3.782,3.782,3.782,0,0,1,3.782,3.782" transform="translate(-316.787 -232.598)" fill="#ef622f"/>
        <path id="Caminho_117540" data-name="Caminho 117540" d="M1574.128,1100.243a3.183,3.183,0,1,1-3.183-3.183,3.183,3.183,0,0,1,3.183,3.183" transform="translate(-332.627 -232.759)" fill="#ef622f"/>
        <path id="Caminho_117541" data-name="Caminho 117541" d="M1647.586,1100.4a2.584,2.584,0,1,1-2.583-2.584,2.584,2.584,0,0,1,2.583,2.584" transform="translate(-348.466 -232.921)" fill="#ef622f"/>
        <path id="Caminho_117542" data-name="Caminho 117542" d="M1721.045,1100.565a1.985,1.985,0,1,1-1.985-1.985,1.985,1.985,0,0,1,1.985,1.985" transform="translate(-364.306 -233.082)" fill="#ef622f"/>
        <path id="Caminho_117543" data-name="Caminho 117543" d="M1794.5,1100.727a1.387,1.387,0,1,1-1.387-1.387,1.387,1.387,0,0,1,1.387,1.387" transform="translate(-380.145 -233.243)" fill="#ef622f"/>
        <path id="Caminho_117544" data-name="Caminho 117544" d="M1867.961,1100.888a.788.788,0,1,1-.788-.788.788.788,0,0,1,.788.788" transform="translate(-395.985 -233.404)" fill="#ef622f"/>
      </g>
    </g>
  </g>
  <g id="Grupo_de_máscara_16" data-name="Grupo de máscara 16" clip-path="url(#clip-path-3)">
    <path id="Caminho_117090" data-name="Caminho 117090" d="M504.384,702.08,0,953.887,517.717,1048,601.8,1639.877l267.564-468.9,658.443,80.775L1120.618,806.88,1639.66,25.785,881.6,494.353,456.446,0Z" transform="translate(-595.754 -209.676)" fill="#01062e"/>
  </g>
</svg>
