<svg id="Grupo_176745" data-name="Grupo 176745" xmlns="http://www.w3.org/2000/svg" xmlns:xlink="http://www.w3.org/1999/xlink" width="393" height="852" viewBox="0 0 393 852">
  <defs>
    <clipPath id="clip-path">
      <rect id="Retângulo_161621" data-name="Retângulo 161621" width="393" height="852" fill="#fff"/>
    </clipPath>
    <clipPath id="clip-path-2">
      <rect id="Retângulo_161620" data-name="Retângulo 161620" width="1471.976" height="883.24" fill="#ef622f"/>
    </clipPath>
    <clipPath id="clip-path-3">
      <rect id="Retângulo_161555" data-name="Retângulo 161555" width="393" height="852" fill="#fff" stroke="#707070" stroke-width="1"/>
    </clipPath>
  </defs>
  <path id="Caminho_117546" data-name="Caminho 117546" d="M0,0H393V852H0Z" fill="#01062e"/>
  <g id="Grupo_de_máscara_20" data-name="Grupo de máscara 20" clip-path="url(#clip-path)">
    <g id="Grupo_176722" data-name="Grupo 176722" transform="translate(-1078.976 -15.489)">
      <g id="Grupo_176721" data-name="Grupo 176721" transform="translate(0 0)" clip-path="url(#clip-path-2)">
        <path id="Caminho_117181" data-name="Caminho 117181" d="M0,15.757A15.757,15.757,0,1,0,15.757,0,15.756,15.756,0,0,0,0,15.757" transform="translate(1440.463)" fill="#ef622f"/>
        <path id="Caminho_117182" data-name="Caminho 117182" d="M74.655,15.918A15.158,15.158,0,1,0,89.813.76,15.158,15.158,0,0,0,74.655,15.918" transform="translate(1308.189 -0.161)" fill="#ef622f"/>
        <path id="Caminho_117183" data-name="Caminho 117183" d="M149.311,16.079A14.559,14.559,0,1,0,163.87,1.52a14.559,14.559,0,0,0-14.559,14.559" transform="translate(1175.914 -0.322)" fill="#ef622f"/>
        <path id="Caminho_117184" data-name="Caminho 117184" d="M223.966,16.24a13.96,13.96,0,1,0,13.96-13.96,13.961,13.961,0,0,0-13.96,13.96" transform="translate(1043.641 -0.484)" fill="#ef622f"/>
        <path id="Caminho_117185" data-name="Caminho 117185" d="M298.622,16.4A13.362,13.362,0,1,0,311.984,3.04,13.361,13.361,0,0,0,298.622,16.4" transform="translate(911.366 -0.645)" fill="#ef622f"/>
        <path id="Caminho_117186" data-name="Caminho 117186" d="M373.277,16.563A12.763,12.763,0,1,0,386.04,3.8a12.763,12.763,0,0,0-12.763,12.763" transform="translate(779.093 -0.806)" fill="#ef622f"/>
        <path id="Caminho_117187" data-name="Caminho 117187" d="M447.932,16.724A12.164,12.164,0,1,0,460.1,4.56a12.164,12.164,0,0,0-12.164,12.164" transform="translate(646.82 -0.967)" fill="#ef622f"/>
        <path id="Caminho_117188" data-name="Caminho 117188" d="M522.588,16.885A11.565,11.565,0,1,0,534.153,5.32a11.565,11.565,0,0,0-11.565,11.565" transform="translate(514.545 -1.129)" fill="#ef622f"/>
        <path id="Caminho_117189" data-name="Caminho 117189" d="M597.243,17.047A10.967,10.967,0,1,0,608.21,6.08a10.966,10.966,0,0,0-10.967,10.967" transform="translate(382.271 -1.29)" fill="#ef622f"/>
        <path id="Caminho_117190" data-name="Caminho 117190" d="M671.9,17.208A10.368,10.368,0,1,0,682.266,6.84,10.368,10.368,0,0,0,671.9,17.208" transform="translate(249.998 -1.451)" fill="#ef622f"/>
        <path id="Caminho_117191" data-name="Caminho 117191" d="M746.554,17.369A9.769,9.769,0,1,0,756.323,7.6a9.769,9.769,0,0,0-9.769,9.769" transform="translate(117.724 -1.612)" fill="#ef622f"/>
        <path id="Caminho_117192" data-name="Caminho 117192" d="M821.209,17.53a9.17,9.17,0,1,0,9.17-9.17,9.17,9.17,0,0,0-9.17,9.17" transform="translate(-14.55 -1.774)" fill="#ef622f"/>
        <path id="Caminho_117193" data-name="Caminho 117193" d="M895.865,17.692a8.572,8.572,0,1,0,8.572-8.572,8.571,8.571,0,0,0-8.572,8.572" transform="translate(-146.824 -1.935)" fill="#ef622f"/>
        <path id="Caminho_117194" data-name="Caminho 117194" d="M970.52,17.853a7.973,7.973,0,1,0,7.973-7.973,7.973,7.973,0,0,0-7.973,7.973" transform="translate(-279.098 -2.096)" fill="#ef622f"/>
        <path id="Caminho_117195" data-name="Caminho 117195" d="M1045.175,18.014a7.374,7.374,0,1,0,7.374-7.374,7.375,7.375,0,0,0-7.374,7.374" transform="translate(-411.371 -2.257)" fill="#ef622f"/>
        <path id="Caminho_117196" data-name="Caminho 117196" d="M1119.831,18.175a6.775,6.775,0,1,0,6.776-6.775,6.775,6.775,0,0,0-6.776,6.775" transform="translate(-543.646 -2.419)" fill="#ef622f"/>
        <path id="Caminho_117197" data-name="Caminho 117197" d="M1194.486,18.337a6.177,6.177,0,1,0,6.177-6.177,6.177,6.177,0,0,0-6.177,6.177" transform="translate(-675.92 -2.58)" fill="#ef622f"/>
        <path id="Caminho_117198" data-name="Caminho 117198" d="M1269.141,18.5a5.578,5.578,0,1,0,5.578-5.578,5.579,5.579,0,0,0-5.578,5.578" transform="translate(-808.193 -2.741)" fill="#ef622f"/>
        <path id="Caminho_117199" data-name="Caminho 117199" d="M1343.8,18.659a4.979,4.979,0,1,0,4.979-4.979,4.979,4.979,0,0,0-4.979,4.979" transform="translate(-940.467 -2.902)" fill="#ef622f"/>
        <path id="Caminho_117200" data-name="Caminho 117200" d="M1418.452,18.82a4.38,4.38,0,1,0,4.381-4.38,4.38,4.38,0,0,0-4.381,4.38" transform="translate(-1072.741 -3.064)" fill="#ef622f"/>
        <path id="Caminho_117201" data-name="Caminho 117201" d="M1493.108,18.982a3.782,3.782,0,1,0,3.782-3.782,3.782,3.782,0,0,0-3.782,3.782" transform="translate(-1205.016 -3.225)" fill="#ef622f"/>
        <path id="Caminho_117202" data-name="Caminho 117202" d="M1567.763,19.143a3.183,3.183,0,1,0,3.183-3.183,3.183,3.183,0,0,0-3.183,3.183" transform="translate(-1337.288 -3.386)" fill="#ef622f"/>
        <path id="Caminho_117203" data-name="Caminho 117203" d="M1642.418,19.3A2.584,2.584,0,1,0,1645,16.72a2.584,2.584,0,0,0-2.583,2.584" transform="translate(-1469.561 -3.547)" fill="#ef622f"/>
        <path id="Caminho_117204" data-name="Caminho 117204" d="M1717.074,19.465a1.985,1.985,0,1,0,1.985-1.985,1.985,1.985,0,0,0-1.985,1.985" transform="translate(-1601.837 -3.709)" fill="#ef622f"/>
        <path id="Caminho_117205" data-name="Caminho 117205" d="M1791.729,19.627a1.387,1.387,0,1,0,1.387-1.387,1.387,1.387,0,0,0-1.387,1.387" transform="translate(-1734.11 -3.87)" fill="#ef622f"/>
        <path id="Caminho_117206" data-name="Caminho 117206" d="M1866.385,19.788a.788.788,0,1,0,.788-.788.788.788,0,0,0-.788.788" transform="translate(-1866.385 -4.031)" fill="#ef622f"/>
        <path id="Caminho_117207" data-name="Caminho 117207" d="M0,98.918A15.757,15.757,0,1,0,15.757,83.161,15.756,15.756,0,0,0,0,98.918" transform="translate(1440.463 -17.644)" fill="#ef622f"/>
        <path id="Caminho_117208" data-name="Caminho 117208" d="M74.655,99.079A15.158,15.158,0,1,0,89.813,83.922,15.158,15.158,0,0,0,74.655,99.079" transform="translate(1308.189 -17.805)" fill="#ef622f"/>
        <path id="Caminho_117209" data-name="Caminho 117209" d="M149.311,99.24A14.559,14.559,0,1,0,163.87,84.682,14.559,14.559,0,0,0,149.311,99.24" transform="translate(1175.914 -17.967)" fill="#ef622f"/>
        <path id="Caminho_117210" data-name="Caminho 117210" d="M223.966,99.4a13.96,13.96,0,1,0,13.96-13.96,13.96,13.96,0,0,0-13.96,13.96" transform="translate(1043.641 -18.128)" fill="#ef622f"/>
        <path id="Caminho_117211" data-name="Caminho 117211" d="M298.622,99.563A13.362,13.362,0,1,0,311.984,86.2a13.362,13.362,0,0,0-13.362,13.361" transform="translate(911.366 -18.289)" fill="#ef622f"/>
        <path id="Caminho_117212" data-name="Caminho 117212" d="M373.277,99.724A12.763,12.763,0,1,0,386.04,86.962a12.763,12.763,0,0,0-12.763,12.762" transform="translate(779.093 -18.45)" fill="#ef622f"/>
        <path id="Caminho_117213" data-name="Caminho 117213" d="M447.932,99.885A12.164,12.164,0,1,0,460.1,87.722a12.165,12.165,0,0,0-12.164,12.163" transform="translate(646.82 -18.612)" fill="#ef622f"/>
        <path id="Caminho_117214" data-name="Caminho 117214" d="M522.588,100.046a11.565,11.565,0,1,0,11.565-11.565,11.565,11.565,0,0,0-11.565,11.565" transform="translate(514.545 -18.773)" fill="#ef622f"/>
        <path id="Caminho_117215" data-name="Caminho 117215" d="M597.243,100.208A10.967,10.967,0,1,0,608.21,89.241a10.966,10.966,0,0,0-10.967,10.967" transform="translate(382.271 -18.934)" fill="#ef622f"/>
        <path id="Caminho_117216" data-name="Caminho 117216" d="M671.9,100.369A10.368,10.368,0,1,0,682.266,90,10.368,10.368,0,0,0,671.9,100.369" transform="translate(249.998 -19.095)" fill="#ef622f"/>
        <path id="Caminho_117217" data-name="Caminho 117217" d="M746.554,100.53a9.769,9.769,0,1,0,9.769-9.769,9.77,9.77,0,0,0-9.769,9.769" transform="translate(117.724 -19.256)" fill="#ef622f"/>
        <path id="Caminho_117218" data-name="Caminho 117218" d="M821.209,100.691a9.17,9.17,0,1,0,9.17-9.17,9.17,9.17,0,0,0-9.17,9.17" transform="translate(-14.55 -19.418)" fill="#ef622f"/>
        <path id="Caminho_117219" data-name="Caminho 117219" d="M895.865,100.853a8.572,8.572,0,1,0,8.572-8.572,8.572,8.572,0,0,0-8.572,8.572" transform="translate(-146.824 -19.579)" fill="#ef622f"/>
        <path id="Caminho_117220" data-name="Caminho 117220" d="M970.52,101.014a7.973,7.973,0,1,0,7.973-7.972,7.973,7.973,0,0,0-7.973,7.972" transform="translate(-279.098 -19.74)" fill="#ef622f"/>
        <path id="Caminho_117221" data-name="Caminho 117221" d="M1045.175,101.175a7.374,7.374,0,1,0,7.374-7.373,7.374,7.374,0,0,0-7.374,7.373" transform="translate(-411.371 -19.902)" fill="#ef622f"/>
        <path id="Caminho_117222" data-name="Caminho 117222" d="M1119.831,101.337a6.775,6.775,0,1,0,6.776-6.775,6.775,6.775,0,0,0-6.776,6.775" transform="translate(-543.646 -20.063)" fill="#ef622f"/>
        <path id="Caminho_117223" data-name="Caminho 117223" d="M1194.486,101.5a6.177,6.177,0,1,0,6.177-6.176,6.177,6.177,0,0,0-6.177,6.176" transform="translate(-675.92 -20.224)" fill="#ef622f"/>
        <path id="Caminho_117224" data-name="Caminho 117224" d="M1269.141,101.659a5.578,5.578,0,1,0,5.578-5.577,5.579,5.579,0,0,0-5.578,5.577" transform="translate(-808.193 -20.385)" fill="#ef622f"/>
        <path id="Caminho_117225" data-name="Caminho 117225" d="M1343.8,101.82a4.979,4.979,0,1,0,4.979-4.978,4.98,4.98,0,0,0-4.979,4.978" transform="translate(-940.467 -20.547)" fill="#ef622f"/>
        <path id="Caminho_117226" data-name="Caminho 117226" d="M1418.452,101.982a4.38,4.38,0,1,0,4.381-4.38,4.38,4.38,0,0,0-4.381,4.38" transform="translate(-1072.741 -20.708)" fill="#ef622f"/>
        <path id="Caminho_117227" data-name="Caminho 117227" d="M1493.108,102.143a3.782,3.782,0,1,0,3.782-3.781,3.781,3.781,0,0,0-3.782,3.781" transform="translate(-1205.016 -20.869)" fill="#ef622f"/>
        <path id="Caminho_117228" data-name="Caminho 117228" d="M1567.763,102.3a3.183,3.183,0,1,0,3.183-3.182,3.183,3.183,0,0,0-3.183,3.182" transform="translate(-1337.288 -21.03)" fill="#ef622f"/>
        <path id="Caminho_117229" data-name="Caminho 117229" d="M1642.418,102.465A2.584,2.584,0,1,0,1645,99.881a2.584,2.584,0,0,0-2.583,2.584" transform="translate(-1469.561 -21.191)" fill="#ef622f"/>
        <path id="Caminho_117230" data-name="Caminho 117230" d="M1717.074,102.626a1.985,1.985,0,1,0,1.985-1.985,1.985,1.985,0,0,0-1.985,1.985" transform="translate(-1601.837 -21.353)" fill="#ef622f"/>
        <path id="Caminho_117231" data-name="Caminho 117231" d="M1791.729,102.788a1.387,1.387,0,1,0,1.387-1.387,1.388,1.388,0,0,0-1.387,1.387" transform="translate(-1734.11 -21.514)" fill="#ef622f"/>
        <path id="Caminho_117232" data-name="Caminho 117232" d="M1866.385,102.949a.788.788,0,1,0,.788-.788.788.788,0,0,0-.788.788" transform="translate(-1866.385 -21.675)" fill="#ef622f"/>
        <path id="Caminho_117233" data-name="Caminho 117233" d="M0,182.08a15.757,15.757,0,1,0,15.757-15.757A15.756,15.756,0,0,0,0,182.08" transform="translate(1440.463 -35.288)" fill="#ef622f"/>
        <path id="Caminho_117234" data-name="Caminho 117234" d="M74.655,182.241a15.158,15.158,0,1,0,15.158-15.158,15.158,15.158,0,0,0-15.158,15.158" transform="translate(1308.189 -35.449)" fill="#ef622f"/>
        <path id="Caminho_117235" data-name="Caminho 117235" d="M149.311,182.4a14.559,14.559,0,1,0,14.559-14.559A14.559,14.559,0,0,0,149.311,182.4" transform="translate(1175.914 -35.611)" fill="#ef622f"/>
        <path id="Caminho_117236" data-name="Caminho 117236" d="M223.966,182.563a13.96,13.96,0,1,0,13.96-13.96,13.961,13.961,0,0,0-13.96,13.96" transform="translate(1043.641 -35.772)" fill="#ef622f"/>
        <path id="Caminho_117237" data-name="Caminho 117237" d="M298.622,182.725a13.362,13.362,0,1,0,13.362-13.362,13.361,13.361,0,0,0-13.362,13.362" transform="translate(911.366 -35.933)" fill="#ef622f"/>
        <path id="Caminho_117238" data-name="Caminho 117238" d="M373.277,182.886a12.763,12.763,0,1,0,12.763-12.763,12.763,12.763,0,0,0-12.763,12.763" transform="translate(779.093 -36.094)" fill="#ef622f"/>
        <path id="Caminho_117239" data-name="Caminho 117239" d="M447.932,183.047A12.164,12.164,0,1,0,460.1,170.883a12.164,12.164,0,0,0-12.164,12.164" transform="translate(646.82 -36.256)" fill="#ef622f"/>
        <path id="Caminho_117240" data-name="Caminho 117240" d="M522.588,183.208a11.565,11.565,0,1,0,11.565-11.565,11.565,11.565,0,0,0-11.565,11.565" transform="translate(514.545 -36.417)" fill="#ef622f"/>
        <path id="Caminho_117241" data-name="Caminho 117241" d="M597.243,183.37A10.967,10.967,0,1,0,608.21,172.4a10.966,10.966,0,0,0-10.967,10.967" transform="translate(382.271 -36.578)" fill="#ef622f"/>
        <path id="Caminho_117242" data-name="Caminho 117242" d="M671.9,183.531a10.368,10.368,0,1,0,10.368-10.368A10.368,10.368,0,0,0,671.9,183.531" transform="translate(249.998 -36.739)" fill="#ef622f"/>
        <path id="Caminho_117243" data-name="Caminho 117243" d="M746.554,183.692a9.769,9.769,0,1,0,9.769-9.769,9.769,9.769,0,0,0-9.769,9.769" transform="translate(117.724 -36.901)" fill="#ef622f"/>
        <path id="Caminho_117244" data-name="Caminho 117244" d="M821.209,183.853a9.17,9.17,0,1,0,9.17-9.17,9.17,9.17,0,0,0-9.17,9.17" transform="translate(-14.55 -37.062)" fill="#ef622f"/>
        <path id="Caminho_117245" data-name="Caminho 117245" d="M895.865,184.015a8.572,8.572,0,1,0,8.572-8.572,8.572,8.572,0,0,0-8.572,8.572" transform="translate(-146.824 -37.223)" fill="#ef622f"/>
        <path id="Caminho_117246" data-name="Caminho 117246" d="M970.52,184.176a7.973,7.973,0,1,0,7.973-7.973,7.973,7.973,0,0,0-7.973,7.973" transform="translate(-279.098 -37.384)" fill="#ef622f"/>
        <path id="Caminho_117247" data-name="Caminho 117247" d="M1045.175,184.337a7.374,7.374,0,1,0,7.374-7.374,7.375,7.375,0,0,0-7.374,7.374" transform="translate(-411.371 -37.546)" fill="#ef622f"/>
        <path id="Caminho_117248" data-name="Caminho 117248" d="M1119.831,184.5a6.775,6.775,0,1,0,6.776-6.775,6.775,6.775,0,0,0-6.776,6.775" transform="translate(-543.646 -37.707)" fill="#ef622f"/>
        <path id="Caminho_117249" data-name="Caminho 117249" d="M1194.486,184.66a6.177,6.177,0,1,0,6.177-6.177,6.177,6.177,0,0,0-6.177,6.177" transform="translate(-675.92 -37.868)" fill="#ef622f"/>
        <path id="Caminho_117250" data-name="Caminho 117250" d="M1269.141,184.821a5.578,5.578,0,1,0,5.578-5.578,5.579,5.579,0,0,0-5.578,5.578" transform="translate(-808.193 -38.029)" fill="#ef622f"/>
        <path id="Caminho_117251" data-name="Caminho 117251" d="M1343.8,184.982a4.979,4.979,0,1,0,4.979-4.979,4.979,4.979,0,0,0-4.979,4.979" transform="translate(-940.467 -38.191)" fill="#ef622f"/>
        <path id="Caminho_117252" data-name="Caminho 117252" d="M1418.452,185.143a4.38,4.38,0,1,0,4.381-4.38,4.38,4.38,0,0,0-4.381,4.38" transform="translate(-1072.741 -38.352)" fill="#ef622f"/>
        <path id="Caminho_117253" data-name="Caminho 117253" d="M1493.108,185.3a3.782,3.782,0,1,0,3.782-3.782,3.782,3.782,0,0,0-3.782,3.782" transform="translate(-1205.016 -38.513)" fill="#ef622f"/>
        <path id="Caminho_117254" data-name="Caminho 117254" d="M1567.763,185.466a3.183,3.183,0,1,0,3.183-3.183,3.183,3.183,0,0,0-3.183,3.183" transform="translate(-1337.288 -38.674)" fill="#ef622f"/>
        <path id="Caminho_117255" data-name="Caminho 117255" d="M1642.418,185.627a2.584,2.584,0,1,0,2.583-2.584,2.584,2.584,0,0,0-2.583,2.584" transform="translate(-1469.561 -38.836)" fill="#ef622f"/>
        <path id="Caminho_117256" data-name="Caminho 117256" d="M1717.074,185.788a1.985,1.985,0,1,0,1.985-1.985,1.985,1.985,0,0,0-1.985,1.985" transform="translate(-1601.837 -38.997)" fill="#ef622f"/>
        <path id="Caminho_117257" data-name="Caminho 117257" d="M1791.729,185.95a1.387,1.387,0,1,0,1.387-1.387,1.387,1.387,0,0,0-1.387,1.387" transform="translate(-1734.11 -39.158)" fill="#ef622f"/>
        <path id="Caminho_117258" data-name="Caminho 117258" d="M1866.385,186.111a.788.788,0,1,0,.788-.788.788.788,0,0,0-.788.788" transform="translate(-1866.385 -39.319)" fill="#ef622f"/>
        <path id="Caminho_117259" data-name="Caminho 117259" d="M0,265.242a15.757,15.757,0,1,0,15.757-15.757A15.756,15.756,0,0,0,0,265.242" transform="translate(1440.463 -52.932)" fill="#ef622f"/>
        <path id="Caminho_117260" data-name="Caminho 117260" d="M74.655,265.4a15.158,15.158,0,1,0,15.158-15.158A15.158,15.158,0,0,0,74.655,265.4" transform="translate(1308.189 -53.094)" fill="#ef622f"/>
        <path id="Caminho_117261" data-name="Caminho 117261" d="M149.311,265.564a14.559,14.559,0,1,0,14.559-14.559,14.559,14.559,0,0,0-14.559,14.559" transform="translate(1175.914 -53.255)" fill="#ef622f"/>
        <path id="Caminho_117262" data-name="Caminho 117262" d="M223.966,265.725a13.96,13.96,0,1,0,13.96-13.96,13.961,13.961,0,0,0-13.96,13.96" transform="translate(1043.641 -53.416)" fill="#ef622f"/>
        <path id="Caminho_117263" data-name="Caminho 117263" d="M298.622,265.887a13.362,13.362,0,1,0,13.362-13.362,13.361,13.361,0,0,0-13.362,13.362" transform="translate(911.366 -53.577)" fill="#ef622f"/>
        <path id="Caminho_117264" data-name="Caminho 117264" d="M373.277,266.048a12.763,12.763,0,1,0,12.763-12.763,12.763,12.763,0,0,0-12.763,12.763" transform="translate(779.093 -53.739)" fill="#ef622f"/>
        <path id="Caminho_117265" data-name="Caminho 117265" d="M447.932,266.209A12.164,12.164,0,1,0,460.1,254.045a12.164,12.164,0,0,0-12.164,12.164" transform="translate(646.82 -53.9)" fill="#ef622f"/>
        <path id="Caminho_117266" data-name="Caminho 117266" d="M522.588,266.37a11.565,11.565,0,1,0,11.565-11.565,11.565,11.565,0,0,0-11.565,11.565" transform="translate(514.545 -54.061)" fill="#ef622f"/>
        <path id="Caminho_117267" data-name="Caminho 117267" d="M597.243,266.532a10.967,10.967,0,1,0,10.967-10.967,10.966,10.966,0,0,0-10.967,10.967" transform="translate(382.271 -54.222)" fill="#ef622f"/>
        <path id="Caminho_117268" data-name="Caminho 117268" d="M671.9,266.693a10.368,10.368,0,1,0,10.368-10.368A10.368,10.368,0,0,0,671.9,266.693" transform="translate(249.998 -54.384)" fill="#ef622f"/>
        <path id="Caminho_117269" data-name="Caminho 117269" d="M746.554,266.854a9.769,9.769,0,1,0,9.769-9.769,9.769,9.769,0,0,0-9.769,9.769" transform="translate(117.724 -54.545)" fill="#ef622f"/>
        <path id="Caminho_117270" data-name="Caminho 117270" d="M821.209,267.015a9.17,9.17,0,1,0,9.17-9.17,9.17,9.17,0,0,0-9.17,9.17" transform="translate(-14.55 -54.706)" fill="#ef622f"/>
        <path id="Caminho_117271" data-name="Caminho 117271" d="M895.865,267.177a8.572,8.572,0,1,0,8.572-8.572,8.572,8.572,0,0,0-8.572,8.572" transform="translate(-146.824 -54.867)" fill="#ef622f"/>
        <path id="Caminho_117272" data-name="Caminho 117272" d="M970.52,267.338a7.973,7.973,0,1,0,7.973-7.973,7.973,7.973,0,0,0-7.973,7.973" transform="translate(-279.098 -55.029)" fill="#ef622f"/>
        <path id="Caminho_117273" data-name="Caminho 117273" d="M1045.175,267.5a7.374,7.374,0,1,0,7.374-7.374,7.375,7.375,0,0,0-7.374,7.374" transform="translate(-411.371 -55.19)" fill="#ef622f"/>
        <path id="Caminho_117274" data-name="Caminho 117274" d="M1119.831,267.66a6.775,6.775,0,1,0,6.776-6.775,6.775,6.775,0,0,0-6.776,6.775" transform="translate(-543.646 -55.351)" fill="#ef622f"/>
        <path id="Caminho_117275" data-name="Caminho 117275" d="M1194.486,267.822a6.177,6.177,0,1,0,6.177-6.177,6.177,6.177,0,0,0-6.177,6.177" transform="translate(-675.92 -55.512)" fill="#ef622f"/>
        <path id="Caminho_117276" data-name="Caminho 117276" d="M1269.141,267.983a5.578,5.578,0,1,0,5.578-5.578,5.579,5.579,0,0,0-5.578,5.578" transform="translate(-808.193 -55.674)" fill="#ef622f"/>
        <path id="Caminho_117277" data-name="Caminho 117277" d="M1343.8,268.144a4.979,4.979,0,1,0,4.979-4.979,4.979,4.979,0,0,0-4.979,4.979" transform="translate(-940.467 -55.835)" fill="#ef622f"/>
        <path id="Caminho_117278" data-name="Caminho 117278" d="M1418.452,268.305a4.38,4.38,0,1,0,4.381-4.38,4.38,4.38,0,0,0-4.381,4.38" transform="translate(-1072.741 -55.996)" fill="#ef622f"/>
        <path id="Caminho_117279" data-name="Caminho 117279" d="M1493.108,268.467a3.782,3.782,0,1,0,3.782-3.782,3.782,3.782,0,0,0-3.782,3.782" transform="translate(-1205.016 -56.157)" fill="#ef622f"/>
        <path id="Caminho_117280" data-name="Caminho 117280" d="M1567.763,268.628a3.183,3.183,0,1,0,3.183-3.183,3.183,3.183,0,0,0-3.183,3.183" transform="translate(-1337.288 -56.319)" fill="#ef622f"/>
        <path id="Caminho_117281" data-name="Caminho 117281" d="M1642.418,268.789A2.584,2.584,0,1,0,1645,266.2a2.584,2.584,0,0,0-2.583,2.584" transform="translate(-1469.561 -56.48)" fill="#ef622f"/>
        <path id="Caminho_117282" data-name="Caminho 117282" d="M1717.074,268.95a1.985,1.985,0,1,0,1.985-1.985,1.985,1.985,0,0,0-1.985,1.985" transform="translate(-1601.837 -56.641)" fill="#ef622f"/>
        <path id="Caminho_117283" data-name="Caminho 117283" d="M1791.729,269.112a1.387,1.387,0,1,0,1.387-1.387,1.387,1.387,0,0,0-1.387,1.387" transform="translate(-1734.11 -56.802)" fill="#ef622f"/>
        <path id="Caminho_117284" data-name="Caminho 117284" d="M1866.385,269.273a.788.788,0,1,0,.788-.788.788.788,0,0,0-.788.788" transform="translate(-1866.385 -56.964)" fill="#ef622f"/>
        <path id="Caminho_117285" data-name="Caminho 117285" d="M0,348.4a15.757,15.757,0,1,0,15.757-15.757A15.756,15.756,0,0,0,0,348.4" transform="translate(1440.463 -70.576)" fill="#ef622f"/>
        <path id="Caminho_117286" data-name="Caminho 117286" d="M74.655,348.564a15.158,15.158,0,1,0,15.158-15.158,15.158,15.158,0,0,0-15.158,15.158" transform="translate(1308.189 -70.738)" fill="#ef622f"/>
        <path id="Caminho_117287" data-name="Caminho 117287" d="M149.311,348.725a14.559,14.559,0,1,0,14.559-14.559,14.559,14.559,0,0,0-14.559,14.559" transform="translate(1175.914 -70.899)" fill="#ef622f"/>
        <path id="Caminho_117288" data-name="Caminho 117288" d="M223.966,348.886a13.96,13.96,0,1,0,13.96-13.96,13.961,13.961,0,0,0-13.96,13.96" transform="translate(1043.641 -71.06)" fill="#ef622f"/>
        <path id="Caminho_117289" data-name="Caminho 117289" d="M298.622,349.048a13.362,13.362,0,1,0,13.362-13.362,13.361,13.361,0,0,0-13.362,13.362" transform="translate(911.366 -71.221)" fill="#ef622f"/>
        <path id="Caminho_117290" data-name="Caminho 117290" d="M373.277,349.209a12.763,12.763,0,1,0,12.763-12.763,12.763,12.763,0,0,0-12.763,12.763" transform="translate(779.093 -71.383)" fill="#ef622f"/>
        <path id="Caminho_117291" data-name="Caminho 117291" d="M447.932,349.37A12.164,12.164,0,1,0,460.1,337.206a12.164,12.164,0,0,0-12.164,12.164" transform="translate(646.82 -71.544)" fill="#ef622f"/>
        <path id="Caminho_117292" data-name="Caminho 117292" d="M522.588,349.531a11.565,11.565,0,1,0,11.565-11.565,11.565,11.565,0,0,0-11.565,11.565" transform="translate(514.545 -71.705)" fill="#ef622f"/>
        <path id="Caminho_117293" data-name="Caminho 117293" d="M597.243,349.693a10.967,10.967,0,1,0,10.967-10.967,10.966,10.966,0,0,0-10.967,10.967" transform="translate(382.271 -71.866)" fill="#ef622f"/>
        <path id="Caminho_117294" data-name="Caminho 117294" d="M671.9,349.854a10.368,10.368,0,1,0,10.368-10.368A10.368,10.368,0,0,0,671.9,349.854" transform="translate(249.998 -72.028)" fill="#ef622f"/>
        <path id="Caminho_117295" data-name="Caminho 117295" d="M746.554,350.015a9.769,9.769,0,1,0,9.769-9.769,9.769,9.769,0,0,0-9.769,9.769" transform="translate(117.724 -72.189)" fill="#ef622f"/>
        <path id="Caminho_117296" data-name="Caminho 117296" d="M821.209,350.176a9.17,9.17,0,1,0,9.17-9.17,9.17,9.17,0,0,0-9.17,9.17" transform="translate(-14.55 -72.35)" fill="#ef622f"/>
        <path id="Caminho_117297" data-name="Caminho 117297" d="M895.865,350.338a8.572,8.572,0,1,0,8.572-8.572,8.572,8.572,0,0,0-8.572,8.572" transform="translate(-146.824 -72.511)" fill="#ef622f"/>
        <path id="Caminho_117298" data-name="Caminho 117298" d="M970.52,350.5a7.973,7.973,0,1,0,7.973-7.973,7.973,7.973,0,0,0-7.973,7.973" transform="translate(-279.098 -72.673)" fill="#ef622f"/>
        <path id="Caminho_117299" data-name="Caminho 117299" d="M1045.175,350.66a7.374,7.374,0,1,0,7.374-7.374,7.375,7.375,0,0,0-7.374,7.374" transform="translate(-411.371 -72.834)" fill="#ef622f"/>
        <path id="Caminho_117300" data-name="Caminho 117300" d="M1119.831,350.821a6.775,6.775,0,1,0,6.776-6.775,6.775,6.775,0,0,0-6.776,6.775" transform="translate(-543.646 -72.995)" fill="#ef622f"/>
        <path id="Caminho_117301" data-name="Caminho 117301" d="M1194.486,350.983a6.177,6.177,0,1,0,6.177-6.177,6.177,6.177,0,0,0-6.177,6.177" transform="translate(-675.92 -73.156)" fill="#ef622f"/>
        <path id="Caminho_117302" data-name="Caminho 117302" d="M1269.141,351.144a5.578,5.578,0,1,0,5.578-5.578,5.579,5.579,0,0,0-5.578,5.578" transform="translate(-808.193 -73.318)" fill="#ef622f"/>
        <path id="Caminho_117303" data-name="Caminho 117303" d="M1343.8,351.305a4.979,4.979,0,1,0,4.979-4.979,4.979,4.979,0,0,0-4.979,4.979" transform="translate(-940.467 -73.479)" fill="#ef622f"/>
        <path id="Caminho_117304" data-name="Caminho 117304" d="M1418.452,351.466a4.38,4.38,0,1,0,4.381-4.38,4.38,4.38,0,0,0-4.381,4.38" transform="translate(-1072.741 -73.64)" fill="#ef622f"/>
        <path id="Caminho_117305" data-name="Caminho 117305" d="M1493.108,351.628a3.782,3.782,0,1,0,3.782-3.782,3.782,3.782,0,0,0-3.782,3.782" transform="translate(-1205.016 -73.801)" fill="#ef622f"/>
        <path id="Caminho_117306" data-name="Caminho 117306" d="M1567.763,351.789a3.183,3.183,0,1,0,3.183-3.183,3.183,3.183,0,0,0-3.183,3.183" transform="translate(-1337.288 -73.963)" fill="#ef622f"/>
        <path id="Caminho_117307" data-name="Caminho 117307" d="M1642.418,351.95a2.584,2.584,0,1,0,2.583-2.584,2.584,2.584,0,0,0-2.583,2.584" transform="translate(-1469.561 -74.124)" fill="#ef622f"/>
        <path id="Caminho_117308" data-name="Caminho 117308" d="M1717.074,352.111a1.985,1.985,0,1,0,1.985-1.985,1.985,1.985,0,0,0-1.985,1.985" transform="translate(-1601.837 -74.285)" fill="#ef622f"/>
        <path id="Caminho_117309" data-name="Caminho 117309" d="M1791.729,352.273a1.387,1.387,0,1,0,1.387-1.387,1.387,1.387,0,0,0-1.387,1.387" transform="translate(-1734.11 -74.446)" fill="#ef622f"/>
        <path id="Caminho_117310" data-name="Caminho 117310" d="M1866.385,352.434a.788.788,0,1,0,.788-.788.788.788,0,0,0-.788.788" transform="translate(-1866.385 -74.608)" fill="#ef622f"/>
        <path id="Caminho_117311" data-name="Caminho 117311" d="M0,431.565a15.757,15.757,0,1,0,15.757-15.757A15.756,15.756,0,0,0,0,431.565" transform="translate(1440.463 -88.221)" fill="#ef622f"/>
        <path id="Caminho_117312" data-name="Caminho 117312" d="M74.655,431.726a15.158,15.158,0,1,0,15.158-15.158,15.158,15.158,0,0,0-15.158,15.158" transform="translate(1308.189 -88.382)" fill="#ef622f"/>
        <path id="Caminho_117313" data-name="Caminho 117313" d="M149.311,431.887a14.559,14.559,0,1,0,14.559-14.559,14.559,14.559,0,0,0-14.559,14.559" transform="translate(1175.914 -88.543)" fill="#ef622f"/>
        <path id="Caminho_117314" data-name="Caminho 117314" d="M223.966,432.048a13.96,13.96,0,1,0,13.96-13.96,13.961,13.961,0,0,0-13.96,13.96" transform="translate(1043.641 -88.704)" fill="#ef622f"/>
        <path id="Caminho_117315" data-name="Caminho 117315" d="M298.622,432.21a13.362,13.362,0,1,0,13.362-13.362,13.361,13.361,0,0,0-13.362,13.362" transform="translate(911.366 -88.866)" fill="#ef622f"/>
        <path id="Caminho_117316" data-name="Caminho 117316" d="M373.277,432.371a12.763,12.763,0,1,0,12.763-12.763,12.763,12.763,0,0,0-12.763,12.763" transform="translate(779.093 -89.027)" fill="#ef622f"/>
        <path id="Caminho_117317" data-name="Caminho 117317" d="M447.932,432.532A12.164,12.164,0,1,0,460.1,420.368a12.164,12.164,0,0,0-12.164,12.164" transform="translate(646.82 -89.188)" fill="#ef622f"/>
        <path id="Caminho_117318" data-name="Caminho 117318" d="M522.588,432.693a11.565,11.565,0,1,0,11.565-11.565,11.565,11.565,0,0,0-11.565,11.565" transform="translate(514.545 -89.349)" fill="#ef622f"/>
        <path id="Caminho_117319" data-name="Caminho 117319" d="M597.243,432.855a10.967,10.967,0,1,0,10.967-10.967,10.967,10.967,0,0,0-10.967,10.967" transform="translate(382.271 -89.51)" fill="#ef622f"/>
        <path id="Caminho_117320" data-name="Caminho 117320" d="M671.9,433.016a10.368,10.368,0,1,0,10.368-10.368A10.368,10.368,0,0,0,671.9,433.016" transform="translate(249.998 -89.672)" fill="#ef622f"/>
        <path id="Caminho_117321" data-name="Caminho 117321" d="M746.554,433.177a9.769,9.769,0,1,0,9.769-9.769,9.769,9.769,0,0,0-9.769,9.769" transform="translate(117.724 -89.833)" fill="#ef622f"/>
        <path id="Caminho_117322" data-name="Caminho 117322" d="M821.209,433.338a9.17,9.17,0,1,0,9.17-9.17,9.17,9.17,0,0,0-9.17,9.17" transform="translate(-14.55 -89.994)" fill="#ef622f"/>
        <path id="Caminho_117323" data-name="Caminho 117323" d="M895.865,433.5a8.572,8.572,0,1,0,8.572-8.572,8.571,8.571,0,0,0-8.572,8.572" transform="translate(-146.824 -90.156)" fill="#ef622f"/>
        <path id="Caminho_117324" data-name="Caminho 117324" d="M970.52,433.661a7.973,7.973,0,1,0,7.973-7.973,7.973,7.973,0,0,0-7.973,7.973" transform="translate(-279.098 -90.317)" fill="#ef622f"/>
        <path id="Caminho_117325" data-name="Caminho 117325" d="M1045.175,433.822a7.374,7.374,0,1,0,7.374-7.374,7.375,7.375,0,0,0-7.374,7.374" transform="translate(-411.371 -90.478)" fill="#ef622f"/>
        <path id="Caminho_117326" data-name="Caminho 117326" d="M1119.831,433.983a6.775,6.775,0,1,0,6.776-6.775,6.775,6.775,0,0,0-6.776,6.775" transform="translate(-543.646 -90.639)" fill="#ef622f"/>
        <path id="Caminho_117327" data-name="Caminho 117327" d="M1194.486,434.145a6.177,6.177,0,1,0,6.177-6.177,6.177,6.177,0,0,0-6.177,6.177" transform="translate(-675.92 -90.8)" fill="#ef622f"/>
        <path id="Caminho_117328" data-name="Caminho 117328" d="M1269.141,434.306a5.578,5.578,0,1,0,5.578-5.578,5.579,5.579,0,0,0-5.578,5.578" transform="translate(-808.193 -90.962)" fill="#ef622f"/>
        <path id="Caminho_117329" data-name="Caminho 117329" d="M1343.8,434.467a4.979,4.979,0,1,0,4.979-4.979,4.979,4.979,0,0,0-4.979,4.979" transform="translate(-940.467 -91.123)" fill="#ef622f"/>
        <path id="Caminho_117330" data-name="Caminho 117330" d="M1418.452,434.628a4.38,4.38,0,1,0,4.381-4.38,4.38,4.38,0,0,0-4.381,4.38" transform="translate(-1072.741 -91.284)" fill="#ef622f"/>
        <path id="Caminho_117331" data-name="Caminho 117331" d="M1493.108,434.79a3.782,3.782,0,1,0,3.782-3.782,3.782,3.782,0,0,0-3.782,3.782" transform="translate(-1205.016 -91.446)" fill="#ef622f"/>
        <path id="Caminho_117332" data-name="Caminho 117332" d="M1567.763,434.951a3.183,3.183,0,1,0,3.183-3.183,3.183,3.183,0,0,0-3.183,3.183" transform="translate(-1337.288 -91.607)" fill="#ef622f"/>
        <path id="Caminho_117333" data-name="Caminho 117333" d="M1642.418,435.112a2.584,2.584,0,1,0,2.583-2.584,2.584,2.584,0,0,0-2.583,2.584" transform="translate(-1469.561 -91.768)" fill="#ef622f"/>
        <path id="Caminho_117334" data-name="Caminho 117334" d="M1717.074,435.273a1.985,1.985,0,1,0,1.985-1.985,1.985,1.985,0,0,0-1.985,1.985" transform="translate(-1601.837 -91.929)" fill="#ef622f"/>
        <path id="Caminho_117335" data-name="Caminho 117335" d="M1791.729,435.435a1.387,1.387,0,1,0,1.387-1.387,1.387,1.387,0,0,0-1.387,1.387" transform="translate(-1734.11 -92.09)" fill="#ef622f"/>
        <path id="Caminho_117336" data-name="Caminho 117336" d="M1866.385,435.6a.788.788,0,1,0,.788-.788.788.788,0,0,0-.788.788" transform="translate(-1866.385 -92.252)" fill="#ef622f"/>
        <path id="Caminho_117337" data-name="Caminho 117337" d="M0,514.726a15.757,15.757,0,1,0,15.757-15.757A15.756,15.756,0,0,0,0,514.726" transform="translate(1440.463 -105.865)" fill="#ef622f"/>
        <path id="Caminho_117338" data-name="Caminho 117338" d="M74.655,514.887a15.158,15.158,0,1,0,15.158-15.158,15.158,15.158,0,0,0-15.158,15.158" transform="translate(1308.189 -106.026)" fill="#ef622f"/>
        <path id="Caminho_117339" data-name="Caminho 117339" d="M149.311,515.048a14.559,14.559,0,1,0,14.559-14.559,14.559,14.559,0,0,0-14.559,14.559" transform="translate(1175.914 -106.187)" fill="#ef622f"/>
        <path id="Caminho_117340" data-name="Caminho 117340" d="M223.966,515.209a13.96,13.96,0,1,0,13.96-13.96,13.961,13.961,0,0,0-13.96,13.96" transform="translate(1043.641 -106.348)" fill="#ef622f"/>
        <path id="Caminho_117341" data-name="Caminho 117341" d="M298.622,515.371a13.362,13.362,0,1,0,13.362-13.362,13.361,13.361,0,0,0-13.362,13.362" transform="translate(911.366 -106.51)" fill="#ef622f"/>
        <path id="Caminho_117342" data-name="Caminho 117342" d="M373.277,515.532a12.763,12.763,0,1,0,12.763-12.763,12.763,12.763,0,0,0-12.763,12.763" transform="translate(779.093 -106.671)" fill="#ef622f"/>
        <path id="Caminho_117343" data-name="Caminho 117343" d="M447.932,515.693A12.164,12.164,0,1,0,460.1,503.529a12.164,12.164,0,0,0-12.164,12.164" transform="translate(646.82 -106.832)" fill="#ef622f"/>
        <path id="Caminho_117344" data-name="Caminho 117344" d="M522.588,515.854a11.565,11.565,0,1,0,11.565-11.565,11.565,11.565,0,0,0-11.565,11.565" transform="translate(514.545 -106.993)" fill="#ef622f"/>
        <path id="Caminho_117345" data-name="Caminho 117345" d="M597.243,516.016a10.967,10.967,0,1,0,10.967-10.967,10.966,10.966,0,0,0-10.967,10.967" transform="translate(382.271 -107.155)" fill="#ef622f"/>
        <path id="Caminho_117346" data-name="Caminho 117346" d="M671.9,516.177a10.368,10.368,0,1,0,10.368-10.368A10.368,10.368,0,0,0,671.9,516.177" transform="translate(249.998 -107.316)" fill="#ef622f"/>
        <path id="Caminho_117347" data-name="Caminho 117347" d="M746.554,516.338a9.769,9.769,0,1,0,9.769-9.769,9.769,9.769,0,0,0-9.769,9.769" transform="translate(117.724 -107.477)" fill="#ef622f"/>
        <path id="Caminho_117348" data-name="Caminho 117348" d="M821.209,516.5a9.17,9.17,0,1,0,9.17-9.17,9.17,9.17,0,0,0-9.17,9.17" transform="translate(-14.55 -107.638)" fill="#ef622f"/>
        <path id="Caminho_117349" data-name="Caminho 117349" d="M895.865,516.661a8.572,8.572,0,1,0,8.572-8.572,8.571,8.571,0,0,0-8.572,8.572" transform="translate(-146.824 -107.799)" fill="#ef622f"/>
        <path id="Caminho_117350" data-name="Caminho 117350" d="M970.52,516.822a7.973,7.973,0,1,0,7.973-7.973,7.973,7.973,0,0,0-7.973,7.973" transform="translate(-279.098 -107.961)" fill="#ef622f"/>
        <path id="Caminho_117351" data-name="Caminho 117351" d="M1045.175,516.983a7.374,7.374,0,1,0,7.374-7.374,7.374,7.374,0,0,0-7.374,7.374" transform="translate(-411.371 -108.122)" fill="#ef622f"/>
        <path id="Caminho_117352" data-name="Caminho 117352" d="M1119.831,517.144a6.775,6.775,0,1,0,6.776-6.775,6.775,6.775,0,0,0-6.776,6.775" transform="translate(-543.646 -108.283)" fill="#ef622f"/>
        <path id="Caminho_117353" data-name="Caminho 117353" d="M1194.486,517.306a6.177,6.177,0,1,0,6.177-6.177,6.177,6.177,0,0,0-6.177,6.177" transform="translate(-675.92 -108.445)" fill="#ef622f"/>
        <path id="Caminho_117354" data-name="Caminho 117354" d="M1269.141,517.467a5.578,5.578,0,1,0,5.578-5.578,5.578,5.578,0,0,0-5.578,5.578" transform="translate(-808.193 -108.606)" fill="#ef622f"/>
        <path id="Caminho_117355" data-name="Caminho 117355" d="M1343.8,517.628a4.979,4.979,0,1,0,4.979-4.979,4.979,4.979,0,0,0-4.979,4.979" transform="translate(-940.467 -108.767)" fill="#ef622f"/>
        <path id="Caminho_117356" data-name="Caminho 117356" d="M1418.452,517.789a4.38,4.38,0,1,0,4.381-4.38,4.38,4.38,0,0,0-4.381,4.38" transform="translate(-1072.741 -108.928)" fill="#ef622f"/>
        <path id="Caminho_117357" data-name="Caminho 117357" d="M1493.108,517.951a3.782,3.782,0,1,0,3.782-3.782,3.782,3.782,0,0,0-3.782,3.782" transform="translate(-1205.016 -109.089)" fill="#ef622f"/>
        <path id="Caminho_117358" data-name="Caminho 117358" d="M1567.763,518.112a3.183,3.183,0,1,0,3.183-3.183,3.183,3.183,0,0,0-3.183,3.183" transform="translate(-1337.288 -109.251)" fill="#ef622f"/>
        <path id="Caminho_117359" data-name="Caminho 117359" d="M1642.418,518.273a2.584,2.584,0,1,0,2.583-2.584,2.584,2.584,0,0,0-2.583,2.584" transform="translate(-1469.561 -109.412)" fill="#ef622f"/>
        <path id="Caminho_117360" data-name="Caminho 117360" d="M1717.074,518.434a1.985,1.985,0,1,0,1.985-1.985,1.985,1.985,0,0,0-1.985,1.985" transform="translate(-1601.837 -109.573)" fill="#ef622f"/>
        <path id="Caminho_117361" data-name="Caminho 117361" d="M1791.729,518.6a1.387,1.387,0,1,0,1.387-1.386,1.387,1.387,0,0,0-1.387,1.386" transform="translate(-1734.11 -109.735)" fill="#ef622f"/>
        <path id="Caminho_117362" data-name="Caminho 117362" d="M1866.385,518.757a.788.788,0,1,0,.788-.788.788.788,0,0,0-.788.788" transform="translate(-1866.385 -109.896)" fill="#ef622f"/>
        <path id="Caminho_117363" data-name="Caminho 117363" d="M0,597.888a15.757,15.757,0,1,0,15.757-15.757A15.756,15.756,0,0,0,0,597.888" transform="translate(1440.463 -123.509)" fill="#ef622f"/>
        <path id="Caminho_117364" data-name="Caminho 117364" d="M74.655,598.049a15.158,15.158,0,1,0,15.158-15.158,15.158,15.158,0,0,0-15.158,15.158" transform="translate(1308.189 -123.67)" fill="#ef622f"/>
        <path id="Caminho_117365" data-name="Caminho 117365" d="M149.311,598.21a14.559,14.559,0,1,0,14.559-14.559,14.559,14.559,0,0,0-14.559,14.559" transform="translate(1175.914 -123.831)" fill="#ef622f"/>
        <path id="Caminho_117366" data-name="Caminho 117366" d="M223.966,598.371a13.96,13.96,0,1,0,13.96-13.96,13.961,13.961,0,0,0-13.96,13.96" transform="translate(1043.641 -123.992)" fill="#ef622f"/>
        <path id="Caminho_117367" data-name="Caminho 117367" d="M298.622,598.532a13.362,13.362,0,1,0,13.362-13.362,13.361,13.361,0,0,0-13.362,13.362" transform="translate(911.366 -124.154)" fill="#ef622f"/>
        <path id="Caminho_117368" data-name="Caminho 117368" d="M373.277,598.694a12.763,12.763,0,1,0,12.763-12.763,12.763,12.763,0,0,0-12.763,12.763" transform="translate(779.093 -124.315)" fill="#ef622f"/>
        <path id="Caminho_117369" data-name="Caminho 117369" d="M447.932,598.855A12.164,12.164,0,1,0,460.1,586.691a12.164,12.164,0,0,0-12.164,12.164" transform="translate(646.82 -124.476)" fill="#ef622f"/>
        <path id="Caminho_117370" data-name="Caminho 117370" d="M522.588,599.016a11.565,11.565,0,1,0,11.565-11.565,11.565,11.565,0,0,0-11.565,11.565" transform="translate(514.545 -124.637)" fill="#ef622f"/>
        <path id="Caminho_117371" data-name="Caminho 117371" d="M597.243,599.178a10.967,10.967,0,1,0,10.967-10.967,10.966,10.966,0,0,0-10.967,10.967" transform="translate(382.271 -124.799)" fill="#ef622f"/>
        <path id="Caminho_117372" data-name="Caminho 117372" d="M671.9,599.339a10.368,10.368,0,1,0,10.368-10.368A10.368,10.368,0,0,0,671.9,599.339" transform="translate(249.998 -124.96)" fill="#ef622f"/>
        <path id="Caminho_117373" data-name="Caminho 117373" d="M746.554,599.5a9.769,9.769,0,1,0,9.769-9.769,9.77,9.77,0,0,0-9.769,9.769" transform="translate(117.724 -125.121)" fill="#ef622f"/>
        <path id="Caminho_117374" data-name="Caminho 117374" d="M821.209,599.661a9.17,9.17,0,1,0,9.17-9.17,9.17,9.17,0,0,0-9.17,9.17" transform="translate(-14.55 -125.282)" fill="#ef622f"/>
        <path id="Caminho_117375" data-name="Caminho 117375" d="M895.865,599.822a8.572,8.572,0,1,0,8.572-8.572,8.572,8.572,0,0,0-8.572,8.572" transform="translate(-146.824 -125.444)" fill="#ef622f"/>
        <path id="Caminho_117376" data-name="Caminho 117376" d="M970.52,599.984a7.973,7.973,0,1,0,7.973-7.973,7.973,7.973,0,0,0-7.973,7.973" transform="translate(-279.098 -125.605)" fill="#ef622f"/>
        <path id="Caminho_117377" data-name="Caminho 117377" d="M1045.175,600.145a7.374,7.374,0,1,0,7.374-7.374,7.375,7.375,0,0,0-7.374,7.374" transform="translate(-411.371 -125.766)" fill="#ef622f"/>
        <path id="Caminho_117378" data-name="Caminho 117378" d="M1119.831,600.306a6.775,6.775,0,1,0,6.776-6.775,6.775,6.775,0,0,0-6.776,6.775" transform="translate(-543.646 -125.928)" fill="#ef622f"/>
        <path id="Caminho_117379" data-name="Caminho 117379" d="M1194.486,600.468a6.177,6.177,0,1,0,6.177-6.177,6.177,6.177,0,0,0-6.177,6.177" transform="translate(-675.92 -126.089)" fill="#ef622f"/>
        <path id="Caminho_117380" data-name="Caminho 117380" d="M1269.141,600.629a5.578,5.578,0,1,0,5.578-5.578,5.578,5.578,0,0,0-5.578,5.578" transform="translate(-808.193 -126.25)" fill="#ef622f"/>
        <path id="Caminho_117381" data-name="Caminho 117381" d="M1343.8,600.79a4.979,4.979,0,1,0,4.979-4.979,4.979,4.979,0,0,0-4.979,4.979" transform="translate(-940.467 -126.411)" fill="#ef622f"/>
        <path id="Caminho_117382" data-name="Caminho 117382" d="M1418.452,600.951a4.38,4.38,0,1,0,4.381-4.38,4.38,4.38,0,0,0-4.381,4.38" transform="translate(-1072.741 -126.573)" fill="#ef622f"/>
        <path id="Caminho_117383" data-name="Caminho 117383" d="M1493.108,601.113a3.782,3.782,0,1,0,3.782-3.782,3.782,3.782,0,0,0-3.782,3.782" transform="translate(-1205.016 -126.733)" fill="#ef622f"/>
        <path id="Caminho_117384" data-name="Caminho 117384" d="M1567.763,601.274a3.183,3.183,0,1,0,3.183-3.183,3.183,3.183,0,0,0-3.183,3.183" transform="translate(-1337.288 -126.895)" fill="#ef622f"/>
        <path id="Caminho_117385" data-name="Caminho 117385" d="M1642.418,601.435a2.584,2.584,0,1,0,2.583-2.584,2.584,2.584,0,0,0-2.583,2.584" transform="translate(-1469.561 -127.056)" fill="#ef622f"/>
        <path id="Caminho_117386" data-name="Caminho 117386" d="M1717.074,601.6a1.985,1.985,0,1,0,1.985-1.985,1.985,1.985,0,0,0-1.985,1.985" transform="translate(-1601.837 -127.218)" fill="#ef622f"/>
        <path id="Caminho_117387" data-name="Caminho 117387" d="M1791.729,601.758a1.387,1.387,0,1,0,1.387-1.387,1.387,1.387,0,0,0-1.387,1.387" transform="translate(-1734.11 -127.379)" fill="#ef622f"/>
        <path id="Caminho_117388" data-name="Caminho 117388" d="M1866.385,601.919a.788.788,0,1,0,.788-.788.788.788,0,0,0-.788.788" transform="translate(-1866.385 -127.54)" fill="#ef622f"/>
        <path id="Caminho_117389" data-name="Caminho 117389" d="M0,681.049a15.757,15.757,0,1,0,15.757-15.757A15.756,15.756,0,0,0,0,681.049" transform="translate(1440.463 -141.153)" fill="#ef622f"/>
        <path id="Caminho_117390" data-name="Caminho 117390" d="M74.655,681.21a15.158,15.158,0,1,0,15.158-15.158A15.158,15.158,0,0,0,74.655,681.21" transform="translate(1308.189 -141.314)" fill="#ef622f"/>
        <path id="Caminho_117391" data-name="Caminho 117391" d="M149.311,681.371a14.559,14.559,0,1,0,14.559-14.559,14.559,14.559,0,0,0-14.559,14.559" transform="translate(1175.914 -141.475)" fill="#ef622f"/>
        <path id="Caminho_117392" data-name="Caminho 117392" d="M223.966,681.532a13.96,13.96,0,1,0,13.96-13.96,13.961,13.961,0,0,0-13.96,13.96" transform="translate(1043.641 -141.637)" fill="#ef622f"/>
        <path id="Caminho_117393" data-name="Caminho 117393" d="M298.622,681.694a13.362,13.362,0,1,0,13.362-13.362,13.361,13.361,0,0,0-13.362,13.362" transform="translate(911.366 -141.798)" fill="#ef622f"/>
        <path id="Caminho_117394" data-name="Caminho 117394" d="M373.277,681.855a12.763,12.763,0,1,0,12.763-12.763,12.763,12.763,0,0,0-12.763,12.763" transform="translate(779.093 -141.959)" fill="#ef622f"/>
        <path id="Caminho_117395" data-name="Caminho 117395" d="M447.932,682.016A12.164,12.164,0,1,0,460.1,669.852a12.164,12.164,0,0,0-12.164,12.164" transform="translate(646.82 -142.12)" fill="#ef622f"/>
        <path id="Caminho_117396" data-name="Caminho 117396" d="M522.588,682.177a11.565,11.565,0,1,0,11.565-11.565,11.565,11.565,0,0,0-11.565,11.565" transform="translate(514.545 -142.281)" fill="#ef622f"/>
        <path id="Caminho_117397" data-name="Caminho 117397" d="M597.243,682.339a10.967,10.967,0,1,0,10.967-10.967,10.966,10.966,0,0,0-10.967,10.967" transform="translate(382.271 -142.443)" fill="#ef622f"/>
        <path id="Caminho_117398" data-name="Caminho 117398" d="M671.9,682.5a10.368,10.368,0,1,0,10.368-10.368A10.368,10.368,0,0,0,671.9,682.5" transform="translate(249.998 -142.604)" fill="#ef622f"/>
        <path id="Caminho_117399" data-name="Caminho 117399" d="M746.554,682.661a9.769,9.769,0,1,0,9.769-9.769,9.769,9.769,0,0,0-9.769,9.769" transform="translate(117.724 -142.765)" fill="#ef622f"/>
        <path id="Caminho_117400" data-name="Caminho 117400" d="M821.209,682.823a9.17,9.17,0,1,0,9.17-9.17,9.17,9.17,0,0,0-9.17,9.17" transform="translate(-14.55 -142.927)" fill="#ef622f"/>
        <path id="Caminho_117401" data-name="Caminho 117401" d="M895.865,682.984a8.572,8.572,0,1,0,8.572-8.572,8.571,8.571,0,0,0-8.572,8.572" transform="translate(-146.824 -143.088)" fill="#ef622f"/>
        <path id="Caminho_117402" data-name="Caminho 117402" d="M970.52,683.145a7.973,7.973,0,1,0,7.973-7.973,7.973,7.973,0,0,0-7.973,7.973" transform="translate(-279.098 -143.249)" fill="#ef622f"/>
        <path id="Caminho_117403" data-name="Caminho 117403" d="M1045.175,683.306a7.374,7.374,0,1,0,7.374-7.374,7.375,7.375,0,0,0-7.374,7.374" transform="translate(-411.371 -143.41)" fill="#ef622f"/>
        <path id="Caminho_117404" data-name="Caminho 117404" d="M1119.831,683.467a6.775,6.775,0,1,0,6.776-6.775,6.775,6.775,0,0,0-6.776,6.775" transform="translate(-543.646 -143.571)" fill="#ef622f"/>
        <path id="Caminho_117405" data-name="Caminho 117405" d="M1194.486,683.629a6.177,6.177,0,1,0,6.177-6.177,6.177,6.177,0,0,0-6.177,6.177" transform="translate(-675.92 -143.733)" fill="#ef622f"/>
        <path id="Caminho_117406" data-name="Caminho 117406" d="M1269.141,683.79a5.578,5.578,0,1,0,5.578-5.578,5.579,5.579,0,0,0-5.578,5.578" transform="translate(-808.193 -143.894)" fill="#ef622f"/>
        <path id="Caminho_117407" data-name="Caminho 117407" d="M1343.8,683.951a4.979,4.979,0,1,0,4.979-4.979,4.979,4.979,0,0,0-4.979,4.979" transform="translate(-940.467 -144.055)" fill="#ef622f"/>
        <path id="Caminho_117408" data-name="Caminho 117408" d="M1418.452,684.112a4.38,4.38,0,1,0,4.381-4.38,4.38,4.38,0,0,0-4.381,4.38" transform="translate(-1072.741 -144.216)" fill="#ef622f"/>
        <path id="Caminho_117409" data-name="Caminho 117409" d="M1493.108,684.274a3.782,3.782,0,1,0,3.782-3.782,3.782,3.782,0,0,0-3.782,3.782" transform="translate(-1205.016 -144.378)" fill="#ef622f"/>
        <path id="Caminho_117410" data-name="Caminho 117410" d="M1567.763,684.435a3.183,3.183,0,1,0,3.183-3.183,3.183,3.183,0,0,0-3.183,3.183" transform="translate(-1337.288 -144.539)" fill="#ef622f"/>
        <path id="Caminho_117411" data-name="Caminho 117411" d="M1642.418,684.6a2.584,2.584,0,1,0,2.583-2.584,2.584,2.584,0,0,0-2.583,2.584" transform="translate(-1469.561 -144.7)" fill="#ef622f"/>
        <path id="Caminho_117412" data-name="Caminho 117412" d="M1717.074,684.757a1.985,1.985,0,1,0,1.985-1.985,1.985,1.985,0,0,0-1.985,1.985" transform="translate(-1601.837 -144.861)" fill="#ef622f"/>
        <path id="Caminho_117413" data-name="Caminho 117413" d="M1791.729,684.919a1.387,1.387,0,1,0,1.387-1.387,1.387,1.387,0,0,0-1.387,1.387" transform="translate(-1734.11 -145.023)" fill="#ef622f"/>
        <path id="Caminho_117414" data-name="Caminho 117414" d="M1866.385,685.08a.788.788,0,1,0,.788-.788.788.788,0,0,0-.788.788" transform="translate(-1866.385 -145.184)" fill="#ef622f"/>
        <path id="Caminho_117415" data-name="Caminho 117415" d="M0,764.211a15.757,15.757,0,1,0,15.757-15.757A15.756,15.756,0,0,0,0,764.211" transform="translate(1440.463 -158.797)" fill="#ef622f"/>
        <path id="Caminho_117416" data-name="Caminho 117416" d="M74.655,764.372a15.158,15.158,0,1,0,15.158-15.158,15.158,15.158,0,0,0-15.158,15.158" transform="translate(1308.189 -158.958)" fill="#ef622f"/>
        <path id="Caminho_117417" data-name="Caminho 117417" d="M149.311,764.533a14.559,14.559,0,1,0,14.559-14.559,14.559,14.559,0,0,0-14.559,14.559" transform="translate(1175.914 -159.12)" fill="#ef622f"/>
        <path id="Caminho_117418" data-name="Caminho 117418" d="M223.966,764.694a13.96,13.96,0,1,0,13.96-13.96,13.961,13.961,0,0,0-13.96,13.96" transform="translate(1043.641 -159.281)" fill="#ef622f"/>
        <path id="Caminho_117419" data-name="Caminho 117419" d="M298.622,764.855a13.362,13.362,0,1,0,13.362-13.362,13.361,13.361,0,0,0-13.362,13.362" transform="translate(911.366 -159.442)" fill="#ef622f"/>
        <path id="Caminho_117420" data-name="Caminho 117420" d="M373.277,765.017a12.763,12.763,0,1,0,12.763-12.763,12.763,12.763,0,0,0-12.763,12.763" transform="translate(779.093 -159.603)" fill="#ef622f"/>
        <path id="Caminho_117421" data-name="Caminho 117421" d="M447.932,765.178A12.164,12.164,0,1,0,460.1,753.014a12.164,12.164,0,0,0-12.164,12.164" transform="translate(646.82 -159.764)" fill="#ef622f"/>
        <path id="Caminho_117422" data-name="Caminho 117422" d="M522.588,765.339a11.565,11.565,0,1,0,11.565-11.565,11.565,11.565,0,0,0-11.565,11.565" transform="translate(514.545 -159.926)" fill="#ef622f"/>
        <path id="Caminho_117423" data-name="Caminho 117423" d="M597.243,765.5a10.967,10.967,0,1,0,10.967-10.967A10.967,10.967,0,0,0,597.243,765.5" transform="translate(382.271 -160.087)" fill="#ef622f"/>
        <path id="Caminho_117424" data-name="Caminho 117424" d="M671.9,765.662a10.368,10.368,0,1,0,10.368-10.368A10.368,10.368,0,0,0,671.9,765.662" transform="translate(249.998 -160.248)" fill="#ef622f"/>
        <path id="Caminho_117425" data-name="Caminho 117425" d="M746.554,765.823a9.769,9.769,0,1,0,9.769-9.769,9.769,9.769,0,0,0-9.769,9.769" transform="translate(117.724 -160.409)" fill="#ef622f"/>
        <path id="Caminho_117426" data-name="Caminho 117426" d="M821.209,765.984a9.17,9.17,0,1,0,9.17-9.17,9.17,9.17,0,0,0-9.17,9.17" transform="translate(-14.55 -160.571)" fill="#ef622f"/>
        <path id="Caminho_117427" data-name="Caminho 117427" d="M895.865,766.146a8.572,8.572,0,1,0,8.572-8.572,8.571,8.571,0,0,0-8.572,8.572" transform="translate(-146.824 -160.732)" fill="#ef622f"/>
        <path id="Caminho_117428" data-name="Caminho 117428" d="M970.52,766.307a7.973,7.973,0,1,0,7.973-7.973,7.973,7.973,0,0,0-7.973,7.973" transform="translate(-279.098 -160.893)" fill="#ef622f"/>
        <path id="Caminho_117429" data-name="Caminho 117429" d="M1045.175,766.468a7.374,7.374,0,1,0,7.374-7.374,7.375,7.375,0,0,0-7.374,7.374" transform="translate(-411.371 -161.054)" fill="#ef622f"/>
        <path id="Caminho_117430" data-name="Caminho 117430" d="M1119.831,766.629a6.775,6.775,0,1,0,6.776-6.775,6.775,6.775,0,0,0-6.776,6.775" transform="translate(-543.646 -161.216)" fill="#ef622f"/>
        <path id="Caminho_117431" data-name="Caminho 117431" d="M1194.486,766.79a6.177,6.177,0,1,0,6.177-6.176,6.177,6.177,0,0,0-6.177,6.176" transform="translate(-675.92 -161.377)" fill="#ef622f"/>
        <path id="Caminho_117432" data-name="Caminho 117432" d="M1269.141,766.952a5.578,5.578,0,1,0,5.578-5.578,5.579,5.579,0,0,0-5.578,5.578" transform="translate(-808.193 -161.538)" fill="#ef622f"/>
        <path id="Caminho_117433" data-name="Caminho 117433" d="M1343.8,767.113a4.979,4.979,0,1,0,4.979-4.979,4.979,4.979,0,0,0-4.979,4.979" transform="translate(-940.467 -161.699)" fill="#ef622f"/>
        <path id="Caminho_117434" data-name="Caminho 117434" d="M1418.452,767.274a4.38,4.38,0,1,0,4.381-4.38,4.38,4.38,0,0,0-4.381,4.38" transform="translate(-1072.741 -161.861)" fill="#ef622f"/>
        <path id="Caminho_117435" data-name="Caminho 117435" d="M1493.108,767.435a3.782,3.782,0,1,0,3.782-3.781,3.782,3.782,0,0,0-3.782,3.781" transform="translate(-1205.016 -162.022)" fill="#ef622f"/>
        <path id="Caminho_117436" data-name="Caminho 117436" d="M1567.763,767.6a3.183,3.183,0,1,0,3.183-3.183,3.183,3.183,0,0,0-3.183,3.183" transform="translate(-1337.288 -162.183)" fill="#ef622f"/>
        <path id="Caminho_117437" data-name="Caminho 117437" d="M1642.418,767.758a2.584,2.584,0,1,0,2.583-2.584,2.584,2.584,0,0,0-2.583,2.584" transform="translate(-1469.561 -162.344)" fill="#ef622f"/>
        <path id="Caminho_117438" data-name="Caminho 117438" d="M1717.074,767.919a1.985,1.985,0,1,0,1.985-1.985,1.985,1.985,0,0,0-1.985,1.985" transform="translate(-1601.837 -162.506)" fill="#ef622f"/>
        <path id="Caminho_117439" data-name="Caminho 117439" d="M1791.729,768.081a1.387,1.387,0,1,0,1.387-1.387,1.387,1.387,0,0,0-1.387,1.387" transform="translate(-1734.11 -162.667)" fill="#ef622f"/>
        <path id="Caminho_117440" data-name="Caminho 117440" d="M1866.385,768.242a.788.788,0,1,0,.788-.788.788.788,0,0,0-.788.788" transform="translate(-1866.385 -162.828)" fill="#ef622f"/>
        <path id="Caminho_117441" data-name="Caminho 117441" d="M0,847.372a15.757,15.757,0,1,0,15.757-15.757A15.756,15.756,0,0,0,0,847.372" transform="translate(1440.463 -176.441)" fill="#ef622f"/>
        <path id="Caminho_117442" data-name="Caminho 117442" d="M74.655,847.533a15.158,15.158,0,1,0,15.158-15.158,15.158,15.158,0,0,0-15.158,15.158" transform="translate(1308.189 -176.602)" fill="#ef622f"/>
        <path id="Caminho_117443" data-name="Caminho 117443" d="M149.311,847.694a14.559,14.559,0,1,0,14.559-14.559,14.559,14.559,0,0,0-14.559,14.559" transform="translate(1175.914 -176.763)" fill="#ef622f"/>
        <path id="Caminho_117444" data-name="Caminho 117444" d="M223.966,847.855a13.96,13.96,0,1,0,13.96-13.96,13.961,13.961,0,0,0-13.96,13.96" transform="translate(1043.641 -176.925)" fill="#ef622f"/>
        <path id="Caminho_117445" data-name="Caminho 117445" d="M298.622,848.017a13.362,13.362,0,1,0,13.362-13.362,13.361,13.361,0,0,0-13.362,13.362" transform="translate(911.366 -177.086)" fill="#ef622f"/>
        <path id="Caminho_117446" data-name="Caminho 117446" d="M373.277,848.178a12.763,12.763,0,1,0,12.763-12.763,12.763,12.763,0,0,0-12.763,12.763" transform="translate(779.093 -177.247)" fill="#ef622f"/>
        <path id="Caminho_117447" data-name="Caminho 117447" d="M447.932,848.339A12.164,12.164,0,1,0,460.1,836.175a12.164,12.164,0,0,0-12.164,12.164" transform="translate(646.82 -177.409)" fill="#ef622f"/>
        <path id="Caminho_117448" data-name="Caminho 117448" d="M522.588,848.5a11.565,11.565,0,1,0,11.565-11.565A11.565,11.565,0,0,0,522.588,848.5" transform="translate(514.545 -177.57)" fill="#ef622f"/>
        <path id="Caminho_117449" data-name="Caminho 117449" d="M597.243,848.661a10.967,10.967,0,1,0,10.967-10.967,10.966,10.966,0,0,0-10.967,10.967" transform="translate(382.271 -177.731)" fill="#ef622f"/>
        <path id="Caminho_117450" data-name="Caminho 117450" d="M671.9,848.823a10.368,10.368,0,1,0,10.368-10.368A10.368,10.368,0,0,0,671.9,848.823" transform="translate(249.998 -177.892)" fill="#ef622f"/>
        <path id="Caminho_117451" data-name="Caminho 117451" d="M746.554,848.984a9.769,9.769,0,1,0,9.769-9.769,9.769,9.769,0,0,0-9.769,9.769" transform="translate(117.724 -178.053)" fill="#ef622f"/>
        <path id="Caminho_117452" data-name="Caminho 117452" d="M821.209,849.145a9.17,9.17,0,1,0,9.17-9.17,9.17,9.17,0,0,0-9.17,9.17" transform="translate(-14.55 -178.215)" fill="#ef622f"/>
        <path id="Caminho_117453" data-name="Caminho 117453" d="M895.865,849.307a8.572,8.572,0,1,0,8.572-8.572,8.571,8.571,0,0,0-8.572,8.572" transform="translate(-146.824 -178.376)" fill="#ef622f"/>
        <path id="Caminho_117454" data-name="Caminho 117454" d="M970.52,849.468a7.973,7.973,0,1,0,7.973-7.973,7.973,7.973,0,0,0-7.973,7.973" transform="translate(-279.098 -178.537)" fill="#ef622f"/>
        <path id="Caminho_117455" data-name="Caminho 117455" d="M1045.175,849.629a7.374,7.374,0,1,0,7.374-7.374,7.375,7.375,0,0,0-7.374,7.374" transform="translate(-411.371 -178.698)" fill="#ef622f"/>
        <path id="Caminho_117456" data-name="Caminho 117456" d="M1119.831,849.79a6.775,6.775,0,1,0,6.776-6.775,6.775,6.775,0,0,0-6.776,6.775" transform="translate(-543.646 -178.86)" fill="#ef622f"/>
        <path id="Caminho_117457" data-name="Caminho 117457" d="M1194.486,849.952a6.177,6.177,0,1,0,6.177-6.177,6.177,6.177,0,0,0-6.177,6.177" transform="translate(-675.92 -179.021)" fill="#ef622f"/>
        <path id="Caminho_117458" data-name="Caminho 117458" d="M1269.141,850.113a5.578,5.578,0,1,0,5.578-5.578,5.579,5.579,0,0,0-5.578,5.578" transform="translate(-808.193 -179.182)" fill="#ef622f"/>
        <path id="Caminho_117459" data-name="Caminho 117459" d="M1343.8,850.274a4.979,4.979,0,1,0,4.979-4.979,4.979,4.979,0,0,0-4.979,4.979" transform="translate(-940.467 -179.343)" fill="#ef622f"/>
        <path id="Caminho_117460" data-name="Caminho 117460" d="M1418.452,850.435a4.38,4.38,0,1,0,4.381-4.38,4.38,4.38,0,0,0-4.381,4.38" transform="translate(-1072.741 -179.505)" fill="#ef622f"/>
        <path id="Caminho_117461" data-name="Caminho 117461" d="M1493.108,850.6a3.782,3.782,0,1,0,3.782-3.782,3.782,3.782,0,0,0-3.782,3.782" transform="translate(-1205.016 -179.666)" fill="#ef622f"/>
        <path id="Caminho_117462" data-name="Caminho 117462" d="M1567.763,850.758a3.183,3.183,0,1,0,3.183-3.183,3.183,3.183,0,0,0-3.183,3.183" transform="translate(-1337.288 -179.827)" fill="#ef622f"/>
        <path id="Caminho_117463" data-name="Caminho 117463" d="M1642.418,850.919a2.584,2.584,0,1,0,2.583-2.584,2.584,2.584,0,0,0-2.583,2.584" transform="translate(-1469.561 -179.988)" fill="#ef622f"/>
        <path id="Caminho_117464" data-name="Caminho 117464" d="M1717.074,851.08a1.985,1.985,0,1,0,1.985-1.985,1.985,1.985,0,0,0-1.985,1.985" transform="translate(-1601.837 -180.15)" fill="#ef622f"/>
        <path id="Caminho_117465" data-name="Caminho 117465" d="M1791.729,851.242a1.387,1.387,0,1,0,1.387-1.387,1.387,1.387,0,0,0-1.387,1.387" transform="translate(-1734.11 -180.311)" fill="#ef622f"/>
        <path id="Caminho_117466" data-name="Caminho 117466" d="M1866.385,851.4a.788.788,0,1,0,.788-.788.788.788,0,0,0-.788.788" transform="translate(-1866.385 -180.472)" fill="#ef622f"/>
        <path id="Caminho_117467" data-name="Caminho 117467" d="M0,930.534a15.757,15.757,0,1,0,15.757-15.757A15.756,15.756,0,0,0,0,930.534" transform="translate(1440.463 -194.085)" fill="#ef622f"/>
        <path id="Caminho_117468" data-name="Caminho 117468" d="M74.655,930.695a15.158,15.158,0,1,0,15.158-15.158,15.158,15.158,0,0,0-15.158,15.158" transform="translate(1308.189 -194.246)" fill="#ef622f"/>
        <path id="Caminho_117469" data-name="Caminho 117469" d="M149.311,930.856A14.559,14.559,0,1,0,163.87,916.3a14.559,14.559,0,0,0-14.559,14.559" transform="translate(1175.914 -194.408)" fill="#ef622f"/>
        <path id="Caminho_117470" data-name="Caminho 117470" d="M223.966,931.017a13.96,13.96,0,1,0,13.96-13.96,13.961,13.961,0,0,0-13.96,13.96" transform="translate(1043.641 -194.569)" fill="#ef622f"/>
        <path id="Caminho_117471" data-name="Caminho 117471" d="M298.622,931.179a13.362,13.362,0,1,0,13.362-13.362,13.361,13.361,0,0,0-13.362,13.362" transform="translate(911.366 -194.73)" fill="#ef622f"/>
        <path id="Caminho_117472" data-name="Caminho 117472" d="M373.277,931.34a12.763,12.763,0,1,0,12.763-12.763,12.763,12.763,0,0,0-12.763,12.763" transform="translate(779.093 -194.891)" fill="#ef622f"/>
        <path id="Caminho_117473" data-name="Caminho 117473" d="M447.932,931.5A12.164,12.164,0,1,0,460.1,919.337,12.165,12.165,0,0,0,447.932,931.5" transform="translate(646.82 -195.053)" fill="#ef622f"/>
        <path id="Caminho_117474" data-name="Caminho 117474" d="M522.588,931.662A11.565,11.565,0,1,0,534.153,920.1a11.565,11.565,0,0,0-11.565,11.565" transform="translate(514.545 -195.214)" fill="#ef622f"/>
        <path id="Caminho_117475" data-name="Caminho 117475" d="M597.243,931.824a10.967,10.967,0,1,0,10.967-10.967,10.966,10.966,0,0,0-10.967,10.967" transform="translate(382.271 -195.375)" fill="#ef622f"/>
        <path id="Caminho_117476" data-name="Caminho 117476" d="M671.9,931.985a10.368,10.368,0,1,0,10.368-10.368A10.368,10.368,0,0,0,671.9,931.985" transform="translate(249.998 -195.536)" fill="#ef622f"/>
        <path id="Caminho_117477" data-name="Caminho 117477" d="M746.554,932.146a9.769,9.769,0,1,0,9.769-9.769,9.769,9.769,0,0,0-9.769,9.769" transform="translate(117.724 -195.698)" fill="#ef622f"/>
        <path id="Caminho_117478" data-name="Caminho 117478" d="M821.209,932.307a9.17,9.17,0,1,0,9.17-9.17,9.17,9.17,0,0,0-9.17,9.17" transform="translate(-14.55 -195.859)" fill="#ef622f"/>
        <path id="Caminho_117479" data-name="Caminho 117479" d="M895.865,932.468a8.572,8.572,0,1,0,8.572-8.572,8.571,8.571,0,0,0-8.572,8.572" transform="translate(-146.824 -196.02)" fill="#ef622f"/>
        <path id="Caminho_117480" data-name="Caminho 117480" d="M970.52,932.63a7.973,7.973,0,1,0,7.973-7.973,7.973,7.973,0,0,0-7.973,7.973" transform="translate(-279.098 -196.182)" fill="#ef622f"/>
        <path id="Caminho_117481" data-name="Caminho 117481" d="M1045.175,932.791a7.374,7.374,0,1,0,7.374-7.374,7.375,7.375,0,0,0-7.374,7.374" transform="translate(-411.371 -196.343)" fill="#ef622f"/>
        <path id="Caminho_117482" data-name="Caminho 117482" d="M1119.831,932.952a6.775,6.775,0,1,0,6.776-6.775,6.775,6.775,0,0,0-6.776,6.775" transform="translate(-543.646 -196.504)" fill="#ef622f"/>
        <path id="Caminho_117483" data-name="Caminho 117483" d="M1194.486,933.114a6.177,6.177,0,1,0,6.177-6.177,6.177,6.177,0,0,0-6.177,6.177" transform="translate(-675.92 -196.665)" fill="#ef622f"/>
        <path id="Caminho_117484" data-name="Caminho 117484" d="M1269.141,933.275a5.578,5.578,0,1,0,5.578-5.578,5.579,5.579,0,0,0-5.578,5.578" transform="translate(-808.193 -196.826)" fill="#ef622f"/>
        <path id="Caminho_117485" data-name="Caminho 117485" d="M1343.8,933.436a4.979,4.979,0,1,0,4.979-4.979,4.979,4.979,0,0,0-4.979,4.979" transform="translate(-940.467 -196.988)" fill="#ef622f"/>
        <path id="Caminho_117486" data-name="Caminho 117486" d="M1418.452,933.6a4.38,4.38,0,1,0,4.381-4.38,4.38,4.38,0,0,0-4.381,4.38" transform="translate(-1072.741 -197.149)" fill="#ef622f"/>
        <path id="Caminho_117487" data-name="Caminho 117487" d="M1493.108,933.759a3.782,3.782,0,1,0,3.782-3.782,3.782,3.782,0,0,0-3.782,3.782" transform="translate(-1205.016 -197.31)" fill="#ef622f"/>
        <path id="Caminho_117488" data-name="Caminho 117488" d="M1567.763,933.92a3.183,3.183,0,1,0,3.183-3.183,3.183,3.183,0,0,0-3.183,3.183" transform="translate(-1337.288 -197.471)" fill="#ef622f"/>
        <path id="Caminho_117489" data-name="Caminho 117489" d="M1642.418,934.081A2.584,2.584,0,1,0,1645,931.5a2.584,2.584,0,0,0-2.583,2.584" transform="translate(-1469.561 -197.633)" fill="#ef622f"/>
        <path id="Caminho_117490" data-name="Caminho 117490" d="M1717.074,934.242a1.985,1.985,0,1,0,1.985-1.985,1.985,1.985,0,0,0-1.985,1.985" transform="translate(-1601.837 -197.794)" fill="#ef622f"/>
        <path id="Caminho_117491" data-name="Caminho 117491" d="M1791.729,934.4a1.387,1.387,0,1,0,1.387-1.386,1.387,1.387,0,0,0-1.387,1.386" transform="translate(-1734.11 -197.955)" fill="#ef622f"/>
        <path id="Caminho_117492" data-name="Caminho 117492" d="M1866.385,934.565a.788.788,0,1,0,.788-.788.788.788,0,0,0-.788.788" transform="translate(-1866.385 -198.116)" fill="#ef622f"/>
        <path id="Caminho_117493" data-name="Caminho 117493" d="M0,1013.695a15.757,15.757,0,1,0,15.757-15.757A15.756,15.756,0,0,0,0,1013.695" transform="translate(1440.463 -211.729)" fill="#ef622f"/>
        <path id="Caminho_117494" data-name="Caminho 117494" d="M74.655,1013.856A15.158,15.158,0,1,0,89.813,998.7a15.158,15.158,0,0,0-15.158,15.158" transform="translate(1308.189 -211.89)" fill="#ef622f"/>
        <path id="Caminho_117495" data-name="Caminho 117495" d="M149.311,1014.017a14.559,14.559,0,1,0,14.559-14.559,14.559,14.559,0,0,0-14.559,14.559" transform="translate(1175.914 -212.052)" fill="#ef622f"/>
        <path id="Caminho_117496" data-name="Caminho 117496" d="M223.966,1014.179a13.96,13.96,0,1,0,13.96-13.961,13.96,13.96,0,0,0-13.96,13.961" transform="translate(1043.641 -212.213)" fill="#ef622f"/>
        <path id="Caminho_117497" data-name="Caminho 117497" d="M298.622,1014.339a13.362,13.362,0,1,0,13.362-13.362,13.362,13.362,0,0,0-13.362,13.362" transform="translate(911.366 -212.374)" fill="#ef622f"/>
        <path id="Caminho_117498" data-name="Caminho 117498" d="M373.277,1014.5a12.763,12.763,0,1,0,12.763-12.763,12.763,12.763,0,0,0-12.763,12.763" transform="translate(779.093 -212.535)" fill="#ef622f"/>
        <path id="Caminho_117499" data-name="Caminho 117499" d="M447.932,1014.662A12.164,12.164,0,1,0,460.1,1002.5a12.164,12.164,0,0,0-12.164,12.164" transform="translate(646.82 -212.697)" fill="#ef622f"/>
        <path id="Caminho_117500" data-name="Caminho 117500" d="M522.588,1014.823a11.565,11.565,0,1,0,11.565-11.566,11.565,11.565,0,0,0-11.565,11.566" transform="translate(514.545 -212.858)" fill="#ef622f"/>
        <path id="Caminho_117501" data-name="Caminho 117501" d="M597.243,1014.984a10.967,10.967,0,1,0,10.967-10.967,10.966,10.966,0,0,0-10.967,10.967" transform="translate(382.271 -213.019)" fill="#ef622f"/>
        <path id="Caminho_117502" data-name="Caminho 117502" d="M671.9,1015.146a10.368,10.368,0,1,0,10.368-10.368,10.368,10.368,0,0,0-10.368,10.368" transform="translate(249.998 -213.18)" fill="#ef622f"/>
        <path id="Caminho_117503" data-name="Caminho 117503" d="M746.554,1015.307a9.769,9.769,0,1,0,9.769-9.769,9.77,9.77,0,0,0-9.769,9.769" transform="translate(117.724 -213.341)" fill="#ef622f"/>
        <path id="Caminho_117504" data-name="Caminho 117504" d="M821.209,1015.469a9.17,9.17,0,1,0,9.17-9.17,9.17,9.17,0,0,0-9.17,9.17" transform="translate(-14.55 -213.503)" fill="#ef622f"/>
        <path id="Caminho_117505" data-name="Caminho 117505" d="M895.865,1015.63a8.572,8.572,0,1,0,8.572-8.572,8.572,8.572,0,0,0-8.572,8.572" transform="translate(-146.824 -213.664)" fill="#ef622f"/>
        <path id="Caminho_117506" data-name="Caminho 117506" d="M970.52,1015.791a7.973,7.973,0,1,0,7.973-7.973,7.973,7.973,0,0,0-7.973,7.973" transform="translate(-279.098 -213.825)" fill="#ef622f"/>
        <path id="Caminho_117507" data-name="Caminho 117507" d="M1045.175,1015.952a7.374,7.374,0,1,0,7.374-7.374,7.374,7.374,0,0,0-7.374,7.374" transform="translate(-411.371 -213.987)" fill="#ef622f"/>
        <path id="Caminho_117508" data-name="Caminho 117508" d="M1119.831,1016.113a6.775,6.775,0,1,0,6.776-6.775,6.775,6.775,0,0,0-6.776,6.775" transform="translate(-543.646 -214.148)" fill="#ef622f"/>
        <path id="Caminho_117509" data-name="Caminho 117509" d="M1194.486,1016.275a6.177,6.177,0,1,0,6.177-6.177,6.177,6.177,0,0,0-6.177,6.177" transform="translate(-675.92 -214.309)" fill="#ef622f"/>
        <path id="Caminho_117510" data-name="Caminho 117510" d="M1269.141,1016.436a5.578,5.578,0,1,0,5.578-5.578,5.578,5.578,0,0,0-5.578,5.578" transform="translate(-808.193 -214.47)" fill="#ef622f"/>
        <path id="Caminho_117511" data-name="Caminho 117511" d="M1343.8,1016.6a4.979,4.979,0,1,0,4.979-4.979,4.979,4.979,0,0,0-4.979,4.979" transform="translate(-940.467 -214.631)" fill="#ef622f"/>
        <path id="Caminho_117512" data-name="Caminho 117512" d="M1418.452,1016.758a4.38,4.38,0,1,0,4.381-4.38,4.38,4.38,0,0,0-4.381,4.38" transform="translate(-1072.741 -214.793)" fill="#ef622f"/>
        <path id="Caminho_117513" data-name="Caminho 117513" d="M1493.108,1016.92a3.782,3.782,0,1,0,3.782-3.782,3.782,3.782,0,0,0-3.782,3.782" transform="translate(-1205.016 -214.954)" fill="#ef622f"/>
        <path id="Caminho_117514" data-name="Caminho 117514" d="M1567.763,1017.081a3.183,3.183,0,1,0,3.183-3.183,3.183,3.183,0,0,0-3.183,3.183" transform="translate(-1337.288 -215.115)" fill="#ef622f"/>
        <path id="Caminho_117515" data-name="Caminho 117515" d="M1642.418,1017.242a2.584,2.584,0,1,0,2.583-2.584,2.584,2.584,0,0,0-2.583,2.584" transform="translate(-1469.561 -215.277)" fill="#ef622f"/>
        <path id="Caminho_117516" data-name="Caminho 117516" d="M1717.074,1017.4a1.985,1.985,0,1,0,1.985-1.985,1.985,1.985,0,0,0-1.985,1.985" transform="translate(-1601.837 -215.438)" fill="#ef622f"/>
        <path id="Caminho_117517" data-name="Caminho 117517" d="M1791.729,1017.564a1.387,1.387,0,1,0,1.387-1.387,1.387,1.387,0,0,0-1.387,1.387" transform="translate(-1734.11 -215.599)" fill="#ef622f"/>
        <path id="Caminho_117518" data-name="Caminho 117518" d="M1866.385,1017.726a.788.788,0,1,0,.788-.788.788.788,0,0,0-.788.788" transform="translate(-1866.385 -215.76)" fill="#ef622f"/>
        <path id="Caminho_117519" data-name="Caminho 117519" d="M0,1096.857A15.757,15.757,0,1,0,15.757,1081.1,15.756,15.756,0,0,0,0,1096.857" transform="translate(1440.463 -229.373)" fill="#ef622f"/>
        <path id="Caminho_117520" data-name="Caminho 117520" d="M74.655,1097.018a15.158,15.158,0,1,0,15.158-15.158,15.158,15.158,0,0,0-15.158,15.158" transform="translate(1308.189 -229.535)" fill="#ef622f"/>
        <path id="Caminho_117521" data-name="Caminho 117521" d="M149.311,1097.179a14.559,14.559,0,1,0,14.559-14.559,14.559,14.559,0,0,0-14.559,14.559" transform="translate(1175.914 -229.696)" fill="#ef622f"/>
        <path id="Caminho_117522" data-name="Caminho 117522" d="M223.966,1097.34a13.96,13.96,0,1,0,13.96-13.961,13.961,13.961,0,0,0-13.96,13.961" transform="translate(1043.641 -229.857)" fill="#ef622f"/>
        <path id="Caminho_117523" data-name="Caminho 117523" d="M298.622,1097.5a13.362,13.362,0,1,0,13.362-13.362,13.361,13.361,0,0,0-13.362,13.362" transform="translate(911.366 -230.018)" fill="#ef622f"/>
        <path id="Caminho_117524" data-name="Caminho 117524" d="M373.277,1097.663A12.763,12.763,0,1,0,386.04,1084.9a12.763,12.763,0,0,0-12.763,12.763" transform="translate(779.093 -230.179)" fill="#ef622f"/>
        <path id="Caminho_117525" data-name="Caminho 117525" d="M447.932,1097.824A12.164,12.164,0,1,0,460.1,1085.66a12.165,12.165,0,0,0-12.164,12.164" transform="translate(646.82 -230.341)" fill="#ef622f"/>
        <path id="Caminho_117526" data-name="Caminho 117526" d="M522.588,1097.985a11.565,11.565,0,1,0,11.565-11.565,11.565,11.565,0,0,0-11.565,11.565" transform="translate(514.545 -230.502)" fill="#ef622f"/>
        <path id="Caminho_117527" data-name="Caminho 117527" d="M597.243,1098.147a10.967,10.967,0,1,0,10.967-10.967,10.967,10.967,0,0,0-10.967,10.967" transform="translate(382.271 -230.663)" fill="#ef622f"/>
        <path id="Caminho_117528" data-name="Caminho 117528" d="M671.9,1098.308a10.368,10.368,0,1,0,10.368-10.368,10.368,10.368,0,0,0-10.368,10.368" transform="translate(249.998 -230.824)" fill="#ef622f"/>
        <path id="Caminho_117529" data-name="Caminho 117529" d="M746.554,1098.469a9.769,9.769,0,1,0,9.769-9.769,9.769,9.769,0,0,0-9.769,9.769" transform="translate(117.724 -230.986)" fill="#ef622f"/>
        <path id="Caminho_117530" data-name="Caminho 117530" d="M821.209,1098.63a9.17,9.17,0,1,0,9.17-9.17,9.17,9.17,0,0,0-9.17,9.17" transform="translate(-14.55 -231.147)" fill="#ef622f"/>
        <path id="Caminho_117531" data-name="Caminho 117531" d="M895.865,1098.792a8.572,8.572,0,1,0,8.572-8.572,8.572,8.572,0,0,0-8.572,8.572" transform="translate(-146.824 -231.308)" fill="#ef622f"/>
        <path id="Caminho_117532" data-name="Caminho 117532" d="M970.52,1098.953a7.973,7.973,0,1,0,7.973-7.973,7.973,7.973,0,0,0-7.973,7.973" transform="translate(-279.098 -231.469)" fill="#ef622f"/>
        <path id="Caminho_117533" data-name="Caminho 117533" d="M1045.175,1099.114a7.374,7.374,0,1,0,7.374-7.374,7.374,7.374,0,0,0-7.374,7.374" transform="translate(-411.371 -231.631)" fill="#ef622f"/>
        <path id="Caminho_117534" data-name="Caminho 117534" d="M1119.831,1099.276a6.775,6.775,0,1,0,6.776-6.775,6.775,6.775,0,0,0-6.776,6.775" transform="translate(-543.646 -231.792)" fill="#ef622f"/>
        <path id="Caminho_117535" data-name="Caminho 117535" d="M1194.486,1099.437a6.177,6.177,0,1,0,6.177-6.176,6.177,6.177,0,0,0-6.177,6.176" transform="translate(-675.92 -231.954)" fill="#ef622f"/>
        <path id="Caminho_117536" data-name="Caminho 117536" d="M1269.141,1099.6a5.578,5.578,0,1,0,5.578-5.578,5.579,5.579,0,0,0-5.578,5.578" transform="translate(-808.193 -232.115)" fill="#ef622f"/>
        <path id="Caminho_117537" data-name="Caminho 117537" d="M1343.8,1099.759a4.979,4.979,0,1,0,4.979-4.979,4.98,4.98,0,0,0-4.979,4.979" transform="translate(-940.467 -232.276)" fill="#ef622f"/>
        <path id="Caminho_117538" data-name="Caminho 117538" d="M1418.452,1099.92a4.38,4.38,0,1,0,4.381-4.38,4.38,4.38,0,0,0-4.381,4.38" transform="translate(-1072.741 -232.437)" fill="#ef622f"/>
        <path id="Caminho_117539" data-name="Caminho 117539" d="M1493.108,1100.082a3.782,3.782,0,1,0,3.782-3.782,3.782,3.782,0,0,0-3.782,3.782" transform="translate(-1205.016 -232.598)" fill="#ef622f"/>
        <path id="Caminho_117540" data-name="Caminho 117540" d="M1567.763,1100.243a3.183,3.183,0,1,0,3.183-3.183,3.183,3.183,0,0,0-3.183,3.183" transform="translate(-1337.288 -232.759)" fill="#ef622f"/>
        <path id="Caminho_117541" data-name="Caminho 117541" d="M1642.418,1100.4a2.584,2.584,0,1,0,2.583-2.584,2.584,2.584,0,0,0-2.583,2.584" transform="translate(-1469.561 -232.921)" fill="#ef622f"/>
        <path id="Caminho_117542" data-name="Caminho 117542" d="M1717.074,1100.565a1.985,1.985,0,1,0,1.985-1.985,1.985,1.985,0,0,0-1.985,1.985" transform="translate(-1601.837 -233.082)" fill="#ef622f"/>
        <path id="Caminho_117543" data-name="Caminho 117543" d="M1791.729,1100.727a1.387,1.387,0,1,0,1.387-1.387,1.387,1.387,0,0,0-1.387,1.387" transform="translate(-1734.11 -233.244)" fill="#ef622f"/>
        <path id="Caminho_117544" data-name="Caminho 117544" d="M1866.385,1100.888a.788.788,0,1,0,.788-.788.788.788,0,0,0-.788.788" transform="translate(-1866.385 -233.404)" fill="#ef622f"/>
      </g>
    </g>
  </g>
  <g id="Grupo_de_máscara_16" data-name="Grupo de máscara 16" clip-path="url(#clip-path-3)">
    <path id="Caminho_117090" data-name="Caminho 117090" d="M562.945,783.6,0,1064.639l577.827,105.035,93.845,660.6L970.3,1306.938l734.892,90.154L1250.728,900.564,1830.034,28.779,983.956,551.75,509.443,0Z" transform="translate(-596.769 -311.787)" fill="#01062e"/>
  </g>
</svg>
